<?xml version="1.0" encoding="UTF-8"?>
<svg width="192px" height="39px" viewBox="0 0 192 39" version="1.1" xmlns="http://www.w3.org/2000/svg" xmlns:xlink="http://www.w3.org/1999/xlink">
    <!-- Generator: sketchtool 52.3 (67297) - http://www.bohemiancoding.com/sketch -->
    <title>4EA29AD0-1361-4694-B2B7-CD9EC5F6B774</title>
    <desc>Created with sketchtool.</desc>
    <defs>
        <linearGradient x1="27.6717827%" y1="49.9909565%" x2="143.854752%" y2="49.9909565%" id="linearGradient-1">
            <stop stop-color="#FC4C44" offset="0%"></stop>
            <stop stop-color="#F74C46" offset="11%"></stop>
            <stop stop-color="#E94B4E" offset="24%"></stop>
            <stop stop-color="#D04A5A" offset="39%"></stop>
            <stop stop-color="#AF486A" offset="54%"></stop>
            <stop stop-color="#844580" offset="69%"></stop>
            <stop stop-color="#50429A" offset="85%"></stop>
            <stop stop-color="#193FB5" offset="100%"></stop>
        </linearGradient>
        <linearGradient x1="38.8364692%" y1="126.907493%" x2="50.3238233%" y2="59.2974773%" id="linearGradient-2">
            <stop stop-color="#193FB5" offset="0%"></stop>
            <stop stop-color="#3A41A4" offset="8%"></stop>
            <stop stop-color="#6D448B" offset="20%"></stop>
            <stop stop-color="#994675" offset="34%"></stop>
            <stop stop-color="#BD4863" offset="47%"></stop>
            <stop stop-color="#D84A56" offset="60%"></stop>
            <stop stop-color="#EC4B4C" offset="73%"></stop>
            <stop stop-color="#F84C46" offset="86%"></stop>
            <stop stop-color="#FC4C44" offset="100%"></stop>
        </linearGradient>
    </defs>
    <g id="Page-1" stroke="none" stroke-width="1" fill="none" fill-rule="evenodd">
        <g id="Player" transform="translate(-49.000000, -53.000000)">
            <g id="eduweb_logo_podst" transform="translate(49.000000, 53.000000)">
                <path d="M111.059157,22.1653316 C111.059157,24.8963265 109.623904,26.4632908 107.121208,26.4632908 C104.618511,26.4632908 103.183259,24.8963265 103.183259,22.1653316 L103.183259,12.2521684 L98.5686622,12.2521684 L98.5686622,22.5991071 C98.5686622,28.5824235 102.986361,30.7144898 107.121208,30.7144898 C111.256054,30.7144898 115.653764,28.5824235 115.653764,22.5991071 L115.653764,12.2521684 L111.056158,12.2521684 L111.059157,22.1653316 Z" id="Path" fill="#FFFFFF"></path>
                <path d="M89.8821864,13.0978316 L89.6263196,12.9605357 C88.1021747,12.1549252 86.3994945,11.7424086 84.673899,11.7606888 C79.1047996,11.7606888 74.904987,15.8397704 74.904987,21.2380867 C74.904987,26.6364031 79.1028006,30.7154847 84.673899,30.7154847 C87.102634,30.7154847 89.2715044,29.9454337 90.9486309,28.6321684 C91.6549362,29.9170905 93.0093523,30.7159436 94.4807913,30.7154849 L94.4807913,3.33987245 L89.8831858,3.33987245 L89.8821864,13.0978316 Z M84.673899,26.4642857 C81.7424258,26.4642857 79.6145341,24.2665561 79.6145341,21.2390816 C79.6145341,18.2116071 81.7424258,16.0178571 84.673899,16.0178571 C87.6053722,16.0178571 89.7532535,18.2066327 89.7532535,21.2380867 C89.7532535,24.2695408 87.6163665,26.4642857 84.673899,26.4642857 Z" id="Shape" fill="#FFFFFF" fill-rule="nonzero"></path>
                <path d="M62.8672566,11.7606888 C57.4001041,11.7606888 53.7260177,15.5920408 53.7260177,21.2947959 C53.7260177,26.929898 57.4990526,30.7154847 63.1141281,30.7154847 C66.1925247,30.7154847 68.7501926,29.8340051 70.7191671,28.0949235 L68.0425612,25.1709184 C66.7152525,26.2344643 64.9931494,26.8622449 63.4019781,26.8622449 C60.7513587,26.8622449 59.0042686,25.4624235 58.4995315,22.9204592 L58.4575534,22.7135204 L71.5747215,22.7135204 C71.6196981,22.3066071 71.6496825,21.7186224 71.6496825,21.2211735 C71.6316918,15.5621939 68.1035294,11.7606888 62.8672566,11.7606888 Z M62.8292764,15.6726276 C65.0441229,15.6726276 66.5273503,17.0207143 67.0080999,19.4701531 L58.5125247,19.4701531 C58.9972723,17.0207143 60.5274753,15.6726276 62.8322749,15.6726276 L62.8292764,15.6726276 Z" id="Shape" fill="#FFFFFF" fill-rule="nonzero"></path>
                <polygon id="Path" fill="#FFFFFF" points="140.612764 25.5231122 136.299011 12.2521684 131.324602 12.2521684 127.068818 25.4683929 123.009932 12.2521684 118.095492 12.2521684 124.213306 30.2429082 129.589505 30.2429082 133.763332 17.4644388 137.977137 30.2429082 143.391317 30.2429082 149.509131 12.2521684 144.69064 12.2521684"></polygon>
                <path d="M182.13114,11.7606888 C180.405877,11.7425328 178.703551,12.155047 177.179719,12.9605357 L176.923852,13.0978316 L176.923852,3.33987245 L172.326247,3.33987245 L172.326247,30.715485 C173.797446,30.7160113 175.151597,29.9170884 175.857408,28.6321684 C177.534534,29.9454337 179.703404,30.7154847 182.13214,30.7154847 C187.701239,30.7154847 191.901052,26.6364031 191.901052,21.2380867 C191.901052,15.8397704 187.702238,11.7606888 182.13114,11.7606888 Z M182.13114,26.4632908 C179.189672,26.4632908 177.053784,24.2655612 177.053784,21.2380867 C177.053784,18.2106122 179.189672,16.0128827 182.13114,16.0128827 C185.072608,16.0128827 187.190505,18.2106122 187.190505,21.2380867 C187.190505,24.2655612 185.062613,26.4642857 182.13114,26.4642857 L182.13114,26.4632908 Z" id="Shape" fill="#FFFFFF" fill-rule="nonzero"></path>
                <path d="M160.278522,11.7606888 C154.81037,11.7606888 151.137283,15.5920408 151.137283,21.2947959 C151.137283,26.929898 154.909318,30.7154847 160.525393,30.7154847 C163.60279,30.7154847 166.160458,29.8340051 168.130432,28.0949235 L165.450828,25.1709184 C164.12252,26.2344643 162.401416,26.8622449 160.810245,26.8622449 C158.158626,26.8622449 156.412535,25.4624235 155.906799,22.9204592 L155.86582,22.7135204 L168.982988,22.7135204 C169.027965,22.3095918 169.057949,21.7235969 169.057949,21.2211735 C169.038959,15.5621939 165.513795,11.7606888 160.278522,11.7606888 Z M160.240541,15.6726276 C162.454388,15.6726276 163.938615,17.0207143 164.418365,19.4701531 L155.928787,19.4701531 C156.405539,17.0207143 157.935742,15.6726276 160.240541,15.6726276 Z" id="Shape" fill="#FFFFFF" fill-rule="nonzero"></path>
                <path d="M35.8063509,19.5417857 C35.8063509,19.5228827 35.8063509,19.5039796 35.8063509,19.4850765 L5.80897449,19.4850765 L0,25.2704082 L0,33.8265306 C0,37.7414541 4.14584071,40.2277041 7.54307132,38.3493367 L33.1557314,24.1829847 C34.8029603,23.2767229 35.8206239,21.5465331 35.8083498,19.6731122 C35.8083498,19.6293367 35.8073503,19.5855612 35.8063509,19.5417857 Z" id="Path" fill="url(#linearGradient-1)"></path>
                <path d="M35.8033524,19.4850765 C35.7598029,17.6835772 34.7658394,16.0382197 33.1877147,15.1552806 L7.57405518,0.756122449 C4.17582509,-1.15408163 0,1.33017857 0,5.26102041 L0,13.7037245 L5.80897449,19.4850765 L35.8033524,19.4850765 Z" id="Path" fill="url(#linearGradient-2)"></path>
            </g>
        </g>
    </g>
</svg>