<?xml version="1.0" encoding="utf-8"?>
<!-- Generator: Adobe Illustrator 23.0.1, SVG Export Plug-In . SVG Version: 6.00 Build 0)  -->
<svg version="1.1" id="Layer_1" xmlns="http://www.w3.org/2000/svg" xmlns:xlink="http://www.w3.org/1999/xlink" x="0px" y="0px"
	 viewBox="0 0 220 220" style="enable-background:new 0 0 220 220;" xml:space="preserve">
<style type="text/css">
	.st0{opacity:0.29;fill:#E6E6E6;enable-background:new    ;}
	.st1{clip-path:url(#SVGID_2_);}
	.st2{opacity:0.46;fill:#E6E6E6;enable-background:new    ;}
	.st3{fill:#FFC600;}
	.st4{fill:url(#SVGID_3_);}
	.st5{fill:#FBA200;}
	.st6{opacity:0.3;}
	.st7{fill:url(#SVGID_4_);}
	.st8{fill:#FFF8B3;}
	.st9{fill:#FFE658;}
	.st10{fill:url(#SVGID_5_);}
	.st11{fill:#3015DF;}
</style>
<title>certyfikaty_i_praca</title>
<g>
	<g id="Layer_1-2">
		<circle class="st0" cx="110" cy="110" r="110"/>
		<g>
			<defs>
				<circle id="SVGID_1_" cx="110" cy="110" r="110"/>
			</defs>
			<clipPath id="SVGID_2_">
				<use xlink:href="#SVGID_1_"  style="overflow:visible;"/>
			</clipPath>
			<g class="st1">
				<path class="st2" d="M159.1,257.6c-10.1,5.2-20.6,10.6-31.9,11.3c-9.9,0.6-19.6-2.4-29-5.3l-37.4-11.7c-6.3-2-12.7-4-18.1-7.7
					s-9.8-9.5-10.2-16.1c-0.5-9.2,6.5-16.9,13-23.4s13.5-14.3,12.7-23.5c-0.9-11-12.2-18.1-16.3-28.3c-4.3-11.1,0.8-24,9.4-32.3
					s19.9-12.8,30.9-17.3s22.3-9.4,30.4-18.2c6-6.5,10-14.7,16.1-21c15.5-15.9,41-16.2,56.9-0.7c5.5,5.4,9.4,12.2,11.1,19.7
					c4.4,19.2-5.4,38.4-14.5,55.8c-2.9,5.6-5.9,11.7-5.4,18c0.6,8.4,7,15,12.1,21.7c12.9,16.8,19.6,37.5,19,58.7
					c-0.3,9.2-5.4,22.9-16.9,17.8c-4.1-1.8-7.4-3.9-12.1-3.9C172,251.1,165.2,254.4,159.1,257.6z"/>
			</g>
		</g>
		<path class="st3" d="M135.8,119.9c14.7,0,27.8-8.2,33.4-20.9l18.1-41c2.3-5.3,1.8-11.4-1.4-16.2c-3.6-5.4-9.7-8.6-16.1-8.5h-30.1
			v6h30.1c4.5-0.1,8.7,2.1,11.1,5.8c2.1,3.1,2.4,7.1,0.9,10.5l-18.1,40.9c-4.7,10.6-15.7,17.4-28,17.4V119.9z"/>
		
			<linearGradient id="SVGID_3_" gradientUnits="userSpaceOnUse" x1="97.09" y1="118.1398" x2="124.25" y2="118.1398" gradientTransform="matrix(1 0 0 -1 0 269.8898)">
			<stop  offset="0" style="stop-color:#FFFFC1"/>
			<stop  offset="0" style="stop-color:#FFFDBA"/>
			<stop  offset="1.000000e-02" style="stop-color:#FFF69C"/>
			<stop  offset="2.000000e-02" style="stop-color:#FFF083"/>
			<stop  offset="4.000000e-02" style="stop-color:#FFEC70"/>
			<stop  offset="5.000000e-02" style="stop-color:#FFE862"/>
			<stop  offset="7.000000e-02" style="stop-color:#FFE75A"/>
			<stop  offset="0.11" style="stop-color:#FFE658"/>
			<stop  offset="0.51" style="stop-color:#FFC600"/>
			<stop  offset="0.67" style="stop-color:#FDB300"/>
			<stop  offset="0.83" style="stop-color:#FBA600"/>
			<stop  offset="0.98" style="stop-color:#FBA200"/>
		</linearGradient>
		<rect x="97.1" y="124.2" class="st4" width="27.2" height="55"/>
		<polygon class="st5" points="97.1,139.9 124.2,143.8 124.2,124.2 97.1,124.2 		"/>
		<polygon class="st5" points="139.8,33.3 163.4,33.3 162.8,39.3 139.8,39.3 		"/>
		<g class="st6">
			<path class="st5" d="M152.1,116.2c-5.1,2.4-10.7,3.6-16.3,3.7V114c7.3,0,14.4-2.5,20.1-7.1C155,110.2,153.7,113.3,152.1,116.2z"
				/>
		</g>
		<path class="st3" d="M84.8,119.9c-14.7,0-27.8-8.2-33.4-20.9L33.3,58c-2.4-5.3-1.9-11.4,1.3-16.2c3.6-5.4,9.7-8.6,16.1-8.5h30.1v6
			H50.7c-4.5-0.1-8.7,2.1-11.2,5.8c-2.1,3.1-2.4,7.1-0.9,10.5l18.1,40.9c4.7,10.6,15.7,17.4,28,17.4V119.9z"/>
		<g class="st6">
			<polygon class="st5" points="80.8,33.3 57.2,33.3 57.8,39.3 80.8,39.3 			"/>
		</g>
		<g class="st6">
			<path class="st5" d="M68.5,116.2c5.1,2.4,10.7,3.7,16.3,3.7V114c-7.3,0-14.4-2.5-20.1-7.1C65.6,110.2,66.9,113.3,68.5,116.2z"/>
		</g>
		
			<linearGradient id="SVGID_4_" gradientUnits="userSpaceOnUse" x1="60.24" y1="187.1898" x2="161.08" y2="187.1898" gradientTransform="matrix(1 0 0 -1 0 269.8898)">
			<stop  offset="0" style="stop-color:#FFFFC1"/>
			<stop  offset="0" style="stop-color:#FFFDBA"/>
			<stop  offset="1.000000e-02" style="stop-color:#FFF69C"/>
			<stop  offset="2.000000e-02" style="stop-color:#FFF083"/>
			<stop  offset="4.000000e-02" style="stop-color:#FFEC70"/>
			<stop  offset="5.000000e-02" style="stop-color:#FFE862"/>
			<stop  offset="7.000000e-02" style="stop-color:#FFE75A"/>
			<stop  offset="0.11" style="stop-color:#FFE658"/>
			<stop  offset="0.51" style="stop-color:#FFC600"/>
			<stop  offset="0.67" style="stop-color:#FDB300"/>
			<stop  offset="0.83" style="stop-color:#FBA600"/>
			<stop  offset="0.98" style="stop-color:#FBA200"/>
		</linearGradient>
		<path class="st7" d="M110.4,139.4L110.4,139.4c23,0,42.2-17.7,44-40.6l6.5-70.4l0.2-2.2H60.2l6.1,72.4
			C68,121.5,87.2,139.3,110.4,139.4z"/>
		<path class="st8" d="M65.2,26l6.1,72.4c1.6,22.1,19.4,39.6,41.6,40.8c-0.8,0.1-1.6,0.1-2.5,0.1l0,0c-23.1,0-42.3-17.9-44-40.9
			L60.2,26H65.2z"/>
		<path class="st5" d="M146.4,98.7l6.6-70.4l0.2-2.2h7.9l-0.2,2.2l-6.5,70.4c-1.8,22.9-21,40.6-44,40.6l0,0c-1.3,0-2.7-0.1-4-0.2
			C127.8,137.2,144.7,120.2,146.4,98.7z"/>
		<path class="st9" d="M103.8,138.8c-5.9-0.9-11.6-3-16.7-6.1c0-0.4-0.4-2.5-0.9-5.3c-3.1-17-2.9-34.4,0.4-51.3l2.1-10.7
			c0.9-10.5-0.7-21.1-4.6-30.9l-2.7-6.8h17.7c4.3,5.2,6.9,11.6,7.3,18.3c0.6,14.1-10.2,34-9.3,53.9
			C97.7,113.9,103.3,127.9,103.8,138.8z"/>
		<path class="st3" d="M125.7,157.3H95.6c-1.5,0-2.6-1.2-2.6-2.6v-5.8c0-1.5,1.2-2.6,2.6-2.6h30.1c1.5,0,2.6,1.2,2.6,2.6v5.8
			C128.4,156.1,127.2,157.3,125.7,157.3z"/>
		<path class="st3" d="M125.9,174.2H95.4c-1.3,0-2.4-1.1-2.4-2.4v-6.3c0-1.3,1.1-2.4,2.4-2.4h30.6c1.3,0,2.4,1.1,2.4,2.4v6.3
			C128.4,173.1,127.3,174.2,125.9,174.2z"/>
		<path class="st5" d="M79.8,183.3L79.8,183.3c0-5,4.1-9.1,9.1-9.1h43.5c5,0,9.1,4.1,9.1,9.1H79.8z"/>
		<path class="st3" d="M141.5,183.3H79.8c0-1.1,0.2-2.2,0.6-3.2h60.6C141.3,181.1,141.5,182.2,141.5,183.3z"/>
		<path class="st9" d="M128.4,151.8v0.9c0,2.6-2.1,4.6-4.6,4.6H97.6c-2.5,0-4.6-2.1-4.6-4.6v-0.9H128.4z"/>
		<path class="st9" d="M128.4,168.6v0.9c0,2.6-2.1,4.6-4.6,4.6H97.6c-2.5,0-4.6-2.1-4.6-4.7v-0.9L128.4,168.6z"/>
		<g class="st6">
			<polygon class="st5" points="160.9,28.3 160.2,35.2 60.7,31.7 60.2,26 161.1,26 			"/>
		</g>
		<rect x="56.6" y="23.2" class="st3" width="108.2" height="6.5"/>
		<rect x="79.3" y="23.2" class="st9" width="21.5" height="6.5"/>
		<rect x="67.8" y="23.2" class="st9" width="3.7" height="6.5"/>
		
			<linearGradient id="SVGID_5_" gradientUnits="userSpaceOnUse" x1="63.48" y1="68.6998" x2="156.83" y2="68.6998" gradientTransform="matrix(1 0 0 -1 0 269.8898)">
			<stop  offset="0" style="stop-color:#3130EE"/>
			<stop  offset="0.42" style="stop-color:#5954FF"/>
			<stop  offset="1" style="stop-color:#6774FF"/>
		</linearGradient>
		<path class="st10" d="M156,219.1H64.3c-0.4,0-0.8-0.4-0.8-0.8v-34.2c0-0.4,0.4-0.8,0.8-0.8H156c0.4,0,0.8,0.4,0.8,0.8v34.2
			C156.8,218.7,156.5,219.1,156,219.1z"/>
		<path class="st11" d="M102.5,210.1c-2-0.9-3.6-2.6-5.7-3c-1.9-0.4-3.9,0.4-5.6,1.3c-1.7,1-3.5,1.8-5.5,2.1c-2,0.2-4.2-0.7-4.8-2.6
			c-0.9-3.3,3.8-6.7,2.2-9.8c-0.9-1.8-3.4-2-5.4-2s-4.5-0.3-5.3-2.2c-1.1-2.6,2-5.1,2-7.9c0-1-0.4-2-1.1-2.8h-8.9
			c-0.5,0-0.9,0.4-0.9,0.9l0,0v34c0,0.5,0.4,0.9,0.9,0.9h59.7c-3.4-3.4-7-6.9-11.7-7.8C109.2,210.7,105.6,211.4,102.5,210.1z"/>
	</g>
</g>
</svg>
