<?xml version="1.0" encoding="utf-8"?>
<!-- Generator: Adobe Illustrator 23.0.1, SVG Export Plug-In . SVG Version: 6.00 Build 0)  -->
<svg version="1.1" id="Layer_1" xmlns="http://www.w3.org/2000/svg" xmlns:xlink="http://www.w3.org/1999/xlink" x="0px" y="0px"
	 viewBox="0 0 238 226.7" style="enable-background:new 0 0 238 226.7;" xml:space="preserve">
<style type="text/css">
	.st0{opacity:0.29;fill:#E6E6E6;enable-background:new    ;}
	.st1{clip-path:url(#SVGID_2_);}
	.st2{opacity:0.46;fill:#E6E6E6;enable-background:new    ;}
	.st3{fill:url(#SVGID_3_);}
	.st4{fill:#D8D5D2;}
	.st5{fill:#F4F5F7;}
	.st6{fill:#EAEBEF;}
	.st7{fill:#7035B1;}
	.st8{fill:#71EBB5;}
	.st9{fill:url(#SVGID_4_);}
	.st10{fill:url(#SVGID_5_);}
</style>
<title>Intuicyjne_notatki</title>
<g>
	<g id="Layer_1-2">
		<circle class="st0" cx="128" cy="116.7" r="110"/>
		<g>
			<defs>
				<circle id="SVGID_1_" cx="128" cy="116.7" r="110"/>
			</defs>
			<clipPath id="SVGID_2_">
				<use xlink:href="#SVGID_1_"  style="overflow:visible;"/>
			</clipPath>
			<g class="st1">
				<path class="st2" d="M-11,47.1C-7.6,36.2-4,25,3.5,16.5C10.1,9.1,19,4.3,27.8-0.2l34.7-18.2c5.8-3,11.8-6.1,18.2-7.3
					s13.7-0.2,18.6,4.2c6.9,6.1,7.4,16.5,7.4,25.8s0.6,19.7,7.6,25.6c8.4,7.1,21.4,4.1,31.6,8.5c10.9,4.8,16.4,17.6,16.2,29.5
					s-5,23.1-9.6,34.1s-9.1,22.4-8.6,34.3c0.3,8.8,3.3,17.4,3.4,26.2c0.3,22.2-17.5,40.5-39.7,40.8c-7.7,0.1-15.3-2-21.8-6.1
					c-16.7-10.4-23.3-31-29.2-49.7c-1.9-6.1-4.1-12.4-8.9-16.6c-6.4-5.5-15.5-5.7-23.9-6.8c-21-2.8-40.3-12.7-54.8-28.1
					c-6.3-6.7-12.4-20-0.6-24.5c4.2-1.6,8-2.5,11.3-5.8C-15.6,60.8-13.1,53.6-11,47.1z"/>
			</g>
		</g>
		
			<linearGradient id="SVGID_3_" gradientUnits="userSpaceOnUse" x1="90.9753" y1="119.8489" x2="217.3553" y2="44.1089" gradientTransform="matrix(1 0 0 -1 0 201.5601)">
			<stop  offset="0" style="stop-color:#7035B1"/>
			<stop  offset="0.98" style="stop-color:#8552BF"/>
		</linearGradient>
		<path class="st3" d="M202.7,15.5H33.9c-10.1,0-18.3,8.2-18.3,18.3v128.4c0,10.1,8.2,18.3,18.3,18.4h168.8
			c10.1,0,18.3-8.2,18.3-18.4V33.9C221,23.7,212.8,15.5,202.7,15.5z"/>
		<path class="st4" d="M162.4,1H19.6C11,1,4,7.9,4,16.5c0,0,0,0,0,0v108.7c0,8.6,7,15.5,15.6,15.5c0,0,0,0,0,0h142.9
			c8.6,0,15.5-7,15.5-15.5V16.5C178,8,171,1,162.4,1z"/>
		<path class="st5" d="M158.4,0H15.6C7,0,0,6.9,0,15.5c0,0,0,0,0,0v108.7c0,8.6,7,15.5,15.6,15.5c0,0,0,0,0,0h142.9
			c8.6,0,15.5-7,15.5-15.5V15.5C174,7,167,0,158.4,0z"/>
		<path class="st6" d="M170.9,127.4l-11.5-5.6c-5.3-2.6-9.9-6.2-13.7-10.7l-3.6-4.3c-6.5-7.8-15.6-12.9-25.7-14.4l0,0
			c-15.8-2.3-29.3-12.6-35.7-27.2l-9.7-22.1c-5.6-10.3-16-17-27.6-17.9l0,0c-14-1-26-10.4-30.3-23.8c-0.2-0.4-0.3-0.8-0.3-1.2
			C5.3,1.6,0,8,0,15.5v108.7c0,8.6,7,15.5,15.5,15.5c0,0,0,0,0,0h142.9c7.5,0,13.9-5.3,15.3-12.7
			C172.8,127.3,171.8,127.4,170.9,127.4L170.9,127.4z"/>
		<path class="st7" d="M87,59c-6.9,0-12.4,5.6-12.4,12.4S80.1,83.9,87,83.9c6.9,0,12.4-5.6,12.4-12.4l0,0C99.4,64.6,93.8,59,87,59z"
			/>
		<path class="st7" d="M51,59c-6.9,0-12.4,5.6-12.4,12.4S44.1,83.9,51,83.9s12.4-5.6,12.4-12.4l0,0C63.4,64.6,57.8,59,51,59z"/>
		<path class="st7" d="M124.3,59c-6.9,0-12.4,5.6-12.4,12.4s5.6,12.4,12.4,12.4s12.4-5.6,12.4-12.4v0C136.7,64.6,131.1,59,124.3,59z
			"/>
		<path class="st8" d="M107.5,105.6h42c4.7,0,8.5,3.8,8.5,8.5l0,0c0,4.7-3.8,8.5-8.5,8.5h-42c-4.7,0-8.5-3.8-8.5-8.5l0,0
			C99,109.4,102.8,105.6,107.5,105.6z"/>
		<path class="st7" d="M116,111H141c1.7,0,3.1,1.4,3.1,3.1v0c0,1.7-1.4,3.1-3.1,3.1H116c-1.7,0-3.1-1.4-3.1-3.1v0
			C112.9,112.4,114.3,111,116,111z"/>
		
			<linearGradient id="SVGID_4_" gradientUnits="userSpaceOnUse" x1="63.1482" y1="82.0998" x2="176.0482" y2="-12.6402" gradientTransform="matrix(1 0 0 -1 0 201.5601)">
			<stop  offset="0" style="stop-color:#63D6A0"/>
			<stop  offset="1" style="stop-color:#AAFFCE"/>
		</linearGradient>
		<path class="st9" d="M15.6,160.6v1.6c0,10.1,8.2,18.3,18.3,18.4h168.8c10.1,0,18.3-8.2,18.3-18.4v-1.6H15.6z"/>
		<path class="st7" d="M34.5,166.6h169c1.9,0,3.5,1.6,3.5,3.5l0,0c0,1.9-1.6,3.5-3.5,3.5h-169c-1.9,0-3.5-1.6-3.5-3.5l0,0
			C31,168.2,32.6,166.6,34.5,166.6z"/>
		<circle class="st5" cx="61.5" cy="170.1" r="6.5"/>
		
			<linearGradient id="SVGID_5_" gradientUnits="userSpaceOnUse" x1="58" y1="31.43" x2="65" y2="31.43" gradientTransform="matrix(1 0 0 -1 0 201.5601)">
			<stop  offset="1.000000e-02" style="stop-color:#3130EE"/>
			<stop  offset="0.42" style="stop-color:#5954FF"/>
			<stop  offset="1" style="stop-color:#6774FF"/>
		</linearGradient>
		<circle class="st10" cx="61.5" cy="170.1" r="3.5"/>
	</g>
</g>
</svg>
