<?xml version="1.0" encoding="utf-8"?>
<!-- Generator: Adobe Illustrator 23.0.1, SVG Export Plug-In . SVG Version: 6.00 Build 0)  -->
<svg version="1.1" id="Layer_1" xmlns="http://www.w3.org/2000/svg" xmlns:xlink="http://www.w3.org/1999/xlink" x="0px" y="0px"
	 viewBox="0 0 225 227.3" style="enable-background:new 0 0 225 227.3;" xml:space="preserve">
<style type="text/css">
	.st0{opacity:0.29;fill:#E6E6E6;enable-background:new    ;}
	.st1{clip-path:url(#SVGID_2_);}
	.st2{opacity:0.46;fill:#E6E6E6;enable-background:new    ;}
	.st3{fill:#3015DF;}
	.st4{fill:url(#SVGID_3_);}
	.st5{fill:#FFFFFF;}
	.st6{fill:#EAEBEF;}
	.st7{fill:url(#SVGID_4_);}
	.st8{fill:#FBA200;}
	.st9{fill:url(#SVGID_5_);}
</style>
<title>lista_zadan</title>
<g>
	<g id="Layer_1-2">
		<circle class="st0" cx="112.5" cy="112.5" r="112.5"/>
		<g>
			<defs>
				<circle id="SVGID_1_" cx="112.5" cy="112.5" r="112.5"/>
			</defs>
			<clipPath id="SVGID_2_">
				<use xlink:href="#SVGID_1_"  style="overflow:visible;"/>
			</clipPath>
			<g class="st1">
				<path class="st2" d="M69.1,68.8c-12.6-0.1-26.8-0.3-35.6,8.3c-7.7,7.5-8.6,19.3-15.4,27.5c-8.1,9.7-22.4,12-35.4,12.4
					s-26.7-0.1-38,6c-11.5,6.3-18.4,19.4-16.8,32c2.2,17,18.4,31.3,16.6,48.4c-0.9,8.8-6.6,16.5-12.7,23.1s-13,12.8-17.4,20.7
					c-4.4,7.8-5.6,18-0.3,25.2c6.8,9.3,21.5,9.9,32.3,5.2s18.9-13.5,27.9-20.9s20.3-13.8,32-12.3c17.1,2.1,26.9,19.1,40.4,29.3
					c13.3,10,31.1,13.5,48,11.9s32.8-8.1,47.4-16.4c11.5-6.5,22.5-14.3,30.3-24.6c7.9-10.3,12.4-23.4,10-35.9s-12.5-24-25.7-26.3
					c-5.4-0.9-11-0.4-16.4-0.9s-11.2-2.4-14.2-6.8c-4.4-6.5-0.5-15.5,5.7-20.4s14.2-7.1,21.4-10.6c12.8-6.2,23.1-16.7,29.1-29.6
					c2.8-6.2,4.4-13,3.5-19.7s-5-13.2-11.2-16.4c-6.5-3.2-14.9-2.8-20.1-7.7c-4.6-4.3-5.1-11.1-7.9-16.6
					c-4.1-7.8-13.7-12.6-22.7-11.3c-11.4,1.6-14.4,10.8-21.9,17.3C93.1,67.4,80.7,68.9,69.1,68.8z"/>
			</g>
		</g>
		<path class="st3" d="M200.1,41.3v141.8c-34.5,46.7-99.7,58.1-148,25.8c-3.6-2.4-7-5-10.2-7.7c-6.3-5.4-12-11.4-16.9-18.1V41.3
			c0-8.9,7.2-16.2,16.2-16.2c0,0,0,0,0,0H184C192.9,25.2,200.1,32.4,200.1,41.3z"/>
		<path class="st3" d="M61,191.3c-2.3-3.7-6.2-6.1-8.9-9.6c-5.9-7.8-4.2-18.9-1.1-28.1c1.2-3.6,2.6-7.2,2.8-11.1s-3.2-6.9-5-10.2
			c-1.7-3.1-0.4-6.9,1.2-10s3.9-6.1,4-9.6c0.5-9.3-12.7-14.9-12.5-24.2c0.1-7.3,8.5-12.9,7.6-20.1c-0.4-3.5-3.1-6.4-4-9.8
			c-1.6-5.8,1.7-11.8,7.5-13.4c1.3-0.4,2.7-0.5,4-0.4c3.4,0.3,6.5,2.2,9.9,2.4c3.2,0.2,6.2-1.2,9.3-1.6c13.4-1.8,25,13.2,38.3,10.7
			c5.8-1.1,10.6-5.4,16.3-6.8c4.7-1.2,9.7-0.3,14.6-0.1s16.8-1.6,20.3-5c4.9-4.6-7-18.5-7.5-19.1H41.1c-8.9,0-16.2,7.2-16.2,16.2
			c0,0,0,0,0,0v141.9c4.9,6.7,10.6,12.7,16.9,18.1c3.2,2.8,6.7,5.4,10.2,7.7c5.2,3.5,10.8,6.6,16.6,9.1l0.8,0.3
			c-2.2-5.1-3.9-10.4-5-15.9C63.6,198.7,63,194.7,61,191.3z"/>
		
			<linearGradient id="SVGID_3_" gradientUnits="userSpaceOnUse" x1="41.429" y1="159.6481" x2="200.05" y2="159.6481" gradientTransform="matrix(1 0 0 -1 0 285.8898)">
			<stop  offset="0" style="stop-color:#3130EE"/>
			<stop  offset="0.6" style="stop-color:#5954FF"/>
		</linearGradient>
		<path class="st4" d="M183.9,25.1h-26.1c0.5,0.6,15.6,7.9,7.5,19.1c-2.9,4-15.4,5.2-20.3,5s-9.8-1.1-14.6,0.1
			c-5.7,1.4-10.5,5.8-16.3,6.8c-13.3,2.5-24.9-12.5-38.3-10.7c-3.1,0.4-6.2,1.8-9.3,1.6c-3.4-0.2-6.5-2.1-9.9-2.4
			c-6-0.6-11.3,3.8-11.8,9.8c-0.1,1.3,0,2.7,0.4,4c1,3.4,3.6,6.3,4,9.8c0.9,7.2-7.5,12.8-7.6,20.1c-0.1,9.3,13.1,14.9,12.5,24.2
			c-0.2,3.5-2.4,6.5-4,9.6s-2.9,6.9-1.2,10c1.8,3.4,5.2,6.4,5,10.2s-1.6,7.4-2.8,11.1c-3.1,9.3-4.8,20.4,1.1,28.1
			c2.6,3.5,6.6,5.9,8.9,9.6c2.1,3.4,2.6,7.4,3.4,11.2c1.1,5.5,2.8,10.8,5,15.9c46.5,20,100.6,5.4,130.7-35.3V41.3
			C200.1,32.4,192.8,25.2,183.9,25.1z"/>
		<path class="st5" d="M183.4,72.1v129.5c-37,31.7-90.6,34.8-131.1,7.7c-3.6-2.4-7-5-10.2-7.7V72.1c0-5.6,4.6-10.2,10.2-10.2h121
			C178.9,61.9,183.4,66.4,183.4,72.1z"/>
		<path class="st6" d="M72.8,211.5c-0.8-4.2,2.1-8.2,1.9-12.5c-0.2-5.1-4.7-8.9-9.1-11.4s-9.4-4.9-11.9-9.3
			c-2.8-4.9-1.6-11.2,0.8-16.3s6-9.6,8.2-14.9s2.9-11.6-0.5-16.2c-1.9-2.6-4.9-4.3-6.5-7.1c-2.2-3.8-1.3-8.6,0.4-12.7
			s4-7.9,4.7-12.2c0.8-5.3-0.9-10.6-2.7-15.6S54.7,73,55.3,67.7c0.2-2.1,1-4.1,2.1-5.9h-5.1c-5.6,0-10.2,4.6-10.2,10.2v129.5
			c3.2,2.8,6.7,5.4,10.2,7.7c5.2,3.5,10.8,6.6,16.6,9.1c4.1,1.8,8.4,3.4,12.7,4.6l-4.6-5C75.2,216.1,73.3,214,72.8,211.5z"/>
		
			<linearGradient id="SVGID_4_" gradientUnits="userSpaceOnUse" x1="69.15" y1="247.2398" x2="155.85" y2="247.2398" gradientTransform="matrix(1 0 0 -1 0 285.8898)">
			<stop  offset="0.49" style="stop-color:#FFC600"/>
			<stop  offset="0.89" style="stop-color:#FFE658"/>
		</linearGradient>
		<path class="st7" d="M155.9,29.5v28.6c0,5.4-4.3,9.7-9.7,9.7l0,0H78.8c-5.4,0-9.7-4.3-9.7-9.7l0,0V29.5c0-5.4,4.3-9.7,9.7-9.7l0,0
			h16.9c3.2-6.3,9.6-10.3,16.7-10.3c1.1,0,2.2,0.1,3.3,0.3c5,0.9,9.5,3.8,12.3,8.1c0,0.1,0.1,0.1,0.1,0.2c0.3,0.4,0.5,0.8,0.7,1.2
			c0.1,0.2,0.2,0.4,0.3,0.5h16.9C151.5,19.8,155.9,24.1,155.9,29.5L155.9,29.5z"/>
		<path class="st8" d="M122.9,62.5c-6-3.1-12.1-6.9-18.8-6.5c-4.4,0.3-8.6,2.5-13.1,2.8s-9.8-2.5-9.6-6.9c0.2-3.7,4.2-6.5,4.1-10.2
			c-0.1-4.6-6.4-7.6-5.6-12.2c0.6-3.4,4.9-4.7,8.3-4.2s6.7,1.9,10.1,1.4c4.4-0.6,7.5-4.4,10.2-7.8c2.1-2.7,4.3-5.7,4.2-9.1
			c0-0.1,0-0.1,0-0.2h-0.2c-7.1,0-13.6,4-16.7,10.3h-17c-5.4,0-9.7,4.3-9.7,9.7v0v28.6c0,5.4,4.3,9.7,9.7,9.7l0,0H136
			C131.5,66.4,127.1,64.6,122.9,62.5z"/>
		<circle class="st3" cx="112.5" cy="24.7" r="6.4"/>
		<path class="st3" d="M84.5,122.1h-28c-2.5,0-4.4-2-4.4-4.4v-28c0-2.5,2-4.4,4.4-4.4h28c2.5,0,4.4,2,4.4,4.4v28
			C88.9,120.1,86.9,122.1,84.5,122.1z M60.9,113.2H80V94.1H60.9V113.2z"/>
		<path class="st3" d="M129.4,99.4h-28c-2.5-0.1-4.4-2.2-4.2-4.7c0.1-2.3,1.9-4.1,4.2-4.2h28c2.5-0.1,4.5,1.8,4.7,4.2
			c0.1,2.5-1.8,4.5-4.2,4.7C129.7,99.4,129.5,99.4,129.4,99.4z"/>
		<path class="st3" d="M164.1,116.7h-62.7c-2.5-0.1-4.4-2.2-4.2-4.7c0.1-2.3,1.9-4.1,4.2-4.2h62.7c2.5-0.1,4.5,1.8,4.7,4.2
			c0.1,2.5-1.8,4.5-4.2,4.7C164.4,116.7,164.2,116.7,164.1,116.7z"/>
		<path class="st3" d="M84.5,170.1h-28c-2.5,0-4.4-2-4.4-4.4v-28c0-2.5,2-4.4,4.4-4.4h28c2.5,0,4.4,2,4.4,4.4v28
			C88.9,168.1,86.9,170.1,84.5,170.1z M60.9,161.2H80v-19.1H60.9V161.2z"/>
		<path class="st3" d="M129.4,147.4h-28c-2.5-0.1-4.4-2.2-4.2-4.7c0.1-2.3,1.9-4.1,4.2-4.2h28c2.5-0.1,4.5,1.8,4.7,4.2
			c0.1,2.5-1.8,4.5-4.2,4.7C129.7,147.4,129.5,147.4,129.4,147.4z"/>
		<path class="st3" d="M164.1,164.8h-62.7c-2.5-0.1-4.4-2.2-4.2-4.7c0.1-2.3,1.9-4.1,4.2-4.2h62.7c2.5-0.1,4.5,1.8,4.7,4.2
			c0.1,2.5-1.8,4.5-4.2,4.7C164.4,164.8,164.2,164.8,164.1,164.8z"/>
		<path class="st3" d="M84.5,181.2h-28c-2.5,0-4.4,2-4.4,4.4V209c5.2,3.5,10.8,6.6,16.6,9.1h15.9c2.5,0,4.4-2,4.4-4.4v-28
			C89,183.2,87,181.2,84.5,181.2C84.5,181.2,84.5,181.2,84.5,181.2z M80,209.2H60.9v-19.1H80V209.2z"/>
		<path class="st3" d="M129.4,195.4h-28c-2.5,0-4.4-2-4.4-4.5c0-2.5,2-4.4,4.4-4.4h28c2.5,0,4.5,2,4.5,4.4
			C133.8,193.4,131.9,195.4,129.4,195.4C129.4,195.4,129.4,195.4,129.4,195.4z"/>
		<path class="st3" d="M164.1,212.8h-62.7c-2.5,0-4.4-2-4.4-4.5c0-2.5,2-4.4,4.4-4.4h62.7c2.5,0,4.5,2,4.5,4.4
			C168.5,210.8,166.5,212.8,164.1,212.8C164.1,212.8,164.1,212.8,164.1,212.8z"/>
		
			<linearGradient id="SVGID_5_" gradientUnits="userSpaceOnUse" x1="36.4" y1="140.9646" x2="75.52" y2="140.9646" gradientTransform="matrix(1 0 0 -1 0 285.8898)">
			<stop  offset="0" style="stop-color:#A028BA"/>
			<stop  offset="0.85" style="stop-color:#E462C7"/>
		</linearGradient>
		<path class="st9" d="M70.3,166.1c-1.5,0-2.9-0.8-3.7-2l-14.2-21.3c-1.4-2-0.8-4.8,1.2-6.2c2-1.4,4.8-0.8,6.2,1.2l9.9,14.8
			l12.6-26.7c1.3-2.1,4-2.8,6.1-1.5c1.8,1.1,2.6,3.3,1.9,5.3l-16,33.8c-0.7,1.4-2.1,2.4-3.7,2.5L70.3,166.1z"/>
	</g>
</g>
</svg>
