<?xml version="1.0" encoding="utf-8"?>
<!-- Generator: Adobe Illustrator 23.0.1, SVG Export Plug-In . SVG Version: 6.00 Build 0)  -->
<svg version="1.1" id="Layer_1" xmlns="http://www.w3.org/2000/svg" xmlns:xlink="http://www.w3.org/1999/xlink" x="0px" y="0px"
	 viewBox="0 0 225 227" style="enable-background:new 0 0 225 227;" xml:space="preserve">
<style type="text/css">
	.st0{opacity:0.29;fill:#E6E6E6;enable-background:new    ;}
	.st1{clip-path:url(#SVGID_2_);}
	.st2{opacity:0.46;fill:#E6E6E6;enable-background:new    ;}
	.st3{fill:url(#SVGID_3_);}
	.st4{fill:#F4F5F7;}
	.st5{fill:#D1D0CD;}
	.st6{fill:#F9A500;}
	.st7{fill:#EAEBEF;}
	.st8{fill:#300C6D;}
	.st9{fill:#D6D6D6;}
	.st10{fill:url(#SVGID_4_);}
</style>
<title>listy_infulencerow</title>
<g>
	<g id="Layer_1-2">
		<circle class="st0" cx="112.5" cy="112.5" r="112.5"/>
		<g>
			<defs>
				<circle id="SVGID_1_" cx="112.5" cy="112.5" r="112.5"/>
			</defs>
			<clipPath id="SVGID_2_">
				<use xlink:href="#SVGID_1_"  style="overflow:visible;"/>
			</clipPath>
			<g class="st1">
				<path class="st2" d="M155.8,68.8c12.6-0.1,26.8-0.3,35.6,8.3c7.7,7.5,8.6,19.3,15.4,27.5c8.1,9.7,22.4,12,35.4,12.4
					s26.7-0.1,38,6c11.5,6.3,18.4,19.4,16.8,32c-2.2,17-18.4,31.3-16.6,48.4c0.9,8.8,6.6,16.5,12.7,23.1s13,12.8,17.4,20.7
					s5.6,18,0.3,25.2c-6.8,9.3-21.5,9.9-32.3,5.2s-18.9-13.5-27.9-20.9s-20.3-13.8-32-12.3c-17.1,2.1-26.9,19.1-40.4,29.3
					c-13.3,10-31.1,13.5-48,11.9s-32.8-8.1-47.4-16.4c-11.5-6.5-22.5-14.3-30.3-24.6s-12.4-23.4-10-35.9s12.5-24,25.7-26.3
					c5.4-0.9,11-0.4,16.4-0.9s11.2-2.4,14.2-6.8c4.4-6.5,0.5-15.5-5.7-20.4s-14.2-7.1-21.4-10.6c-12.8-6.2-23.1-16.7-29.1-29.6
					c-2.8-6.2-4.4-13-3.5-19.7c0.9-6.9,5.1-13,11.2-16.4c6.5-3.2,14.9-2.8,20.1-7.7c4.6-4.3,5.1-11.1,7.9-16.6
					C82.4,45.9,92,41.1,101,42.4c11.4,1.6,14.4,10.8,21.9,17.3C131.8,67.4,144.3,68.9,155.8,68.8z"/>
			</g>
		</g>
		
			<linearGradient id="SVGID_3_" gradientUnits="userSpaceOnUse" x1="-768.21" y1="88.1748" x2="-625.76" y2="88.1748" gradientTransform="matrix(-1 0 0 -1 -581.96 285.8898)">
			<stop  offset="0" style="stop-color:#F9A500"/>
			<stop  offset="1" style="stop-color:#FCDF6A"/>
		</linearGradient>
		<path class="st3" d="M55,181.1l35-12.7l25.1,12.7l25.2-12.7l35,12.7c6.6,2.4,11,8.7,11,15.7v26c0,2.3-1.9,4.2-4.2,4.2H48
			c-2.3,0-4.2-1.9-4.2-4.2v-26C43.9,189.8,48.4,183.5,55,181.1z"/>
		<polygon class="st4" points="140.2,139.1 90.1,139.1 90.1,176.8 115,181.1 140.2,176.8 		"/>
		<path class="st5" d="M98,165.5c2.9,1.9,6.5,3.9,9.8,2.7c2.8-1.1,4.7-4.2,7.7-4.7c2.7-0.4,5.4,1.4,8.1,0.8c3.3-0.7,4.8-5.4,3-8.4
			s-5.3-4.4-8.8-4.5s-6.9,0.8-10.3,1.5c-5.4,1-11.5,0.8-16-2.3c-0.5-0.4-1-0.8-1.4-1.3v-10.3h50.3v37.7l-25.3,4.3l-25-4.3v-16.5
			L98,165.5z"/>
		<path class="st6" d="M115.1,181.2l13.4,17.1c1.1,1.7,3.3,2.1,4.9,1.1c0.4-0.3,0.8-0.6,1.1-1.1c0.1-0.1,0.2-0.4,0.3-0.5l13.8-25.6
			l-3.7-7.8c-1.1-2.7-3.5-3.8-5.6-2.6c-0.1,0.1-0.2,0.1-0.4,0.3L115.1,181.2z"/>
		<path class="st6" d="M115.1,181.2l-13.4,17.1c-1.1,1.7-3.3,2.1-4.9,1.1c-0.4-0.3-0.8-0.6-1.1-1.1c-0.1-0.1-0.2-0.4-0.3-0.5
			l-13.8-25.6l3.7-7.8c1-2.7,3.5-3.8,5.6-2.6c0.1,0.1,0.2,0.1,0.4,0.3L115.1,181.2z"/>
		<path class="st6" d="M138.1,218.1c1.7-2.3,2.5-5.2,4.3-7.4c2.7-3.5,7.1-5.1,10.9-7.3s7.5-6,7-10.4c-0.5-4.7-5.6-7.5-9.9-9.4
			l-23.5-10.6l13.3-4.4l35,12.6c6.6,2.4,11,8.7,11,15.7v26c0,2.3-1.9,4.2-4.2,4.2h-52.8c0.5-0.7,1.1-1.4,1.8-2
			C133.3,222.7,136.2,220.8,138.1,218.1z"/>
		<path class="st7" d="M80.6,121h68.1c3.9,0,7-3.1,7-7v-5c0-3.9-3.1-7-7-7H80.6c-3.9,0-7,3.1-7,7v4.9C73.6,117.8,76.8,121,80.6,121z
			"/>
		<path class="st8" d="M156.2,93c0.7-4.3,1.1-8.8-0.6-12.7c-2.1-4.4-6.7-6.8-11.2-8.4c-15.6-5.3-32.6-3.7-47,4.2
			c-5.4,2.9-10.2,6.7-15.9,8.8c-3,1-6.6,2.1-7.8,5C73,91.8,73.4,94,73.9,96l4.8,21c0.4,1.6,0.8,3.2,2.1,4.3c1.5,1.2,3.4,1,5.2,0.9
			l40.4-3.2c6.8-0.5,20.9,1.3,24.9-6.1C154.6,107.3,155.1,99.2,156.2,93z"/>
		<path class="st9" d="M115.1,161.2L115.1,161.2c-19,0-34.4-20.9-34.4-39.9v-28c0-14.8,12-26.8,26.8-26.8h15.1
			c14.8,0,26.8,12,26.8,26.8v28.1C149.5,140.3,134.1,161.2,115.1,161.2z"/>
		<path class="st4" d="M119.3,150.3c4.1-1.8,7-5.3,8.1-9.6c1.3-5.8-1.6-11.7-1-17.6c0.5-5.6,3.9-10.3,6.2-15.2s3.2-11.8-0.4-15.6
			c-4.2-4.4-11-1.8-16.1,0.9c-7.3,3.9-14.9,7.9-22.8,9.5c-4,0.9-8.2,1.1-12.3,0.5v14.7c0.2,10.8,3.7,21.3,10.1,30
			c5.2,2.2,10.7,3.6,16.3,4C111.4,152.5,115.5,151.9,119.3,150.3z"/>
		<path class="st8" d="M152.1,66.3c-1.3-3.1-3.2-6.3-6.3-7.4c-1.9-0.7-4.1-0.4-6-1.1c-3.4-1.2-5.3-4.8-7.8-7.4
			c-5.3-5.5-13.6-6.9-20.5-3.5c-2,1-3.8,2.4-6,2.5c-2.4,0.1-4.6-1.6-6.7-2.8c-7.3-4.2-16.2-4.4-23.6-0.4c-1.7,0.8-3.1,2.1-4,3.7
			c-0.8,1.7-0.5,3.9,1,4.9c-7.3-0.2-14.1,3.5-17.8,9.9c-1.1,1.8-1.6,4-1.4,6.1c0.3,2.2,2,3.9,4.2,4.1c-2,1.8-3.7,3.8-5.1,6.1
			c-1.4,2.3-1.9,5-1.3,7.7c1.3,4.8,7,7,12,7.2C73.1,96,82.5,90.6,92.1,87c11.6-4.4,24-6.3,36.3-5.6c4.9,0.3,9.9,1,14.2,3.3
			s7.8,6.7,8,11.6c0-0.7,2-2.7,2.4-3.3c0.9-1.2,1.8-2.4,2.6-3.7c1.5-2.1,1.2-3.6,0.9-6.2C155.9,77.3,154.4,71.6,152.1,66.3z"/>
		
			<linearGradient id="SVGID_4_" gradientUnits="userSpaceOnUse" x1="-760.52" y1="216.3947" x2="-647.22" y2="216.3947" gradientTransform="matrix(-1 0 0 -1 -581.96 285.8898)">
			<stop  offset="2.000000e-02" style="stop-color:#8552BF"/>
			<stop  offset="1" style="stop-color:#7035B1"/>
		</linearGradient>
		<path class="st10" d="M72,94.6c-3,0.8-6.1,1.2-9.2,1.1c-5-0.1-10.7-2.4-12-7.2c-0.6-2.6-0.1-5.4,1.3-7.7c1.4-2.2,3.1-4.3,5.1-6.1
			c-2.2-0.2-3.9-2-4.2-4.1c-0.2-2.1,0.3-4.3,1.4-6.1c3.7-6.3,10.5-10.1,17.8-9.9c-1.5-1-1.8-3.3-1-4.9c0.9-1.6,2.3-2.9,4-3.7
			c7.4-3.9,16.4-3.8,23.6,0.4c2.1,1.2,4.2,2.9,6.7,2.8c2.2-0.1,4.1-1.5,6-2.5c6.9-3.4,15.1-1.9,20.4,3.6c2.5,2.7,4.3,6.3,7.8,7.4
			c1.3,0.4,2.7,0.6,4.1,0.7c-1.1,1.2-3,1.5-4.7,1.5c-5.7,0.1-12-0.7-16.9-3.5c-3.7-2.1-8.1-2.7-12.2-1.5c-4.9,1.4-8.9,5.1-13.9,6.4
			C89,63.2,80.9,59.6,74,62.4c-6.7,2.7-9.9,10.2-7.3,16.9c0.5,1.2,1.1,2.2,1.8,3.2c-3.2,0.9-4.7,5-3.3,8
			C66.5,93.1,69.1,94.6,72,94.6z"/>
		<path class="st8" d="M79.4,140.4c0.2,2.9,0.5,5.9,1.9,8.5s3.8,4.4,6.1,6.2c5.6,4.3,11.6,8.8,18.6,9.9c4.6,0.6,9.2,0,13.5-1.6
			c4.3-1.6,8.4-3.7,12.3-6.1c4.5-2.6,9.1-5.4,12.4-9.4c3.4-4.3,5.6-9.4,6.2-14.9c0.6-5.4,0.3-10.9-0.8-16.2c0-0.3-0.1-0.5-0.3-0.7
			c-0.6-0.5-1.4,0.4-1.6,1.2c-0.8,2.7-2,5.2-3.5,7.5c-1.6,2.3-3.9,4.1-6.6,4.9c-6.3,1.7-16.9-4.6-23.4-4.1
			c-5.3,0.4-9.8,4.3-15.1,4.4c-14.1,0.3-17.4-15.2-19.6-13.2c-1.7,1.5-0.6,8.8-0.6,11C79,132.1,79.2,136.3,79.4,140.4z"/>
		<path class="st8" d="M131.6,91.8c-7.2,0-13.5,4.8-15.4,11.7c-1-0.3-2.1-0.4-3.2-0.2c-2.5-8.4-11.3-13.2-19.7-10.7
			c-8.4,2.5-13.2,11.3-10.7,19.7c2.5,8.4,11.3,13.2,19.7,10.7c6.8-2,11.4-8.2,11.4-15.3c0-0.2,0-0.5,0-0.7c0.7-0.1,1.4,0,2,0.4
			c0,0.1,0,0.2,0,0.3c0,8.8,7.1,15.9,15.9,15.9s15.9-7.1,15.9-15.9S140.4,91.8,131.6,91.8C131.6,91.8,131.6,91.8,131.6,91.8
			L131.6,91.8z M131.6,95.6c6.7,0,12.1,5.4,12.1,12.2c0,6.7-5.4,12.1-12.2,12.1c-6.7,0-12.1-5.4-12.1-12.2c0,0,0,0,0,0
			C119.5,101,124.9,95.6,131.6,95.6z M97.8,95.6c6.7,0,12.1,5.4,12.1,12.2c0,6.7-5.4,12.1-12.2,12.1c-6.7,0-12.1-5.4-12.1-12.2
			c0,0,0,0,0,0C85.6,101,91,95.6,97.8,95.6z"/>
	</g>
</g>
</svg>
