<?xml version="1.0" encoding="utf-8"?>
<!-- Generator: Adobe Illustrator 23.0.1, SVG Export Plug-In . SVG Version: 6.00 Build 0)  -->
<svg version="1.1" id="Layer_1" xmlns="http://www.w3.org/2000/svg" xmlns:xlink="http://www.w3.org/1999/xlink" x="0px" y="0px"
	 viewBox="0 0 220 279.4" style="enable-background:new 0 0 220 279.4;" xml:space="preserve">
<style type="text/css">
	.st0{opacity:0.29;fill:#E6E6E6;enable-background:new    ;}
	.st1{clip-path:url(#SVGID_2_);}
	.st2{opacity:0.46;fill:#E6E6E6;enable-background:new    ;}
	.st3{fill:#EAEBEF;}
	.st4{fill:#571C8A;}
	.st5{opacity:0.36;}
	.st6{fill:#D1D0CD;}
	.st7{fill:#AAFFCE;}
	.st8{fill:#63D6A0;}
	.st9{fill:#F4F5F7;}
	.st10{fill:url(#SVGID_3_);}
	.st11{fill:url(#SVGID_4_);}
	.st12{fill:#A028BA;}
	.st13{fill:url(#SVGID_5_);}
</style>
<title>Mentorzy</title>
<g>
	<g id="Layer_1-2">
		<circle class="st0" cx="110" cy="164.6" r="110"/>
		<g>
			<defs>
				<circle id="SVGID_1_" cx="110" cy="164.6" r="110"/>
			</defs>
			<clipPath id="SVGID_2_">
				<use xlink:href="#SVGID_1_"  style="overflow:visible;"/>
			</clipPath>
			<g class="st1">
				<path class="st2" d="M159.1,312.1c-10.1,5.3-20.6,10.6-31.9,11.3c-9.9,0.6-19.6-2.4-29-5.3l-37.4-11.7c-6.3-2-12.7-4-18.1-7.7
					s-9.8-9.5-10.2-16.1c-0.5-9.2,6.5-16.9,13-23.4s13.5-14.3,12.7-23.5c-0.9-11-12.2-18.1-16.3-28.3c-4.3-11.1,0.8-24,9.4-32.3
					s19.9-12.8,30.9-17.4s22.3-9.4,30.4-18.1c6-6.5,10-14.7,16.1-21c15.5-15.9,41-16.2,56.9-0.7c5.5,5.4,9.4,12.2,11.1,19.7
					c4.4,19.2-5.4,38.4-14.5,55.8c-2.9,5.6-5.9,11.7-5.4,18c0.6,8.4,7,15,12.1,21.7c12.9,16.8,19.6,37.5,19,58.7
					c-0.3,9.2-5.4,22.9-16.9,17.8c-4.1-1.8-7.4-3.9-12.1-3.9C172,305.6,165.2,308.9,159.1,312.1z"/>
			</g>
		</g>
		<path class="st3" d="M74.1,46.5h67.7c5.6,0,10.1,4.5,10.1,10.1v0c0,5.6-4.5,10.2-10.1,10.2H74.1c-5.6,0-10.2-4.5-10.2-10.2v0
			C63.9,51.1,68.4,46.5,74.1,46.5z"/>
		<path class="st4" d="M152.1,38.8c0.7-4.3,1.2-8.9-0.7-12.9c-2.3-4.5-7.2-6.9-12.1-8.5c-16.7-5.4-34.8-4-50.4,4.1
			c-5.7,3-10.9,6.8-16.9,8.9c-3.2,1.1-7,2-8.3,5.1c-0.8,1.9-0.3,4.1,0.2,6.2l5.4,21.2c0.4,1.6,0.9,3.3,2.2,4.4
			c1.5,1.2,3.7,1.1,5.7,1l43.3-3.1c7.3-0.5,22.3,1.3,26.7-6.1C150.5,53.4,151.1,45.2,152.1,38.8z"/>
		<g class="st5">
			<path class="st6" d="M83.4,97.3v12.8c2.4,1.7,5.3,2.5,8.2,2.4c5-0.3,9.2-3.1,14.1-3.7c3.2-0.4,6.9,0.6,8.2,3
				c0.7,1.4,0.6,3.1-0.3,4.4c-1,1.4-2.3,2.6-3.8,3.3c-5.4,2.9-12.4,3.2-18.7,1.9c-2.6-0.6-5.2-1.3-7.7-2.3v11.2h50.8v-33L83.4,97.3z
				"/>
			<path class="st3" d="M109.8,119.5c1.5-0.8,2.9-1.9,3.8-3.3c0.9-1.3,1-3,0.3-4.4c-1.3-2.4-5-3.3-8.2-3c-4.9,0.6-9.2,3.4-14.1,3.7
				c-2.9,0.1-5.8-0.7-8.2-2.4v9c2.5,1,5.1,1.8,7.7,2.3C97.4,122.7,104.4,122.4,109.8,119.5z"/>
		</g>
		<path class="st7" d="M162.9,119l-29.3-3.8c-13.1,13.9-35,14.7-48.9,1.6c-0.6-0.5-1.1-1.1-1.6-1.6L53.8,119
			c-10.6,1.4-18.5,10.3-18.5,21v44.8h146.1v-44.7C181.4,129.4,173.5,120.4,162.9,119z"/>
		<path class="st8" d="M108.3,185.3h73.1v-45.2c0-10.7-8-19.6-18.5-21l-29.3-3.8c-6.5,7-15.7,11-25.2,10.9l5,2
			c5.2,2.1,7.6,8,5.5,13.2c-0.6,1.5-1.6,2.8-2.8,3.9l-1.9,1.6c-4.3,3.6-4.9,9.9-1.3,14.2c0.6,0.7,1.3,1.4,2.2,1.9l0,0
			c4.6,3.1,5.9,9.4,2.8,14c-0.6,0.9-1.3,1.7-2.2,2.3C115.6,179.5,108.3,185.3,108.3,185.3z"/>
		<path class="st3" d="M108.3,110L108.3,110C88,110,71.5,87.6,71.5,67.3V37.2c0-15.9,12.9-28.7,28.7-28.7h16.1
			c15.9,0,28.7,12.9,28.7,28.7c0,0,0,0,0,0v30.1C145.1,87.6,128.6,110,108.3,110z"/>
		<path class="st9" d="M112.8,98.5c4.1-1.7,7.6-5,8.7-9.3c1.3-5.5-1.7-11.3-1.1-17c0.5-5.4,4.2-9.9,6.6-14.7
			c2.5-4.8,3.5-11.4-0.5-15.1c-4.5-4.2-11.8-1.7-17.3,0.9c-7.9,3.8-15.9,7.5-24.5,9.2c-4.3,0.9-8.8,1-13.2,0.5v14.1
			c0,10.2,4.1,20.8,10.8,29c5.6,2.2,11.5,3.5,17.5,3.9C104.2,100.4,108.7,100.2,112.8,98.5z"/>
		<path class="st4" d="M134.4,28.1c-5.2-0.7-10.4,1.2-15.2,3.2c-16.5,7-32.8,16.5-50.7,15.9c-2.9-0.1-5.8-0.5-8.2-2.1
			s-4-4.6-3.3-7.3c0.8-3.1,4.1-4.7,6.9-6.2s5.7-4.1,5.3-7.2c-0.5-3.5-4.7-4.9-8.2-5.4s-7.7-1.1-9.1-4.4C50.7,12.1,52,9,54.3,7.5
			c2.4-1.4,5.1-2,7.9-1.6c2.7,0.2,5.4,1,8.1,1.3c11.8,1.4,23-5.1,34.8-6.7c10.7-1.5,22.1,1.4,30.2,8.6c6.9,6.1,13.7,19.2,9.8,28.5
			c-1.3-1.7-1.7-4.2-3.6-6C139.5,29.6,137,28.4,134.4,28.1z"/>
		<path class="st4" d="M68.9,27.6c2-4.3,0.3-10.4-4.1-12c-1.4-0.5-3.3-0.9-3.7-2.3c-0.5-2.1,2.7-3.1,4.8-2.5
			C74.4,13.2,79.3,23.3,88,25c4.7,0.9,9.5-0.9,13.7-3.2s8.2-5.1,12.8-6.5c8.2-2.4,17.5,0.4,23.9,6.1c3.2,2.9,5.9,6.4,7.8,10.3
			c0.1-8.4-5.4-17.8-10.9-22.8c-8.1-7.2-19.5-10-30.2-8.6C93.3,2,82.1,8.5,70.2,7.1c-2.7-0.3-5.4-1-8.1-1.3
			c-2.7-0.4-5.5,0.2-7.9,1.6c-2.2,1.6-3.6,4.6-2.5,7.2c1.4,3.2,5.6,3.9,9.1,4.4s7.7,1.9,8.2,5.4c0.5,3.1-2.5,5.7-5.3,7.2
			c-1.8,0.9-3.5,1.9-5,3.2C63.1,33.9,67.1,31.4,68.9,27.6z"/>
		
			<linearGradient id="SVGID_3_" gradientUnits="userSpaceOnUse" x1="75.16" y1="297.2688" x2="265.28" y2="297.2688" gradientTransform="matrix(1 0 0 -1 0 326)">
			<stop  offset="0" style="stop-color:#7035B1"/>
			<stop  offset="0.98" style="stop-color:#8552BF"/>
		</linearGradient>
		<path class="st10" d="M138.4,21.4c-6.4-5.7-15.7-8.5-23.9-6.1c-4.6,1.4-8.6,4.2-12.8,6.5S92.7,26,88,25
			c-9.4-1.8-14.3-13.4-24.1-14.7c-1.3-0.2-2.6,0.7-2.8,2c0,0.1,0,0.3,0,0.4c0,1.9,2.2,2.3,3.7,2.8c4.5,1.7,6.2,7.7,4.1,12
			c-1.8,3.9-5.9,6.3-10.1,7.2c-1.3,1.1-2,2.7-2.1,4.4c0,1.7,0.6,3.3,1.8,4.5c2.6,2.7,6.3,3.4,9.9,3.5c17.9,0.7,34.2-8.9,50.7-15.9
			c4.8-2,10-3.9,15.3-3.2c2.7,0.4,5.1,1.5,7.1,3.3c1.9,1.8,2.2,4.3,3.6,6v0c1.2-3.1,0.9-6.7-1-9.4C142.5,25.5,140.6,23.3,138.4,21.4
			z"/>
		
			<linearGradient id="SVGID_4_" gradientUnits="userSpaceOnUse" x1="17.79" y1="82.945" x2="212.15" y2="82.945" gradientTransform="matrix(1 0 0 -1 0 326)">
			<stop  offset="0.15" style="stop-color:#E462C7"/>
			<stop  offset="1" style="stop-color:#A028BA"/>
		</linearGradient>
		<rect x="33.4" y="206.7" class="st11" width="147.2" height="72.8"/>
		<path class="st12" d="M180.7,196.5H77.3c7,6,16,8.2,24.2,5.8c3.6-1,7.2-2.9,10.8-2.3c5.8,0.9,9.9,7.7,15.6,9.4c3.4,1,7,0,10.4-0.8
			s7.1-1.6,10.4-0.1c3.8,1.8,5.9,6,5.3,10.1c-0.9,4.5-5.1,7.1-5.8,11.6c-0.3,2.8,0.4,5.6,2,7.9c1.4,2.3,3.1,4.2,4.3,6.6
			c2.8,6,2.6,12.9-0.8,18.6c-2.9,4.6-7.6,6.9-10.5,11.4c-1,1.5-1.7,3.2-2.6,4.8h40.1L180.7,196.5z"/>
		
			<linearGradient id="SVGID_5_" gradientUnits="userSpaceOnUse" x1="65.14" y1="117.03" x2="252.14" y2="117.03" gradientTransform="matrix(1 0 0 -1 0 326)">
			<stop  offset="0.15" style="stop-color:#E462C7"/>
			<stop  offset="1" style="stop-color:#A028BA"/>
		</linearGradient>
		<rect x="16.5" y="185.3" class="st13" width="187" height="47.4"/>
		<path class="st12" d="M203.5,232.7v-47.4h-32.8c1,0.8,2.1,1.5,3.2,2.1c4.7,2.3,10.9,0.6,16.2,1.8c2.1,0.5,4.3,1.7,4.8,3.5
			c1,3.4-4,6.6-3.2,10c0.5,2.4,3.7,4,4.1,6.4c0.6,2.9-3,5.4-3.1,8.3c-0.1,1.8,1.2,3.7,0.6,5.4s-3,2.7-5.3,2.8
			c-2.2-0.1-4.4-0.3-6.6-0.7c-4.1-0.4-8.3,0.3-12,2c-2.4,1.2-4.6,2.8-7.4,3.3c-3.6,0.6-7.1-0.9-10.5-2c-7.4-2.3-15.2-2.7-22.8-1.2
			c-7.9,1.4-16,1-23.8-1.1c-7.6-2-15.4-4.4-23.2-3.5c-7,0.8-13.2,4.3-20.1,5.7c-6.6,1.4-13.5,0.9-20.3,1.1
			c-8.4,0.4-16.7,1.5-24.9,3.4L203.5,232.7z"/>
		<polygon class="st12" points="27.8,185.3 21.9,185.3 21.9,126.5 55,93.4 59.2,97.6 27.8,129 		"/>
		
			<ellipse transform="matrix(0.7071 -0.7071 0.7071 0.7071 -50.8633 68.3958)" class="st12" cx="57.1" cy="95.6" rx="9.7" ry="7.2"/>
		<polygon class="st12" points="191.8,185.3 197.7,185.3 197.7,126.5 164.6,93.4 160.4,97.6 191.8,129 		"/>
		
			<ellipse transform="matrix(0.7071 -0.7071 0.7071 0.7071 -20.0062 142.8781)" class="st12" cx="162.5" cy="95.6" rx="7.2" ry="9.7"/>
	</g>
</g>
</svg>
