<?xml version="1.0" encoding="utf-8"?>
<!-- Generator: Adobe Illustrator 23.0.1, SVG Export Plug-In . SVG Version: 6.00 Build 0)  -->
<svg version="1.1" id="Layer_1" xmlns="http://www.w3.org/2000/svg" xmlns:xlink="http://www.w3.org/1999/xlink" x="0px" y="0px"
	 viewBox="0 0 220 220" style="enable-background:new 0 0 220 220;" xml:space="preserve">
<style type="text/css">
	.st0{opacity:0.29;fill:#E6E6E6;enable-background:new    ;}
	.st1{clip-path:url(#SVGID_2_);}
	.st2{opacity:0.46;fill:#E6E6E6;enable-background:new    ;}
	.st3{fill:url(#SVGID_3_);}
	.st4{fill:url(#SVGID_4_);}
	.st5{fill:#63D6A0;}
	.st6{fill:url(#SVGID_5_);}
	.st7{fill:#AAFFCE;}
	.st8{fill:#571C8A;}
	.st9{fill:url(#SVGID_6_);}
	.st10{fill:url(#SVGID_7_);}
	.st11{opacity:0.1;fill:#FFFFFF;enable-background:new    ;}
</style>
<title>Nowa_jakosc_do_5K</title>
<g>
	<g id="Layer_1-2">
		<circle class="st0" cx="110" cy="110" r="110"/>
		<g>
			<defs>
				<circle id="SVGID_1_" cx="110" cy="110" r="110"/>
			</defs>
			<clipPath id="SVGID_2_">
				<use xlink:href="#SVGID_1_"  style="overflow:visible;"/>
			</clipPath>
			<g class="st1">
				<path class="st2" d="M-29.1,40.4c3.4-10.9,7-22.1,14.6-30.6C-7.9,2.4,1-2.3,9.8-6.9l34.7-18.2c5.8-3,11.8-6.1,18.2-7.3
					c6.5-1.2,13.7-0.2,18.6,4.2c6.9,6.1,7.4,16.5,7.4,25.8s0.6,19.7,7.6,25.6c8.4,7.2,21.4,4.1,31.6,8.5
					c10.9,4.8,16.4,17.6,16.2,29.5c-0.2,11.9-5,23.1-9.6,34.1c-4.6,11-9.1,22.4-8.7,34.3c0.3,8.8,3.3,17.4,3.4,26.2
					c0.3,22.2-17.5,40.5-39.7,40.8c-7.7,0.1-15.3-2-21.8-6.1c-16.7-10.4-23.3-31-29.2-49.7c-1.9-6.1-4.1-12.5-8.9-16.6
					c-6.4-5.5-15.5-5.7-23.9-6.8c-21-2.8-40.3-12.7-54.8-28.1c-6.3-6.7-12.3-20-0.6-24.5c4.2-1.6,8-2.5,11.3-5.8
					C-33.6,54.1-31.1,46.9-29.1,40.4z"/>
			</g>
		</g>
		
			<linearGradient id="SVGID_3_" gradientUnits="userSpaceOnUse" x1="161.8628" y1="43.8773" x2="112.0028" y2="62.8272" gradientTransform="matrix(1 0 0 -1 0 188.28)">
			<stop  offset="0" style="stop-color:#AAFFCE"/>
			<stop  offset="1" style="stop-color:#63D6A0"/>
		</linearGradient>
		<path class="st3" d="M141.6,115.9h-40.7l-6.9,6.9v11.9c0,3.7,3.1,6.8,6.8,6.8c1.1,0,2.2-0.3,3.2-0.8L138,122
			c2.2-1.2,3.5-3.4,3.6-5.9C141.6,116.1,141.6,116,141.6,115.9z"/>
		
			<linearGradient id="SVGID_4_" gradientUnits="userSpaceOnUse" x1="112.2733" y1="63.959" x2="118.4933" y2="84.699" gradientTransform="matrix(1 0 0 -1 0 188.28)">
			<stop  offset="0" style="stop-color:#AAFFCE"/>
			<stop  offset="1" style="stop-color:#63D6A0"/>
		</linearGradient>
		<path class="st4" d="M141.6,115.9c0-2.4-1.4-4.6-3.5-5.8L104,91.2c-3.3-1.8-7.4-0.7-9.2,2.6c-0.6,1-0.9,2.2-0.9,3.3V109l6.9,6.9
			H141.6z"/>
		<path class="st5" d="M206.4,58h-69.6L62.4,181h143.9c3,0,5.4-2.4,5.4-5.4V63.4C211.8,60.4,209.4,58,206.4,58z"/>
		
			<linearGradient id="SVGID_5_" gradientUnits="userSpaceOnUse" x1="14.97" y1="77.98" x2="208.79" y2="77.98" gradientTransform="matrix(1 0 0 -1 0 188.28)">
			<stop  offset="0" style="stop-color:#7035B1"/>
			<stop  offset="0.98" style="stop-color:#8552BF"/>
		</linearGradient>
		<path class="st6" d="M203.4,58h-183c-3,0-5.4,2.4-5.4,5.4v0v99.2h193.8V63.4C208.8,60.4,206.4,58,203.4,58z"/>
		<polygon class="st5" points="132.1,177.9 136.2,203.8 93.6,203.8 97.6,177.9 		"/>
		<polygon class="st7" points="129.1,177.9 133.2,203.8 90.6,203.8 94.6,177.9 		"/>
		<path class="st5" d="M105,202.8c-1.4-0.5-2.6-1.4-3.5-2.5c-0.8-1.2-0.7-3.1,0.5-3.9c1-0.6,2.5-0.2,3.4-1c1.1-0.9,0.7-2.7,1.2-4
			c0.8-2.2,3.7-2.6,6-2.4c2.3,0.3,4.9,0.9,6.8-0.4c1.8-1.2,2.4-3.5,3.9-5.1c1.9-2,4.4-1,6.5-1.5l-0.6-4.1H94.6l-4,25.9h16.6
			L105,202.8z"/>
		<path class="st7" d="M70.6,162.6H14.9v12.9c0,3,2.4,5.4,5.4,5.4c0,0,0,0,0,0h183c3,0,5.4-2.4,5.4-5.4c0,0,0,0,0,0v-12.9H70.6z"/>
		<path class="st5" d="M148.3,205.9H75.4c-1.6,0-2.8-1.3-2.8-2.8c0-1.6,1.3-2.8,2.8-2.8h72.9c1.6,0,2.8,1.3,2.8,2.8
			C151.2,204.6,149.9,205.9,148.3,205.9z"/>
		<path class="st7" d="M143.3,205.9H70.4c-1.6,0-2.8-1.3-2.8-2.8c0-1.6,1.3-2.8,2.8-2.8h72.9c1.6,0,2.8,1.3,2.8,2.8
			C146.2,204.6,144.9,205.9,143.3,205.9z"/>
		<path class="st8" d="M100,63.9H21v88l9.5-10.5c3.3-3.7,5.2-8.5,5.3-13.5l0.1-5.5c0.1-7.7,4.5-14.7,11.4-18.1l7.5-3.8
			c5.8-2.9,9.9-8.4,11.1-14.9l0,0c1.4-7.8,7.1-14.1,14.7-16.3L100,63.9z"/>
		
			<linearGradient id="SVGID_6_" gradientUnits="userSpaceOnUse" x1="93.95" y1="59.5883" x2="141.5761" y2="59.5883" gradientTransform="matrix(1 0 0 -1 0 188.28)">
			<stop  offset="0" style="stop-color:#63D6A0"/>
			<stop  offset="1" style="stop-color:#AAFFCE"/>
		</linearGradient>
		<path class="st9" d="M141.6,115.9h-40.7l-6.9,6.9v11.9c0,3.7,3.1,6.8,6.8,6.8c1.1,0,2.2-0.3,3.2-0.8L138,122
			c2.2-1.2,3.5-3.4,3.6-5.9C141.6,116.1,141.6,116,141.6,115.9z"/>
		
			<linearGradient id="SVGID_7_" gradientUnits="userSpaceOnUse" x1="93.95" y1="85.1428" x2="141.57" y2="85.1428" gradientTransform="matrix(1 0 0 -1 0 188.28)">
			<stop  offset="0" style="stop-color:#AAFFCE"/>
			<stop  offset="1" style="stop-color:#63D6A0"/>
		</linearGradient>
		<path class="st10" d="M141.6,115.9c0-2.4-1.4-4.6-3.5-5.8L104,91.2c-3.3-1.8-7.4-0.7-9.2,2.6c-0.6,1-0.9,2.2-0.9,3.3V109l6.9,6.9
			H141.6z"/>
		<path class="st11" d="M119.3,142.9c4.3-8.7-5.4-18.6-3.5-28.1c1.4-7.2,9-11.4,16.1-12.9c7.1-1.5,14.7-1.2,21.5-4
			c10.6-4.6,17-15.5,15.8-27c-0.6-4.7-2.5-9.1-5.4-12.9h-57.3c0.9,1.3,1.7,2.6,2.4,4.1c2.8,6.2,2.7,14.1-2,19
			c-6.9,7.1-20.6,5-26,13.4s2.2,20.3-2.6,29.1c-3.1,5.7-10.3,7.7-16.5,9.9c-11.7,4.2-22.8,11.8-28.4,23c-1,2-1.7,4.1-2.2,6.3h58.4
			c0.2-1.1,0.5-2.2,1-3.1C95.8,149.3,114.3,153.1,119.3,142.9z"/>
		<path class="st11" d="M119.8,162.6c1.6-3.1,5.6-4.6,9.3-5.1c4.2-0.5,8.7-0.4,12.2-2.7c4.9-3.3,5.7-10.2,5.4-16.2
			c-0.3-5.9-1.2-12.4,1.9-17.4c3.9-6.3,12.2-7.9,19.2-10.5c8.7-3.3,16.4-9.5,20.9-17.7s5.3-18.4,1.6-26.9c-1.5-2.9-3.3-5.6-5.5-8.1
			h-11c0.5,1.9,2.2,3.8,3.2,5.4c2.5,3.8,4.1,8.2,4.6,12.8c0.7,9.2-4.3,19-12.7,22.8c-9,4.1-20.2,1.5-28.7,6.5
			c-5.8,3.6-9.2,10.1-8.7,16.9c0.5,6.6,4.7,13.3,2.4,19.5c-1.2,3.3-4.1,5.8-7.3,7.5c-3.1,1.7-6.6,2.8-9.8,4.3
			c-3.2,1.6-6.3,3.7-8,6.8c-0.4,0.7-0.6,1.4-0.8,2.1L119.8,162.6z"/>
	</g>
</g>
</svg>
