<?xml version="1.0" encoding="utf-8"?>
<!-- Generator: Adobe Illustrator 23.0.1, SVG Export Plug-In . SVG Version: 6.00 Build 0)  -->
<svg version="1.1" id="Layer_1" xmlns="http://www.w3.org/2000/svg" xmlns:xlink="http://www.w3.org/1999/xlink" x="0px" y="0px"
	 viewBox="0 0 220 220" style="enable-background:new 0 0 220 220;" xml:space="preserve">
<style type="text/css">
	.st0{opacity:0.29;fill:#E6E6E6;enable-background:new    ;}
	.st1{clip-path:url(#SVGID_2_);}
	.st2{opacity:0.46;fill:#E6E6E6;enable-background:new    ;}
	.st3{fill:url(#SVGID_3_);}
	.st4{fill:url(#SVGID_4_);}
	.st5{fill:#FBA200;}
	.st6{fill:url(#SVGID_5_);}
	.st7{fill:url(#SVGID_6_);}
	.st8{fill:url(#SVGID_7_);}
	.st9{fill:url(#SVGID_8_);}
	.st10{fill:#3015DF;}
	.st11{opacity:0.1;fill:#FFFFFF;enable-background:new    ;}
	.st12{fill:url(#SVGID_9_);}
	.st13{opacity:0.5;fill:#4B1591;enable-background:new    ;}
	.st14{fill:url(#SVGID_10_);}
	.st15{fill:#FFFFFF;}
	.st16{fill:url(#SVGID_11_);}
	.st17{fill:#F4F5F7;}
	.st18{fill:url(#SVGID_12_);}
</style>
<title>nowoczesny_player</title>
<g>
	<g id="Layer_1-2">
		<circle class="st0" cx="110" cy="110" r="110"/>
		<g>
			<defs>
				<circle id="SVGID_1_" cx="110" cy="110" r="110"/>
			</defs>
			<clipPath id="SVGID_2_">
				<use xlink:href="#SVGID_1_"  style="overflow:visible;"/>
			</clipPath>
			<g class="st1">
				<path class="st2" d="M-29.1,40.4c3.4-10.9,7-22.1,14.6-30.6C-7.9,2.4,1-2.3,9.8-6.9l34.7-18.2c5.8-3,11.8-6.1,18.2-7.3
					c6.5-1.2,13.7-0.2,18.6,4.2c6.9,6.1,7.4,16.5,7.4,25.8s0.6,19.7,7.6,25.6c8.4,7.2,21.4,4.1,31.6,8.5
					c10.9,4.8,16.4,17.6,16.2,29.5c-0.2,11.9-5,23.1-9.6,34.1c-4.6,11-9.1,22.4-8.7,34.3c0.3,8.8,3.3,17.4,3.4,26.2
					c0.3,22.2-17.5,40.5-39.7,40.8c-7.7,0.1-15.3-2-21.8-6.1c-16.7-10.4-23.3-31-29.2-49.7c-1.9-6.1-4.1-12.5-8.9-16.6
					c-6.4-5.5-15.5-5.7-23.9-6.8c-21-2.8-40.3-12.7-54.8-28.1c-6.3-6.7-12.3-20-0.6-24.5c4.2-1.6,8-2.5,11.3-5.8
					C-33.6,54.1-31.1,46.9-29.1,40.4z"/>
			</g>
		</g>
		
			<linearGradient id="SVGID_3_" gradientUnits="userSpaceOnUse" x1="161.8628" y1="43.767" x2="112.0028" y2="62.717" gradientTransform="matrix(1 0 0 -1 0 188.1698)">
			<stop  offset="0" style="stop-color:#AAFFCE"/>
			<stop  offset="1" style="stop-color:#63D6A0"/>
		</linearGradient>
		<path class="st3" d="M141.6,115.9h-40.7l-6.9,6.9v11.9c0,3.7,3.1,6.8,6.8,6.8c1.1,0,2.2-0.3,3.2-0.8L138,122
			c2.2-1.2,3.5-3.4,3.6-5.9C141.6,116.1,141.6,116,141.6,115.9z"/>
		
			<linearGradient id="SVGID_4_" gradientUnits="userSpaceOnUse" x1="112.2733" y1="63.8488" x2="118.4933" y2="84.5888" gradientTransform="matrix(1 0 0 -1 0 188.1698)">
			<stop  offset="0" style="stop-color:#AAFFCE"/>
			<stop  offset="1" style="stop-color:#63D6A0"/>
		</linearGradient>
		<path class="st4" d="M141.6,115.9c0-2.4-1.4-4.6-3.5-5.8L104,91.2c-3.3-1.8-7.4-0.7-9.2,2.6c-0.6,1-0.9,2.2-0.9,3.3V109l6.9,6.9
			H141.6z"/>
		<path class="st5" d="M206.4,58h-69.6L62.4,181h143.9c3,0,5.4-2.4,5.4-5.4V63.4C211.8,60.4,209.4,58,206.4,58z"/>
		
			<linearGradient id="SVGID_5_" gradientUnits="userSpaceOnUse" x1="14.97" y1="77.8698" x2="208.79" y2="77.8698" gradientTransform="matrix(1 0 0 -1 0 188.1698)">
			<stop  offset="0" style="stop-color:#3130EE"/>
			<stop  offset="0.42" style="stop-color:#5954FF"/>
			<stop  offset="1" style="stop-color:#6774FF"/>
		</linearGradient>
		<path class="st6" d="M203.4,58h-183c-3,0-5.4,2.4-5.4,5.4v0v99.2h193.8V63.4C208.8,60.4,206.4,58,203.4,58z"/>
		<polygon class="st5" points="132.1,177.9 136.2,203.8 93.6,203.8 97.6,177.9 		"/>
		
			<linearGradient id="SVGID_6_" gradientUnits="userSpaceOnUse" x1="90.56" y1="-2.7002" x2="133.18" y2="-2.7002" gradientTransform="matrix(1 0 0 -1 0 188.1698)">
			<stop  offset="2.000000e-02" style="stop-color:#FBA200"/>
			<stop  offset="0.17" style="stop-color:#FBA600"/>
			<stop  offset="0.33" style="stop-color:#FDB300"/>
			<stop  offset="0.49" style="stop-color:#FFC600"/>
			<stop  offset="0.89" style="stop-color:#FFE658"/>
			<stop  offset="0.93" style="stop-color:#FFE75A"/>
			<stop  offset="0.95" style="stop-color:#FFE862"/>
			<stop  offset="0.96" style="stop-color:#FFEC70"/>
			<stop  offset="0.98" style="stop-color:#FFF083"/>
			<stop  offset="0.99" style="stop-color:#FFF69C"/>
			<stop  offset="1" style="stop-color:#FFFDBA"/>
			<stop  offset="1" style="stop-color:#FFFFC1"/>
		</linearGradient>
		<polygon class="st7" points="129.1,177.9 133.2,203.8 90.6,203.8 94.6,177.9 		"/>
		<path class="st5" d="M105,202.8c-1.4-0.5-2.6-1.4-3.5-2.5c-0.8-1.2-0.7-3.1,0.5-3.9c1-0.6,2.5-0.2,3.4-1c1.1-0.9,0.7-2.7,1.2-4
			c0.8-2.2,3.7-2.6,6-2.4c2.3,0.3,4.9,0.9,6.8-0.4c1.8-1.2,2.4-3.5,3.9-5.1c1.9-2,4.4-1,6.5-1.5l-0.6-4.1H94.6l-4,25.9h16.6
			L105,202.8z"/>
		
			<linearGradient id="SVGID_7_" gradientUnits="userSpaceOnUse" x1="14.95" y1="16.3948" x2="208.77" y2="16.3948" gradientTransform="matrix(1 0 0 -1 0 188.1698)">
			<stop  offset="2.000000e-02" style="stop-color:#FBA200"/>
			<stop  offset="0.17" style="stop-color:#FBA600"/>
			<stop  offset="0.33" style="stop-color:#FDB300"/>
			<stop  offset="0.49" style="stop-color:#FFC600"/>
			<stop  offset="0.89" style="stop-color:#FFE658"/>
			<stop  offset="0.93" style="stop-color:#FFE75A"/>
			<stop  offset="0.95" style="stop-color:#FFE862"/>
			<stop  offset="0.96" style="stop-color:#FFEC70"/>
			<stop  offset="0.98" style="stop-color:#FFF083"/>
			<stop  offset="0.99" style="stop-color:#FFF69C"/>
			<stop  offset="1" style="stop-color:#FFFDBA"/>
			<stop  offset="1" style="stop-color:#FFFFC1"/>
		</linearGradient>
		<path class="st8" d="M70.6,162.6H14.9v12.9c0,3,2.4,5.4,5.4,5.4c0,0,0,0,0,0h183c3,0,5.4-2.4,5.4-5.4c0,0,0,0,0,0v-12.9H70.6z"/>
		<path class="st5" d="M148.3,205.9H75.4c-1.6,0-2.8-1.3-2.8-2.8c0-1.6,1.3-2.8,2.8-2.8h72.9c1.6,0,2.8,1.3,2.8,2.8
			C151.2,204.6,149.9,205.9,148.3,205.9z"/>
		
			<linearGradient id="SVGID_8_" gradientUnits="userSpaceOnUse" x1="67.5745" y1="-14.9102" x2="146.1655" y2="-14.9102" gradientTransform="matrix(1 0 0 -1 0 188.1698)">
			<stop  offset="2.000000e-02" style="stop-color:#FBA200"/>
			<stop  offset="0.17" style="stop-color:#FBA600"/>
			<stop  offset="0.33" style="stop-color:#FDB300"/>
			<stop  offset="0.49" style="stop-color:#FFC600"/>
			<stop  offset="0.89" style="stop-color:#FFE658"/>
			<stop  offset="0.93" style="stop-color:#FFE75A"/>
			<stop  offset="0.95" style="stop-color:#FFE862"/>
			<stop  offset="0.96" style="stop-color:#FFEC70"/>
			<stop  offset="0.98" style="stop-color:#FFF083"/>
			<stop  offset="0.99" style="stop-color:#FFF69C"/>
			<stop  offset="1" style="stop-color:#FFFDBA"/>
			<stop  offset="1" style="stop-color:#FFFFC1"/>
		</linearGradient>
		<path class="st9" d="M143.3,205.9H70.4c-1.6,0-2.8-1.3-2.8-2.8c0-1.6,1.3-2.8,2.8-2.8h72.9c1.6,0,2.8,1.3,2.8,2.8
			C146.2,204.6,144.9,205.9,143.3,205.9z"/>
		<path class="st10" d="M100,63.9H21v88l9.5-10.5c3.3-3.7,5.2-8.5,5.3-13.5l0.1-5.5c0.1-7.7,4.5-14.7,11.4-18.1l7.5-3.8
			c5.8-2.9,9.9-8.4,11.1-14.9l0,0c1.4-7.8,7.1-14.1,14.7-16.3L100,63.9z"/>
		<path class="st11" d="M119.3,142.9c4.3-8.7-5.4-18.6-3.5-28.1c1.4-7.2,9-11.4,16.1-12.9c7.1-1.5,14.7-1.2,21.5-4
			c10.6-4.6,17-15.5,15.8-27c-0.6-4.7-2.5-9.1-5.4-12.9h-57.3c0.9,1.3,1.7,2.6,2.4,4.1c2.8,6.2,2.7,14.1-2,19
			c-6.9,7.1-20.6,5-26,13.4s2.2,20.3-2.6,29.1c-3.1,5.7-10.3,7.7-16.5,9.9c-11.7,4.2-22.8,11.8-28.4,23c-1,2-1.7,4.1-2.2,6.3h58.4
			c0.2-1.1,0.5-2.2,1-3.1C95.8,149.3,114.3,153.1,119.3,142.9z"/>
		<path class="st11" d="M119.8,162.6c1.6-3.1,5.6-4.6,9.3-5.1c4.2-0.5,8.7-0.4,12.2-2.7c4.9-3.3,5.7-10.2,5.4-16.2
			c-0.3-5.9-1.2-12.4,1.9-17.4c3.9-6.3,12.2-7.9,19.2-10.5c8.7-3.3,16.4-9.5,20.9-17.7s5.3-18.4,1.6-26.9c-1.5-2.9-3.3-5.6-5.5-8.1
			h-11c0.5,1.9,2.2,3.8,3.2,5.4c2.5,3.8,4.1,8.2,4.6,12.8c0.7,9.2-4.3,19-12.7,22.8c-9,4.1-20.2,1.5-28.7,6.5
			c-5.8,3.6-9.2,10.1-8.7,16.9c0.5,6.6,4.7,13.3,2.4,19.5c-1.2,3.3-4.1,5.8-7.3,7.5c-3.1,1.7-6.6,2.8-9.8,4.3
			c-3.2,1.6-6.3,3.7-8,6.8c-0.4,0.7-0.6,1.4-0.8,2.1L119.8,162.6z"/>
		
			<linearGradient id="SVGID_9_" gradientUnits="userSpaceOnUse" x1="49.57" y1="95.0748" x2="176.95" y2="95.0748" gradientTransform="matrix(1 0 0 -1 0 188.1698)">
			<stop  offset="0" style="stop-color:#A028BA"/>
			<stop  offset="0.85" style="stop-color:#E462C7"/>
		</linearGradient>
		<path class="st12" d="M165.6,41.9H60.9c-6.3,0-11.4,5.1-11.4,11.4v79.6c0,6.3,5.1,11.4,11.4,11.4h104.6c6.3,0,11.4-5.1,11.4-11.4
			V53.3C176.9,47,171.9,41.9,165.6,41.9z"/>
		<path class="st13" d="M49.6,41.9h106l0,0v68.5c0,8-6.5,14.5-14.5,14.5h0H49.6l0,0V41.9L49.6,41.9z"/>
		<path class="st5" d="M140.6,32.9H52.1c-5.3,0-9.6,4.3-9.6,9.6v67.4c0,5.3,4.3,9.6,9.6,9.6h88.6c5.3,0,9.6-4.3,9.6-9.6V42.5
			C150.3,37.2,146,32.9,140.6,32.9L140.6,32.9z"/>
		
			<linearGradient id="SVGID_10_" gradientUnits="userSpaceOnUse" x1="39.94" y1="112.5498" x2="147.8" y2="112.5498" gradientTransform="matrix(1 0 0 -1 0 188.1698)">
			<stop  offset="2.000000e-02" style="stop-color:#FBA200"/>
			<stop  offset="0.17" style="stop-color:#FBA600"/>
			<stop  offset="0.33" style="stop-color:#FDB300"/>
			<stop  offset="0.49" style="stop-color:#FFC600"/>
			<stop  offset="0.89" style="stop-color:#FFE658"/>
			<stop  offset="0.93" style="stop-color:#FFE75A"/>
			<stop  offset="0.95" style="stop-color:#FFE862"/>
			<stop  offset="0.96" style="stop-color:#FFEC70"/>
			<stop  offset="0.98" style="stop-color:#FFF083"/>
			<stop  offset="0.99" style="stop-color:#FFF69C"/>
			<stop  offset="1" style="stop-color:#FFFDBA"/>
			<stop  offset="1" style="stop-color:#FFFFC1"/>
		</linearGradient>
		<path class="st14" d="M138.2,32.3H49.6c-5.3,0-9.6,4.3-9.6,9.6v67.4c0,5.3,4.3,9.6,9.6,9.6h88.6c5.3,0,9.6-4.3,9.6-9.6V41.9
			C147.8,36.6,143.5,32.3,138.2,32.3z"/>
		<path class="st5" d="M145.9,111.3l-7.1-3.5c-3.3-1.6-6.2-3.9-8.5-6.6l-2.2-2.7c-4-4.8-9.7-8-15.9-8.9l0,0
			c-9.8-1.4-18.2-7.8-22.1-16.9L84,59c-3.5-6.4-9.9-10.5-17.1-11.1l0,0c-8.7-0.6-16.1-6.4-18.8-14.7c-0.1-0.2-0.2-0.5-0.2-0.8
			c-4.6,0.9-7.9,4.8-7.9,9.5v67.4c0,5.3,4.3,9.6,9.6,9.6h88.6c4.6,0,8.6-3.3,9.5-7.9C147,111.2,146.5,111.3,145.9,111.3L145.9,111.3
			z"/>
		<path class="st10" d="M93.9,68.9c-4.3,0-7.7,3.5-7.7,7.7c0,4.3,3.5,7.7,7.7,7.7s7.7-3.5,7.7-7.7c0,0,0,0,0,0
			C101.6,72.3,98.1,68.9,93.9,68.9z"/>
		<path class="st10" d="M71.6,68.9c-4.3,0-7.7,3.5-7.7,7.7s3.5,7.7,7.7,7.7s7.7-3.5,7.7-7.7c0,0,0,0,0,0
			C79.3,72.3,75.8,68.9,71.6,68.9z"/>
		<path class="st10" d="M117,68.9c-4.3,0-7.7,3.5-7.7,7.7c0,4.3,3.5,7.7,7.7,7.7s7.7-3.5,7.7-7.7c0,0,0,0,0,0
			C124.7,72.3,121.2,68.9,117,68.9z"/>
		<path class="st15" d="M106.6,97.8h26c2.9,0,5.3,2.4,5.3,5.3v0c0,2.9-2.4,5.3-5.3,5.3h-26c-2.9,0-5.3-2.4-5.3-5.3v0
			C101.3,100.1,103.7,97.8,106.6,97.8z"/>
		<path class="st10" d="M111.8,101.1h15.5c1.1,0,1.9,0.9,1.9,1.9v0c0,1.1-0.9,1.9-1.9,1.9h-15.5c-1.1,0-1.9-0.9-1.9-1.9v0
			C109.9,102,110.8,101.1,111.8,101.1z"/>
		
			<linearGradient id="SVGID_11_" gradientUnits="userSpaceOnUse" x1="79.097" y1="81.8182" x2="149.087" y2="23.0882" gradientTransform="matrix(1 0 0 -1 0 188.1698)">
			<stop  offset="2.000000e-02" style="stop-color:#FBA200"/>
			<stop  offset="0.17" style="stop-color:#FBA600"/>
			<stop  offset="0.33" style="stop-color:#FDB300"/>
			<stop  offset="0.49" style="stop-color:#FFC600"/>
			<stop  offset="0.89" style="stop-color:#FFE658"/>
			<stop  offset="0.93" style="stop-color:#FFE75A"/>
			<stop  offset="0.95" style="stop-color:#FFE862"/>
			<stop  offset="0.96" style="stop-color:#FFEC70"/>
			<stop  offset="0.98" style="stop-color:#FFF083"/>
			<stop  offset="0.99" style="stop-color:#FFF69C"/>
			<stop  offset="1" style="stop-color:#FFFDBA"/>
			<stop  offset="1" style="stop-color:#FFFFC1"/>
		</linearGradient>
		<path class="st16" d="M49.6,131.9v1c0,6.3,5.1,11.4,11.4,11.4h104.6c6.3,0,11.4-5.1,11.4-11.4v-1H49.6z"/>
		<path class="st10" d="M61.3,135.6h104.8c1.2,0,2.2,1,2.2,2.2l0,0c0,1.2-1,2.2-2.2,2.2H61.3c-1.2,0-2.2-1-2.2-2.2l0,0
			C59.2,136.6,60.1,135.6,61.3,135.6z"/>
		<circle class="st17" cx="78.1" cy="137.8" r="4"/>
		
			<linearGradient id="SVGID_12_" gradientUnits="userSpaceOnUse" x1="75.9" y1="50.4098" x2="80.24" y2="50.4098" gradientTransform="matrix(1 0 0 -1 0 188.1698)">
			<stop  offset="1.000000e-02" style="stop-color:#3130EE"/>
			<stop  offset="0.42" style="stop-color:#5954FF"/>
			<stop  offset="1" style="stop-color:#6774FF"/>
		</linearGradient>
		<circle class="st18" cx="78.1" cy="137.8" r="2.2"/>
	</g>
</g>
</svg>
