<?xml version="1.0" encoding="UTF-8"?>
<svg width="310px" height="310px" viewBox="0 0 310 310" version="1.1" xmlns="http://www.w3.org/2000/svg" xmlns:xlink="http://www.w3.org/1999/xlink">
    <!-- Generator: sketchtool 52.3 (67297) - http://www.bohemiancoding.com/sketch -->
    <title>2533720D-2629-42E4-A2CB-050958E78B41</title>
    <desc>Created with sketchtool.</desc>
    <g id="Page-1" stroke="none" stroke-width="1" fill="none" fill-rule="evenodd">
        <g id="Player" transform="translate(-798.000000, -461.000000)">
            <g id="play" transform="translate(805.000000, 468.000000)">
                <g id="eduweb_logo_podst_mono" transform="translate(90.000000, 69.000000)" fill="#FFFFFF">
                    <path d="M0,99.0655757 L0,135.586196 C0,151.374342 16.893509,161.403466 30.7322354,153.826441 L135.099965,96.7218347 C140.418059,93.8605726 144.200997,88.7925696 145.434912,82.8761049 C145.628438,81.9735615 145.762358,81.0592349 145.835802,80.1390649 L145.835802,78 L16.3482984,82.8761049 L0,99.0655757 Z" id="Path"></path>
                    <path d="M145.210414,73.5503851 C143.792951,68.0814886 140.180319,63.4424202 135.22825,60.7320485 L30.868538,2.64820845 C17.0177849,-5.05322796 0,4.9638566 0,20.8202272 L0,57.3609143 L16.3563163,73.5503851 L145.84382,78.42649 L145.84382,77.2225134 C145.742174,75.9820513 145.530199,74.7531385 145.210414,73.5503851 Z" id="Path"></path>
                </g>
                <circle id="Oval" stroke="#FFFFFF" stroke-width="14" cx="148" cy="148" r="148"></circle>
            </g>
        </g>
    </g>
</svg>