<?xml version="1.0" encoding="utf-8"?>
<!-- Generator: Adobe Illustrator 23.0.1, SVG Export Plug-In . SVG Version: 6.00 Build 0)  -->
<svg version="1.1" id="Layer_1" xmlns="http://www.w3.org/2000/svg" xmlns:xlink="http://www.w3.org/1999/xlink" x="0px" y="0px"
	 viewBox="0 0 220 220" style="enable-background:new 0 0 220 220;" xml:space="preserve">
<style type="text/css">
	.st0{opacity:0.29;fill:#E6E6E6;enable-background:new    ;}
	.st1{clip-path:url(#SVGID_2_);}
	.st2{opacity:0.46;fill:#E6E6E6;enable-background:new    ;}
	.st3{fill:url(#SVGID_3_);}
	.st4{fill:#3015DF;}
	.st5{opacity:0.21;fill:#FFFFFF;enable-background:new    ;}
	.st6{fill:#FFFFFF;}
	.st7{fill:url(#SVGID_4_);}
	.st8{fill:#F9A500;}
	.st9{fill:url(#SVGID_5_);}
	.st10{opacity:0.5;}
	.st11{fill:#4B1591;}
	.st12{opacity:0.11;fill:#FFFFFF;enable-background:new    ;}
</style>
<title>play_listy</title>
<g>
	<g id="Layer_1-2">
		<circle class="st0" cx="110" cy="110" r="110"/>
		<g>
			<defs>
				<circle id="SVGID_1_" cx="110" cy="110" r="110"/>
			</defs>
			<clipPath id="SVGID_2_">
				<use xlink:href="#SVGID_1_"  style="overflow:visible;"/>
			</clipPath>
			<g class="st1">
				<path class="st2" d="M159.1,257.6c-10.1,5.2-20.6,10.6-31.9,11.3c-9.9,0.6-19.6-2.4-29-5.3l-37.4-11.7c-6.3-2-12.7-4-18.1-7.7
					s-9.8-9.5-10.2-16.1c-0.5-9.2,6.5-16.9,13-23.4s13.5-14.3,12.7-23.5c-0.9-11-12.2-18.1-16.3-28.3c-4.3-11.1,0.8-24,9.4-32.3
					s19.9-12.8,30.9-17.3s22.3-9.4,30.4-18.2c6-6.5,10-14.7,16.1-21c15.5-15.9,41-16.2,56.9-0.7c5.5,5.4,9.4,12.2,11.1,19.7
					c4.4,19.2-5.4,38.4-14.5,55.8c-2.9,5.6-5.9,11.7-5.4,18c0.6,8.4,7,15,12.1,21.7c12.9,16.8,19.6,37.5,19,58.7
					c-0.3,9.2-5.4,22.9-16.9,17.8c-4.1-1.8-7.4-3.9-12.1-3.9C172,251.1,165.2,254.4,159.1,257.6z"/>
			</g>
		</g>
		
			<linearGradient id="SVGID_3_" gradientUnits="userSpaceOnUse" x1="34.24" y1="218.8748" x2="180.9" y2="218.8748" gradientTransform="matrix(1 0 0 -1 0 269.8898)">
			<stop  offset="0" style="stop-color:#6774FF"/>
			<stop  offset="0.58" style="stop-color:#5954FF"/>
			<stop  offset="1" style="stop-color:#3130EE"/>
		</linearGradient>
		<path class="st3" d="M47,24h121.2c7,0,12.8,5.7,12.8,12.8v28.4c0,7-5.7,12.8-12.8,12.8H47c-7,0-12.8-5.7-12.8-12.8V36.8
			C34.2,29.8,39.9,24,47,24z"/>
		<path class="st4" d="M172.5,24h-11.2c0.2,1.9,0.2,3.9-0.2,5.8c-0.6,3.4-1.8,6.8-1.4,10.3c0.6,5.7,5,11.6,2.2,16.6
			c-2.2,3.9-7.6,4.4-12,3.5s-8.7-2.7-13.1-1.9c-6,1.1-10.2,7-16.1,8.6c-4.4,1.2-9.1,0-13.7-0.4c-13.5-1.1-26.2,5.5-38.6,11L67.5,78
			h105c4.6,0,8.4-3.8,8.4-8.4V32.4C180.8,27.8,177.1,24.1,172.5,24z"/>
		<path class="st5" d="M87.8,24l-0.3,0.7c-1.1,2.5-2.4,5-4.8,6.3c-2.4,1.3-5.6,1.2-7.4,3.3S74,39.7,72.6,42
			c-2.1,3.5-7.2,3.3-10.4,5.8c-2.8,2.2-3.9,6-6.7,8.2c-3.9,3-9.4,1.6-14.2,2.4c-2.6,0.4-5.1,1.5-7.2,3.2v8c0,4.6,3.7,8.4,8.3,8.4
			c0,0,0,0,0,0h0.5c1.7-1.5,3.9-2.4,6.2-2.5c3.4-0.2,7,0.4,10.1-1.1c5.5-2.7,6.4-10.7,11.7-13.9c3-1.9,6.8-1.8,10.3-2.1
			s7.4-1.2,9.3-4.2c1.4-2.2,1.3-5.2,2.6-7.6c2.1-3.8,7.2-4.7,11.6-5.2s9.4-1.6,11.3-5.6c1.6-3.5,0.3-8.5,3.4-10.7
			c0.8-0.5,1.7-0.9,2.6-1.1L87.8,24z"/>
		<circle class="st4" cx="59" cy="52.4" r="14.5"/>
		<path class="st6" d="M91.9,40.5h51.4c1.6,0,3,1.3,3,3v0c0,1.6-1.3,3-3,3H91.9c-1.6,0-3-1.3-3-3v0C89,41.9,90.3,40.5,91.9,40.5z"/>
		<path class="st6" d="M91.9,52H129c1.6,0,3,1.3,3,3v0c0,1.6-1.3,3-3,3H91.9c-1.6,0-3-1.3-3-3v0C89,53.3,90.3,52,91.9,52z"/>
		
			<linearGradient id="SVGID_4_" gradientUnits="userSpaceOnUse" x1="20.44" y1="169.0398" x2="194.7" y2="169.0398" gradientTransform="matrix(1 0 0 -1 0 269.8898)">
			<stop  offset="0" style="stop-color:#FCDF6A"/>
			<stop  offset="1" style="stop-color:#F9A500"/>
		</linearGradient>
		<path class="st7" d="M33.2,68.8h148.8c7,0,12.8,5.7,12.8,12.8v38.6c0,7-5.7,12.8-12.8,12.8H33.2c-7,0-12.8-5.7-12.8-12.8V81.6
			C20.4,74.5,26.1,68.8,33.2,68.8z"/>
		<path class="st8" d="M184.7,68.8h-13.3c0.3,2.3,0.2,4.6-0.3,6.9c-0.8,4.1-2.1,8.1-1.7,12.2c0.7,6.8,6,13.8,2.6,19.7
			c-2.6,4.6-9,5.2-14.2,4.2s-10.4-3.2-15.6-2.2c-7.2,1.3-12.1,8.2-19.2,10.2c-5.2,1.5-10.8,0-16.2-0.5c-16-1.3-31.2,6.5-45.9,13.1
			l-1.1,0.5h124.8c5.5,0,10-4.5,10-10V78.8C194.7,73.3,190.3,68.8,184.7,68.8z"/>
		<path class="st5" d="M84,68.8l-0.4,0.8c-1.3,2.9-2.9,6-5.7,7.5s-6.7,1.5-8.8,4s-1.4,6.3-3.1,9.1c-2.5,4.1-8.5,4-12.3,6.9
			c-3.4,2.6-4.6,7.2-7.9,9.8c-4.6,3.5-11.1,1.9-16.8,2.8c-3.1,0.5-6.1,1.8-8.5,3.8v9.5c0,5.5,4.5,10,10,10H31c2-1.8,4.6-2.8,7.4-3
			c4-0.3,8.3,0.4,12-1.3c6.5-3.2,7.6-12.7,13.8-16.6c3.6-2.2,8-2.1,12.2-2.4s8.8-1.4,11-5c1.7-2.7,1.5-6.2,3.1-9
			c2.6-4.6,8.6-5.6,13.8-6.2s11.2-1.9,13.4-6.7c1.9-4.1,0.3-10,4-12.7c1-0.6,2-1.1,3.1-1.4L84,68.8z"/>
		<circle class="st4" cx="49.9" cy="102.5" r="17.2"/>
		<path class="st6" d="M89,88.4h61.1c1.9,0,3.5,1.6,3.5,3.5l0,0c0,1.9-1.6,3.5-3.5,3.5H89c-1.9,0-3.5-1.6-3.5-3.5l0,0
			C85.5,90,87.1,88.4,89,88.4z"/>
		<path class="st6" d="M89,102h44c1.9,0,3.5,1.6,3.5,3.5l0,0c0,1.9-1.6,3.5-3.5,3.5H89c-1.9,0-3.5-1.6-3.5-3.5l0,0
			C85.5,103.6,87.1,102,89,102z"/>
		
			<linearGradient id="SVGID_5_" gradientUnits="userSpaceOnUse" x1="3.22" y1="107.3098" x2="218.83" y2="107.3098" gradientTransform="matrix(1 0 0 -1 0 269.8898)">
			<stop  offset="0.15" style="stop-color:#E462C7"/>
			<stop  offset="1" style="stop-color:#A028BA"/>
		</linearGradient>
		<path class="st9" d="M16,122.9h190.1c7,0,12.8,5.7,12.8,12.8v53.8c0,7-5.7,12.8-12.8,12.8H16c-7,0-12.8-5.7-12.8-12.8v-53.8
			C3.2,128.6,8.9,122.9,16,122.9z"/>
		<g class="st10">
			<path class="st11" d="M206.5,122.9H190c0.3,2.8,0.2,5.7-0.3,8.5c-0.9,5-2.6,10-2.1,15.1c0.9,8.4,7.4,17,3.2,24.3
				c-3.2,5.7-11.2,6.5-17.6,5.2s-12.9-3.9-19.3-2.7c-8.9,1.7-15,10.2-23.7,12.6c-6.5,1.8-13.4,0-20.1-0.6
				c-19.8-1.6-38.6,8.1-56.8,16.2l-1.3,0.6h154.4c6.8,0,12.3-5.5,12.3-12.3c0,0,0,0,0,0v-54.6C218.8,128.5,213.3,122.9,206.5,122.9
				L206.5,122.9z"/>
		</g>
		<path class="st12" d="M81.9,122.9c-0.2,0.3-0.3,0.7-0.5,1c-1.6,3.6-3.6,7.4-7,9.3s-8.3,1.8-10.9,4.9s-1.8,7.8-3.8,11.2
			c-3,5.1-10.5,4.9-15.2,8.5c-4.2,3.2-5.7,8.9-9.8,12.1c-5.7,4.4-13.8,2.4-20.8,3.5c-3.9,0.6-7.5,2.2-10.6,4.7v11.8
			c0,6.8,5.5,12.3,12.3,12.3c0,0,0,0,0,0h0.8c2.5-2.2,5.7-3.5,9.1-3.6c5-0.3,10.3,0.6,14.8-1.6c8.1-3.9,9.5-15.6,17.1-20.4
			c4.4-2.8,10-2.6,15.1-3s11-1.8,13.7-6.2c2-3.4,1.9-7.7,3.8-11.1c3.2-5.6,10.6-6.9,17-7.6s13.9-2.4,16.6-8.2
			c2.3-5.1,0.4-12.4,5-15.7c1.2-0.8,2.5-1.3,3.9-1.7L81.9,122.9z"/>
		<circle class="st4" cx="39.6" cy="164.6" r="21.2"/>
		<path class="st6" d="M88,147.2h75.6c2.4,0,4.4,2,4.4,4.4v0c0,2.4-2,4.4-4.4,4.4H88c-2.4,0-4.4-2-4.4-4.4v0
			C83.7,149.2,85.6,147.2,88,147.2z"/>
		<path class="st6" d="M88,164h54.5c2.4,0,4.4,2,4.4,4.4v0c0,2.4-2,4.4-4.4,4.4H88c-2.4,0-4.4-2-4.4-4.4v0C83.7,166,85.6,164,88,164
			z"/>
		<path class="st6" d="M52.9,162.6l-18.1-10.5c-1.1-0.7-2.6-0.3-3.2,0.9c-0.2,0.3-0.3,0.7-0.3,1.1V175c0,1.3,1.1,2.3,2.4,2.3
			c0.4,0,0.8-0.1,1.2-0.3l18.1-10.4c1.1-0.7,1.4-2.2,0.7-3.3C53.4,163,53.2,162.8,52.9,162.6z"/>
		<path class="st6" d="M59.6,100.4l-14-8.1c-1.1-0.7-2.6-0.3-3.2,0.9c-0.2,0.3-0.3,0.7-0.3,1.1v16.2c0,1.3,1.1,2.3,2.4,2.3
			c0.4,0,0.8-0.1,1.2-0.3l14-8.1c1.1-0.7,1.4-2.2,0.7-3.3C60.1,100.9,59.9,100.6,59.6,100.4z"/>
		<path class="st6" d="M66.4,49.9L57,44.5c-1.1-0.7-2.6-0.3-3.2,0.9c-0.2,0.4-0.3,0.8-0.3,1.2v10.9c0,1.3,1.1,2.3,2.4,2.3
			c0.4,0,0.8-0.1,1.1-0.3l9.4-5.4c1.1-0.7,1.5-2.1,0.8-3.3C67.1,50.4,66.8,50.1,66.4,49.9z"/>
	</g>
</g>
</svg>
