<?xml version="1.0" encoding="utf-8"?>
<!-- Generator: Adobe Illustrator 23.0.1, SVG Export Plug-In . SVG Version: 6.00 Build 0)  -->
<svg version="1.1" id="Layer_1" xmlns="http://www.w3.org/2000/svg" xmlns:xlink="http://www.w3.org/1999/xlink" x="0px" y="0px"
	 viewBox="0 0 289.1 232.2" style="enable-background:new 0 0 289.1 232.2;" xml:space="preserve">
<style type="text/css">
	.st0{opacity:0.29;fill:#E6E6E6;enable-background:new    ;}
	.st1{clip-path:url(#SVGID_2_);}
	.st2{opacity:0.46;fill:#E6E6E6;enable-background:new    ;}
	.st3{fill:#71EBB5;}
	.st4{fill:#000054;stroke:#000000;stroke-width:0.15;stroke-miterlimit:10;}
	.st5{fill:#A76EDE;}
	.st6{fill:#7035B1;}
	.st7{fill:url(#SVGID_3_);}
	.st8{fill:url(#SVGID_4_);}
	.st9{fill:url(#SVGID_5_);}
	.st10{fill:#300C6D;}
	.st11{fill:none;stroke:#FFFFFF;stroke-width:1.23;stroke-miterlimit:10;}
	.st12{fill:#FFCF4E;}
	.st13{fill:#F9A500;}
</style>
<title>Postepy_zespolu</title>
<g>
	<g id="Layer_1-2">
		<circle class="st0" cx="147.1" cy="112.5" r="112.5"/>
		<g>
			<defs>
				<circle id="SVGID_1_" cx="147.1" cy="112.5" r="112.5"/>
			</defs>
			<clipPath id="SVGID_2_">
				<use xlink:href="#SVGID_1_"  style="overflow:visible;"/>
			</clipPath>
			<g class="st1">
				<path class="st2" d="M103.7,68.8c-12.6-0.1-26.8-0.3-35.6,8.3c-7.7,7.5-8.6,19.3-15.4,27.5c-8.1,9.7-22.4,12-35.4,12.4
					s-26.7-0.1-38,6c-11.5,6.3-18.4,19.4-16.8,32c2.2,17,18.4,31.3,16.6,48.4c-0.9,8.8-6.6,16.5-12.7,23.1s-13,12.8-17.4,20.7
					s-5.6,18-0.3,25.2c6.8,9.3,21.5,9.9,32.3,5.2s18.9-13.5,27.9-20.9s20.3-13.8,32-12.3c17.1,2.1,26.9,19.1,40.4,29.3
					c13.3,10,31.1,13.5,48,11.9s32.8-8.1,47.4-16.4c11.5-6.5,22.5-14.3,30.3-24.6c7.9-10.3,12.4-23.4,10-35.9s-12.5-24-25.7-26.3
					c-5.4-0.9-11-0.4-16.4-0.9s-11.2-2.4-14.2-6.8c-4.4-6.5-0.5-15.5,5.7-20.4s14.2-7.1,21.4-10.6c12.8-6.2,23.1-16.7,29.1-29.6
					c2.8-6.2,4.4-13,3.5-19.7s-5-13.2-11.2-16.4c-6.5-3.2-14.9-2.8-20.1-7.7c-4.6-4.3-5.1-11.1-7.9-16.6
					c-4.1-7.8-13.7-12.6-22.7-11.3C147.1,44,144,53.2,136.6,59.7C127.7,67.4,115.3,68.9,103.7,68.8z"/>
			</g>
		</g>
		<polygon class="st3" points="151.9,12.2 149,12.2 149,51.7 151.9,51.7 151.9,27.4 168.7,19.8 		"/>
		<path class="st4" d="M149.1,49l0.2-0.2l-0.2-0.3C149.1,48.6,149.1,48.8,149.1,49z"/>
		<path class="st5" d="M147.6,51l-39.9,52.3l-19.8,13l-8,5.3l-12.5,23.3l-21.2,39.7l-10.8,5l-8.3,3.8l-10.3,20.5L0,224.9h15.5
			c3.5-2.9,6.2-7,8.4-11.1c3.7-6.8,7.2-14.4,14.1-18c6.5-3.4,14-2.3,21.5-1.4c0.8-1,1.7-1.9,2.6-2.7c6.2-5.3,14.6-7.4,22.8-8.3
			c4.8-0.5,9.7-0.8,14.6-1.2c3.6-2.3,7.5-4.3,11.5-5.9c4.2-1.6,8.6-2.6,13.1-3c0.5-0.5,1-1,1.5-1.6c4.1-4.8,5.6-12,2.6-17.6
			c-2.5-4.7-7.8-7.3-13-8.6s-10.6-1.5-15.8-2.9c-4.2-1.1-8.3-3.1-11.2-6.4s-4.4-7.9-3.1-12.1c1.4-4.4,5.5-7.5,9.9-9.1H95
			c1-0.5,2-1,3-1.4c15.6-6.7,30-16,42.3-27.7c1.6-2.8,2.9-5.7,4.1-8.7c1.7-4.6,2.9-9.4,3.7-14.3L147.6,51z"/>
		<path class="st3" d="M147.5,50.5l0.5,12.4c0.7-4.8,1.1-9.6,1.1-14.5L147.5,50.5z"/>
		<path class="st6" d="M229.5,159.1c-6.2-7.2-14.7-12-23.3-15.8c-11.7-5.1-23.9-8.8-36.5-10.9c-3-0.4-6-1-9-1.7
			c-1.7-0.5-3.4-1.1-5-2c-2-1.1-3.7-2.5-5.1-4.3c-3.1-3.7-3.3-9-0.6-13c2.1-3.3,5.7-6,8.8-8.9c0.9-0.8,1.7-1.7,2.5-2.6
			c5.5-6.6,6.5-16.2,4.6-24.6c-0.2-0.9-0.4-1.7-0.6-2.6l-9.4-15.3l-5.9-9.6l-0.8,1c4.4,7.3,5.2,16.8,1.4,24.5
			c-0.6,1.2-1.3,2.3-2,3.4c-2.1,2.9-4.4,5.6-7,8l-1.3,1.4c-12.3,11.7-26.6,21.1-42.3,27.7c-1,0.4-2,0.9-3,1.4
			c-3.5,1.8-6.8,4.3-6.7,8.1c0,3,2.4,5.6,5.2,6.8s5.9,1.1,8.9,0.9c11.8-0.7,25.4-3,33.9,5.2c5.1,4.9,7.2,12.8,13.3,16.5
			c0.7,0.5,1.5,0.8,2.4,1.1c3.3,1.1,6.9,1.3,10.3,0.6c3.7-0.6,7.5-1.7,11.1-2.7c11.4-2.9,23.4-3.1,34.9-0.6
			c7.5,1.6,15.8,5.5,17.6,13c1.3,5.3-1.4,11-5.5,14.5s-9.6,5.1-15,5.9c-13.9,1.9-27.8-1.7-41.4-5.3l-5.9-1.5
			c-1.7-0.4-3.4-0.9-5.1-1.3c-9.6-2.2-19.5-3.8-29-3c-4.5,0.4-8.9,1.4-13.1,3c-4,1.6-7.8,3.6-11.5,5.9C90.5,187.7,82,194,71.8,195
			c-4.1,0.3-8.3,0.1-12.3-0.6c-7.5-1-15-2.1-21.5,1.4c-6.8,3.6-10.4,11.2-14.1,18c-2.2,4-4.9,8.2-8.4,11.1h149.2
			c-1.5-1.4-2.4-3.2-2.6-5.2c0.1-2.6,1.6-5,3.9-6.2l0.2-0.1c2.2-1,4.6-1.6,7-1.7c12.3-1.1,24.9,0.2,37-2.6s24.2-10.8,27-23.3
			C239.4,176.4,235.7,166.3,229.5,159.1z"/>
		
			<linearGradient id="SVGID_3_" gradientUnits="userSpaceOnUse" x1="250.4684" y1="129.3897" x2="64.5383" y2="144.5197" gradientTransform="matrix(1 0 0 -1 0 288)">
			<stop  offset="0" style="stop-color:#7035B1"/>
			<stop  offset="0.98" style="stop-color:#8552BF"/>
		</linearGradient>
		<path class="st7" d="M226,164c-1.8-7.5-10.1-11.4-17.6-13c-11.5-2.5-23.5-2.3-34.9,0.6c-3.6,0.9-7.4,2.1-11.1,2.7
			c-3.4,0.7-7,0.5-10.3-0.6c-0.8-0.3-1.6-0.7-2.4-1.1c-6.1-3.7-8.2-11.6-13.3-16.5c-8.5-8.2-22.1-5.9-33.9-5.2
			c-3,0.2-6.1,0.2-8.9-0.9s-5.2-3.8-5.2-6.8c0-3.8,3.2-6.2,6.7-8.1h-0.1c-4.4,1.6-8.5,4.7-9.9,9.1c-1.3,4.2,0.2,8.8,3.1,12.1
			s7,5.2,11.2,6.4c5.2,1.4,10.6,1.6,15.8,2.9s10.4,3.9,13,8.6c3,5.5,1.4,12.7-2.6,17.6c-0.5,0.6-1,1.1-1.5,1.6
			c9.6-0.8,19.5,0.7,29,3c1.7,0.4,3.4,0.8,5.1,1.3l5.9,1.5c13.6,3.6,27.5,7.1,41.4,5.3c5.4-0.7,10.9-2.4,15-5.9S227.2,169.3,226,164
			z"/>
		
			<linearGradient id="SVGID_4_" gradientUnits="userSpaceOnUse" x1="257.1478" y1="211.4831" x2="71.2178" y2="226.6131" gradientTransform="matrix(1 0 0 -1 0 288)">
			<stop  offset="0" style="stop-color:#7035B1"/>
			<stop  offset="0.98" style="stop-color:#8552BF"/>
		</linearGradient>
		<path class="st8" d="M148.7,76.7c0.7-1.1,1.4-2.2,2-3.4c3.8-7.7,3-17.2-1.4-24.5l-0.2,0.2c0,4.7-0.3,9.3-1,13.9
			c-0.7,4.9-2,9.7-3.7,14.3c-1.1,3-2.5,5.9-4.1,8.7l1.3-1.2C144.2,82.3,146.6,79.6,148.7,76.7z"/>
		
			<linearGradient id="SVGID_5_" gradientUnits="userSpaceOnUse" x1="246.9387" y1="85.9438" x2="61.0087" y2="101.0738" gradientTransform="matrix(1 0 0 -1 0 288)">
			<stop  offset="0" style="stop-color:#7035B1"/>
			<stop  offset="0.98" style="stop-color:#8552BF"/>
		</linearGradient>
		<path class="st9" d="M62,191.8c-0.9,0.8-1.8,1.7-2.6,2.7c4.1,0.6,8.2,0.8,12.3,0.6c10.2-1,18.7-7.3,27.6-12.8
			c-4.8,0.5-9.7,0.7-14.6,1.2C76.7,184.4,68.3,186.4,62,191.8z"/>
		<path class="st10" d="M233.5,140.3l-32.2-11l-35.9-56.7c0.2,0.8,0.4,1.7,0.6,2.6c1.8,8.5,0.8,18-4.6,24.6
			c-0.8,0.9-1.6,1.8-2.5,2.6c-3.1,2.9-6.6,5.6-8.8,8.9c-2.8,4-2.5,9.3,0.6,13c1.4,1.8,3.1,3.3,5.1,4.3c1.6,0.9,3.3,1.5,5,2
			c3,0.7,6,1.3,9,1.7c12.5,2.1,24.8,5.7,36.4,10.8c8.6,3.8,17,8.6,23.3,15.8s9.9,17.3,7.7,26.8c-2.9,12.4-15,20.5-27,23.3
			s-24.6,1.6-36.9,2.6c-2.4,0.1-4.8,0.6-7,1.7l-0.2,0.1c-2.3,1.2-3.8,3.6-3.9,6.2c0.2,2,1.1,3.9,2.6,5.2h124.4L233.5,140.3z"/>
		<path class="st11" d="M81.3,224.9c-5.5-43.9,110.6-13.8,131.3-29.2c10.4-7.8,17.1-22.3,11.4-34c-3.6-7.5-11.4-12.3-19.2-15
			c-33.1-11.6-71.7,4.8-104.1-8.7c-6.2-2.6-12.8-7.8-11.9-14.5c0.6-4.4,4.4-7.8,8.5-9.3s8.6-1.6,13.1-1.9
			c10.2-0.7,20.2-2.8,29.8-6.3c8.9-3.2,18.2-8.4,20.9-17.4c3.2-10.8-4.2-21.5-11.3-30.3"/>
		<circle class="st12" cx="150.1" cy="52.8" r="7.3"/>
		<circle class="st13" cx="150.1" cy="52.8" r="3.7"/>
		<circle class="st12" cx="81.3" cy="224.9" r="7.3"/>
		<circle class="st13" cx="81.3" cy="224.9" r="3.7"/>
		<circle class="st12" cx="217.4" cy="191.9" r="7.3"/>
		<circle class="st13" cx="217.4" cy="191.9" r="3.7"/>
		<circle class="st12" cx="157.4" cy="142.1" r="7.3"/>
		<circle class="st13" cx="157.4" cy="142.1" r="3.7"/>
		<circle class="st12" cx="88.6" cy="120.2" r="7.3"/>
		<circle class="st13" cx="88.6" cy="120.2" r="3.7"/>
		<path class="st3" d="M104.2,42c0,0.5-0.4,1-0.9,1c-0.5,0-1-0.4-1-0.9c0-0.5,0.4-1,0.9-1c0,0,0,0,0,0
			C103.8,41.1,104.2,41.5,104.2,42L104.2,42z"/>
	</g>
</g>
</svg>
