<?xml version="1.0" encoding="utf-8"?>
<!-- Generator: Adobe Illustrator 23.0.1, SVG Export Plug-In . SVG Version: 6.00 Build 0)  -->
<svg version="1.1" id="Layer_1" xmlns="http://www.w3.org/2000/svg" xmlns:xlink="http://www.w3.org/1999/xlink" x="0px" y="0px"
	 viewBox="0 0 265.4 243.4" style="enable-background:new 0 0 265.4 243.4;" xml:space="preserve">
<style type="text/css">
	.st0{opacity:0.29;fill:#E6E6E6;enable-background:new    ;}
	.st1{clip-path:url(#SVGID_2_);}
	.st2{opacity:0.46;fill:#E6E6E6;enable-background:new    ;}
	.st3{fill:#D1D0CD;}
	.st4{fill:#AAFFCE;}
	.st5{fill:#FFFFFF;}
	.st6{fill:#63D6A0;}
	.st7{fill:url(#SVGID_3_);}
	.st8{fill:#F9A500;}
	.st9{fill:#571C8A;}
	.st10{fill:#EAEBEF;}
	.st11{fill:url(#SVGID_4_);}
	.st12{fill:#FBA284;}
	.st13{fill:url(#SVGID_5_);}
	.st14{fill:#A028BA;}
	.st15{fill:url(#SVGID_6_);}
</style>
<title>Poznaj_swietnych_ludzi</title>
<g>
	<g id="Layer_1-2">
		<circle class="st0" cx="139.3" cy="110" r="110"/>
		<g>
			<defs>
				<circle id="SVGID_1_" cx="139.3" cy="110" r="110"/>
			</defs>
			<clipPath id="SVGID_2_">
				<use xlink:href="#SVGID_1_"  style="overflow:visible;"/>
			</clipPath>
			<g class="st1">
				<path class="st2" d="M188.4,257.6c-10.1,5.2-20.6,10.6-31.9,11.3c-9.9,0.6-19.6-2.4-29-5.3l-37.4-11.7c-6.3-2-12.7-4-18.1-7.7
					s-9.8-9.6-10.2-16.1c-0.5-9.2,6.5-16.9,13-23.4s13.5-14.3,12.7-23.5c-0.9-11-12.2-18.1-16.3-28.3c-4.3-11.1,0.8-24,9.4-32.3
					s19.9-12.8,30.9-17.3S133.9,93.7,142,85c6-6.5,10-14.7,16.1-21c15.5-15.9,41-16.3,56.9-0.8c5.5,5.4,9.4,12.3,11.1,19.8
					c4.4,19.2-5.4,38.4-14.5,55.8c-2.9,5.6-5.9,11.7-5.4,18c0.6,8.4,7,15,12.1,21.7c12.8,16.8,19.5,37.5,18.9,58.6
					c-0.3,9.2-5.4,22.9-16.9,17.8c-4.1-1.8-7.4-3.9-12.1-3.9C201.3,251.1,194.5,254.4,188.4,257.6z"/>
			</g>
		</g>
		<path class="st3" d="M135.7,179.2c0.1-1.3,1.2-2.3,2.5-2.2c0,0,0,0,0,0h4.6c1,0.1,1.8,0,1.8,1l-0.1,2c-0.1,1.1-1.1,0.9-2.2,0.6
			L135.7,179.2z"/>
		<path class="st3" d="M141.7,179.4L141.7,179.4c-0.3-1,0.3-2,1.3-2.3l5.7-1.6c1.1-0.3,3.5,3.2,2.3,3.5l-7,1.7
			C143,181,142,180.4,141.7,179.4z"/>
		<path class="st3" d="M133.2,177.2c0.1-1.3,1.2-2.3,2.5-2.2l7.4,0.5c1,0.1,1.9,0,1.8,1l-0.1,2c-0.1,1.1-1.1,0.9-2.2,0.6
			L133.2,177.2z"/>
		<path class="st3" d="M142.1,178L142.1,178c-0.3-1,0.2-2,1.2-2.3c0,0,0,0,0,0l5.6-1.9c1.1-0.4,2.3,0.1,2.7,1.2l0,0
			c0.3,1.1-0.3,2.2-1.3,2.5c0,0-0.1,0-0.1,0l-5.6,1.7C143.5,179.5,142.5,179,142.1,178z"/>
		<path class="st3" d="M131.3,174.3c0-1.3,1.1-2.3,2.4-2.3c0,0,0,0,0,0l7.4,0.2c1,0,1.8-0.1,1.8,0.9l-0.1,2c0,1.1-1.1,0.9-2.2,0.7
			L131.3,174.3z"/>
		<path class="st3" d="M140.1,174.9L140.1,174.9c-0.3-1,0.2-2,1.2-2.3c0,0,0,0,0,0l7.2-2.4c1.1-0.4,2.3,0.1,2.7,1.2c0,0,0,0,0,0l0,0
			c0.3,1.1-0.3,2.2-1.3,2.5c0,0,0,0-0.1,0l-7.2,2.2C141.5,176.4,140.4,175.8,140.1,174.9z"/>
		<path class="st3" d="M153.8,165.6c3.1-0.2,8,1.4,8.9,5c1.2,4.7-7.2,7.3-11.7,8.4c-2.8,0.1-5.3-1.8-6-4.5c-0.4-1.3-1.9-4.5,0-6.1
			S152.4,165.7,153.8,165.6z"/>
		<path class="st3" d="M146.6,166.7c-2.7,0.2-6.6-1-7.1-2.7c-0.2-0.8,0.4-1,1.2-1c2.3,0.1,4.7-0.1,7-0.4
			C150.1,163,150.1,166.5,146.6,166.7z"/>
		<path class="st3" d="M157.7,166.1c0.5,3.9-4.9,4.8-7.6,2.9c-1-0.7-2.9-0.7-4-1.3c0.6-0.3,0-1-0.6-1c-1.7,0,0.3-4,2.6-4.1
			S156.2,165,157.7,166.1z"/>
		<path class="st3" d="M131.5,170.4c0.1-1.3,1.3-2.2,2.6-2.1l7.4,0.8c1,0.1,1.8,0.1,1.7,1.1l-0.2,2c-0.1,1.1-1.1,0.9-2.2,0.6
			L131.5,170.4z"/>
		<path class="st3" d="M140.4,171.5L140.4,171.5c-0.3-1,0.3-2,1.3-2.3c0,0,0,0,0,0l7.3-2.1c1.1-0.3,2.3,0.2,2.6,1.3l0,0
			c0.3,1.1-0.4,2.2-1.4,2.4c0,0-0.1,0-0.1,0l-7.3,1.9C141.7,173.1,140.7,172.5,140.4,171.5z"/>
		<path class="st3" d="M156.7,176c22.2-0.5,37.7,1.5,55.1,0.3c6.4-0.4,10.1-3.6,9.8-7.8l0,0c-0.3-4-4-6.4-10.2-6.5
			c-13.1-0.2-29.4,4.7-54.8,6.1C152.2,168.6,152.5,176,156.7,176z"/>
		<path class="st4" d="M189.2,162.7c8.4-1.3,15.7-2.4,22.2-2.4c7.1,0.1,11.6,3.1,11.9,8c0.4,5.2-4.2,9.1-11.3,9.6
			c-9.3,0.5-18.7,0.5-28,0c-6.3-0.2-12.8-0.4-20-0.4l-0.8-11.5C173.2,165.2,181.6,163.9,189.2,162.7z"/>
		<path class="st4" d="M178.6,91.2c-0.9-0.6-2.1-0.9-3.2-0.6c-3.2,0.8-6,2.9-7.6,5.8c-4,6.8-3.7,17.7-1.6,25.6
			c2.2,8.4,4.1,14.2,5.8,19.3c3,8.8,5.4,17.7,7.2,26.8c2,7.2,7,9.4,11.2,8.4s7.6-5.3,6.1-12.5c-1.9-8-3.3-16.1-4.4-24.2
			c-0.9-7.6-2.3-15.1-4-22.6c-0.1-0.3-0.2-0.8-0.3-1.6C185.7,105.8,183,94.1,178.6,91.2z"/>
		<path class="st4" d="M176.1,197.9c-0.5-27,1.4-42.8-0.5-58.6c-0.2-2.1-3.5-6.4-3.8-8.6c-1-8.6-1.6-18.2-2.3-30.2
			c-0.2-3.3,3.2-8.2,6-10.1c14.5-5.4,19.3-13.7,32.6-13.7c12.5,0,21.4,6.9,33.6,13.2c5.2,2.7,8.8,7.7,9.7,13.5
			c0.2,0.9,0.2,1.8,0.2,2.8c0,27.7-19.6,34.3-19.6,91.7L176.1,197.9z"/>
		<path class="st5" d="M184.5,178.4c0-0.1,0-0.1,0-0.2c0-0.1,0-0.3,0-0.4V178.4z"/>
		<path class="st6" d="M227.2,177.3c-0.1,4.8-3.9,8.7-8.7,9c-12.4,0.6-29.5,0.8-34.1-5.2c-7-9.9-4.1-25.1-5.9-38.6
			c-1.4-6.5-2.9-10.4-7.1-15.5c0.1,1.2,0.2,2.5,0.4,3.7c0.2,2.1,3.5,6.5,3.8,8.6c1.9,15.9,0,31.6,0.5,58.6h56.1
			c0-28.9,5-44.9,9.9-57.3C229.3,148.1,227.4,162.4,227.2,177.3z"/>
		
			<linearGradient id="SVGID_3_" gradientUnits="userSpaceOnUse" x1="174.6" y1="75.455" x2="234.27" y2="75.455" gradientTransform="matrix(1 0 0 -1 0 270)">
			<stop  offset="2.000000e-02" style="stop-color:#8552BF"/>
			<stop  offset="1" style="stop-color:#7035B1"/>
		</linearGradient>
		<path class="st7" d="M231.8,198.4H177c-1.3,0-2.4-1.1-2.4-2.4v-2.9c0-1.3,1.1-2.4,2.4-2.4h54.8c1.3,0,2.4,1.1,2.4,2.4v2.9
			C234.3,197.3,233.2,198.4,231.8,198.4z"/>
		<path class="st8" d="M193.8,197h-7.1c-0.9,0-1.6-0.7-1.6-1.6v-1.8c0-0.9,0.7-1.6,1.6-1.6h7.1c0.9,0,1.6,0.7,1.6,1.6v1.8
			C195.4,196.3,194.6,197,193.8,197z"/>
		<path class="st3" d="M219.7,80.7c-9.6,5.2-20.4,4.4-22,0c-0.4-5.5,0.1-11.7,0.4-18.1c0.4-5.2,4.3-9.5,9.4-10.4l0,0
			c5.9-1,10.7,3.2,10.4,9C216.9,71.1,217.8,74.7,219.7,80.7z"/>
		<path class="st9" d="M196.9,84.1c1,2.5,2.2,5,3.7,7.3c2.7-2.4,5.7-4.8,9-7.3c-2.4-1.4-4.9-2.7-7.5-3.9
			C202.1,80.1,198,81.2,196.9,84.1z"/>
		<path class="st6" d="M205.3,89.6c-2-2.8-3.1-6.1-3.2-9.5c6.3-1.9,14.8-5.3,15.3-8c1.2,0.3,1.4,1.9,1.5,3.7c1.4,2.1,3,2.1,1.9,4.4
			C219.4,83.2,211.9,88.6,205.3,89.6z"/>
		<path class="st9" d="M203.4,88.9c-5.5,19.8,1.3,42.3-4.3,62.1c-3.1,2.6-6.3,5-9.7,7.1c-0.3-3.2,0.1-5.8-1.2-9.1
			c9.8-19.8,1.4-40.3,11.1-60.2H203.4z"/>
		<path class="st6" d="M196,89.6c2-3.2,5.3-6.3,6.1-9.5c-3.5-1.7-4.5-4.4-4.5-7.7c-1.4,0.3-2.4,3.3-3.4,6.1
			C193.6,80.6,196.8,86.6,196,89.6z"/>
		<path class="st10" d="M188.5,35.5c-0.8,2.8-1.1,5.8-0.8,8.7c0.7,7-0.2,13.7,1.5,20c1.2,4.4,1.1,9,8.6,8.6c5.1-0.3,11-0.7,16.4-6.6
			c3.3-3.6,10.3-10.8,3.1-21.2s-28.2-11.7-28.2-11.7L188.5,35.5z"/>
		<path class="st10" d="M210.9,51.5c3.1-2.9,5.5-2.2,6.1,0.7s-6.2,6.8-6.2,6.8L210.9,51.5z"/>
		
			<linearGradient id="SVGID_4_" gradientUnits="userSpaceOnUse" x1="-2265.269" y1="385.8234" x2="-2210.627" y2="385.8234" gradientTransform="matrix(-0.99 -0.13 0.13 -0.99 -2065 138.87)">
			<stop  offset="2.000000e-02" style="stop-color:#8552BF"/>
			<stop  offset="1" style="stop-color:#7035B1"/>
		</linearGradient>
		<path class="st11" d="M184.4,47.8c-2.4-0.2-4.9-1.8-5.1-4.2c-0.1-1.2,2.8-2.7,2.4-3.8c-0.6-1.4-2.4-1.8-3.5-2.9
			c-1.6-1.7-2.3-4.1-1.8-6.5c0.7-2.1,3.7-8.2,11.4-3.6c6.4,3.8,12.6-5.2,19.9-6.6c7.1-1.3,14,3.5,15.2,10.6c0.2,0.9,0.2,1.7,0.2,2.6
			c4.3,0.9,7,5.8,6.6,10.2s-1.4,7.6-5.1,12.3c-2.7,3.5-5.2,8.6-8.3,11.8c-0.7-7.8,0.1-8.1,1.2-10.9c0.4-1.1,0.2-2.2-0.4-3.2
			c-1.1-0.9-1.9-0.2-2.7,0.2c-0.7,0.5-1.3,1.3-1.6,2.1c-2,4.1-0.4,8.6-2.6,12.5s-8.7,7.5-13.2,7.7c-0.8,0.1-1.7-0.1-2.4-0.4
			c-0.8-0.4-1.4-1-1.9-1.7c-2.1-2.7-3.6-5.7-4.5-9c-0.4-1.6-0.6-3.6,0.6-4.8c0.9-0.8,2-1.2,3.1-1.1c4.4-0.1,8.5,1.9,11.2,5.3
			c1.5,1.9,4.9,3.6,5.7,0.5s0.9-5.9,1.3-9.1c0.8-5.4,3.5-8.3,3-10.8S186.7,48,184.4,47.8z"/>
		<path class="st5" d="M199.3,65.6c-0.8,1.7-2.7,2.8-4.6,2.6c-1.8,0-3.2-1.5-3.2-3.3c0-0.1,0-0.2,0-0.3c1.2,0.5,2.5,0.8,3.8,1.2
			C196.6,65.9,197.9,65.9,199.3,65.6z"/>
		<path class="st9" d="M176.3,30.4c0.5-1.6,1.4-3,2.7-4.1c-0.6,1.3-1.9,7.1,1.7,7.9c11.2,2.6,2.7,3.9,6.2,6.6
			c7.6,5.5,17.8-5.9,25.4-0.4c5.5,3,1.2,8.9-2.4,15.1c0.9-5.1,3.4-7.9,3-10.3s-26.2,2.8-28.6,2.6s-4.9-1.8-5.1-4.2
			c-0.1-1.2,2.8-2.7,2.4-3.8c-0.6-1.4-2.4-1.8-3.5-2.9C176.6,35.1,175.9,32.7,176.3,30.4z"/>
		<path class="st12" d="M258,175.7L258,175.7c3.8-0.7,6.4-4.2,5.5-10.2c-3.4-19.1-2.4-34-7-46.9l-1.4-9.1
			c-1.5-9.8-7.9-16.9-14.1-15.8l0,0c-6.4,1.1-5.8,16.6-1.5,27.3c0.2,21.2,6.9,25.1,10,47C250.5,173.9,254.2,176.4,258,175.7z"/>
		<path class="st3" d="M250.2,223.7c4.8-21.7,10.5-36.2,13.5-53.4c1.1-6.3-1.1-10.6-5.2-11.3l0,0c-4-0.7-7.1,2.3-8.7,8.4
			c-3.3,12.7-2.5,29.7-7.2,54.7C241.9,226.4,249.2,227.9,250.2,223.7z"/>
		<path class="st3" d="M249.3,240.6L249.3,240.6c-1-0.1-1.7-1-1.6-2l0.5-5.9c0.1-1.2,4.3-2.1,4.1-0.9l-0.9,7.1
			C251.2,240,250.3,240.7,249.3,240.6z"/>
		<path class="st3" d="M248.1,239.7L248.1,239.7c-1,0-1.8-0.9-1.8-1.9c0,0,0,0,0,0l0.3-5.9c0-1.1,1-2.1,2.1-2.1l0,0
			c1.1,0.1,1.9,1,1.8,2.1c0,0,0,0.1,0,0.1l-0.5,5.9C250,239,249.1,239.7,248.1,239.7z"/>
		<path class="st3" d="M244.4,240.5L244.4,240.5c-1-0.1-1.8-0.9-1.7-1.9l0.4-7.6c0-1.1,1-2,2.1-2l0,0c1.1,0.1,1.9,1,1.8,2.1
			c0,0,0,0.1,0,0.1l-0.6,7.5C246.3,239.8,245.5,240.5,244.4,240.5z"/>
		<path class="st3" d="M240.8,224.3c0.9-3,4.3-7,7.9-6.5c4.8,0.6,4.2,9.3,3.6,13.9c-0.9,2.7-3.6,4.3-6.4,3.9
			c-1.3-0.1-4.9,0.1-5.7-2.2S240.4,225.7,240.8,224.3z"/>
		<path class="st3" d="M239.2,231.4c-0.9,2.6-3.3,5.8-5.1,5.6c-0.8-0.1-0.8-0.8-0.5-1.5c0.9-2.2,1.6-4.4,2.2-6.7
			C237,226.9,240.3,228.1,239.2,231.4z"/>
		<path class="st3" d="M242.8,220.9c3.8,0.9,2.7,6.3-0.1,8.1c-1,0.7-1.8,2.4-2.7,3.2c-0.1-0.7-1-0.4-1.2,0.2
			c-0.6,1.6-3.6-1.8-2.9-3.9S241.1,221.9,242.8,220.9z"/>
		<path class="st3" d="M232.5,243.4c-0.6-1.1-0.2-2.6,0.9-3.2l6.5-3.6c0.9-0.5,1.5-1,2-0.1l1,1.8c0.6,1-0.4,1.3-1.5,1.7L232.5,243.4
			z"/>
		<path class="st3" d="M241.5,239L241.5,239c-1-0.1-1.7-1-1.6-2l0.7-7.5c0-1.2,1-2,2.2-2c0,0,0,0,0,0l0,0c1.1,0.1,1.9,1.1,1.7,2.2
			c0,0,0,0.1,0,0.1l-0.9,7.5C243.4,238.3,242.5,239.1,241.5,239z"/>
		<path class="st4" d="M264.7,162.8c-1.1-6.7-1.6-12.8-2.2-18.7c-0.9-9.7-1.7-18-4.5-25.9l-1.3-8.9c-1-6.5-4.1-12.2-8.3-15.2
			c-2.2-1.7-5.1-2.4-7.8-2c-1.9,0.4-3.5,1.6-4.4,3.3c-3.2,5.7-1.8,17.6,1.4,26c0.1,11.9,2.4,18.6,4.8,25.7
			c2.4,6.8,4.2,13.8,5.2,20.9c-1.5,6.2-2.2,13.9-3.1,22.9c-0.8,8.3-1.1,14.2-2.7,24.3l11.4,2c1.7-7.1,3-10.5,4.7-17
			c2.8-10.3,5.5-20,7.1-29.5C265.6,168,265.5,165.3,264.7,162.8z"/>
		<polygon class="st3" points="232.8,243.4 245.2,243.4 250.5,240.3 242.7,237.4 234.4,241.5 		"/>
		<path class="st6" d="M264.7,162.8c-1.1-6.7-1.6-12.8-2.2-18.7c-0.9-9.2-1.6-17.3-4.1-24.8c3.3,47.9,4.5,51.8-2.6,78.2
			c-1.8,4.7-4.7,10.5-10.5,12.9c-1,0.3-1.9,0.5-2.8,0.7c-0.2,1.2-0.4,2.6-0.6,4l11.4,2c1.7-7.1,3-10.5,4.7-17
			c2.8-10.3,5.5-20,7.1-29.5C265.6,168,265.5,165.3,264.7,162.8z"/>
		<path class="st9" d="M231.2,213.4l1-15.4h-56l-4.4,18.6C191.4,222,212.2,220.8,231.2,213.4z"/>
		<path class="st9" d="M92,40.8c4,3.2,6.4,7.9,8.4,12.6c1.6,3.4,2.7,7.1,3.1,10.8c0.4,3.8-0.7,7.6-3,10.6c-2,2.3-4.9,3.8-6.8,6.1
			c-4.2,5.1-3,12.5-4.1,19c-0.6,3.9-2.3,7.5-5,10.4c-2.7,2.9-6.6,4.4-10.6,4c-4.5-0.6-8.4-4-10.5-8s-2.8-8.7-3-13.3
			c-0.6-10.6,0.5-21.3,3.5-31.5C67.2,50.2,77.5,29.1,92,40.8z"/>
		<path class="st3" d="M59,113.2c0.7,6.6-4,22.2-22.2,44.3c7.6,4.9,27.2,23.9,32.9,26.1s12.4,2.7,14.5,6.5s-4.2,6.4-8.2,3.6
			s-6.5-4-17.3-8.2s-35.4-18.7-35-25.9S32.5,126.9,42,118c5.5-5.2,9.9-7.1,12.6-7.8c1.9-0.5,3.8,0.6,4.3,2.5
			C58.9,112.8,59,113,59,113.2z"/>
		
			<linearGradient id="SVGID_5_" gradientUnits="userSpaceOnUse" x1="39.79" y1="109.619" x2="103" y2="109.619" gradientTransform="matrix(1 0 0 -1 0 270)">
			<stop  offset="0.15" style="stop-color:#E462C7"/>
			<stop  offset="1" style="stop-color:#A028BA"/>
		</linearGradient>
		<path class="st13" d="M76.8,103.7c0,0,21.6,24.1,23.2,34.5s-4.4,22.4-4.4,34.8s7.4,34.8,7.4,34.8s-4.9,23.8-63.2,1.9
			c1.1-14.5,15.7-28.9,12.7-52.1s-10-39-4.5-46.9S72.4,99.8,76.8,103.7z"/>
		<path class="st14" d="M95.7,172.9c0-12.3,6-24.4,4.4-34.8c-0.6-4-4.2-10-8.4-15.9c-0.2,8.1,7.2,15.2,4.4,23.3
			c-1.8,5.9-11.7,11.1-9.9,15.8c2.9,6.4-5.3,9.9-7,15.8c-1.2,7,4.7,13.4,1.8,19.9c-6.3,14.9-25.5,16.2-41,12c0,0.2,0,0.4-0.1,0.6
			c58.3,21.9,63.2-1.9,63.2-1.9S95.7,185.2,95.7,172.9z"/>
		<path class="st10" d="M97.8,68.6c2.2-6.6,0-13.8-5.5-18.1c-5.3-4.2-17.1-5.5-24.7,1.1c-20.8,18,6.9,21,0.6,38.2
			c-0.3,5.2-4.4,11.4-10,15.9c16.4,4.4,20,14.9,25.9,13.1c3.9-1.1-4.8-6.4-3.8-13.5c2.2-15.3,11-11.6,13.6-14c4-3.8,1-8.2,5.5-10.3
			S95.7,75.3,97.8,68.6z"/>
		
			<linearGradient id="SVGID_6_" gradientUnits="userSpaceOnUse" x1="0" y1="180.6676" x2="90.52" y2="180.6676" gradientTransform="matrix(1 0 0 -1 0 270)">
			<stop  offset="2.000000e-02" style="stop-color:#8552BF"/>
			<stop  offset="1" style="stop-color:#7035B1"/>
		</linearGradient>
		<path class="st15" d="M81,39.3c4.1,1.5,8.2,4.3,9.2,8.6c0.9,3.8-0.9,7.8-3.2,11s-5,6.2-6.3,10c-3.4,9.8,4.1,21.2-0.4,30.6
			c-2.4,5.1-7.7,8-13,10c-2.6,1-5.3,1.9-7.9,2.9l-1.1,0.4l-1.1,0.5c-0.4,0.2-0.7,0.3-1.1,0.5s-0.7,0.4-1,0.6c-0.3,0.2-0.7,0.5-1,0.7
			c-0.3,0.3-0.6,0.5-0.9,0.8c-0.3,0.3-0.5,0.6-0.8,1c-0.2,0.3-0.4,0.7-0.6,1c-0.2,0.4-0.4,0.7-0.5,1.1c-0.1,0.4-0.3,0.8-0.4,1.2
			c-0.1,0.4-0.2,0.9-0.4,1.3s-0.2,0.9-0.3,1.4c0,0.2-0.1,0.5-0.1,0.7l-0.2,0.8c0,0.2-0.1,0.5-0.1,0.8s-0.1,0.5-0.1,0.8l-0.2,0.8
			l-0.2,0.8c0,0.3-0.1,0.5-0.2,0.8s-0.1,0.5-0.2,0.8s-0.1,0.6-0.2,0.8s-0.1,0.5-0.2,0.8s-0.2,0.5-0.2,0.8s-0.2,0.5-0.3,0.8
			s-0.2,0.5-0.3,0.8s-0.2,0.5-0.3,0.8s-0.2,0.5-0.3,0.7s-0.3,0.5-0.4,0.7s-0.3,0.5-0.4,0.7s-0.3,0.4-0.5,0.7s-0.3,0.4-0.5,0.6
			s-0.4,0.4-0.6,0.6c-0.2,0.2-0.4,0.4-0.6,0.5c-0.2,0.2-0.4,0.3-0.7,0.5s-0.5,0.3-0.7,0.5s-0.5,0.3-0.8,0.4
			c-0.3,0.1-0.5,0.2-0.8,0.4c-0.3,0.1-0.6,0.2-0.9,0.3c-0.3,0.1-0.6,0.2-0.9,0.2s-0.6,0.1-1,0.2s-0.7,0.1-1,0.1s-0.7,0.1-1.1,0.1
			s-0.7,0-1.1,0c-0.4,0-0.8,0-1.2-0.1l-1.2-0.1c-0.4-0.1-0.8-0.1-1.2-0.2l-1.3-0.3l-0.7-0.1l-0.3-0.1l-0.4-0.1l-0.4-0.1l-0.4-0.1
			l-0.4-0.1l-0.4-0.1l-0.4-0.1L27,140l-0.4-0.1h-0.4h-0.4h-0.5h-2h-0.5h-0.6h-0.6H21l-0.6,0.1l-0.6,0.1l-0.6,0.1l-0.7,0.1l-0.7,0.1
			l-0.7,0.1l-0.7,0.1l-0.7,0.1c-0.2,0-0.4,0-0.7,0.1h-0.7h-0.6h-0.6l-0.6-0.1l-0.5-0.1c-0.2,0-0.3-0.1-0.5-0.1
			c-0.1,0-0.3-0.1-0.4-0.2c-0.1-0.1-0.2-0.1-0.3-0.2c-0.1-0.1-0.2-0.1-0.3-0.2c-0.1-0.1-0.2-0.2-0.3-0.3c-0.1-0.1-0.2-0.2-0.2-0.3
			c-0.1-0.1-0.1-0.2-0.2-0.3c-0.1-0.1-0.1-0.2-0.2-0.4c-0.1-0.1-0.1-0.3-0.1-0.4c0-0.1-0.1-0.3-0.1-0.4c0-0.1-0.1-0.3-0.1-0.4
			c0-0.1-0.1-0.3-0.1-0.4l-0.1-0.4c0-0.1,0-0.3-0.1-0.4s0-0.3,0-0.4s0-0.3-0.1-0.4s0-0.3-0.1-0.4s0-0.3,0-0.4L9,133.7
			c0-0.1,0-0.3-0.1-0.4s0-0.3-0.1-0.4s0-0.3-0.1-0.4l-0.1-0.4c0-0.1-0.1-0.2-0.1-0.4s-0.1-0.2-0.1-0.4L8.4,131l-0.1-0.3l-0.1-0.3
			c-0.1-0.2-0.2-0.4-0.3-0.6c-0.1-0.2-0.2-0.4-0.3-0.6c-0.1-0.2-0.2-0.3-0.3-0.5c-0.1-0.2-0.2-0.3-0.4-0.5l-0.4-0.4L6,127.4
			l-0.4-0.4l-0.4-0.4c-0.1-0.1-0.3-0.2-0.4-0.4L4.4,126l-0.3-0.4l-0.3-0.4l-0.3-0.4l-0.3-0.4c-0.1-0.1-0.2-0.2-0.3-0.3
			s-0.2-0.2-0.3-0.3l-0.2-0.4c-0.1-0.1-0.2-0.2-0.2-0.3L2,122.8c-0.1-0.1-0.1-0.2-0.2-0.3l-0.2-0.3l-0.2-0.3
			c-0.1-0.1-0.1-0.2-0.2-0.3L1.1,121l-0.1-0.3c-0.1-0.1-0.1-0.2-0.1-0.3s-0.1-0.2-0.1-0.3s-0.1-0.2-0.1-0.3s-0.1-0.2-0.1-0.3
			s-0.1-0.2-0.1-0.3s-0.1-0.2-0.1-0.3s0-0.2-0.1-0.3l-0.1-0.3c0-0.1,0-0.2,0-0.3s0-0.2,0-0.3v-0.3c0-0.2,0-0.4,0-0.7s0-0.3,0-0.5
			s0-0.3,0-0.5s0-0.3,0-0.5s0-0.3,0.1-0.4s0.1-0.3,0.1-0.4s0.1-0.3,0.1-0.4s0.1-0.3,0.1-0.4l0.2-0.4c0.1-0.1,0.1-0.3,0.2-0.4
			s0.1-0.3,0.2-0.4s0.1-0.3,0.2-0.4c0.1-0.1,0.2-0.3,0.3-0.4c0.1-0.1,0.1-0.2,0.2-0.3l0.2-0.3l0.2-0.3l0.3-0.3
			c0.1-0.1,0.2-0.2,0.3-0.3s0.2-0.2,0.3-0.3l0.3-0.3l0.3-0.3l0.4-0.3l0.4-0.3l0.4-0.3l0.4-0.3l0.4-0.3l0.4-0.3l0.4-0.3l0.4-0.3
			l0.4-0.3l0.4-0.3l0.4-0.3l0.4-0.3l0.4-0.3l0.4-0.3l0.4-0.3l0.4-0.3l0.4-0.3l0.4-0.3l0.4-0.3l0.3-0.3l0.3-0.3l0.3-0.3l0.3-0.3
			l0.3-0.3c0.1-0.1,0.2-0.2,0.3-0.3l0.3-0.3l0.3-0.3l0.3-0.3l0.2-0.3l0.2-0.3l0.4-0.5c0.1-0.2,0.3-0.4,0.4-0.6
			c0.1-0.2,0.2-0.4,0.3-0.6c0.1-0.2,0.2-0.3,0.3-0.5s0.2-0.3,0.3-0.5c0.2-0.3,0.3-0.7,0.5-1s0.3-0.7,0.5-1s0.3-0.6,0.4-0.8
			s0.3-0.5,0.5-0.8s0.3-0.5,0.5-0.8s0.4-0.5,0.6-0.8s0.4-0.5,0.6-0.7s0.5-0.4,0.7-0.7c0.3-0.3,0.7-0.6,1.1-0.9
			c0.4-0.3,0.7-0.5,1.1-0.7s0.8-0.4,1.1-0.6l1.2-0.6l1.2-0.6c0.4-0.2,0.8-0.4,1.1-0.6s0.7-0.4,1.1-0.7c0.3-0.2,0.7-0.5,1-0.8
			c3.4-3,3.7-8,3.5-12.5s-0.9-9.3,1.3-13.2c2.4-4.2,7.3-6.2,11.8-8c3.3-1.3,7-2.9,9.4-5.7c1.5-1.8,2.2-4.3,4.1-5.8
			C64.6,35.8,75.1,37.2,81,39.3z"/>
		<path class="st9" d="M87.1,59c2.2-3.2,4.1-7.2,3.2-11c-1-4.3-5.1-7.1-9.2-8.6c-5.9-2.2-16.5-3.5-21.8,0.9c-1.9,1.5-2.5,4-4.1,5.8
			l-0.2,0.2c8.7-3,18.3-6.4,22.4,3.3c2.3,6.4-4.7,12.3-5.3,19.3c0,7,1.8,13.5-0.6,20.5c-0.7,1.6-1.4,3.2-2.3,4.7
			c-5.3,5.8-14.6,4.1-18.7,11.1c-5.3,8.8-2.9,21.1-12.3,26.9c-7,4.1-17,4.1-21.6,1.8c-2.9-1.4-5.9-2.9-8.9-4.4l0.2,0.4
			c0.1,0.2,0.2,0.4,0.3,0.6l0.1,0.3l0.1,0.3l0.1,0.4c0,0.1,0.1,0.2,0.1,0.4s0.1,0.2,0.1,0.4l0.1,0.4c0,0.1,0.1,0.3,0.1,0.4
			s0.1,0.3,0.1,0.4s0.1,0.3,0.1,0.4l0.1,0.4c0,0.1,0,0.3,0,0.4s0,0.3,0.1,0.4s0,0.3,0.1,0.4s0,0.3,0,0.4s0,0.3,0.1,0.4l0.1,0.4
			c0,0.1,0,0.3,0.1,0.4c0,0.1,0.1,0.3,0.1,0.4c0,0.1,0.1,0.3,0.1,0.4c0,0.1,0.1,0.3,0.1,0.4c0,0.1,0.1,0.2,0.2,0.4
			c0.1,0.1,0.1,0.2,0.2,0.3c0.1,0.1,0.2,0.2,0.2,0.3c0.1,0.1,0.2,0.2,0.3,0.3c0.1,0.1,0.3,0.1,0.4,0.2c0.1,0.1,0.2,0.2,0.4,0.2
			c0.1,0.1,0.3,0.1,0.4,0.2c0.1,0,0.3,0.1,0.5,0.1l0.5,0.1l0.6,0.1H14h0.6h0.7c0.2,0,0.4,0,0.7-0.1l0.7-0.1l0.7-0.1l0.7-0.1l0.7-0.1
			l0.7-0.1l0.6-0.1l0.6-0.1l0.6-0.1h0.6h0.6h0.6h0.5h2h0.5h0.4h0.4l0.4,0.1l0.4,0.1l0.4,0.1l0.4,0.1l0.4,0.1l0.4,0.1l0.4,0.1
			l0.4,0.1l0.3,0.1l0.7,0.1l1.3,0.3c0.4,0.1,0.8,0.1,1.2,0.2l1.2,0.1c0.4,0,0.8,0.1,1.2,0.1c0.4,0,0.7,0,1.1,0s0.7,0,1.1-0.1
			s0.7-0.1,1-0.1s0.7-0.1,1-0.2s0.6-0.2,0.9-0.2s0.6-0.2,0.9-0.3c0.3-0.1,0.5-0.2,0.8-0.4c0.3-0.1,0.5-0.3,0.8-0.4s0.5-0.3,0.7-0.5
			s0.4-0.3,0.7-0.5c0.2-0.2,0.4-0.3,0.6-0.5c0.2-0.2,0.4-0.4,0.6-0.6s0.3-0.4,0.5-0.6s0.3-0.4,0.5-0.7s0.3-0.4,0.4-0.7
			s0.3-0.5,0.4-0.7s0.2-0.5,0.3-0.7s0.2-0.5,0.3-0.8s0.2-0.5,0.3-0.8s0.2-0.5,0.3-0.8s0.2-0.5,0.2-0.8s0.2-0.5,0.2-0.8
			s0.1-0.6,0.2-0.8s0.1-0.5,0.2-0.8s0.1-0.6,0.2-0.8l0.2-0.8l0.2-0.8c0-0.3,0.1-0.5,0.1-0.8s0.1-0.5,0.1-0.8l0.2-0.8
			c0-0.2,0.1-0.5,0.1-0.7c0.1-0.5,0.2-1,0.3-1.4s0.2-0.9,0.4-1.3s0.3-0.8,0.4-1.2c0.1-0.4,0.3-0.7,0.5-1.1c0.2-0.3,0.4-0.7,0.6-1
			c0.2-0.4,0.5-0.7,0.8-1c0.3-0.3,0.6-0.6,0.9-0.8c0.3-0.3,0.7-0.5,1-0.7c0.3-0.2,0.7-0.4,1-0.6s0.7-0.4,1.1-0.5l1.1-0.5l1.1-0.4
			c2.6-1,5.3-1.9,7.9-2.9c5.2-2,10.5-5,13-10c4.4-9.3-3-20.8,0.4-30.6C82.2,65.2,84.9,62.2,87.1,59z"/>
		<path class="st10" d="M62.4,114.7c1.4-1.9,4-2.3,5.8-0.9c0.2,0.1,0.3,0.2,0.5,0.4c5.5,5.6,12.7,23.4,12.2,57.4
			c10.6-1.1,42.8,2,49.7-0.2c2.3-0.7,4.6-1.7,6.8-2.6c0-0.1,0-0.2,0.1-0.3c0.8-2.3,2.3-3.9,3.4-3.5c0.6,0.2,1,1,1.1,2
			c2.6-0.8,4.9-1.2,7-0.3c4.8,2,0.9,9-4.9,9.3s-9,1.1-22,5.2s-46.5,8.9-51.5,2s-16.1-36.8-13.9-52C57.8,122.3,60.4,117.3,62.4,114.7
			z"/>
	</g>
</g>
</svg>
