<?xml version="1.0" encoding="utf-8"?>
<!-- Generator: Adobe Illustrator 23.0.1, SVG Export Plug-In . SVG Version: 6.00 Build 0)  -->
<svg version="1.1" id="Layer_1" xmlns="http://www.w3.org/2000/svg" xmlns:xlink="http://www.w3.org/1999/xlink" x="0px" y="0px"
	 viewBox="0 0 235.9 248" style="enable-background:new 0 0 235.9 248;" xml:space="preserve">
<style type="text/css">
	.st0{opacity:0.29;fill:#E6E6E6;enable-background:new    ;}
	.st1{clip-path:url(#SVGID_2_);}
	.st2{opacity:0.46;fill:#E6E6E6;enable-background:new    ;}
	.st3{fill:#571C8A;}
	.st4{fill:#FCDF6A;}
	.st5{fill:url(#SVGID_3_);}
	.st6{fill:#F9A500;}
	.st7{fill:#30036E;}
	.st8{fill:url(#SVGID_4_);}
	.st9{fill:#FFFFFF;}
</style>
<title>przeciagnij_i_upusc</title>
<g>
	<g id="Layer_1-2">
		<circle class="st0" cx="110" cy="136.6" r="110"/>
		<g>
			<defs>
				<circle id="SVGID_1_" cx="110" cy="136.6" r="110"/>
			</defs>
			<clipPath id="SVGID_2_">
				<use xlink:href="#SVGID_1_"  style="overflow:visible;"/>
			</clipPath>
			<g class="st1">
				<path class="st2" d="M159.1,284.1c-10.1,5.3-20.6,10.6-31.9,11.3c-9.9,0.6-19.6-2.4-29-5.3l-37.4-11.7c-6.3-2-12.7-4-18.1-7.7
					s-9.8-9.5-10.2-16.1c-0.5-9.2,6.5-16.9,13-23.4s13.5-14.3,12.7-23.5c-0.9-11-12.2-18.1-16.3-28.4c-4.3-11.1,0.8-24,9.4-32.3
					s19.9-12.8,30.9-17.4c11-4.5,22.3-9.4,30.4-18.1c6-6.4,10-14.7,16.1-21c15.5-15.9,41-16.2,56.9-0.7c5.5,5.4,9.4,12.2,11.1,19.7
					c4.4,19.2-5.4,38.4-14.5,55.8c-2.9,5.6-5.9,11.7-5.4,18c0.6,8.4,7,15,12.1,21.7c12.9,16.8,19.6,37.5,19,58.7
					c-0.3,9.2-5.4,22.9-16.9,17.8c-4.1-1.8-7.4-3.9-12.1-3.9C172,277.7,165.2,281,159.1,284.1z"/>
			</g>
		</g>
		<path class="st3" d="M179,248h-11.8c-1.4,0-2.5-1.1-2.5-2.5s1.1-2.5,2.5-2.5h11.8c1.4,0,2.5,1.1,2.5,2.5S180.4,248,179,248z
			 M155.3,248h-11.8c-1.4,0-2.5-1.1-2.5-2.5s1.1-2.5,2.5-2.5h11.8c1.4,0,2.5,1.1,2.5,2.5S156.7,248,155.3,248z M131.6,248h-11.9
			c-1.4,0-2.5-1.1-2.5-2.5s1.1-2.5,2.5-2.5h11.9c1.4,0,2.5,1.1,2.5,2.5S133,248,131.6,248z M107.9,248H96c-1.4,0-2.5-1.1-2.5-2.5
			s1.1-2.5,2.5-2.5h11.9c1.4,0,2.5,1.1,2.5,2.5S109.3,248,107.9,248z M84.2,248H72.3c-1.4,0-2.5-1.1-2.5-2.5s1.1-2.5,2.5-2.5h11.9
			c1.4,0,2.5,1.1,2.5,2.5S85.6,248,84.2,248z M60.5,248h-5c-2.6,0-5.1-0.4-7.5-1.3c-1.3-0.5-2-1.9-1.5-3.2c0.5-1.3,1.9-2,3.2-1.5
			c1.9,0.7,3.9,1,5.9,1h5c1.4,0,2.5,1.1,2.5,2.5S61.9,248,60.5,248z M190.1,244.6c-0.8,0-1.6-0.4-2.1-1.1c-0.8-1.1-0.5-2.7,0.7-3.5
			c2.9-2,5.2-4.7,6.5-7.9c0.5-1.3,2-1.9,3.3-1.4c1.3,0.5,1.9,2,1.4,3.3c-1.7,4.1-4.6,7.6-8.3,10.1
			C191.1,244.4,190.6,244.6,190.1,244.6z M39.3,239.9c-0.8,0-1.5-0.3-2-1c-2.7-3.6-4.3-7.8-4.5-12.3c-0.1-1.4,1-2.6,2.4-2.6
			c1.4-0.1,2.6,1,2.6,2.4c0.2,3.5,1.4,6.8,3.5,9.6c0.8,1.1,0.6,2.7-0.5,3.5C40.4,239.8,39.9,239.9,39.3,239.9z M199.1,223.9
			c-1.4,0-2.5-1.1-2.5-2.5v-11.9c0-1.4,1.1-2.5,2.5-2.5s2.5,1.1,2.5,2.5v11.9C201.6,222.8,200.5,223.9,199.1,223.9z M35.3,217.1
			c-1.4,0-2.5-1.1-2.5-2.5v-11.9c0-1.4,1.1-2.5,2.5-2.5s2.5,1.1,2.5,2.5v11.9C37.8,216,36.7,217.1,35.3,217.1z M199.1,200.2
			c-1.4,0-2.5-1.1-2.5-2.5v-11.8c0-1.4,1.1-2.5,2.5-2.5s2.5,1.1,2.5,2.5v11.8C201.6,199.1,200.5,200.2,199.1,200.2z M35.3,193.4
			c-1.4,0-2.5-1.1-2.5-2.5v-11.8c0-1.4,1.1-2.5,2.5-2.5s2.5,1.1,2.5,2.5v11.8C37.8,192.3,36.7,193.4,35.3,193.4z M199.1,176.5
			c-1.4,0-2.5-1.1-2.5-2.5v-11.8c0-1.4,1.1-2.5,2.5-2.5s2.5,1.1,2.5,2.5V174C201.6,175.4,200.5,176.5,199.1,176.5z M35.3,169.7
			c-1.4,0-2.5-1.1-2.5-2.5v-11.8c0-1.4,1.1-2.5,2.5-2.5s2.5,1.1,2.5,2.5v11.8C37.8,168.6,36.7,169.7,35.3,169.7z M199.1,152.8
			c-1.4,0-2.5-1.1-2.5-2.5v-11.8c0-1.4,1.1-2.5,2.5-2.5s2.5,1.1,2.5,2.5v11.8C201.6,151.7,200.5,152.8,199.1,152.8z M35.3,146
			c-1.4,0-2.5-1.1-2.5-2.5v-11.9c0-1.4,1.1-2.5,2.5-2.5s2.5,1.1,2.5,2.5v11.9C37.8,144.9,36.7,146,35.3,146z M199.1,129.1
			c-1.4,0-2.5-1.1-2.5-2.5v-11.9c0-1.4,1.1-2.5,2.5-2.5s2.5,1.1,2.5,2.5v11.9C201.6,128,200.5,129.1,199.1,129.1z M35.3,122.3
			c-1.4,0-2.5-1.1-2.5-2.5V108c0-1.4,1.1-2.5,2.5-2.5s2.5,1.1,2.5,2.5v11.8C37.8,121.2,36.7,122.3,35.3,122.3z M199.1,105.4
			c-1.4,0-2.5-1.1-2.5-2.5V91c0-1.4,1.1-2.5,2.5-2.5s2.5,1.1,2.5,2.5v11.9C201.6,104.3,200.5,105.4,199.1,105.4z M35.3,98.6
			c-1.4,0-2.5-1.1-2.5-2.5V84.3c0-1.4,1.1-2.5,2.5-2.5s2.5,1.1,2.5,2.5v11.9C37.8,97.5,36.7,98.6,35.3,98.6z M199.1,81.7
			c-1.4,0-2.5-1.1-2.5-2.5V67.3c0-1.4,1.1-2.5,2.5-2.5s2.5,1.1,2.5,2.5v11.9C201.6,80.6,200.5,81.7,199.1,81.7z M35.3,74.9
			c-1.4,0-2.5-1.1-2.5-2.5V60.6c0-1.4,1.1-2.5,2.5-2.5s2.5,1.1,2.5,2.5v11.9C37.8,73.8,36.7,74.9,35.3,74.9z M199,58
			c-1.3,0-2.4-1-2.5-2.4c-0.2-3.5-1.4-6.8-3.5-9.6c-0.8-1.1-0.6-2.7,0.5-3.5c1.1-0.8,2.7-0.6,3.5,0.5c2.7,3.6,4.2,7.9,4.5,12.3
			c0.1,1.4-1,2.6-2.4,2.6C199.1,58,199.1,58,199,58z M36.8,51.4c-0.3,0-0.6-0.1-1-0.2c-1.3-0.5-1.9-2-1.4-3.3
			c1.7-4.1,4.6-7.7,8.3-10.2c1.1-0.8,2.7-0.5,3.5,0.7c0.8,1.1,0.5,2.7-0.7,3.5c-2.9,2-5.1,4.7-6.5,7.9
			C38.7,50.8,37.8,51.4,36.8,51.4z M185.7,40.1c-0.3,0-0.6,0-0.8-0.1c-1.9-0.7-3.9-1-5.9-1h-5c-1.4,0-2.5-1.1-2.5-2.5
			s1.1-2.5,2.5-2.5h5c2.6,0,5.2,0.4,7.6,1.3c1.3,0.5,2,1.9,1.5,3.2C187.7,39.4,186.7,40.1,185.7,40.1z M55.3,38.9
			c-1.4,0-2.5-1.1-2.5-2.5s1.1-2.5,2.5-2.5l0.1,0h11.9c1.4,0,2.5,1.1,2.5,2.5s-1.1,2.5-2.5,2.5L55.3,38.9z M162.1,38.9h-11.9
			c-1.4,0-2.5-1.1-2.5-2.5s1.1-2.5,2.5-2.5h11.9c1.4,0,2.5,1.1,2.5,2.5S163.5,38.9,162.1,38.9z M138.4,38.9h-11.9
			c-1.4,0-2.5-1.1-2.5-2.5s1.1-2.5,2.5-2.5h11.9c1.4,0,2.5,1.1,2.5,2.5S139.8,38.9,138.4,38.9z M114.7,38.9h-11.9
			c-1.4,0-2.5-1.1-2.5-2.5s1.1-2.5,2.5-2.5h11.9c1.4,0,2.5,1.1,2.5,2.5S116.1,38.9,114.7,38.9z M91,38.9H79.2
			c-1.4,0-2.5-1.1-2.5-2.5s1.1-2.5,2.5-2.5H91c1.4,0,2.5,1.1,2.5,2.5S92.4,38.9,91,38.9z"/>
		<path class="st4" d="M95.8,0.3l122.4,16.2c11,1.5,18.8,11.6,17.3,22.6l-22.2,167.3c-1.5,11-11.6,18.8-22.6,17.3L68.3,207.6
			c-11-1.5-18.8-11.6-17.3-22.6L73.2,17.7C74.6,6.6,84.8-1.1,95.8,0.3z"/>
		
			<linearGradient id="SVGID_3_" gradientUnits="userSpaceOnUse" x1="52.06" y1="205.5033" x2="276.9" y2="205.5033" gradientTransform="matrix(1 0 0 -1 0 295.8898)">
			<stop  offset="0" style="stop-color:#FCDF6A"/>
			<stop  offset="1" style="stop-color:#F9A500"/>
		</linearGradient>
		<path class="st5" d="M93.3,175.8c4.6,1.6,8.9,3.8,13.7,4.6s10.1,0.2,13.6-3.1c4.5-4.4,4.4-11.8,8-16.9c5.1-7.4,15.6-8,24.6-8.5
			s19.8-3.2,22.4-11.8c2.4-8-3.9-16.8-1.1-24.7c3.8-11,20.9-10.7,27.5-20.4c8.6-12.8-7-32.2,2-44.8c3.6-5.1,10.3-7.2,14.1-12.1
			c4.7-6.1,3.7-15.1-0.4-21.6L94.4,0.2C84.1-1.2,74.7,6,73.3,16.3c0,0,0,0,0,0L52.1,176.9C65.2,171.6,79.8,171.2,93.3,175.8z"/>
		<path class="st6" d="M219.6,16.7l-2-0.3c4.2,6.5,5.2,15.5,0.4,21.6c-3.8,4.9-10.6,7-14.2,12.1c-9,12.5,6.7,32-2,44.8
			c-6.6,9.7-23.7,9.3-27.5,20.4c-2.7,7.9,3.5,16.7,1.1,24.7c-2.6,8.6-13.4,11.3-22.4,11.8s-19.5,1.1-24.6,8.5
			c-3.6,5.2-3.5,12.6-8,16.9c-3.5,3.4-8.8,4-13.6,3.1s-9.1-3-13.7-4.6c-13.4-4.6-28-4.2-41.2,1.1l-1.3,9.5
			c-1.4,10.3,5.9,19.7,16.1,21.1L192.1,224c10.3,1.4,19.7-5.9,21.1-16.1c0,0,0,0,0,0l22.5-170C237.1,27.6,229.9,18.1,219.6,16.7
			C219.6,16.8,219.6,16.8,219.6,16.7z"/>
		<circle class="st7" cx="144.2" cy="112.4" r="46.6"/>
		
			<linearGradient id="SVGID_4_" gradientUnits="userSpaceOnUse" x1="78.7416" y1="271.8479" x2="171.8723" y2="271.8479" gradientTransform="matrix(0.9913 0.1314 0.1314 -0.9913 -17.589 365.2169)">
			<stop  offset="2.000000e-02" style="stop-color:#8552BF"/>
			<stop  offset="1" style="stop-color:#7035B1"/>
		</linearGradient>
		<circle class="st8" cx="142.4" cy="112.2" r="46.6"/>
		<path class="st9" d="M160.3,112l-26-20c-1.2-0.9-3-0.7-3.9,0.5c-0.3,0.4-0.5,0.9-0.6,1.3l-4.3,32.5c-0.2,1.5,0.8,3,2.4,3.2
			c0.5,0.1,1,0,1.5-0.2l30.3-12.5c1.4-0.6,2.1-2.2,1.5-3.7C161,112.7,160.7,112.3,160.3,112z"/>
		<path class="st7" d="M158.4,111.7l-26-20c-1.2-0.9-3-0.7-3.9,0.5c-0.3,0.4-0.5,0.9-0.6,1.3l-4.3,32.5c-0.2,1.5,0.9,3,2.4,3.2
			c0.5,0.1,1,0,1.5-0.2l30.3-12.5c1.4-0.6,2.1-2.2,1.6-3.7C159.1,112.4,158.8,112,158.4,111.7z"/>
		<path class="st9" d="M160.3,112l-26-20c-1.2-0.9-3-0.7-3.9,0.5c-0.3,0.4-0.5,0.9-0.6,1.3l-4.3,32.5c-0.2,1.5,0.8,3,2.4,3.2
			c0.5,0.1,1,0,1.5-0.2l30.3-12.5c1.4-0.6,2.1-2.2,1.5-3.7C161,112.7,160.7,112.3,160.3,112z"/>
	</g>
</g>
</svg>
