<?xml version="1.0" encoding="utf-8"?>
<!-- Generator: Adobe Illustrator 23.0.1, SVG Export Plug-In . SVG Version: 6.00 Build 0)  -->
<svg version="1.1" id="Layer_1" xmlns="http://www.w3.org/2000/svg" xmlns:xlink="http://www.w3.org/1999/xlink" x="0px" y="0px"
	 viewBox="0 0 270.9 220" style="enable-background:new 0 0 270.9 220;" xml:space="preserve">
<style type="text/css">
	.st0{opacity:0.29;fill:#E6E6E6;enable-background:new    ;}
	.st1{clip-path:url(#SVGID_2_);}
	.st2{opacity:0.46;fill:#E6E6E6;enable-background:new    ;}
	.st3{fill:#00D089;}
	.st4{fill:url(#SVGID_3_);}
	.st5{fill:none;}
	.st6{fill:#AAFFCE;}
	.st7{fill:#00DD9F;}
	.st8{fill:#8551BF;}
	.st9{fill:url(#SVGID_4_);}
	.st10{fill:#571C8A;}
	.st11{clip-path:url(#SVGID_6_);}
	.st12{fill:#FFFFFF;}
	.st13{fill:#300C6D;}
</style>
<title>Punkty_kontrolne</title>
<g>
	<g id="Layer_1-2">
		<circle class="st0" cx="127" cy="110" r="110"/>
		<g>
			<defs>
				<circle id="SVGID_1_" cx="127" cy="110" r="110"/>
			</defs>
			<clipPath id="SVGID_2_">
				<use xlink:href="#SVGID_1_"  style="overflow:visible;"/>
			</clipPath>
			<g class="st1">
				<path class="st2" d="M176.1,257.6c-10.1,5.2-20.6,10.6-31.9,11.3c-9.9,0.6-19.6-2.4-29-5.3l-37.4-11.7c-6.3-2-12.7-4-18.1-7.7
					s-9.8-9.6-10.2-16.1c-0.5-9.2,6.5-16.9,13-23.4s13.4-14.3,12.8-23.5c-0.9-11-12.2-18.1-16.3-28.3c-4.3-11.1,0.8-24,9.4-32.3
					s19.9-12.8,30.9-17.3s22.3-9.4,30.4-18.2c6-6.5,10-14.7,16.1-21c15.5-15.9,41-16.3,56.9-0.8c5.5,5.4,9.4,12.3,11.1,19.8
					c4.4,19.2-5.4,38.4-14.5,55.8c-2.9,5.6-5.9,11.7-5.4,18c0.6,8.4,7,15,12.1,21.7c12.8,16.8,19.5,37.5,18.9,58.6
					c-0.3,9.2-5.4,22.9-16.9,17.8c-4.1-1.8-7.4-3.9-12.1-3.9C189,251.1,182.2,254.4,176.1,257.6z"/>
			</g>
		</g>
		<path class="st3" d="M230.3,13.6H119c-6.7,0-12.1,5.4-12.1,12.1v84.7c0,6.7,5.4,12.1,12.1,12.1h12.5v16.9c0,2,4.4,3.1,5.9,1.9
			l23.5-18.8h69.3c6.7,0,12.1-5.4,12.1-12.1V25.7C242.4,19.1,237,13.6,230.3,13.6L230.3,13.6z"/>
		
			<linearGradient id="SVGID_3_" gradientUnits="userSpaceOnUse" x1="104.87" y1="195.2222" x2="239.46" y2="195.2222" gradientTransform="matrix(1 0 0 -1 0 270)">
			<stop  offset="0" style="stop-color:#AAFFCE"/>
			<stop  offset="1" style="stop-color:#71EBB5"/>
		</linearGradient>
		<path class="st4" d="M227.5,11.1H116.9c-6.6,0-12,5.4-12,12v84.2c0,6.6,5.4,12,12,12h14.4v16.8c0,1.3,1.1,2.4,2.5,2.4
			c0.5,0,1-0.2,1.4-0.5l23.4-18.7h68.9c6.6,0,12-5.4,12-12V23.1C239.5,16.5,234.1,11.1,227.5,11.1L227.5,11.1z"/>
		<path class="st5" d="M122.5,119.3c0.8,4.7,1.9,9.4,3.2,14l5.6-0.1v-13.9H122.5z"/>
		<path class="st5" d="M141.6,132.9l24.4-0.7c-0.8-4.3-1.7-8.6-2.2-12.9h-5.2L141.6,132.9z"/>
		<path class="st6" d="M131.3,136.1c0,1.3,1.1,2.4,2.5,2.4c0.5,0,1-0.2,1.4-0.5l6.4-5.1l-10.3,0.3L131.3,136.1z"/>
		<path class="st7" d="M239.5,107.3V23.1c0-6.6-5.4-12-12-12h-12c-0.1,0.2-0.2,0.4-0.3,0.6c-3.9,9.7,8.8,13.2,9.5,21.9
			c0.7,8.4-11.3,12.8-12.8,21.1c-0.8,4.6,1.8,9,3.7,13.2s2.9,9.8-0.3,13.1c-2.6,2.7-7.4,3-9.2,6.3c-2.5,4.6,2.8,11.2-0.6,15.3
			c-3.1,3.8-10.1,0.7-13.9,3.9c-2.4,2-2.5,5.6-3.1,8.7c-0.3,1.4-0.7,2.8-1.3,4.2h40.2C234.1,119.3,239.5,113.9,239.5,107.3
			C239.5,107.3,239.5,107.3,239.5,107.3z"/>
		<path class="st6" d="M163.6,105.7c1-8.8,5.3-17.8,13-22.2c3.4-2,7.5-3.1,10-6.2c6.7-8.3-4.1-20.8-1.2-31.1
			c2.3-8.1,12.2-11.8,13.6-20.3c1.1-7-3.6-12.6-9.7-14.9h-12.7c-6.4,4.8,0.6,20.8-10,27c-5.9,3.4-14.5,3.6-17.3,9.8
			c-3.5,7.7,6.1,16,4.6,24.3c-0.8,4.6-4.9,7.9-9.1,10s-8.8,3.3-12.6,6c-6.7,4.7-9.9,13.1-10.3,21.2c-0.1,3.3,0.1,6.7,0.6,10h8.8
			v13.9l10.3-0.3l17-13.6h5.2C163.2,114.8,163.1,110.2,163.6,105.7z"/>
		<path class="st6" d="M116.9,87.8c6.9-5.7,14.8-11.1,18.2-19.4c2.8-7.1,1.9-15.4,5.6-22.1c4.6-8.5,15.3-12.3,19.9-20.8
			c2.2-4.5,2.5-9.7,0.6-14.4h-5.6c-0.4,1.9-0.4,4.1-1.1,6c-1.9,5.4-5.6,9.1-9.8,12.9s-8.7,8-10,13.5c-1.1,4.9,0.5,10.1-0.8,14.9
			c-1.6,6.1-7,10.1-11.8,14.3c-6.9,6.1-12.7,13.3-17.3,21.3v8.7C107.1,96.9,111.9,91.9,116.9,87.8z"/>
		<rect x="35" y="165.9" class="st8" width="197.9" height="17"/>
		
			<linearGradient id="SVGID_4_" gradientUnits="userSpaceOnUse" x1="133.925" y1="87.11" x2="133.925" y2="92.11" gradientTransform="matrix(1 0 0 -1 0 270)">
			<stop  offset="2.000000e-02" style="stop-color:#8552BF"/>
			<stop  offset="1" style="stop-color:#7035B1"/>
		</linearGradient>
		<rect x="35" y="177.9" class="st9" width="197.9" height="5"/>
		<circle class="st8" cx="21" cy="172.9" r="21"/>
		<circle class="st10" cx="21" cy="172.9" r="12"/>
		<circle class="st8" cx="249.9" cy="172.9" r="21"/>
		<circle class="st10" cx="249.9" cy="172.9" r="12"/>
		<circle class="st8" cx="133.9" cy="172.9" r="29"/>
		
			<ellipse transform="matrix(7.088900e-02 -0.9975 0.9975 7.088900e-02 -48.0935 294.1473)" class="st10" cx="133.9" cy="172.9" rx="16.6" ry="16.6"/>
		<g>
			<defs>
				<circle id="SVGID_5_" cx="137.8" cy="38.9" r="17.8"/>
			</defs>
			<clipPath id="SVGID_6_">
				<use xlink:href="#SVGID_5_"  style="overflow:visible;"/>
			</clipPath>
			<g class="st11">
				<rect x="116.9" y="19.6" class="st12" width="39.5" height="39.5"/>
				<path class="st12" d="M134.1,52.2h7.4c4.9,0,8.8,3.9,8.8,8.8c0,0,0,0,0,0v1l0,0h-25l0,0v-1C125.3,56.1,129.2,52.2,134.1,52.2z"
					/>
				<path class="st8" d="M135.1,46.9h5.3l0,0v4.7c0,1.2-0.9,2.1-2.1,2.1h-1.1c-1.2,0-2.1-0.9-2.1-2.1V46.9L135.1,46.9z"/>
				<path class="st8" d="M144.8,42.3c-1.3,3.4-4.3,7.1-7.1,7.1s-5.7-3.7-7-7.1c-2.1-5.5,0.3-13.1,7-13.1S147,36.8,144.8,42.3z"/>
				<path class="st13" d="M131,42.9c-2.3-3.1-1.1-3.3-2.4-6.2c-0.5-1-0.9-2.2-0.4-3.2c0.4-0.7,1.2-1.1,1.7-1.8
					c0.3-0.4,0.4-0.8,0.7-1.2c0.7-0.8,1.9-0.9,2.9-1.2c1-0.2,2.1-0.6,3.1-1c1.9-0.8,3.8-1.5,5.6-2.4c0.6-0.3,1.2-0.5,1.9-0.6
					c0.7-0.1,1.3,0.1,1.8,0.5c0.3,0.4,0.5,0.9,0.6,1.5c0.3,1.5,0.4,3,0.3,4.5c-0.2,1.5-0.3,3.6-1.3,4.7c-0.4-1-0.7-2.8-1.6-3.4
					c-1.7-1.2-4.5,0.8-6.5,0.7c-0.5-0.1-1-0.1-1.5,0c-1.7,0.3-4.4-1-5.2,0.6c-0.9,1.8-0.4,4.8,0.1,6.7"/>
				<ellipse transform="matrix(0.9292 -0.3697 0.3697 0.9292 -6.2421 51.0264)" class="st8" cx="130" cy="41.8" rx="1.3" ry="2.7"/>
				
					<ellipse transform="matrix(0.3725 -0.928 0.928 0.3725 52.7567 160.7909)" class="st8" cx="145.3" cy="41.4" rx="2.7" ry="1.3"/>
			</g>
		</g>
		<path class="st8" d="M178.9,30.9h44c2.2,0,4,1.8,4,4l0,0c0,2.2-1.8,4-4,4h-44c-2.2,0-4-1.8-4-4l0,0
			C174.9,32.7,176.6,30.9,178.9,30.9z"/>
		<path class="st8" d="M178.9,46.9h44c2.2,0,4,1.8,4,4l0,0c0,2.2-1.8,4-4,4h-44c-2.2,0-4-1.8-4-4l0,0
			C174.9,48.7,176.6,46.9,178.9,46.9z"/>
		<path class="st8" d="M130.9,69.9h92c2.2,0,4,1.8,4,4l0,0c0,2.2-1.8,4-4,4h-92c-2.2,0-4-1.8-4-4l0,0
			C126.8,71.7,128.6,69.9,130.9,69.9z"/>
		<path class="st12" d="M195.5,92.7h26.8c3.1,0,5.6,2.5,5.6,5.6l0,0c0,3.1-2.5,5.6-5.6,5.6h-26.8c-3.1,0-5.6-2.5-5.6-5.6l0,0
			C189.9,95.2,192.4,92.7,195.5,92.7z"/>
	</g>
</g>
</svg>
