<?xml version="1.0" encoding="utf-8"?>
<!-- Generator: Adobe Illustrator 23.0.1, SVG Export Plug-In . SVG Version: 6.00 Build 0)  -->
<svg version="1.1" id="Layer_1" xmlns="http://www.w3.org/2000/svg" xmlns:xlink="http://www.w3.org/1999/xlink" x="0px" y="0px"
	 viewBox="0 0 237.8 225" style="enable-background:new 0 0 237.8 225;" xml:space="preserve">
<style type="text/css">
	.st0{opacity:0.29;fill:#E6E6E6;enable-background:new    ;}
	.st1{clip-path:url(#SVGID_2_);}
	.st2{opacity:0.46;fill:#E6E6E6;enable-background:new    ;}
	.st3{fill:#FBA200;}
	.st4{fill:url(#SVGID_3_);}
	.st5{fill:#4B1591;}
	.st6{fill:url(#SVGID_4_);}
	.st7{opacity:0.5;fill:#4B1591;enable-background:new    ;}
	.st8{fill:#FFFFFF;}
	.st9{fill:#3015DF;}
</style>
<title>quizy_i_zadania</title>
<g>
	<g id="Layer_1-2">
		<circle class="st0" cx="125.3" cy="112.5" r="112.5"/>
		<g>
			<defs>
				<circle id="SVGID_1_" cx="125.3" cy="112.5" r="112.5"/>
			</defs>
			<clipPath id="SVGID_2_">
				<use xlink:href="#SVGID_1_"  style="overflow:visible;"/>
			</clipPath>
			<g class="st1">
				<path class="st2" d="M81.9,68.8c-12.6-0.1-26.8-0.3-35.6,8.3c-7.7,7.5-8.6,19.3-15.4,27.5c-8.1,9.7-22.4,12-35.4,12.4
					s-26.7-0.1-38,6c-11.5,6.3-18.4,19.4-16.8,32c2.2,17,18.4,31.3,16.6,48.4c-0.9,8.8-6.6,16.5-12.7,23.1s-13,12.8-17.4,20.7
					c-4.4,7.8-5.6,18-0.3,25.2c6.8,9.3,21.5,9.9,32.3,5.2s18.9-13.5,27.9-20.9s20.3-13.8,32-12.3c17.1,2.1,26.9,19.1,40.4,29.3
					c13.3,10,31.1,13.5,48,11.9s32.8-8.1,47.4-16.4c11.5-6.5,22.5-14.3,30.3-24.6c7.9-10.3,12.4-23.4,10-35.9s-12.5-24-25.7-26.3
					c-5.4-0.9-11-0.4-16.4-0.9s-11.2-2.4-14.2-6.8c-4.4-6.5-0.5-15.5,5.7-20.4s14.2-7.1,21.4-10.6c12.8-6.2,23.1-16.7,29.1-29.6
					c2.8-6.2,4.4-13,3.5-19.7s-5-13.2-11.2-16.4c-6.5-3.2-14.9-2.8-20.1-7.7c-4.6-4.3-5.1-11.1-7.9-16.6
					c-4.1-7.8-13.7-12.6-22.7-11.3c-11.4,1.6-14.4,10.8-21.9,17.3C105.9,67.4,93.5,68.9,81.9,68.8z"/>
			</g>
		</g>
		<path class="st3" d="M122.4,15.8H14.7C8.3,15.8,3,21,3,27.5v81.9c0,6.5,5.2,11.7,11.7,11.7h107.7c6.5,0,11.7-5.2,11.7-11.7V27.5
			C134.1,21,128.9,15.8,122.4,15.8z"/>
		
			<linearGradient id="SVGID_3_" gradientUnits="userSpaceOnUse" x1="0" y1="218.2198" x2="131.15" y2="218.2198" gradientTransform="matrix(1 0 0 -1 0 285.8898)">
			<stop  offset="2.000000e-02" style="stop-color:#FBA200"/>
			<stop  offset="0.17" style="stop-color:#FBA600"/>
			<stop  offset="0.33" style="stop-color:#FDB300"/>
			<stop  offset="0.49" style="stop-color:#FFC600"/>
			<stop  offset="0.89" style="stop-color:#FFE658"/>
			<stop  offset="0.93" style="stop-color:#FFE75A"/>
			<stop  offset="0.95" style="stop-color:#FFE862"/>
			<stop  offset="0.96" style="stop-color:#FFEC70"/>
			<stop  offset="0.98" style="stop-color:#FFF083"/>
			<stop  offset="0.99" style="stop-color:#FFF69C"/>
			<stop  offset="1" style="stop-color:#FFFDBA"/>
			<stop  offset="1" style="stop-color:#FFFFC1"/>
		</linearGradient>
		<path class="st4" d="M119.4,15H11.7C5.2,15,0,20.2,0,26.7v81.9c0,6.5,5.2,11.7,11.7,11.7h107.7c6.5,0,11.7-5.2,11.7-11.7V26.7
			C131.2,20.3,125.9,15,119.4,15C119.5,15,119.5,15,119.4,15z"/>
		<path class="st3" d="M128.8,111l-8.7-4.2c-4-1.9-7.5-4.7-10.3-8.1l-2.7-3.3c-4.9-5.9-11.8-9.7-19.4-10.9l0,0
			c-11.9-1.8-22.1-9.5-26.9-20.5l-7.3-16.6c-4.2-7.7-12-12.8-20.8-13.5l0,0C22.1,33.3,13,26.2,9.8,16.2c-0.1-0.3-0.2-0.6-0.2-0.9
			C4,16.3,0,21.1,0,26.7v81.9c0,6.5,5.2,11.7,11.7,11.7c0,0,0,0,0,0h107.7c5.6,0,10.5-4,11.5-9.6C130.2,111,129.5,111,128.8,111
			L128.8,111z"/>
		<path class="st5" d="M225.4,89.8H117.7c-6.5,0-11.7,5.2-11.7,11.7v81.9c0,6.5,5.2,11.7,11.7,11.7h107.7c6.5,0,11.7-5.2,11.7-11.7
			v-81.9C237.1,95,231.9,89.8,225.4,89.8z"/>
		
			<linearGradient id="SVGID_4_" gradientUnits="userSpaceOnUse" x1="103.01" y1="144.2148" x2="234.15" y2="144.2148" gradientTransform="matrix(1 0 0 -1 0 285.8898)">
			<stop  offset="0" style="stop-color:#A028BA"/>
			<stop  offset="0.85" style="stop-color:#E462C7"/>
		</linearGradient>
		<path class="st6" d="M222.4,89H114.7c-6.5,0-11.7,5.2-11.7,11.7v81.9c0,6.5,5.2,11.7,11.7,11.7h107.7c6.5,0,11.7-5.2,11.7-11.7
			v-81.9C234.2,94.3,228.9,89,222.4,89z"/>
		<path class="st7" d="M231.8,185l-8.7-4.2c-4-1.9-7.5-4.7-10.3-8.1l-2.7-3.3c-4.9-5.9-11.8-9.8-19.4-10.9l0,0
			c-11.9-1.8-22.1-9.5-26.9-20.5l-7.3-16.6c-4.2-7.7-12-12.8-20.8-13.4l0,0c-10.6-0.7-19.6-7.8-22.8-17.9c-0.1-0.3-0.2-0.6-0.2-0.9
			c-5.5,1-9.6,5.9-9.6,11.5v81.9c0,6.5,5.2,11.7,11.7,11.7h107.8c5.6,0,10.5-4,11.5-9.6C233.2,184.9,232.5,185,231.8,185L231.8,185z
			"/>
		<path class="st8" d="M168.6,133.5c-5.2,0-9.4,4.2-9.4,9.4c0,5.2,4.2,9.4,9.4,9.4s9.4-4.2,9.4-9.4c0,0,0,0,0,0
			C177.9,137.7,173.7,133.5,168.6,133.5z"/>
		<path class="st8" d="M141.4,133.5c-5.2,0-9.4,4.2-9.4,9.4c0,5.2,4.2,9.4,9.4,9.4s9.4-4.2,9.4-9.4c0,0,0,0,0,0
			C150.8,137.7,146.6,133.5,141.4,133.5z"/>
		<path class="st8" d="M196.7,133.5c-5.2,0-9.4,4.2-9.4,9.4c0,5.2,4.2,9.4,9.4,9.4s9.4-4.2,9.4-9.4c0,0,0,0,0,0
			C206,137.7,201.8,133.5,196.7,133.5z"/>
		<path class="st9" d="M63.6,43.3c3.5,0,6.9,0.6,10.1,2c2.8,1.2,5.1,3.1,6.8,5.5c1.6,2.4,2.5,5.3,2.4,8.2c0,3.3-1.2,6.5-3.4,9
			c-2.3,2.6-6,4.7-11,6.5l-1,9.4l-11.7-3.2l-0.6-13c3.2-0.9,6.2-2.4,8.9-4.3c2.3-1.7,3.5-3.3,3.5-4.7c0-0.9-0.4-1.8-1.2-2.4
			c-0.9-0.6-1.9-1-3-0.9c-3.9,0-8.4,1.4-13.5,4.3L48,47.6C52.7,44.8,58.1,43.4,63.6,43.3z M60.8,85.7c2,0,3.9,0.8,5.3,2.2
			c1.4,1.4,2.2,3.4,2.2,5.4c0.1,2-0.7,3.9-2.2,5.3c-3,2.8-7.7,2.8-10.6,0c-1.4-1.4-2.2-3.3-2.2-5.3c-0.1-4.1,3.2-7.5,7.3-7.5
			C60.7,85.7,60.7,85.7,60.8,85.7z"/>
	</g>
</g>
</svg>
