<?xml version="1.0" encoding="utf-8"?>
<!-- Generator: Adobe Illustrator 23.0.1, SVG Export Plug-In . SVG Version: 6.00 Build 0)  -->
<svg version="1.1" id="Layer_1" xmlns="http://www.w3.org/2000/svg" xmlns:xlink="http://www.w3.org/1999/xlink" x="0px" y="0px"
	 viewBox="0 0 231.2 225" style="enable-background:new 0 0 231.2 225;" xml:space="preserve">
<style type="text/css">
	.st0{opacity:0.29;fill:#E6E6E6;enable-background:new    ;}
	.st1{clip-path:url(#SVGID_2_);}
	.st2{opacity:0.46;fill:#E6E6E6;enable-background:new    ;}
	.st3{fill:#63D6A0;}
	.st4{fill:#AAFFCE;}
	.st5{opacity:0.33;fill:#63D6A0;enable-background:new    ;}
	.st6{fill:#FFFFFF;}
	.st7{fill:#571C8A;}
	.st8{fill:url(#SVGID_3_);}
	.st9{fill:#EAEBEF;}
	.st10{opacity:0.36;}
	.st11{fill:#D1D0CD;}
	.st12{fill:#F4F5F7;}
	.st13{fill:url(#SVGID_4_);}
	.st14{fill:url(#SVGID_5_);}
	.st15{fill:#6774FF;}
	.st16{fill:url(#SVGID_6_);}
	.st17{fill:#A028BA;}
	.st18{fill:url(#SVGID_7_);}
</style>
<title>Sciana_zespolu</title>
<g>
	<g id="Layer_1-2">
		<circle class="st0" cx="118.7" cy="112.5" r="112.5"/>
		<g>
			<defs>
				<circle id="SVGID_1_" cx="118.7" cy="112.5" r="112.5"/>
			</defs>
			<clipPath id="SVGID_2_">
				<use xlink:href="#SVGID_1_"  style="overflow:visible;"/>
			</clipPath>
			<g class="st1">
				<path class="st2" d="M162.4,69.1c0.1-12.6,0.3-26.8-8.3-35.6c-7.5-7.7-19.3-8.6-27.5-15.4c-9.7-8.1-12-22.4-12.4-35.4
					s0.1-26.7-6-38C102-66.8,88.8-73.7,76.3-72.1c-17,2.2-31.3,18.4-48.4,16.6C19-56.3,11.3-62,4.7-68.2C-2-74.3-8.2-81.2-16-85.6
					s-18-5.6-25.2-0.3c-9.3,6.8-9.9,21.5-5.2,32.3s13.5,18.9,20.9,27.9s13.8,20.3,12.3,32c-2.1,17.1-19.1,26.9-29.3,40.4
					c-10,13.3-13.5,31.1-11.9,48s8.1,32.8,16.3,47.4c6.5,11.5,14.3,22.4,24.6,30.3s23.4,12.4,36,10s24-12.5,26.3-25.7
					c0.9-5.4,0.4-11,0.9-16.4s2.4-11.2,6.8-14.2c6.5-4.4,15.5-0.5,20.4,5.7c4.9,6.2,7.1,14.2,10.6,21.4
					c6.2,12.8,16.7,23.1,29.6,29.1c6.2,2.8,13.1,4.4,19.8,3.5s13.2-4.9,16.3-11.2c3.2-6.5,2.9-14.9,7.7-20.1
					c4.3-4.6,11.1-5.1,16.6-7.9c7.8-4.1,12.6-13.7,11.4-22.7c-1.6-11.4-10.8-14.4-17.2-21.9C163.7,93.1,162.3,80.7,162.4,69.1z"/>
			</g>
		</g>
		<path class="st3" d="M217.6,3.8H103.7c-6.8,0-12.4,5.5-12.4,12.4v86.6c0,6.8,5.5,12.4,12.4,12.4h113.8c6.8,0,12.4-5.5,12.4-12.4
			V16.2C230,9.3,224.4,3.8,217.6,3.8z"/>
		<path class="st4" d="M214.4,3H100.6c-6.8,0-12.3,5.6-12.3,12.4V102c0,6.8,5.5,12.4,12.4,12.4h113.8c6.8,0,12.4-5.5,12.4-12.4V15.4
			C226.8,8.5,221.2,3,214.4,3z"/>
		<path class="st5" d="M224.3,104.5l-9.2-4.4c-4.2-2-7.9-4.9-10.9-8.5l-2.9-3.4c-5.2-6.2-12.5-10.3-20.5-11.5l0,0
			c-12.6-1.9-23.3-10-28.5-21.7l-7.7-17.6c-4.4-8.2-12.7-13.5-22-14.2l0,0c-11.2-0.8-20.7-8.3-24.1-18.9c-0.1-0.3-0.2-0.7-0.2-1
			c-5.9,1.1-10.1,6.2-10.1,12.2V102c0,6.8,5.5,12.4,12.4,12.4c0,0,0,0,0,0h113.8c6,0,11.1-4.2,12.2-10.1
			C225.8,104.4,225.1,104.5,224.3,104.5z"/>
		<path class="st6" d="M115.7,25.8h85.2c2.9,0,5.2,2.3,5.2,5.2l0,0c0,2.9-2.3,5.2-5.2,5.2h-85.2c-2.9,0-5.2-2.3-5.2-5.2l0,0
			C110.5,28.1,112.8,25.8,115.7,25.8z"/>
		<path class="st6" d="M157.9,44.9h41.4c2.9,0,5.2,2.3,5.2,5.2v0c0,2.9-2.3,5.2-5.2,5.2h-41.4c-2.9,0-5.2-2.3-5.2-5.2v0
			C152.7,47.2,155,44.9,157.9,44.9z"/>
		<path class="st6" d="M115.7,72.8h41.4c2.9,0,5.2,2.3,5.2,5.2v0c0,2.9-2.3,5.2-5.2,5.2h-41.4c-2.9,0-5.2-2.3-5.2-5.2v0
			C110.5,75.1,112.8,72.8,115.7,72.8z"/>
		<path class="st7" d="M130.6,135.8H16.7c-6.8,0-12.4,5.5-12.4,12.4v58.6c0,6.8,5.5,12.4,12.4,12.4h113.8c6.8,0,12.4-5.5,12.4-12.4
			v-58.6C143,141.3,137.4,135.8,130.6,135.8L130.6,135.8z"/>
		
			<linearGradient id="SVGID_3_" gradientUnits="userSpaceOnUse" x1="1.217" y1="-39.365" x2="139.777" y2="-39.365" gradientTransform="matrix(1 0 0 -1 0 137.32)">
			<stop  offset="0" style="stop-color:#7035B1"/>
			<stop  offset="0.98" style="stop-color:#8552BF"/>
		</linearGradient>
		<path class="st8" d="M127.4,135H13.6c-6.8,0-12.3,5.6-12.3,12.4V206c0,6.8,5.5,12.4,12.4,12.4h113.8c6.8,0,12.4-5.5,12.4-12.4
			v-58.6C139.8,140.5,134.2,135,127.4,135L127.4,135z"/>
		<path class="st7" d="M137.3,208.5l-9.2-4.5c-0.3-0.2-0.7-0.3-1-0.5c-8.9-5.6-20.3-3.9-28,3.2c-1.3,1.4-3.3,2.1-5.2,1.9l0,0
			c-12.6-1.9-23.3-10-28.5-21.7l-7.7-17.6c-4.4-8.2-12.7-13.5-22-14.2l0,0c-11.2-0.8-20.7-8.3-24.2-18.9c-0.1-0.3-0.2-0.7-0.2-1
			c-5.9,1.1-10.1,6.2-10.1,12.2V206c0,6.8,5.5,12.4,12.4,12.4c0,0,0,0,0,0h113.8c6,0,11.1-4.2,12.2-10.1
			C138.8,208.4,138.1,208.5,137.3,208.5z"/>
		<path class="st6" d="M28.7,157.8h85.2c2.9,0,5.2,2.3,5.2,5.2l0,0c0,2.9-2.3,5.2-5.2,5.2H28.7c-2.9,0-5.2-2.3-5.2-5.2l0,0
			C23.5,160.1,25.8,157.8,28.7,157.8z"/>
		<path class="st6" d="M28.7,176.9h28.7c2.9,0,5.2,2.3,5.2,5.2l0,0c0,2.9-2.3,5.2-5.2,5.2H28.7c-2.9,0-5.2-2.3-5.2-5.2l0,0
			C23.5,179.2,25.8,176.9,28.7,176.9z"/>
		<path class="st9" d="M203.2,166.7h-26.7c-2.2,0-4-1.8-4-4l0,0c0-2.2,1.8-4,4-4h26.7c2.2,0,4,1.8,4,4l0,0
			C207.2,164.9,205.4,166.7,203.2,166.7z"/>
		<path class="st7" d="M172.4,155.7c-0.4-1.7-0.3-3.4,0.3-5.1c0.9-1.8,2.8-2.7,4.7-3.4c6.6-2.1,13.7-1.6,19.8,1.6
			c2.2,1.2,4.3,2.7,6.7,3.5c1.3,0.4,2.8,0.8,3.3,2c0.2,0.8,0.2,1.6-0.1,2.4l-2.1,8.4c-0.1,0.7-0.4,1.3-0.9,1.7
			c-0.7,0.4-1.5,0.5-2.2,0.4l-17.1-1.2c-2.9-0.2-8.8,0.5-10.5-2.4C173.1,161.5,172.8,158.2,172.4,155.7z"/>
		<g class="st10">
			<path class="st11" d="M196.9,178.7v5.5c-0.6,0.7-1.5,1-2.4,1c-1.4-0.1-2.7-1.4-4.1-1.6c-1-0.2-2,0.3-2.4,1.3
				c-0.2,0.6-0.2,1.3,0.1,1.9c0.3,0.6,0.6,1.1,1.1,1.5c1.6,1.2,3.6,1.5,5.4,0.8c0.8-0.3,1.5-0.6,2.2-1v4.9h-14.8v-14.3H196.9z"/>
			<path class="st9" d="M189.2,188.4c-0.5-0.4-0.9-0.9-1.1-1.4c-0.3-0.6-0.3-1.3-0.1-1.9c0.4-1,1.4-1.5,2.4-1.3
				c1.4,0.2,2.7,1.5,4.1,1.6c0.9,0,1.8-0.3,2.4-1v3.9c-0.7,0.4-1.5,0.7-2.2,1C192.8,189.8,190.8,189.5,189.2,188.4z"/>
		</g>
		<path class="st9" d="M189.7,183.7L189.7,183.7c8,0,14.5-8.8,14.5-16.8v-11.8c0-6.3-5.1-11.3-11.3-11.3h0h-6.4
			c-6.2,0-11.3,5.1-11.3,11.3v11.8C175.2,174.9,181.7,183.7,189.7,183.7z"/>
		<path class="st12" d="M187.9,179.2c-1.6-0.6-2.9-2-3.4-3.7c-0.5-2.2,0.7-4.5,0.4-6.7s-1.6-3.9-2.6-5.8s-1.4-4.5,0.2-6
			c1.8-1.7,4.6-0.7,6.8,0.4c3,1.6,6.3,2.8,9.6,3.6c1.7,0.3,3.5,0.4,5.2,0.2v5.6c-0.1,4.2-1.6,8.2-4.2,11.4c-2.2,0.8-4.5,1.4-6.9,1.5
			C191.3,180,189.6,179.8,187.9,179.2z"/>
		<path class="st7" d="M179.4,151.5c2.1-0.1,4.1,0.3,6,1.3c6.5,2.7,12.9,6.5,20,6.2c1.1,0,2.2-0.3,3.2-0.8c1-0.6,1.5-1.7,1.3-2.9
			c-0.3-1.2-1.6-1.8-2.7-2.4s-2.3-1.6-2.1-2.8s1.9-1.9,3.2-2.1s3-0.4,3.6-1.7c0.4-1.1-0.1-2.2-1-2.8c-0.9-0.6-2-0.8-3.1-0.6
			c-1.1,0.1-2.1,0.4-3.2,0.5c-4.6,0.5-9.1-2-13.7-2.7c-4.3-0.6-8.6,0.6-11.9,3.4c-2.7,2.4-5.4,7.6-3.9,11.2c0.5-0.7,0.6-1.7,1.4-2.4
			C177.4,152.1,178.4,151.6,179.4,151.5z"/>
		<path class="st7" d="M210.8,149.9c-1-2-0.2-4.8,1.9-5.6c0.7-0.2,1.5-0.4,1.7-1.1c0.3-1-1.2-1.4-2.2-1.2c-4,1.1-6.2,5.9-10.3,6.7
			c-2.2,0.4-4.4-0.4-6.4-1.5c-1.9-1.2-3.9-2.2-6-3c-4-1-8.1,0.1-11.1,2.8c-1.5,1.4-2.7,3-3.6,4.8c-0.1-3.9,2.5-8.3,5.1-10.6
			c3.9-3.3,9-4.8,14.1-4c5.5,0.8,10.7,3.8,16.2,3.1c1.3-0.1,2.5-0.5,3.8-0.6c1.3-0.2,2.6,0.1,3.7,0.8c1.1,0.7,1.6,2.1,1.2,3.3
			c-0.7,1.5-2.6,1.8-4.2,2s-3.6,0.9-3.8,2.5c-0.2,1.5,1.2,2.6,2.5,3.4c0.8,0.4,1.6,0.9,2.3,1.5C213.5,152.8,211.8,151.6,210.8,149.9
			z"/>
		
			<linearGradient id="SVGID_4_" gradientUnits="userSpaceOnUse" x1="-2439.3931" y1="-13.0499" x2="-2350.7031" y2="-13.0499" gradientTransform="matrix(-1 0 0 -1 -2231.5061 137.32)">
			<stop  offset="0" style="stop-color:#7035B1"/>
			<stop  offset="0.98" style="stop-color:#8552BF"/>
		</linearGradient>
		<path class="st13" d="M178.4,147c3-2.8,7.2-3.8,11.1-2.8c2.1,0.8,4.1,1.8,6,3c2,1.1,4.2,1.9,6.4,1.5c4.4-0.9,6.6-6.3,11.2-6.9
			c0.6-0.1,1.2,0.3,1.3,0.9c0,0.1,0,0.1,0,0.2c0,0.9-1,1-1.7,1.3c-2.1,0.8-2.9,3.6-1.9,5.6c1,1.8,2.7,3,4.7,3.4c0.6,0.5,1,1.2,1,2
			c0,0.8-0.3,1.5-0.8,2.1c-1.3,1.1-2.9,1.7-4.6,1.6c-8.3,0.3-16-4.1-23.7-7.4c-2.3-1-4.7-1.8-7.1-1.5c-1.2,0.2-2.4,0.7-3.3,1.6
			c-0.9,0.8-1,2-1.7,2.8l0,0c-0.6-1.5-0.4-3.1,0.5-4.4C176.5,148.9,177.4,147.9,178.4,147z"/>
		
			<linearGradient id="SVGID_5_" gradientUnits="userSpaceOnUse" x1="165.6669" y1="-65.695" x2="213.437" y2="-65.695" gradientTransform="matrix(1 0 0 -1 0 137.32)">
			<stop  offset="0" style="stop-color:#7035B1"/>
			<stop  offset="0.98" style="stop-color:#8552BF"/>
		</linearGradient>
		<path class="st14" d="M208.2,191.3l-11.5-3.3l-7.2,4.8l-7.2-4.8l-11.5,3.3c-3.1,0.9-5.2,3.7-5.2,6.9v17.5c0,1.3,1.1,2.4,2.4,2.4
			c0,0,0,0,0,0h43c1.3,0,2.4-1.1,2.4-2.4v0v-17.5C213.4,194.9,211.3,192.1,208.2,191.3z"/>
		<path class="st7" d="M199.1,209.2c0-1.3,0.4-2.5,1.1-3.5l3.2-4.3c0.5,0.9,0.7,1.9,0.7,2.9v12.1c0,0.9-0.6,1.7-1.2,1.7h-3.7
			L199.1,209.2L199.1,209.2z"/>
		<path class="st7" d="M189.6,192.7l-4.1,3.1c-0.6,0.5-1.5,0.4-2-0.3c0-0.1-0.1-0.1-0.1-0.2l-3.6-6.6l1.5-2.2
			c0.3-0.4,0.9-0.5,1.4-0.2c0,0,0,0,0.1,0L189.6,192.7z"/>
		<path class="st7" d="M189.6,192.7l4,3.1c0.6,0.5,1.5,0.4,2-0.3c0-0.1,0.1-0.1,0.1-0.2l3.6-6.6l-1.5-2.2c-0.3-0.4-0.9-0.5-1.4-0.2
			c0,0,0,0-0.1,0L189.6,192.7z"/>
		<path class="st7" d="M70.8,36.7c1.2-6.4-0.4-13.2-3.2-19.1c-0.6-1.4-1.6-2.7-2.8-3.8c-2.5-2-3.9-4.2-7-5.2
			c-2.4-0.8-19.9-8.5-31.1,2.6c-5.5,5.5-10.7,11.3-14,18.3c-1.5,3.1-2.8,6.4-2.6,9.8c0.3,4.2,2.8,8.5,1.3,12.5
			c-1.1,2.9-4,4.5-5.9,6.9c-1.9,2.4-2.7,5.3-2.4,8.3c0.4,3.8,2.8,7.4,2,11.2c-0.6,3-3.1,5.2-4.3,7.9c-1.3,3.1-1.1,6.6,0.6,9.5
			c0.3,0.6,0.8,1.1,1.4,1.4c0.5,0.2,1.1,0.3,1.7,0.3c13.4,0.1,25.5-7.5,35.8-16.1c5.6-4.7,16.3-8.3,20-14.5
			C65.4,58.1,69.3,44.4,70.8,36.7z"/>
		<ellipse transform="matrix(0.2239 -0.9746 0.9746 0.2239 7.6879 93.4551)" class="st12" cx="62.5" cy="41.9" rx="6.7" ry="4.8"/>
		<path class="st15" d="M36.9,60h13.3l0,0v15c0,1.2-0.9,2.1-2.1,2.1H39c-1.2,0-2.1-0.9-2.1-2.1V60L36.9,60z"/>
		<path class="st9" d="M65.7,77L56,72.2c-2-1-3.3-3.1-3.3-5.4v-9h-18v9c0,2.3-1.3,4.4-3.3,5.4L21.6,77c-3,1.5-5,4.6-5,8v17.7
			c0,1.7,1.3,3,3,3h48c1.7,0,3-1.3,3-3V85.1C70.6,81.7,68.7,78.6,65.7,77z"/>
		<path class="st11" d="M43.6,69.8c3.1,0,6.3-0.6,9.2-1.9c-0.1-0.4-0.1-0.8-0.2-1.1v-9h-18v9c0,0.4-0.1,0.8-0.2,1.2
			C37.4,69.2,40.5,69.8,43.6,69.8z"/>
		
			<linearGradient id="SVGID_6_" gradientUnits="userSpaceOnUse" x1="16.617" y1="47.665" x2="70.617" y2="47.665" gradientTransform="matrix(1 0 0 -1 0 137.32)">
			<stop  offset="0" style="stop-color:#A028BA"/>
			<stop  offset="0.85" style="stop-color:#E462C7"/>
		</linearGradient>
		<path class="st16" d="M65.7,77l-6.9-3.5c-5.4,8.3-16.5,10.7-24.9,5.3c-2.1-1.4-4-3.2-5.3-5.3L21.6,77c-3,1.5-5,4.6-5,8v17.7
			c0,1.7,1.3,3,3,3h48c1.7,0,3-1.3,3-3V85.1C70.6,81.7,68.7,78.6,65.7,77z"/>
		<path class="st12" d="M57.8,29.6c-12.4,5.3-28.2,4-33.3,17.8c0.5,1.8,1.1,3.5,2,5.1c2.8,5.3,7,10.2,12.6,12.4
			c1.7,0.7,3.5,1,5.3,0.9c1.9-0.3,3.6-0.9,5.3-1.8c4.4-2.3,8.6-5.4,10.9-9.7c3.4-6.2,1.9-16,1.9-23c0-2.9-0.6-4.5-1.6-5.2
			C60.2,27.6,59.1,28.8,57.8,29.6z"/>
		<path class="st9" d="M33,52.4c-0.6-2.8-0.3-5.6,0.9-8.2c1.5-2.4,3.7-4.2,6.4-5.2c2.9-1.1,6-2.1,9-2.9c3.1-0.8,5.9-2.3,8.3-4.3
			c1.6-1.5,2.8-3.4,3.3-5.5c-0.7,1.4-1.7,2.6-3.1,3.4c-12.4,5.3-28.2,4-33.3,17.8c0.5,1.8,1.1,3.5,2,5.1c2.8,5.3,7,10.2,12.6,12.4
			c0.5,0.2,1,0.4,1.6,0.5L40.1,65C36.4,61.7,33.9,57.3,33,52.4z"/>
		<path class="st17" d="M34,99.4c-2.4-1.9-5.8-3.3-6.4-6.3c-0.4-2.1,0.8-4.2,1.9-6s2-4.2,1-6.1c-0.7-1.3-2-2-2.7-3.3
			c-0.6-1.2-0.6-2.5,0-3.7l-6.2,3.1c-3,1.5-5,4.6-5,8v17.7c0,1.7,1.3,3,3,3h18.6C37.6,103.3,36,101,34,99.4z"/>
		
			<linearGradient id="SVGID_7_" gradientUnits="userSpaceOnUse" x1="20.0596" y1="105.8121" x2="60.453" y2="105.8121" gradientTransform="matrix(1 0 0 -1 0 137.32)">
			<stop  offset="0" style="stop-color:#7035B1"/>
			<stop  offset="0.98" style="stop-color:#8552BF"/>
		</linearGradient>
		<path class="st18" d="M56.2,25.3c-2.4,1.7-5.1,2.9-8,3.7c-5.5,1.8-11.2,3.2-16.2,6.1s-9.5,7.3-10.8,13c-1.5-2.7-1.5-6,0.2-8.6
			c1.2-1.8,3-3.1,4.1-5c1.6-2.9,1-6.7,3.1-9.3c1.6-2.1,4.5-2.7,7.1-2.7s5.3,0.5,7.9,0.1c2.4-0.3,4.6-1.4,6.4-3c1-1,1.9-2.1,2.9-3
			c2-1.8,6.3-2.8,7.4,0.6C61.2,20.2,58.3,23.7,56.2,25.3z"/>
	</g>
</g>
</svg>
