<?xml version="1.0" encoding="utf-8"?>
<!-- Generator: Adobe Illustrator 23.0.1, SVG Export Plug-In . SVG Version: 6.00 Build 0)  -->
<svg version="1.1" id="Layer_1" xmlns="http://www.w3.org/2000/svg" xmlns:xlink="http://www.w3.org/1999/xlink" x="0px" y="0px"
	 viewBox="0 0 285.2 225.3" style="enable-background:new 0 0 285.2 225.3;" xml:space="preserve">
<style type="text/css">
	.st0{opacity:0.29;fill:#E6E6E6;enable-background:new    ;}
	.st1{clip-path:url(#SVGID_2_);}
	.st2{opacity:0.46;fill:#E6E6E6;enable-background:new    ;}
	.st3{fill:#000054;stroke:#000000;stroke-width:0.15;stroke-miterlimit:10;}
	.st4{fill:url(#SVGID_3_);}
	.st5{fill:#71EBB5;}
	.st6{fill:#3130EE;}
	.st7{fill:url(#SVGID_4_);}
	.st8{fill:url(#SVGID_5_);}
	.st9{fill:#3015DF;}
	.st10{fill:#FFFFFF;}
	.st11{fill:#EAEBEF;}
	.st12{fill:#FFCF4E;}
	.st13{fill:#F9A500;}
</style>
<title>sciezki_nauki</title>
<g>
	<g id="Layer_1-2">
		<circle class="st0" cx="145.1" cy="112.5" r="112.5"/>
		<g>
			<defs>
				<circle id="SVGID_1_" cx="145.1" cy="112.5" r="112.5"/>
			</defs>
			<clipPath id="SVGID_2_">
				<use xlink:href="#SVGID_1_"  style="overflow:visible;"/>
			</clipPath>
			<g class="st1">
				<path class="st2" d="M101.7,68.8c-12.6-0.1-26.8-0.3-35.6,8.3c-7.7,7.5-8.6,19.3-15.5,27.5c-8.1,9.7-22.4,12-35.4,12.4
					s-26.7-0.1-38,6c-11.5,6.3-18.4,19.4-16.8,32c2.2,17,18.4,31.3,16.6,48.4c-0.9,8.8-6.6,16.5-12.7,23.1s-13,12.8-17.4,20.7
					s-5.6,18-0.3,25.2c6.8,9.3,21.5,9.9,32.3,5.2S-2,264.1,7,256.8s20.3-13.8,32-12.3c17.1,2.1,26.9,19.1,40.4,29.3
					c13.3,10,31.1,13.5,48,11.9s32.8-8.1,47.4-16.4c11.5-6.5,22.5-14.3,30.3-24.6c7.9-10.3,12.4-23.4,10-35.9s-12.5-24-25.7-26.3
					c-5.4-0.9-11-0.4-16.4-0.9s-11.2-2.4-14.2-6.8c-4.4-6.5-0.5-15.5,5.7-20.4s14.2-7.1,21.4-10.6c12.8-6.2,23.1-16.7,29.1-29.6
					c2.8-6.2,4.4-13,3.5-19.7s-5-13.2-11.2-16.4c-6.5-3.2-14.9-2.8-20.1-7.7c-4.6-4.3-5.1-11.1-7.9-16.6
					c-4.1-7.8-13.7-12.6-22.7-11.3c-11.4,1.6-14.4,10.8-21.9,17.3C125.7,67.4,113.3,68.9,101.7,68.8z"/>
			</g>
		</g>
		<path class="st3" d="M147.1,51.8l0.2-0.3l-0.2-0.3V51.8z"/>
		
			<linearGradient id="SVGID_3_" gradientUnits="userSpaceOnUse" x1="0" y1="146.3498" x2="146.1" y2="146.3498" gradientTransform="matrix(1 0 0 -1 0 285.8898)">
			<stop  offset="0.49" style="stop-color:#FFC600"/>
			<stop  offset="0.89" style="stop-color:#FFE658"/>
		</linearGradient>
		<path class="st4" d="M145.6,53.8l-39.4,51.6l-19.5,12.8l-7.9,5.2l-12.3,23l-20.9,39.1l-10.6,4.9l-8.2,3.8l-10.1,20.2L0,225.3h15.3
			c3.4-2.9,6.1-7,8.3-10.9c3.6-6.7,7.1-14.2,13.9-17.7c6.4-3.4,13.8-2.3,21.2-1.3c0.8-0.9,1.6-1.8,2.6-2.6
			c6.2-5.2,14.4-7.3,22.5-8.2c4.8-0.5,9.6-0.7,14.4-1.2c3.6-2.3,7.4-4.3,11.3-5.9c4.2-1.6,8.5-2.5,12.9-2.9c0.5-0.5,1-1,1.5-1.6
			c4-4.7,5.6-11.9,2.6-17.3c-2.5-4.6-7.7-7.2-12.8-8.5s-10.4-1.5-15.5-2.9c-4.2-1-8-3.1-11-6.2c-2.9-3.2-4.4-7.8-3.1-11.9
			c1.3-4.4,5.4-7.4,9.8-9h0.1c1-0.5,2-1,3-1.4c15.4-6.6,29.5-15.8,41.7-27.4c1.6-2.7,2.9-5.6,4-8.6c1.7-4.6,2.9-9.3,3.6-14.1
			L145.6,53.8z"/>
		<path class="st5" d="M145.5,53.3l0.5,12.2c0.7-4.7,1.1-9.5,1-14.3L145.5,53.3z"/>
		<path class="st6" d="M226.4,160.4c-6.1-7.1-14.5-11.8-23-15.6c-11.5-5.1-23.6-8.7-36-10.8c-3-0.4-5.9-1-8.9-1.7
			c-1.7-0.5-3.4-1.1-4.9-1.9c-1.9-1.1-3.7-2.5-5-4.3c-3-3.7-3.3-8.9-0.6-12.8c2.1-3.3,5.6-5.9,8.6-8.8c0.9-0.8,1.7-1.6,2.5-2.5
			c5.4-6.5,6.4-15.9,4.6-24.3c-0.2-0.9-0.4-1.7-0.6-2.5L153.8,60l-5.8-9.4l-0.8,1c4.3,7.2,5.1,16.6,1.4,24.2c-0.6,1.2-1.3,2.3-2,3.4
			c-2,2.9-4.4,5.5-6.9,7.9c-0.4,0.4-0.9,0.8-1.3,1.2c-12.2,11.5-26.3,20.8-41.7,27.4c-1,0.4-2,0.9-3,1.4c-3.5,1.8-6.6,4.2-6.6,7.9
			c0,3,2.4,5.6,5.1,6.7s5.8,1.1,8.8,0.9c11.6-0.7,25-2.9,33.4,5.1c5.1,4.9,7.1,12.6,13.1,16.2c0.8,0.4,1.6,0.8,2.4,1.1
			c3.3,1.1,6.8,1.2,10.2,0.6c3.7-0.6,7.4-1.7,11-2.6c11.3-2.8,23.1-3,34.4-0.6c7.4,1.6,15.6,5.4,17.4,12.9
			c1.2,5.2-1.3,10.9-5.5,14.3s-9.5,5.1-14.9,5.8c-13.7,1.8-27.4-1.7-40.9-5.2c-1.9-0.5-3.9-1-5.8-1.5c-1.7-0.4-3.4-0.9-5.1-1.2
			c-9.4-2.2-19.2-3.8-28.6-2.9c-4.4,0.4-8.8,1.3-12.9,2.9c-3.9,1.6-7.7,3.6-11.3,5.9c-8.8,5.4-17.1,11.6-27.2,12.6
			c-4.1,0.3-8.1,0.1-12.2-0.6c-7.4-0.9-14.8-2.1-21.2,1.3c-6.7,3.6-10.2,11-13.9,17.7c-2.2,4-4.9,8.1-8.3,10.9h147.3
			c-1.5-1.3-2.4-3.2-2.6-5.1c0.1-2.6,1.5-4.9,3.8-6.1l0.2-0.1c2.2-1,4.5-1.6,6.9-1.6c12.2-1,24.6,0.2,36.5-2.6
			c11.9-2.7,23.9-10.7,26.7-23C236.2,177.5,232.5,167.5,226.4,160.4z"/>
		
			<linearGradient id="SVGID_4_" gradientUnits="userSpaceOnUse" x1="83.4488" y1="134.4892" x2="300.1488" y2="134.4892" gradientTransform="matrix(1 0 0 -1 0 285.8898)">
			<stop  offset="0.15" style="stop-color:#5954FF"/>
			<stop  offset="1" style="stop-color:#3130EE"/>
		</linearGradient>
		<path class="st7" d="M222.9,165.3c-1.8-7.4-9.9-11.2-17.4-12.9c-11.4-2.5-23.1-2.3-34.4,0.6c-3.6,0.9-7.3,2-11,2.6
			c-3.4,0.7-6.9,0.5-10.2-0.6c-0.8-0.3-1.6-0.7-2.3-1.1c-6-3.6-8.1-11.4-13.1-16.2c-8.4-8.1-21.8-5.8-33.4-5.1
			c-3,0.2-6.1,0.2-8.8-0.9s-5.1-3.7-5.1-6.7c0-3.7,3.2-6.2,6.6-7.9h-0.1c-4.3,1.6-8.4,4.6-9.8,9c-1.3,4.1,0.2,8.7,3.1,11.9
			c3,3.1,6.8,5.3,11.1,6.3c5.1,1.4,10.4,1.6,15.5,2.9s10.3,3.9,12.8,8.5c3,5.4,1.4,12.6-2.6,17.3c-0.5,0.5-1,1.1-1.5,1.6
			c9.4-0.8,19.2,0.7,28.6,2.9c1.7,0.4,3.4,0.8,5.1,1.2c1.9,0.5,3.9,1,5.8,1.5c13.5,3.5,27.1,7.1,40.9,5.2c5.3-0.7,10.7-2.3,14.9-5.8
			S224.2,170.5,222.9,165.3z"/>
		<path class="st6" d="M146.7,79.1c0.7-1.1,1.4-2.2,2-3.4c3.7-7.6,2.9-17-1.4-24.2l-0.2,0.3c0,4.6-0.3,9.2-1,13.7
			c-0.7,4.8-1.9,9.6-3.6,14.1c-1.1,3-2.4,5.8-4,8.6c0.4-0.4,0.9-0.8,1.3-1.2C142.3,84.6,144.6,82,146.7,79.1z"/>
		
			<linearGradient id="SVGID_5_" gradientUnits="userSpaceOnUse" x1="243.609" y1="83.0876" x2="60.179" y2="98.0076" gradientTransform="matrix(1 0 0 -1 0 285.8898)">
			<stop  offset="0" style="stop-color:#3130EE"/>
			<stop  offset="0.6" style="stop-color:#5954FF"/>
		</linearGradient>
		<path class="st8" d="M61.2,192.6c-0.9,0.8-1.8,1.7-2.6,2.6c4,0.6,8.1,0.8,12.2,0.6c10.1-1,18.5-7.2,27.2-12.6
			c-4.8,0.5-9.6,0.7-14.4,1.2C75.6,185.4,67.4,187.4,61.2,192.6z"/>
		<path class="st9" d="M230.4,141.9l-31.8-10.8l-35.4-55.9c0.2,0.8,0.4,1.7,0.6,2.5c1.8,8.3,0.8,17.8-4.6,24.3
			c-0.8,0.9-1.6,1.8-2.4,2.6c-3,2.9-6.5,5.5-8.6,8.8c-2.7,3.9-2.5,9.2,0.6,12.8c1.3,1.8,3.1,3.2,5,4.3c1.6,0.8,3.2,1.5,4.9,1.9
			c2.9,0.7,5.9,1.3,8.9,1.7c12.4,2.1,24.5,5.7,36,10.8c8.5,3.8,16.8,8.4,23,15.6s9.8,17.1,7.6,26.4c-2.8,12.2-14.8,20.2-26.7,23
			s-24.3,1.5-36.4,2.6c-2.4,0.1-4.8,0.6-6.9,1.6l-0.2,0.1c-2.3,1.2-3.8,3.5-3.8,6.1c0.2,2,1.1,3.8,2.6,5.1h122.7L230.4,141.9z"/>
		<path class="st10" d="M198,138c-17.8-13.5-59.4,6.4-70.2-14c-11.7-22.3,41.5-34.9,19.4-64.4l-1.2,0.8
			c10.8,19.7-8.5,28.9-20.4,39.7c-17.8,16.1-11.4,38.6,10.3,46.8c8.3,3.1,43-0.2,46.9,8.8c2.6,6-7.6,7.8-12.7,8.8
			c-31.6,5.9-67.2-17.9-95.2,7.2c-13.1,11.8-16,28.7-10.9,44.9c0.6,1.7,3.3,5.4,4.4,8.8h68.7c-17.7-9.2-27-15.4-31-20.5
			c-1.2-1.5-0.9-3.7,0.6-4.9c0.2-0.1,0.3-0.2,0.5-0.3c8.5-4.6,27.7-1.7,34.3-1.7c14.6,0,29.4-0.7,42.9-6.9
			C205,181.6,220.8,155.2,198,138z"/>
		<path class="st11" d="M198,138c-17.8-13.5-59.4,6.4-70.2-14c-11.7-22.3,41.5-34.9,19.4-64.4l-1.2,0.8c2.6,4.7,3.4,8.8,3.1,12.4
			c0.2,3.9-0.6,7.8-2.3,11.4c-3.8,7.7-11.5,12.6-17.4,18.8c-5.2,5.5-9.3,12.6-9.3,20.2c0,7.6,5,15.5,12.5,16.9
			c4.5,0.9,9.1-0.5,13.6-1.6c9.6-2.2,19.4-2.6,29.1-1.2c4.7,0.7,9.4,1.8,13.3,4.4s7,6.8,7.2,11.5c0.3,6.8-3.8,13.8-8.8,18.3
			c-5.1,4.6-11.9,6.8-18.7,6.3c-5.8-0.5-11.5-3.1-17.3-2.2c-9.6,1.5-15.9,11.9-25.4,13.9c-5.8,1.2-11.6-1-17.4-2.4
			s-12.5-1.7-16.8,2.4c-3.9,3.7-4.3,9.8-3.6,15.1c1.1,7.5,3.8,14.6,8.1,20.9h41.1c-17.7-9.2-27-15.4-31-20.5
			c-1.2-1.5-0.9-3.7,0.6-4.9c0.2-0.1,0.3-0.2,0.5-0.3c8.5-4.6,27.7-1.7,34.3-1.7c14.6,0,29.4-0.7,42.9-6.9
			C205,181.6,220.8,155.2,198,138z"/>
		<ellipse class="st11" cx="92.4" cy="178.2" rx="5.6" ry="2.7"/>
		<ellipse class="st11" cx="78.3" cy="210.9" rx="9.8" ry="4.4"/>
		<ellipse class="st11" cx="86.5" cy="202.6" rx="4.1" ry="2"/>
		<ellipse class="st11" cx="135.7" cy="179.9" rx="3.4" ry="1.7"/>
		<ellipse class="st11" cx="181.2" cy="145" rx="2.8" ry="1.3"/>
		<ellipse class="st11" cx="159.5" cy="138.5" rx="2.2" ry="1.1"/>
		<ellipse class="st11" cx="134.1" cy="137.7" rx="1.6" ry="0.8"/>
		<ellipse class="st11" cx="154.5" cy="139.5" rx="1.6" ry="0.8"/>
		<ellipse class="st11" cx="122.8" cy="113.6" rx="0.8" ry="0.4"/>
		<ellipse class="st11" cx="121.7" cy="112.7" rx="0.6" ry="0.3"/>
		<ellipse class="st11" cx="189.7" cy="146.9" rx="4.9" ry="1.9"/>
		<ellipse class="st11" cx="142.9" cy="183.7" rx="4.6" ry="2.2"/>
		<ellipse class="st11" cx="191.3" cy="166.7" rx="3.3" ry="1.6"/>
		<circle class="st12" cx="148" cy="55.6" r="9.3"/>
		<circle class="st13" cx="148" cy="55.6" r="4.7"/>
	</g>
</g>
</svg>
