<?xml version="1.0" encoding="utf-8"?>
<!-- Generator: Adobe Illustrator 23.0.1, SVG Export Plug-In . SVG Version: 6.00 Build 0)  -->
<svg version="1.1" id="Layer_1" xmlns="http://www.w3.org/2000/svg" xmlns:xlink="http://www.w3.org/1999/xlink" x="0px" y="0px"
	 viewBox="0 0 225 225" style="enable-background:new 0 0 225 225;" xml:space="preserve">
<style type="text/css">
	.st0{opacity:0.29;fill:#E6E6E6;enable-background:new    ;}
	.st1{clip-path:url(#SVGID_2_);}
	.st2{opacity:0.46;fill:#E6E6E6;enable-background:new    ;}
	.st3{fill:url(#SVGID_3_);}
	.st4{fill:#300C6D;}
	.st5{opacity:0.13;}
	.st6{fill:#FFFFFF;}
	.st7{fill:#FCDF6A;}
	.st8{fill:#E6E6E6;}
	.st9{fill:url(#SVGID_4_);}
	.st10{fill:#F9A500;}
</style>
<title>Spojne_postepy</title>
<g>
	<g id="Layer_1-2">
		<circle class="st0" cx="112.5" cy="112.5" r="112.5"/>
		<g>
			<defs>
				<circle id="SVGID_1_" cx="112.5" cy="112.5" r="112.5"/>
			</defs>
			<clipPath id="SVGID_2_">
				<use xlink:href="#SVGID_1_"  style="overflow:visible;"/>
			</clipPath>
			<g class="st1">
				<path class="st2" d="M69.1,68.8c-12.6-0.1-26.8-0.3-35.6,8.3c-7.7,7.5-8.6,19.3-15.4,27.5c-8.1,9.7-22.4,12-35.4,12.4
					s-26.7-0.1-38,6c-11.5,6.3-18.4,19.4-16.8,32c2.2,17,18.4,31.3,16.6,48.4c-0.9,8.8-6.6,16.5-12.7,23.1s-13,12.8-17.4,20.7
					c-4.4,7.8-5.6,18-0.3,25.2c6.8,9.3,21.5,9.9,32.3,5.2s18.9-13.5,27.9-20.9s20.3-13.8,32-12.3c17.1,2.1,26.9,19.1,40.4,29.3
					c13.3,10,31.1,13.5,48,11.9s32.8-8.1,47.4-16.4c11.5-6.5,22.5-14.3,30.3-24.6c7.9-10.3,12.4-23.4,10-35.9s-12.5-24-25.7-26.3
					c-5.4-0.9-11-0.4-16.4-0.9s-11.2-2.4-14.2-6.8c-4.4-6.5-0.5-15.5,5.7-20.4s14.2-7.1,21.4-10.6c12.8-6.2,23.1-16.7,29.1-29.6
					c2.8-6.2,4.4-13,3.5-19.7s-5-13.2-11.2-16.4c-6.5-3.2-14.9-2.8-20.1-7.7c-4.6-4.3-5.1-11.1-7.9-16.6
					c-4.1-7.8-13.7-12.6-22.7-11.3c-11.4,1.6-14.4,10.8-21.9,17.3C93.1,67.4,80.7,68.9,69.1,68.8z"/>
			</g>
		</g>
		
			<linearGradient id="SVGID_3_" gradientUnits="userSpaceOnUse" x1="0.8" y1="173.3898" x2="223.8" y2="173.3898" gradientTransform="matrix(1 0 0 -1 0 285.8898)">
			<stop  offset="2.000000e-02" style="stop-color:#8552BF"/>
			<stop  offset="1" style="stop-color:#7035B1"/>
		</linearGradient>
		<path class="st3" d="M21.6,35H203c11.5,0,20.8,9.3,20.8,20.8v113.4c0,11.5-9.3,20.8-20.8,20.8H21.6c-11.5,0-20.8-9.3-20.8-20.8
			V55.8C0.8,44.3,10.1,35,21.6,35z"/>
		<path class="st4" d="M202.3,35H194c0.4,2.9,0.2,5.9-0.4,8.8c-1,5.2-8.3,20.1-7.9,25.3c1.3,17.4,7.9,14.2,9.1,35
			c0.6,9.7-10.7,19-10.4,27.7c0.3,12.7,15.2,16.5,10.4,25.7c-3.1,6-11.6,6.7-18.2,5.4s-13.3-4.1-19.9-2.8
			c-9.2,1.7-15.5,10.6-24.5,13.1c-6.7,1.9-13.8,0-20.8-0.6c-20.5-1.7-39.9,8.4-58.7,16.8l-1.4,0.6h151c11.9,0,21.5-9.6,21.5-21.5
			l0,0v-112C223.8,44.6,214.2,35,202.3,35C202.4,35,202.3,35,202.3,35z"/>
		<g class="st5">
			<path class="st6" d="M47.1,165.7c9.7-8.3,25.1-7.5,34.4-16.3c5-4.8,7.4-11.9,12.2-17c8.1-8.7,21.4-10.1,31.7-16.1
				c7.2-4.2,12.9-10.7,18.4-17c5.6-6.5,11.4-13.3,13.2-21.8c0.9-4.5,0.8-9.4,3.5-13.1c2.9-3.9,8.3-5.1,11.5-8.7
				c3.4-3.8,3.8-9.5,3.2-14.6c-0.2-2-0.5-4-0.8-6h-36.4c0.6,3.1,1.2,6.1,0.7,9.2c-1.3,7.1-8.7,11.2-15.5,13.8s-14.3,5.5-17.4,12
				c-2.9,6.3-0.5,14-3,20.5s-9.5,10.4-16.1,12.8s-13.9,4.3-19,9.2c-8,7.6-9.2,20.9-18.3,27.2c-7.8,5.4-19.1,3.9-26.3,10
				c-5.8,4.8-7.7,13.4-13.9,17.5c-2.5,1.6-5.5,2.4-8.3,3.5v6.5c0,7,5.7,12.7,12.7,12.8h15.2C36.1,183.9,39.4,172.3,47.1,165.7z"/>
		</g>
		<circle class="st6" cx="171.8" cy="78.1" r="22"/>
		<path class="st6" d="M29.3,60.1h103.8c2.5,0,4.5,2,4.5,4.5v0c0,2.5-2,4.5-4.5,4.5H29.3c-2.5,0-4.5-2-4.5-4.5v0
			C24.8,62.1,26.8,60.1,29.3,60.1z"/>
		<path class="st7" d="M29.3,77.5h75.6c2.5,0,4.5,2,4.5,4.5v0c0,2.5-2,4.5-4.5,4.5H29.3c-2.5,0-4.5-2-4.5-4.5v0
			C24.8,79.5,26.8,77.5,29.3,77.5z"/>
		<path class="st6" d="M31.8,125.2h159.4c10.6,0,19.2,8.6,19.2,19.2l0,0c0,10.6-8.6,19.2-19.2,19.2H31.8c-10.6,0-19.2-8.6-19.2-19.2
			l0,0C12.7,133.8,21.3,125.2,31.8,125.2z"/>
		<path class="st8" d="M191.2,158.3H31.8c-9.6,0-17.7-7-19-16.5c-0.1,0.9-0.2,1.8-0.2,2.6l0,0c0,10.6,8.6,19.2,19.2,19.2h0h159.5
			c10.6,0,19.2-8.6,19.2-19.2c0,0,0,0,0,0l0,0c0-0.9-0.1-1.8-0.2-2.6C208.9,151.2,200.8,158.3,191.2,158.3z"/>
		
			<linearGradient id="SVGID_4_" gradientUnits="userSpaceOnUse" x1="12.68" y1="141.4848" x2="189.95" y2="141.4848" gradientTransform="matrix(1 0 0 -1 0 285.8898)">
			<stop  offset="0" style="stop-color:#FCDF6A"/>
			<stop  offset="1" style="stop-color:#F9A500"/>
		</linearGradient>
		<path class="st9" d="M31.8,125.2h86.6c10.6,0,19.2,8.6,19.2,19.2l0,0c0,10.6-8.6,19.2-19.2,19.2H31.8c-10.6,0-19.2-8.6-19.2-19.2
			l0,0C12.7,133.8,21.3,125.2,31.8,125.2z"/>
		<path class="st10" d="M118.4,125.2h-16.5c0.8,1.3,2.1,2.4,3.6,2.9c2.5,0.8,5.3,0.8,7.6,1.9c2.7,1.4,4.3,4.3,5.7,7
			c1,1.9,2,4,1.6,6.1c-0.5,2.3-2.6,3.8-4.5,5.1c-5.7,3.8-11.6,7.8-18.2,9.2c-5.5,1.2-11.3,0.7-16.9,0.8c-10.4,0.2-20.6,2.5-30.7,5.3
			h68.4c10.6,0,19.2-8.6,19.2-19.2c0,0,0,0,0,0l0,0C137.6,133.8,129,125.3,118.4,125.2C118.4,125.2,118.4,125.2,118.4,125.2z"/>
	</g>
</g>
</svg>
