<?xml version="1.0" encoding="utf-8"?>
<!-- Generator: Adobe Illustrator 23.0.1, SVG Export Plug-In . SVG Version: 6.00 Build 0)  -->
<svg version="1.1" id="Layer_1" xmlns="http://www.w3.org/2000/svg" xmlns:xlink="http://www.w3.org/1999/xlink" x="0px" y="0px"
	 viewBox="0 0 279.3 225" style="enable-background:new 0 0 279.3 225;" xml:space="preserve">
<style type="text/css">
	.st0{opacity:0.29;fill:#E6E6E6;enable-background:new    ;}
	.st1{clip-path:url(#SVGID_2_);}
	.st2{opacity:0.46;fill:#E6E6E6;enable-background:new    ;}
	.st3{fill:#EAEBEF;}
	.st4{fill:#3015DF;}
	.st5{opacity:0.36;}
	.st6{fill:#D1D0CD;}
	.st7{fill:#FFFFFF;}
	.st8{fill:url(#SVGID_3_);}
	.st9{fill:url(#SVGID_4_);}
	.st10{fill:#F4F5F7;}
	.st11{fill:#6774FF;}
	.st12{fill:url(#SVGID_5_);}
	.st13{fill:#4B1591;}
	.st14{fill:url(#SVGID_6_);}
	.st15{opacity:0.5;}
	.st16{fill:url(#SVGID_7_);}
	.st17{fill:url(#SVGID_8_);}
	.st18{fill:#FBA200;}
</style>
<title>spolecznosc</title>
<g>
	<g id="Layer_1-2">
		<circle class="st0" cx="148.8" cy="112.5" r="112.5"/>
		<g>
			<defs>
				<circle id="SVGID_1_" cx="148.8" cy="112.5" r="112.5"/>
			</defs>
			<clipPath id="SVGID_2_">
				<use xlink:href="#SVGID_1_"  style="overflow:visible;"/>
			</clipPath>
			<g class="st1">
				<path class="st2" d="M105.4,68.8c-12.6-0.1-26.8-0.3-35.6,8.3c-7.7,7.5-8.6,19.3-15.4,27.5c-8.1,9.7-22.4,12-35.4,12.4
					s-26.7-0.1-38,6c-11.5,6.3-18.4,19.4-16.8,32c2.2,17,18.4,31.3,16.6,48.4c-0.9,8.8-6.6,16.5-12.7,23.1s-13,12.8-17.4,20.7
					s-5.6,18-0.3,25.2c6.8,9.3,21.5,9.9,32.3,5.2s18.9-13.5,27.9-20.9s20.3-13.8,32-12.3c17.1,2.1,26.9,19.1,40.4,29.3
					c13.3,10,31.1,13.5,48,11.9s32.8-8.1,47.4-16.4c11.5-6.5,22.5-14.3,30.3-24.6c7.9-10.3,12.4-23.4,10-35.9s-12.5-24-25.7-26.3
					c-5.4-0.9-11-0.4-16.4-0.9s-11.2-2.4-14.2-6.8c-4.4-6.5-0.5-15.5,5.7-20.4s14.2-7.1,21.4-10.6c12.8-6.2,23.1-16.7,29.1-29.6
					c2.8-6.2,4.4-13,3.5-19.7s-5-13.2-11.2-16.4c-6.5-3.2-14.9-2.8-20.1-7.7c-4.6-4.3-5.1-11.1-7.9-16.6
					c-4.1-7.8-13.7-12.6-22.7-11.3c-11.4,1.6-14.4,10.8-21.9,17.3C129.4,67.4,117,68.9,105.4,68.8z"/>
			</g>
		</g>
		<path class="st3" d="M252.8,137h-44.6c-3.7,0-6.7-3-6.7-6.7l0,0c0-3.7,3-6.7,6.7-6.7h44.6c3.7,0,6.7,3,6.7,6.7l0,0
			C259.5,134,256.5,137,252.8,137z"/>
		<path class="st4" d="M201.4,118.6c-0.5-2.8-0.8-5.9,0.5-8.5c1.5-2.9,4.8-4.6,7.9-5.6c11-3.6,22.9-2.6,33.2,2.7
			c3.7,2,7.2,4.5,11.2,5.9c2.1,0.7,4.6,1.3,5.5,3.4c0.4,1.3,0.4,2.8-0.1,4.1l-3.5,14c-0.2,1.1-0.7,2.1-1.5,2.9
			c-1.1,0.7-2.5,0.9-3.7,0.6l-28.5-2.1c-4.8-0.4-14.7,0.9-17.6-4C202.4,128.2,202,122.7,201.4,118.6z"/>
		<g class="st5">
			<path class="st6" d="M242.3,157.1v9.3c-1,1.2-2.5,1.8-4,1.7c-2.4-0.2-4.5-2.3-6.9-2.7c-1.7-0.3-3.4,0.6-4,2.1
				c-0.3,1.1-0.3,2.2,0.1,3.2c0.4,0.9,1.1,1.8,1.9,2.4c2.6,2,6,2.5,9.1,1.4c1.3-0.4,2.6-1,3.8-1.7v8.1h-24.6v-23.9H242.3z"/>
			<path class="st3" d="M229.4,173.2c-0.8-0.6-1.5-1.5-1.9-2.4c-0.4-1-0.5-2.2-0.1-3.2c0.6-1.6,2.3-2.5,4-2.1
				c2.4,0.4,4.5,2.5,6.9,2.7c1.5,0.1,3-0.6,4-1.7v6.5c-1.2,0.7-2.4,1.3-3.8,1.7C235.4,175.7,232,175.2,229.4,173.2z"/>
		</g>
		<path class="st3" d="M230.2,165.5L230.2,165.5c13.4,0,24.2-14.8,24.2-28.1v-19.8c0-10.5-8.5-18.9-18.9-18.9c0,0,0,0,0,0h-10.6
			c-10.5,0-19,8.4-19,18.9c0,0,0,0,0,0.1v19.8C205.9,150.7,216.8,165.5,230.2,165.5z"/>
		<path class="st7" d="M227.3,157.9c-2.8-1-4.9-3.3-5.7-6.1c-0.9-3.6,1.1-7.4,0.7-11.2c-0.4-3.6-2.8-6.5-4.4-9.7
			c-1.6-3.2-2.3-7.5,0.3-10c3-2.8,7.8-1.2,11.4,0.6c5.2,2.5,10.5,5,16.1,6.1c2.9,0.6,5.8,0.7,8.7,0.4v9.3c-0.2,7-2.7,13.7-7.1,19.1
			c-3.7,1.4-7.6,2.3-11.5,2.6C232.9,159.3,230,158.9,227.3,157.9z"/>
		<path class="st4" d="M213,111.5c3.4-0.5,6.9,0.8,10.1,2.1c10.9,4.6,21.6,10.9,33.4,10.4c1.9,0,3.8-0.4,5.4-1.4
			c1.7-1,2.5-2.9,2.1-4.8c-0.6-2-2.7-3.1-4.5-4.1s-3.8-2.7-3.5-4.8c0.3-2.3,3.1-3.2,5.4-3.5s5.1-0.8,6-2.9c0.6-1.8-0.1-3.7-1.6-4.7
			c-1.5-0.9-3.4-1.3-5.2-1.1c-1.8,0.2-3.5,0.6-5.3,0.8c-7.8,0.9-15.2-3.4-23-4.4c-7.1-1.1-14.4,1-19.9,5.6c-4.5,4-9,12.6-6.4,18.8
			c0.9-1.1,1.1-2.8,2.4-4C209.7,112.5,211.3,111.7,213,111.5z"/>
		<path class="st4" d="M265.6,108.8c-1.6-3.4-0.3-8.1,3.2-9.4c1.1-0.4,2.5-0.7,2.9-1.8c0.4-1.7-2.1-2.4-3.7-2
			c-6.6,1.9-10.4,9.8-17.2,11.2c-3.7,0.7-7.4-0.7-10.7-2.5s-6.4-4-10-5.1c-6.4-1.9-13.6,0.3-18.7,4.7c-2.5,2.3-4.6,5-6.1,8
			c-0.1-6.5,4.2-13.9,8.5-17.8c6.3-5.6,15.2-7.8,23.6-6.7c9.2,1.3,18,6.3,27.2,5.3c2.1-0.2,4.2-0.8,6.3-1c2.1-0.3,4.3,0.1,6.1,1.3
			c1.9,1.2,2.6,3.6,1.9,5.7c-1.1,2.5-4.4,3.1-7.1,3.4s-6,1.5-6.4,4.2c-0.4,2.4,2,4.4,4.1,5.6c1.4,0.7,2.7,1.5,3.9,2.5
			C270.2,113.7,267,111.8,265.6,108.8z"/>
		
			<linearGradient id="SVGID_3_" gradientUnits="userSpaceOnUse" x1="75.9239" y1="176.163" x2="224.3639" y2="176.163" gradientTransform="matrix(-1 0 0 -1 336.6278 285.8898)">
			<stop  offset="0" style="stop-color:#3130EE"/>
			<stop  offset="0.42" style="stop-color:#5954FF"/>
			<stop  offset="1" style="stop-color:#6774FF"/>
		</linearGradient>
		<path class="st8" d="M211.3,104c5-4.4,12.2-6.6,18.7-4.7c3.6,1.1,6.7,3.3,10,5.1s7,3.2,10.7,2.5c7.3-1.4,11.1-10.5,18.8-11.5
			c1-0.2,2,0.5,2.2,1.6c0,0.1,0,0.2,0,0.3c0,1.5-1.7,1.8-2.9,2.2c-3.5,1.3-4.8,6-3.2,9.4c1.4,3,4.6,4.9,7.9,5.6
			c1,0.9,1.6,2.1,1.6,3.4c0,1.3-0.5,2.6-1.4,3.5c-2,2.2-4.9,2.6-7.7,2.7c-14,0.5-26.7-6.9-39.6-12.4c-3.8-1.6-7.8-3.1-11.9-2.5
			c-2.1,0.3-4,1.2-5.6,2.6c-1.5,1.4-1.8,3.4-2.8,4.7l0,0c-1-2.4-0.7-5.2,0.8-7.4C208.2,107.2,209.6,105.5,211.3,104z"/>
		
			<linearGradient id="SVGID_4_" gradientUnits="userSpaceOnUse" x1="190.0439" y1="88.2048" x2="269.9739" y2="88.2048" gradientTransform="matrix(1 0 0 -1 0 285.8898)">
			<stop  offset="0" style="stop-color:#3130EE"/>
			<stop  offset="0.42" style="stop-color:#5954FF"/>
			<stop  offset="1" style="stop-color:#6774FF"/>
		</linearGradient>
		<path class="st9" d="M261.3,178.1l-19.3-5.5l-12,8l-12-8l-19.3,5.5c-5.1,1.5-8.7,6.2-8.7,11.5v29.2c0,2.2,1.8,4,4,4H266
			c2.2,0,4-1.8,4-4v-29.2C270,184.3,266.4,179.5,261.3,178.1z"/>
		<path class="st4" d="M246,208c0-2.1,0.6-4.2,1.8-5.9l5.3-7.1c0.8,1.5,1.1,3.1,1.1,4.8V220c0,1.5-0.9,2.8-2.1,2.8H246V208z"/>
		<path class="st4" d="M230,180.5l-6.8,5.2c-1.1,0.8-2.6,0.6-3.4-0.4c-0.1-0.1-0.1-0.2-0.2-0.3l-6.1-11.1l2.4-3.7
			c0.5-0.7,1.5-0.9,2.2-0.4c0.1,0,0.1,0.1,0.2,0.2L230,180.5z"/>
		<path class="st4" d="M230,180.5l6.8,5.2c1.1,0.8,2.6,0.6,3.4-0.4c0.1-0.1,0.1-0.2,0.2-0.3l6.1-11.1l-2.4-3.7
			c-0.5-0.7-1.5-0.9-2.2-0.4c-0.1,0-0.1,0.1-0.2,0.2L230,180.5z"/>
		<path class="st4" d="M94.4,130.8c1.6-8.5-0.6-17.6-4.3-25.4c-0.8-1.9-2.1-3.6-3.7-5c-3.4-2.7-5.2-5.6-9.3-6.9
			c-3.1-1-26.5-11.3-41.4,3.6c-7.3,7.3-14.3,15-18.7,24.4c-2,4.1-3.7,8.6-3.4,13.1c0.3,5.6,3.8,11.4,1.8,16.6
			c-1.5,3.8-5.3,6-7.9,9.2c-2.5,3.1-3.6,7.1-3.2,11.1c0.6,5.1,3.7,9.9,2.6,14.9c-0.8,3.9-4.1,6.9-5.7,10.6
			c-1.8,4.1-1.5,8.8,0.8,12.6c0.4,0.8,1.1,1.5,1.9,1.9c0.7,0.3,1.5,0.4,2.2,0.4c17.8,0.2,34-10,47.7-21.5c7.5-6.2,21.8-11,26.6-19.3
			C87.2,159.2,92.4,141,94.4,130.8z"/>
		
			<ellipse transform="matrix(0.2239 -0.9746 0.9746 0.2239 -69.5468 188.1198)" class="st10" cx="83.3" cy="137.7" rx="8.9" ry="6.3"/>
		<path class="st11" d="M49.2,161.8h17.7l0,0v20.7c0,1.2-0.9,2.1-2.1,2.1H51.3c-1.2,0-2.1-0.9-2.1-2.1
			C49.2,182.5,49.2,161.8,49.2,161.8z"/>
		<path class="st3" d="M87.5,184.5L74.6,178c-2.7-1.4-4.4-4.1-4.4-7.1v-12h-24v12c0,3-1.7,5.8-4.4,7.1l-12.9,6.5
			c-4.1,2-6.6,6.2-6.6,10.7v23.6c0,2.2,1.8,4,4,4h63.9c2.2,0,4-1.8,4-4v-23.6C94.2,190.6,91.6,186.5,87.5,184.5z"/>
		<path class="st6" d="M58.2,174.9c4.2,0,8.3-0.8,12.2-2.5c-0.1-0.5-0.2-1-0.2-1.5v-12h-24v12c0,0.5-0.1,1-0.2,1.5
			C49.9,174,54,174.9,58.2,174.9z"/>
		
			<linearGradient id="SVGID_5_" gradientUnits="userSpaceOnUse" x1="22.2939" y1="84.5498" x2="94.2339" y2="84.5498" gradientTransform="matrix(1 0 0 -1 0 285.8898)">
			<stop  offset="0" style="stop-color:#A028BA"/>
			<stop  offset="0.85" style="stop-color:#E462C7"/>
		</linearGradient>
		<path class="st12" d="M87.5,184.5l-9.2-4.6c-7.2,11.1-22,14.3-33.1,7.1c-2.9-1.8-5.3-4.3-7.1-7.1l-9.2,4.6
			c-4.1,2-6.6,6.2-6.6,10.7v23.6c0,2.2,1.8,4,4,4h63.9c2.2,0,4-1.8,4-4v-23.6C94.2,190.6,91.6,186.5,87.5,184.5z"/>
		<path class="st7" d="M77,121.3c-16.6,7.1-37.6,5.3-44.4,23.7c0.6,2.4,1.5,4.7,2.7,6.8c3.7,7.1,9.3,13.6,16.8,16.6
			c2.2,1,4.6,1.4,7,1.2c2.5-0.3,4.8-1.2,7-2.4c5.8-3.1,11.4-7.1,14.6-12.9c4.5-8.3,2.6-21.3,2.6-30.6c0-3.9-0.8-6-2.1-6.9
			C80.3,118.7,78.8,120.3,77,121.3z"/>
		<path class="st3" d="M44,151.7c-0.7-3.7-0.6-7.6,1.2-10.9s5-5.4,8.4-6.9c3.9-1.7,8-2.7,12-3.9s8-3,11.1-5.8
			c2.2-1.9,3.7-4.5,4.4-7.3c-0.9,1.9-2.3,3.4-4.1,4.5c-16.6,7.1-37.6,5.3-44.4,23.7c0.6,2.4,1.5,4.7,2.7,6.8
			c3.7,7.1,9.3,13.6,16.8,16.6c0.7,0.3,1.4,0.5,2.1,0.7l-0.8-0.7C48.5,164.1,45.2,158.2,44,151.7z"/>
		<path class="st13" d="M45.3,214.3c-3.2-2.5-7.8-4.4-8.5-8.4c-0.5-2.8,1.1-5.5,2.5-8.1s2.6-5.6,1.3-8.1c-0.9-1.7-2.7-2.7-3.6-4.4
			c-0.7-1.5-0.7-3.3,0-4.9l-8.2,4.1c-4.1,2-6.6,6.2-6.6,10.7v23.6c0,2.2,1.8,4,4,4h24.9C50.1,219.4,48.1,216.4,45.3,214.3z"/>
		
			<linearGradient id="SVGID_6_" gradientUnits="userSpaceOnUse" x1="26.8573" y1="162.0279" x2="80.6197" y2="162.0279" gradientTransform="matrix(1 0 0 -1 0 285.8898)">
			<stop  offset="0" style="stop-color:#3130EE"/>
			<stop  offset="0.42" style="stop-color:#5954FF"/>
			<stop  offset="1" style="stop-color:#6774FF"/>
		</linearGradient>
		<path class="st14" d="M74.9,115.6c-3.1,2.4-6.9,3.7-10.6,4.9c-7.3,2.3-14.9,4.3-21.6,8.1c-6.7,3.8-12.6,9.8-14.3,17.3
			c-2-3.5-2-7.9,0.2-11.4c1.6-2.4,4-4.1,5.4-6.6c2.1-3.8,1.4-8.9,4.1-12.3c2.2-2.8,6-3.6,9.5-3.6s7,0.7,10.5,0.2
			c3.2-0.4,6.2-1.8,8.5-4c1.4-1.3,2.5-2.8,3.9-4c2.7-2.5,8.4-3.8,9.9,0.8C81.6,108.8,77.8,113.4,74.9,115.6z"/>
		<g>
			<rect x="122.1" y="141" class="st10" width="47.9" height="36"/>
			<g class="st15">
				<path class="st6" d="M162.4,166.2c-2.8,1.8-6.2,3.7-9.3,2.6c-2.7-1-4.5-4-7.3-4.5c-2.6-0.4-5.2,1.3-7.7,0.8
					c-3.2-0.7-4.6-5.1-2.9-8s5.1-4.2,8.4-4.3s6.6,0.8,9.8,1.4c5.2,0.9,11,0.8,15.3-2.2c0.5-0.4,1-0.7,1.4-1.2V141h-48v36h48v-15.7
					L162.4,166.2z"/>
			</g>
			<path class="st3" d="M179,123.7h-65c-3.7,0-6.7-3-6.7-6.7v-4.7c0-3.7,3-6.7,6.7-6.7h65c3.7,0,6.7,3,6.7,6.7v4.7
				C185.7,120.7,182.7,123.7,179,123.7z"/>
			<path class="st4" d="M106.9,97c-0.7-4.1-1.1-8.4,0.6-12.1c2-4.2,6.4-6.5,10.7-8c14.9-5,31.2-3.6,44.9,4c5.1,2.8,9.7,6.4,15.1,8.4
				c2.9,1,6.3,2,7.4,4.8c0.7,1.8,0.3,3.9-0.2,5.8l-4.6,20c-0.4,1.5-0.8,3.1-2,4.1c-1.4,1.1-3.3,1-5,0.9l-38.6-3.1
				c-6.5-0.5-19.8,1.2-23.8-5.8C108.4,110.7,107.9,102.9,106.9,97z"/>
			<path class="st3" d="M146.1,162.1L146.1,162.1c18.1,0,32.8-19.9,32.8-38.1V97.3c0-14.1-11.5-25.6-25.6-25.6h-14.4
				c-14.1,0-25.6,11.5-25.6,25.6v26.8C113.3,142.2,128,162.1,146.1,162.1z"/>
			<path class="st7" d="M142.2,151.8c-3.9-1.7-6.7-5.1-7.7-9.2c-1.2-5.5,1.5-11.2,1-16.8c-0.5-5.3-3.7-9.8-5.9-14.5
				c-2.2-4.8-3.1-11.3,0.4-14.9c4-4.2,10.5-1.7,15.4,0.9c7,3.7,14.2,7.5,21.8,9.1c3.9,0.9,7.8,1,11.7,0.5v14
				c-0.2,10.3-3.5,20.3-9.6,28.6c-5,2.1-10.2,3.4-15.6,3.8C149.8,153.8,145.8,153.3,142.2,151.8z"/>
			<path class="st4" d="M112.9,142.6c0.2,2.7,0.5,5.6,1.8,7.9s3.6,4.1,5.7,5.8c5.3,4.1,10.9,8.3,17.4,9.3c4.3,0.6,8.7,0,12.7-1.5
				c4-1.5,7.9-3.4,11.6-5.7c4.2-2.5,8.5-5.1,11.6-8.8c3.2-4,5.2-8.9,5.8-14c0.6-5.1,0.4-10.2-0.7-15.2c0-0.3-0.1-0.5-0.3-0.7
				c-0.6-0.5-1.3,0.4-1.5,1.1c-0.7,2.5-1.9,4.9-3.3,7.1c-1.5,2.2-3.6,3.8-6.1,4.6c-5.9,1.6-15.9-4.3-22-3.8
				c-4.9,0.4-9.2,4.1-14.2,4.2c-13.2,0.3-16.3-14.3-18.4-12.4c-1.6,1.4-0.6,8.3-0.5,10.4C112.5,134.8,112.7,138.7,112.9,142.6z"/>
			<path class="st4" d="M117.6,63.3c5.2-6.4,13.5-9.7,21.8-10.3c13.1-0.9,26.4,4.8,35.2,14.5c3.5,3.9,6.4,8.4,8.4,13.2
				c1.7,4.1,2.7,8.4,3.1,12.8c0.1,1.4,0.1,3.1-1,3.9c-1.4,1.1-3.6,0.2-4.7-1.2s-1.8-3.2-3-4.5c-2.3-2.4-6.2-2.4-9.3-1.4
				s-6,2.8-9.2,3.6c-4.9,1.2-10.1,0-14.8-1.8s-9.1-4.4-13.9-6c-3.5-1.3-7.3-1.7-11-1.3c-1.3,0.2-3.2,1.3-4.2,0.5s-1.4-3.3-1.6-4.3
				C111.9,74.8,113.5,68.3,117.6,63.3z"/>
			
				<linearGradient id="SVGID_7_" gradientUnits="userSpaceOnUse" x1="123.7413" y1="209.9857" x2="179.3563" y2="209.9857" gradientTransform="matrix(1 0 0 -1 0 285.8898)">
				<stop  offset="0" style="stop-color:#3130EE"/>
				<stop  offset="0.42" style="stop-color:#5954FF"/>
				<stop  offset="1" style="stop-color:#6774FF"/>
			</linearGradient>
			<path class="st16" d="M158.1,65.6c-9-4-20-4.4-28.5,0.6c-1.7,0.9-3.2,2.2-4.4,3.7c-1.2,1.6-1.7,3.5-1.4,5.5
				c0.5,2.5,2.6,4.4,4.6,6c10,7.3,23.8,10.3,35.3,5.6c1.8-0.9,3.7-1.6,5.7-2.3c1.3-0.4,2.7-0.4,4-0.2c1.5,0.3,2.3,1.5,3.6,2
				c2.3,1,2.7-1.5,2-3.3c-0.9-2.4-3.6-4.7-5.4-6.5c-2.1-2.2-4.3-4.2-6.7-6C164.2,68.7,161.2,67,158.1,65.6z"/>
		</g>
		<g>
			
				<linearGradient id="SVGID_8_" gradientUnits="userSpaceOnUse" x1="78.1939" y1="88.9313" x2="214.0539" y2="88.9313" gradientTransform="matrix(1 0 0 -1 0 285.8898)">
				<stop  offset="2.000000e-02" style="stop-color:#FBA200"/>
				<stop  offset="0.17" style="stop-color:#FBA600"/>
				<stop  offset="0.33" style="stop-color:#FDB300"/>
				<stop  offset="0.49" style="stop-color:#FFC600"/>
				<stop  offset="0.89" style="stop-color:#FFE658"/>
				<stop  offset="0.93" style="stop-color:#FFE75A"/>
				<stop  offset="0.95" style="stop-color:#FFE862"/>
				<stop  offset="0.96" style="stop-color:#FFEC70"/>
				<stop  offset="0.98" style="stop-color:#FFF083"/>
				<stop  offset="0.99" style="stop-color:#FFF69C"/>
				<stop  offset="1" style="stop-color:#FFFDBA"/>
				<stop  offset="1" style="stop-color:#FFFFC1"/>
			</linearGradient>
			<path class="st17" d="M203.5,181.1L170.1,169l-24,8l-24-8l-33.4,12.1c-6.3,2.3-10.5,8.3-10.5,15v24.8c0,2.2,1.8,4,4,4h127.9
				c2.2,0,4-1.8,4-4v-24.8C214,189.4,209.8,183.4,203.5,181.1z"/>
			<path class="st18" d="M146.1,177l-12.8,12.7c-1.6,1.6-4.1,1.6-5.7,0c-0.1-0.1-0.2-0.3-0.3-0.4l-13.2-17.4l3.5-7.3
				c1-2,3.3-2.8,5.3-1.9c0.1,0.1,0.2,0.1,0.4,0.2L146.1,177z"/>
			<path class="st18" d="M146.1,177l12.8,12.7c1.6,1.6,4.1,1.6,5.7,0c0.1-0.1,0.2-0.3,0.3-0.4l13.2-17.4l-3.5-7.3
				c-1-2-3.3-2.8-5.3-1.9c-0.1,0.1-0.2,0.1-0.4,0.2L146.1,177z"/>
			<path class="st18" d="M124.2,216.5c-1.6-2.2-2.4-5-4.1-7.1c-2.6-3.3-6.8-4.9-10.4-7s-7.2-5.7-6.7-9.9c0.5-4.5,5.3-7.2,9.4-9
				l22.4-10.1l-12.7-4.2l-33.4,12.1c-6.3,2.3-10.5,8.3-10.5,15v24.8c0,2.2,1.8,4,4,4h50.4c-0.5-0.7-1.1-1.3-1.7-1.9
				C128.7,220.9,126,219,124.2,216.5z"/>
		</g>
	</g>
</g>
</svg>
