<?xml version="1.0" encoding="utf-8"?>
<!-- Generator: Adobe Illustrator 23.0.1, SVG Export Plug-In . SVG Version: 6.00 Build 0)  -->
<svg version="1.1" id="Layer_1" xmlns="http://www.w3.org/2000/svg" xmlns:xlink="http://www.w3.org/1999/xlink" x="0px" y="0px"
	 viewBox="0 0 220 225" style="enable-background:new 0 0 220 225;" xml:space="preserve">
<style type="text/css">
	.st0{opacity:0.29;fill:#E6E6E6;enable-background:new    ;}
	.st1{clip-path:url(#SVGID_2_);}
	.st2{opacity:0.46;fill:#E6E6E6;enable-background:new    ;}
	.st3{opacity:0.36;}
	.st4{fill:#D1D0CD;}
	.st5{fill:#EAEBEF;}
	.st6{fill:#AAFFCE;}
	.st7{opacity:0.39;fill:#00D38F;enable-background:new    ;}
	.st8{fill:#FCDF6A;}
	.st9{fill:#F4F5F7;}
	.st10{fill:#F9A500;}
	.st11{fill:url(#SVGID_3_);}
	.st12{fill:#571C8A;}
	.st13{fill:url(#SVGID_4_);}
</style>
<title>Szybka_pomoc</title>
<g>
	<g id="Layer_1-2">
		<circle class="st0" cx="110" cy="115.1" r="110"/>
		<g>
			<defs>
				<circle id="SVGID_1_" cx="110" cy="115.1" r="110"/>
			</defs>
			<clipPath id="SVGID_2_">
				<use xlink:href="#SVGID_1_"  style="overflow:visible;"/>
			</clipPath>
			<g class="st1">
				<path class="st2" d="M73.6,3.9c9.6-6.3,19.6-12.8,30.5-13.7c9.4-0.7,18.7,2.9,27.7,6.4l35.7,14.1c6,2.4,12.1,4.8,17.3,9.3
					c5.7,4.9,9.2,11.9,9.7,19.5c0.5,11.1-6.2,20.4-12.5,28.2S169.2,85,169.9,96.2c0.8,13.3,11.7,21.8,15.5,34.2
					c4.1,13.3-0.8,29-9,38.9s-19,15.5-29.5,20.9s-21.2,11.4-29,21.9c-5.8,7.8-9.5,17.7-15.4,25.3c-9.5,12.4-24.6,17.5-37.9,12.9
					s-24-18.9-27.1-35.8c-4.2-23.1,5.2-46.3,13.8-67.3c2.8-6.8,5.6-14.1,5.2-21.8C56,115.2,49.9,107.2,45,99.2
					c-12.2-20-18.7-45.4-18-70.7c0.3-11,5.2-27.6,16.1-21.4c3.9,2.2,7.1,4.7,11.5,4.7C61.3,11.7,67.8,7.7,73.6,3.9z"/>
			</g>
		</g>
		<g class="st3">
			<path class="st4" d="M81.9,121v15.2c2.8,2,6.3,3,9.7,2.8c5.9-0.3,10.9-3.7,16.7-4.4c3.8-0.4,8.2,0.7,9.8,3.5
				c0.8,1.7,0.7,3.7-0.4,5.3c-1.2,1.7-2.7,3-4.6,3.9c-6.4,3.4-14.7,3.7-22.1,2.2c-3.1-0.7-6.2-1.6-9.1-2.8V160h60v-39H81.9z"/>
			<path class="st5" d="M113.2,147.2c1.8-0.9,3.4-2.2,4.6-3.9c1.1-1.6,1.2-3.6,0.4-5.3c-1.6-2.8-6-3.9-9.8-3.5
				c-5.8,0.7-10.8,4-16.7,4.4c-3.5,0.2-6.9-0.8-9.7-2.8v10.6c3,1.2,6,2.1,9.1,2.8C98.5,151,106.8,150.7,113.2,147.2z"/>
		</g>
		<path class="st6" d="M175.9,146.7l-34.6-4.4c-15.4,16.5-41.3,17.3-57.7,1.9c-0.7-0.6-1.3-1.3-1.9-1.9L47,146.7
			c-12.5,1.6-21.9,12.3-21.9,24.9v19c48.4,45.9,124.3,45.9,172.7,0v-19C197.8,158.9,188.4,148.3,175.9,146.7z"/>
		<path class="st7" d="M111.4,225c32.1,0,63.1-12.3,86.4-34.4v-19c0-12.6-9.4-23.3-21.9-24.9l-34.6-4.4c-7.7,8.3-18.5,13-29.8,13
			l5.9,2.3c6.1,2.5,9.1,9.5,6.6,15.6c-0.7,1.8-1.9,3.4-3.4,4.7l-2.3,1.9c-5.1,4.3-5.7,11.8-1.5,16.9c0.7,0.9,1.5,1.6,2.5,2.2l0,0
			c5.5,3.7,7,11.2,3.3,16.7c-0.7,1-1.5,1.9-2.5,2.7L111.4,225L111.4,225z"/>
		<path class="st8" d="M165.6,84.7h-10.5V54.2c0-24.1-19.6-43.7-43.7-43.7S67.7,30.1,67.7,54.2v30.5H57.2V54.2
			C57.2,24.3,81.5,0,111.4,0c29.9,0,54.2,24.3,54.2,54.2c0,0,0,0,0,0V84.7z"/>
		<path class="st5" d="M111.4,136L111.4,136c-24,0-43.5-26.5-43.5-50.5V49.9c0-18.8,15.2-34,34-34H121c18.8,0,34,15.2,34,34v35.5
			C154.9,109.5,135.5,136,111.4,136z"/>
		<path class="st9" d="M116.7,122.4c4.8-2,9-5.9,10.2-11c1.6-6.6-2-13.4-1.3-20.1c0.7-6.4,5-11.7,7.8-17.4s4.1-13.5-0.6-17.9
			c-5.3-5-13.9-2.1-20.5,1.1c-9.3,4.5-18.8,9-28.9,11c-5.1,1-10.4,1.2-15.6,0.6v16.7c0,12,4.9,24.6,12.7,34.2
			c6.6,2.5,13.6,4.1,20.7,4.6C106.5,124.6,111.9,124.4,116.7,122.4z"/>
		<path class="st10" d="M111.4,0L111.4,0v10.5l0,0c24.1,0,43.7,19.6,43.7,43.7v30.5h10.5V54.2C165.6,24.3,141.4,0,111.4,0z"/>
		<path class="st10" d="M135.2,117.6h-29.9v-10.5h29.9c10.8,0,19.5-8.7,19.5-19.5h10.5C165.2,104.1,151.7,117.6,135.2,117.6z"/>
		<path class="st10" d="M68.1,97.6H56.6c-8.5,0-15.4-6.9-15.4-15.4c0,0,0,0,0,0V64.3c0-8.5,6.9-15.4,15.4-15.4h11.5V97.6z"/>
		<path class="st10" d="M166.3,97.6h-11.5V48.9h11.5c8.5,0,15.4,6.9,15.4,15.4v17.8C181.7,90.6,174.8,97.5,166.3,97.6
			C166.3,97.6,166.3,97.6,166.3,97.6z"/>
		<path class="st10" d="M108.6,123.6H96.2c-6.1,0-11.1-5-11.1-11.1l0,0c0-6.1,5-11.1,11.1-11.1h12.4c6.1,0,11.1,5,11.1,11.1l0,0
			C119.7,118.6,114.8,123.6,108.6,123.6z"/>
		<path class="st8" d="M50.6,90.4c3.1-1.1,5.6-3.5,6.8-6.5c0.8-1.7,1.2-3.6,1.3-5.5c0.2-1.1,0.1-2.3-0.3-3.4
			c-1.7-6.6-4.7-12.9-4.5-19.8c0.1-2.1,0.5-4.2,1.3-6.2c-7.9,0.7-14,7.4-14,15.3v17.8c0,2.3,0.5,4.5,1.5,6.6
			C45.1,90.4,47.7,91.4,50.6,90.4z"/>
		<path class="st8" d="M159.4,91.2c3.2-1.8,6.8-2.2,10.3-3.1c3.9-0.9,4.4-2,3.9-5.9c-0.3-2.2-0.1-4.5,0.6-6.6
			c0.4-1.3,1.6-2.8,1.8-4.1c0.6-3.8-2.5-8.8-2.9-12.7c-0.2-2.6,0.1-5.2,1-7.6c-2.4-1.4-5.1-2.2-7.9-2.2h-11.5v45.9
			C156.1,93.4,157.7,92.1,159.4,91.2z"/>
		<path class="st8" d="M90.8,118.5c2,0.1,3.7-1.8,5.3-2.7c1.9-1,4-1.5,6.1-1.5c3.6,0,11.8,3.8,11.7-2.9c-0.1-3.6-3.4-7.1-6.3-10
			H96.2c-6.1,0-11.1,5-11.1,11.1c0,1.2,0.2,2.3,0.5,3.4C87.3,117.1,89.1,118.4,90.8,118.5z"/>
		
			<linearGradient id="SVGID_3_" gradientUnits="userSpaceOnUse" x1="44.1862" y1="210.4765" x2="156.1907" y2="210.4765" gradientTransform="matrix(1 0 0 -1 0 244.3162)">
			<stop  offset="0" style="stop-color:#7035B1"/>
			<stop  offset="0.98" style="stop-color:#8552BF"/>
		</linearGradient>
		<path class="st11" d="M142.2,39.2c-6.2-0.8-12.3,1.4-18,3.8c-19.5,8.2-38.8,19.5-60,18.7c-3.4-0.1-6.9-0.6-9.7-2.5
			s-4.8-5.4-3.9-8.7c1-3.6,4.8-5.5,8.1-7.3s6.8-4.8,6.2-8.5c-0.6-4.1-5.6-5.8-9.7-6.3s-9.1-1.3-10.7-5.2c-1.3-3,0.3-6.6,2.9-8.5
			s6.1-2.2,9.3-1.9s6.3,1.2,9.6,1.5c14,1.6,27.2-6,41.2-8c12.6-1.8,26.1,1.6,35.7,10.1c8.1,7.2,16.2,22.7,11.6,33.7
			c-1.6-2-2-5-4.2-7.1C148.3,40.9,145.3,39.6,142.2,39.2z"/>
		<path class="st12" d="M64.9,38.6c2.4-5.1,0.4-12.2-4.9-14.2c-1.7-0.6-3.8-1-4.3-2.7c-0.7-2.5,3.2-3.7,5.7-3
			c10.1,2.9,15.8,14.9,26,16.9c5.6,1.1,11.2-1.1,16.2-3.8s9.7-6.1,15.1-7.7c9.7-2.9,20.7,0.4,28.2,7.2c3.8,3.4,6.9,7.6,9.2,12.1
			c0.2-9.9-6.4-21.1-12.9-26.9c-9.6-8.5-23.1-11.9-35.7-10.1c-13.9,1.9-27.2,9.6-41.2,8c-3.2-0.4-6.3-1.2-9.6-1.5s-6.7,0.1-9.3,1.9
			s-4.2,5.5-2.9,8.5c1.7,3.8,6.6,4.6,10.7,5.2s9.1,2.2,9.7,6.3c0.6,3.7-3,6.7-6.2,8.5c-2.1,1-4.1,2.3-5.9,3.8
			C57.9,46,62.7,43.2,64.9,38.6z"/>
		
			<linearGradient id="SVGID_4_" gradientUnits="userSpaceOnUse" x1="72.37" y1="204.2109" x2="297.99" y2="204.2109" gradientTransform="matrix(1 0 0 -1 0 244.3162)">
			<stop  offset="0" style="stop-color:#7035B1"/>
			<stop  offset="0.98" style="stop-color:#8552BF"/>
		</linearGradient>
		<path class="st13" d="M147,31.3c-7.6-6.7-18.5-10-28.2-7.2c-5.4,1.6-10.2,5-15.1,7.7s-10.7,4.9-16.2,3.8c-10.3-2-16-14-26-16.9
			c-2.5-0.7-6.3,0.4-5.7,3c0.5,1.7,2.6,2.1,4.3,2.7c5.3,1.9,7.3,9.1,4.9,14.2c-2.2,4.6-7,7.4-12,8.5c-1,0.9-1.8,2.2-2.2,3.5
			c-0.9,3.2,1,6.8,3.9,8.6s6.3,2.3,9.7,2.5c21.1,0.8,40.5-10.5,59.9-18.7c5.7-2.4,11.9-4.6,18-3.8c3.1,0.4,6.1,1.8,8.4,4
			c2.2,2.1,2.7,5.1,4.2,7.1c0.9-2.2,1.3-4.5,1.3-6.8C153.9,38.9,150.8,34.7,147,31.3z"/>
	</g>
</g>
</svg>
