<?xml version="1.0" encoding="utf-8"?>
<!-- Generator: Adobe Illustrator 23.0.1, SVG Export Plug-In . SVG Version: 6.00 Build 0)  -->
<svg version="1.1" id="Layer_1" xmlns="http://www.w3.org/2000/svg" xmlns:xlink="http://www.w3.org/1999/xlink" x="0px" y="0px"
	 viewBox="0 0 239 239" style="enable-background:new 0 0 239 239;" xml:space="preserve">
<style type="text/css">
	.st0{opacity:0.29;fill:#E6E6E6;enable-background:new    ;}
	.st1{clip-path:url(#SVGID_2_);}
	.st2{opacity:0.46;fill:#E6E6E6;enable-background:new    ;}
	.st3{fill:#571C8A;}
	.st4{fill:#5C15AE;}
	.st5{fill:url(#SVGID_3_);}
	.st6{fill:#FFFFFF;}
	.st7{fill:none;}
	.st8{fill:url(#SVGID_4_);}
	.st9{fill:url(#SVGID_5_);}
	.st10{fill:url(#SVGID_6_);}
	.st11{fill:url(#SVGID_7_);}
	.st12{fill:url(#SVGID_8_);}
	.st13{fill:url(#SVGID_9_);}
	.st14{fill:url(#SVGID_10_);}
	.st15{fill:url(#SVGID_11_);}
	.st16{fill:url(#SVGID_12_);}
	.st17{fill:url(#SVGID_13_);}
	.st18{fill:url(#SVGID_14_);}
	.st19{fill:url(#SVGID_15_);}
	.st20{fill:url(#SVGID_16_);}
	.st21{fill:url(#SVGID_17_);}
	.st22{fill:url(#SVGID_18_);}
	.st23{fill:url(#SVGID_19_);}
	.st24{fill:url(#SVGID_20_);}
	.st25{fill:url(#SVGID_21_);}
	.st26{fill:url(#SVGID_22_);}
	.st27{fill:url(#SVGID_23_);}
	.st28{fill:url(#SVGID_24_);}
	.st29{fill:url(#SVGID_25_);}
	.st30{fill:url(#SVGID_26_);}
	.st31{fill:url(#SVGID_27_);}
	.st32{fill:url(#SVGID_28_);}
	.st33{fill:url(#SVGID_29_);}
	.st34{fill:url(#SVGID_30_);}
	.st35{fill:url(#SVGID_31_);}
	.st36{fill:url(#SVGID_32_);}
	.st37{fill:url(#SVGID_33_);}
	.st38{fill:url(#SVGID_34_);}
	.st39{fill:url(#SVGID_35_);}
	.st40{fill:url(#SVGID_36_);}
	.st41{fill:url(#SVGID_37_);}
	.st42{fill:url(#SVGID_38_);}
	.st43{fill:url(#SVGID_39_);}
	.st44{fill:url(#SVGID_40_);}
	.st45{fill:url(#SVGID_41_);}
	.st46{fill:url(#SVGID_42_);}
	.st47{fill:url(#SVGID_43_);}
	.st48{fill:#63D6A0;}
	.st49{fill:#AAFFCE;}
	.st50{fill:#ED1C24;}
</style>
<title>Uzyska_szybka_pomoc</title>
<g>
	<g id="Layer_1-2">
		<circle class="st0" cx="119.1" cy="119" r="110"/>
		<g>
			<defs>
				<circle id="SVGID_1_" cx="119.1" cy="119" r="110"/>
			</defs>
			<clipPath id="SVGID_2_">
				<use xlink:href="#SVGID_1_"  style="overflow:visible;"/>
			</clipPath>
			<g class="st1">
				<path class="st2" d="M168.3,266.6c-10.1,5.3-20.6,10.6-31.9,11.3c-9.9,0.6-19.6-2.4-29-5.3L70,260.9c-6.3-2-12.7-4-18.1-7.7
					s-9.8-9.6-10.2-16.1c-0.5-9.2,6.5-16.9,13-23.4s13.5-14.3,12.7-23.5c-0.9-11-12.2-18.1-16.3-28.3c-4.3-11.1,0.8-24,9.4-32.3
					s19.9-12.8,30.9-17.3s22.3-9.4,30.4-18.1c6-6.5,10-14.7,16.1-21c15.5-15.9,41-16.3,56.9-0.8c5.5,5.4,9.4,12.3,11.1,19.8
					c4.4,19.2-5.4,38.4-14.5,55.8c-2.9,5.6-5.9,11.7-5.4,18c0.6,8.4,7,15,12.1,21.7c12.8,16.8,19.5,37.5,18.9,58.6
					c-0.3,9.2-5.4,22.9-16.9,17.8c-4.1-1.8-7.4-3.9-12.1-3.9C181.1,260.1,174.3,263.4,168.3,266.6z"/>
			</g>
		</g>
		<path class="st3" d="M119.5,0C53.5,0,0,53.5,0,119.5S53.5,239,119.5,239S239,185.5,239,119.5C239,53.5,185.5,0,119.5,0z
			 M119.5,181.9c-34.5,0-62.4-27.9-62.4-62.4S85,57.1,119.5,57.1s62.4,27.9,62.4,62.4C181.9,154,154,181.9,119.5,181.9z"/>
		<path class="st4" d="M216.1,100.2c-7.9-18.1-30.5-26.1-39.3-43.8c-4.2-8.4-5.6-19.4-13.8-24c-6.7-3.7-15.2-1.5-22.4-4
			s-12.2-9.6-19.2-12.9C109.9,10,96.6,15.9,84,17.9c-8.3,1.3-16.8,0.8-24.9-1.5C2.1,49.8-17,123,16.4,179.9
			c4.5,7.6,9.8,14.7,15.8,21.2c11.5-2.4,23.3-7.7,34.8-5.6c7.4,1.4,13.9,5.8,20.6,9.3s14.4,6.3,21.7,4.2
			c13.4-3.8,20.6-21.4,34.5-22.2c18.6,2.1,39.5,3.6,53.8-8.6c10.6-9.1,14.6-23.6,17.9-37.2S221.7,112.9,216.1,100.2z M119.5,181.9
			c-34.5,0-62.4-27.9-62.4-62.4S85,57.1,119.5,57.1s62.4,27.9,62.4,62.4C181.9,154,154,181.9,119.5,181.9z"/>
		
			<linearGradient id="SVGID_3_" gradientUnits="userSpaceOnUse" x1="-2.025046e-02" y1="168.4968" x2="219.1969" y2="168.4968" gradientTransform="matrix(1 0 0 -1 0 280)">
			<stop  offset="0" style="stop-color:#7035B1"/>
			<stop  offset="0.98" style="stop-color:#8552BF"/>
		</linearGradient>
		<path class="st5" d="M216.1,100.2c-7.9-18.1-30.5-26.1-39.3-43.8c-4.2-8.4-5.6-19.4-13.8-24c-6.7-3.7-15.2-1.5-22.4-4
			s-12.2-9.6-19.2-12.9C109.9,10,96.6,15.9,84,17.9c-8.3,1.3-16.8,0.8-24.9-1.5C2.1,49.8-17,123,16.4,179.9
			c4.5,7.6,9.8,14.7,15.8,21.2c11.5-2.4,23.3-7.7,34.8-5.6c7.4,1.4,13.9,5.8,20.6,9.3s14.4,6.3,21.7,4.2
			c13.4-3.8,20.6-21.4,34.5-22.2c18.6,2.1,39.5,3.6,53.8-8.6c10.6-9.1,14.6-23.6,17.9-37.2S221.7,112.9,216.1,100.2z M119.5,181.9
			c-34.5,0-62.4-27.9-62.4-62.4S85,57.1,119.5,57.1s62.4,27.9,62.4,62.4C181.9,154,154,181.9,119.5,181.9z"/>
		<path class="st6" d="M217.2,188.2l-41.6-41.5c-6.2,12.6-16.4,22.8-29,29l41.6,41.6C199.5,209.3,209.3,199.5,217.2,188.2z"/>
		<path class="st6" d="M92.3,63.3L50.7,21.8c-11.3,7.9-21.1,17.7-29,29l41.5,41.6C69.4,79.7,79.6,69.5,92.3,63.3z"/>
		<path class="st6" d="M175.7,92.3l41.6-41.6c-7.9-11.3-17.7-21.1-29-29l-41.5,41.6C159.3,69.5,169.5,79.7,175.7,92.3z"/>
		<path class="st6" d="M63.3,146.7l-41.6,41.6c7.9,11.3,17.7,21.1,29,29l41.6-41.6C79.7,169.6,69.5,159.4,63.3,146.7z"/>
		<path class="st3" d="M57.1,119.5c0-34.5,27.9-62.4,62.4-62.4c2.5,0,5,0.2,7.6,0.5c-6.2-4-13-6.5-19.4-6.7
			c-10.4-0.2-20,4.8-29.2,9.6c-7,3.8-14.2,7.6-19.6,13.4c-4.7,5-7.8,11.3-10.9,17.5c-3,5.9-5.9,11.9-7.3,18.3
			c-2.8,12.8,0.7,26.3,7.1,37.7s15.5,21.1,24.3,30.7c3,3.2,6.2,6.6,10.1,8.6c6.2,3.2,13.8,2.8,20.5,0.6c4-1.4,7.7-3.3,11.1-5.8
			C81.5,178.5,57.1,151.7,57.1,119.5z"/>
		<path class="st7" d="M175.7,92.3L175.7,92.3c-0.4-0.7-0.7-1.5-1.1-2.2l-0.1-0.2c-0.4-0.6-0.7-1.3-1.1-1.9
			c-0.1-0.2-0.2-0.4-0.4-0.6c-0.3-0.6-0.7-1.1-1-1.6c-0.2-0.3-0.4-0.5-0.5-0.8s-0.5-0.7-0.7-1s-0.6-0.9-1-1.4l-0.5-0.7
			c-0.5-0.6-0.9-1.2-1.4-1.8l-0.2-0.3c-0.9-1.1-1.9-2.2-2.9-3.2l-0.2-0.2c-0.6-0.6-1.2-1.3-1.9-1.9l-0.2-0.2c-1-1-2.1-2-3.2-2.9
			l-0.3-0.2c-0.6-0.5-1.2-1-1.8-1.4l-0.7-0.5l-1.4-1c-0.3-0.2-0.7-0.5-1-0.7l-0.8-0.5c-0.5-0.3-1.1-0.7-1.6-1l-0.6-0.3
			c-0.6-0.4-1.3-0.7-1.9-1.1l-0.2-0.1c-0.7-0.4-1.4-0.8-2.2-1.1l0,0c-17.2-8.3-37.2-8.3-54.4,0l0,0c-0.7,0.4-1.5,0.7-2.2,1.1
			l-0.2,0.1c-0.6,0.3-1.3,0.7-1.9,1.1L87.4,66l-1.6,1L85,67.5l-1,0.7l-1.3,1l-0.7,0.5c-0.6,0.4-1.2,0.9-1.7,1.4l-0.4,0.3
			c-0.4,0.3-0.7,0.6-1.1,0.9l0,0c-0.7,0.6-1.4,1.3-2.1,1.9l-0.2,0.2c-0.7,0.6-1.3,1.2-1.9,1.9l-0.1,0.2
			c-17.9,18.8-22.3,46.8-11,70.2l0,0c0.3,0.7,0.7,1.5,1.1,2.2c0,0.1,0.1,0.1,0.1,0.2c0.3,0.6,0.7,1.3,1.1,1.9
			c0.1,0.2,0.2,0.4,0.3,0.6c0.3,0.6,0.7,1.1,1,1.6c0.2,0.3,0.3,0.5,0.5,0.8s0.5,0.7,0.7,1.1s0.6,0.9,0.9,1.3l0.5,0.7
			c0.4,0.6,0.9,1.1,1.3,1.7l0.3,0.4c0.3,0.4,0.6,0.7,0.9,1.1l0,0c0.6,0.7,1.3,1.4,1.9,2.1l0.2,0.2c0.6,0.6,1.2,1.3,1.9,1.9l0.2,0.1
			c20,19,50.1,22.7,74,9l0.1-0.1l1.1-0.7c0.5-0.3,1-0.6,1.6-1l0.5-0.3c5-3.3,9.4-7.3,13.3-11.8l0.1-0.1c0.5-0.6,1.1-1.3,1.6-1.9
			l0.1-0.1c0.5-0.6,1-1.3,1.4-1.9l0.1-0.1c0.4-0.6,0.9-1.3,1.3-1.9l0.2-0.4c0.4-0.6,0.8-1.2,1.2-1.9l0.2-0.4c0.4-0.7,0.8-1.3,1.1-2
			l0.1-0.1c0.4-0.7,0.8-1.5,1.1-2.2l0,0C184,129.6,184,109.5,175.7,92.3L175.7,92.3z"/>
		
			<linearGradient id="SVGID_4_" gradientUnits="userSpaceOnUse" x1="0" y1="214.185" x2="219.19" y2="214.185" gradientTransform="matrix(1 0 0 -1 0 280)">
			<stop  offset="0" style="stop-color:#FF4661"/>
			<stop  offset="1" style="stop-color:#E462C7"/>
			<stop  offset="1" style="stop-color:#FF2D4F"/>
		</linearGradient>
		<path class="st8" d="M151,65.6l0.6,0.3L151,65.6z"/>
		
			<linearGradient id="SVGID_5_" gradientUnits="userSpaceOnUse" x1="0" y1="120.19" x2="219.19" y2="120.19" gradientTransform="matrix(1 0 0 -1 0 280)">
			<stop  offset="0" style="stop-color:#FF4661"/>
			<stop  offset="1" style="stop-color:#E462C7"/>
			<stop  offset="1" style="stop-color:#FF2D4F"/>
		</linearGradient>
		<path class="st9" d="M167.2,159.8l-0.1,0.1L167.2,159.8z"/>
		
			<linearGradient id="SVGID_6_" gradientUnits="userSpaceOnUse" x1="0" y1="215.49" x2="219.19" y2="215.49" gradientTransform="matrix(1 0 0 -1 0 280)">
			<stop  offset="0" style="stop-color:#FF4661"/>
			<stop  offset="1" style="stop-color:#E462C7"/>
			<stop  offset="1" style="stop-color:#FF2D4F"/>
		</linearGradient>
		<path class="st10" d="M89.9,64.6l0.2-0.1L89.9,64.6z"/>
		
			<linearGradient id="SVGID_7_" gradientUnits="userSpaceOnUse" x1="0" y1="215.49" x2="219.19" y2="215.49" gradientTransform="matrix(1 0 0 -1 0 280)">
			<stop  offset="0" style="stop-color:#FF4661"/>
			<stop  offset="1" style="stop-color:#E462C7"/>
			<stop  offset="1" style="stop-color:#FF2D4F"/>
		</linearGradient>
		<path class="st11" d="M148.9,64.5l0.2,0.1L148.9,64.5z"/>
		
			<linearGradient id="SVGID_8_" gradientUnits="userSpaceOnUse" x1="0" y1="212.735" x2="219.19" y2="212.735" gradientTransform="matrix(1 0 0 -1 0 280)">
			<stop  offset="0" style="stop-color:#FF4661"/>
			<stop  offset="1" style="stop-color:#E462C7"/>
			<stop  offset="1" style="stop-color:#FF2D4F"/>
		</linearGradient>
		<path class="st12" d="M153.2,67l0.8,0.5L153.2,67z"/>
		
			<linearGradient id="SVGID_9_" gradientUnits="userSpaceOnUse" x1="0" y1="108.185" x2="219.19" y2="108.185" gradientTransform="matrix(1 0 0 -1 0 280)">
			<stop  offset="0" style="stop-color:#FF4661"/>
			<stop  offset="1" style="stop-color:#E462C7"/>
			<stop  offset="1" style="stop-color:#FF2D4F"/>
		</linearGradient>
		<path class="st13" d="M153.8,171.6l-0.5,0.3L153.8,171.6z"/>
		
			<linearGradient id="SVGID_10_" gradientUnits="userSpaceOnUse" x1="0" y1="201.86" x2="219.19" y2="201.86" gradientTransform="matrix(1 0 0 -1 0 280)">
			<stop  offset="0" style="stop-color:#FF4661"/>
			<stop  offset="1" style="stop-color:#E462C7"/>
			<stop  offset="1" style="stop-color:#FF2D4F"/>
		</linearGradient>
		<path class="st14" d="M164.7,76.5c1,1.1,1.9,2.1,2.9,3.2C166.7,78.7,165.7,77.6,164.7,76.5z"/>
		
			<linearGradient id="SVGID_11_" gradientUnits="userSpaceOnUse" x1="0" y1="126.415" x2="219.19" y2="126.415" gradientTransform="matrix(1 0 0 -1 0 280)">
			<stop  offset="0" style="stop-color:#FF4661"/>
			<stop  offset="1" style="stop-color:#E462C7"/>
			<stop  offset="1" style="stop-color:#FF2D4F"/>
		</linearGradient>
		<path class="st15" d="M171.9,153.4l-0.2,0.4L171.9,153.4z"/>
		
			<linearGradient id="SVGID_12_" gradientUnits="userSpaceOnUse" x1="0" y1="199.015" x2="219.19" y2="199.015" gradientTransform="matrix(1 0 0 -1 0 280)">
			<stop  offset="0" style="stop-color:#FF4661"/>
			<stop  offset="1" style="stop-color:#E462C7"/>
			<stop  offset="1" style="stop-color:#FF2D4F"/>
		</linearGradient>
		<path class="st16" d="M167.9,80.1c0.5,0.6,1,1.2,1.4,1.8C168.8,81.3,168.4,80.7,167.9,80.1z"/>
		
			<linearGradient id="SVGID_13_" gradientUnits="userSpaceOnUse" x1="0" y1="209.58" x2="219.19" y2="209.58" gradientTransform="matrix(1 0 0 -1 0 280)">
			<stop  offset="0" style="stop-color:#FF4661"/>
			<stop  offset="1" style="stop-color:#E462C7"/>
			<stop  offset="1" style="stop-color:#FF2D4F"/>
		</linearGradient>
		<path class="st17" d="M157.1,69.7c0.6,0.5,1.2,0.9,1.8,1.4C158.3,70.7,157.7,70.2,157.1,69.7z"/>
		
			<linearGradient id="SVGID_14_" gradientUnits="userSpaceOnUse" x1="0" y1="207.175" x2="219.19" y2="207.175" gradientTransform="matrix(1 0 0 -1 0 280)">
			<stop  offset="0" style="stop-color:#FF4661"/>
			<stop  offset="1" style="stop-color:#E462C7"/>
			<stop  offset="1" style="stop-color:#FF2D4F"/>
		</linearGradient>
		<path class="st18" d="M159.2,71.4c1.1,0.9,2.2,1.9,3.2,2.9C161.4,73.3,160.4,72.3,159.2,71.4z"/>
		
			<linearGradient id="SVGID_15_" gradientUnits="userSpaceOnUse" x1="0" y1="122.23" x2="219.19" y2="122.23" gradientTransform="matrix(1 0 0 -1 0 280)">
			<stop  offset="0" style="stop-color:#FF4661"/>
			<stop  offset="1" style="stop-color:#E462C7"/>
			<stop  offset="1" style="stop-color:#FF2D4F"/>
		</linearGradient>
		<path class="st19" d="M168.8,157.7l-0.1,0.1L168.8,157.7z"/>
		
			<linearGradient id="SVGID_16_" gradientUnits="userSpaceOnUse" x1="0" y1="211.28" x2="219.19" y2="211.28" gradientTransform="matrix(1 0 0 -1 0 280)">
			<stop  offset="0" style="stop-color:#FF4661"/>
			<stop  offset="1" style="stop-color:#E462C7"/>
			<stop  offset="1" style="stop-color:#FF2D4F"/>
		</linearGradient>
		<path class="st20" d="M155.1,68.2l1.4,1L155.1,68.2z"/>
		
			<linearGradient id="SVGID_17_" gradientUnits="userSpaceOnUse" x1="0" y1="124.275" x2="219.19" y2="124.275" gradientTransform="matrix(1 0 0 -1 0 280)">
			<stop  offset="0" style="stop-color:#FF4661"/>
			<stop  offset="1" style="stop-color:#E462C7"/>
			<stop  offset="1" style="stop-color:#FF2D4F"/>
		</linearGradient>
		<path class="st21" d="M170.4,155.7L170.4,155.7L170.4,155.7z"/>
		
			<linearGradient id="SVGID_18_" gradientUnits="userSpaceOnUse" x1="0" y1="128.685" x2="219.19" y2="128.685" gradientTransform="matrix(1 0 0 -1 0 280)">
			<stop  offset="0" style="stop-color:#FF4661"/>
			<stop  offset="1" style="stop-color:#E462C7"/>
			<stop  offset="1" style="stop-color:#FF2D4F"/>
		</linearGradient>
		<path class="st22" d="M66,151.6c-0.1-0.2-0.2-0.4-0.3-0.6C65.8,151.2,65.9,151.4,66,151.6z"/>
		
			<linearGradient id="SVGID_19_" gradientUnits="userSpaceOnUse" x1="0" y1="106.72" x2="219.19" y2="106.72" gradientTransform="matrix(1 0 0 -1 0 280)">
			<stop  offset="0" style="stop-color:#FF4661"/>
			<stop  offset="1" style="stop-color:#E462C7"/>
			<stop  offset="1" style="stop-color:#FF2D4F"/>
		</linearGradient>
		<path class="st23" d="M151.7,172.9l-1.1,0.7L151.7,172.9z"/>
		
			<linearGradient id="SVGID_20_" gradientUnits="userSpaceOnUse" x1="0" y1="124.26" x2="219.19" y2="124.26" gradientTransform="matrix(1 0 0 -1 0 280)">
			<stop  offset="0" style="stop-color:#FF4661"/>
			<stop  offset="1" style="stop-color:#E462C7"/>
			<stop  offset="1" style="stop-color:#FF2D4F"/>
		</linearGradient>
		<path class="st24" d="M69.2,156.4c-0.3-0.4-0.6-0.9-0.9-1.3C68.6,155.5,68.9,156,69.2,156.4z"/>
		
			<linearGradient id="SVGID_21_" gradientUnits="userSpaceOnUse" x1="0" y1="126.39" x2="219.19" y2="126.39" gradientTransform="matrix(1 0 0 -1 0 280)">
			<stop  offset="0" style="stop-color:#FF4661"/>
			<stop  offset="1" style="stop-color:#E462C7"/>
			<stop  offset="1" style="stop-color:#FF2D4F"/>
		</linearGradient>
		<path class="st25" d="M67.5,154c-0.2-0.3-0.3-0.5-0.5-0.8C67.2,153.5,67.3,153.8,67.5,154z"/>
		
			<linearGradient id="SVGID_22_" gradientUnits="userSpaceOnUse" x1="0" y1="118.59" x2="219.19" y2="118.59" gradientTransform="matrix(1 0 0 -1 0 280)">
			<stop  offset="0" style="stop-color:#FF4661"/>
			<stop  offset="1" style="stop-color:#E462C7"/>
			<stop  offset="1" style="stop-color:#FF2D4F"/>
		</linearGradient>
		<path class="st26" d="M74.2,162.5c-0.7-0.7-1.3-1.4-1.9-2.1C73,161.1,73.6,161.8,74.2,162.5z"/>
		
			<linearGradient id="SVGID_23_" gradientUnits="userSpaceOnUse" x1="0" y1="122.02" x2="219.19" y2="122.02" gradientTransform="matrix(1 0 0 -1 0 280)">
			<stop  offset="0" style="stop-color:#FF4661"/>
			<stop  offset="1" style="stop-color:#E462C7"/>
			<stop  offset="1" style="stop-color:#FF2D4F"/>
		</linearGradient>
		<path class="st27" d="M71.1,158.8c-0.5-0.6-0.9-1.1-1.3-1.7C70.2,157.7,70.6,158.3,71.1,158.8z"/>
		
			<linearGradient id="SVGID_24_" gradientUnits="userSpaceOnUse" x1="0" y1="209.61" x2="219.19" y2="209.61" gradientTransform="matrix(1 0 0 -1 0 280)">
			<stop  offset="0" style="stop-color:#FF4661"/>
			<stop  offset="1" style="stop-color:#E462C7"/>
			<stop  offset="1" style="stop-color:#FF2D4F"/>
		</linearGradient>
		<path class="st28" d="M80.2,71.1c0.6-0.5,1.1-0.9,1.7-1.4C81.3,70.2,80.7,70.6,80.2,71.1z"/>
		
			<linearGradient id="SVGID_25_" gradientUnits="userSpaceOnUse" x1="0" y1="211.32" x2="219.19" y2="211.32" gradientTransform="matrix(1 0 0 -1 0 280)">
			<stop  offset="0" style="stop-color:#FF4661"/>
			<stop  offset="1" style="stop-color:#E462C7"/>
			<stop  offset="1" style="stop-color:#FF2D4F"/>
		</linearGradient>
		<path class="st29" d="M82.6,69.2l1.3-1L82.6,69.2z"/>
		
			<linearGradient id="SVGID_26_" gradientUnits="userSpaceOnUse" x1="-5.566108e-10" y1="130.9873" x2="219.19" y2="130.9873" gradientTransform="matrix(1 0 0 -1 0 280)">
			<stop  offset="0" style="stop-color:#FF4661"/>
			<stop  offset="1" style="stop-color:#E462C7"/>
			<stop  offset="1" style="stop-color:#FF2D4F"/>
		</linearGradient>
		<path class="st30" d="M64.6,149.1c0-0.1-0.1-0.1-0.1-0.2S64.5,149.1,64.6,149.1z"/>
		
			<linearGradient id="SVGID_27_" gradientUnits="userSpaceOnUse" x1="0" y1="214.175" x2="219.19" y2="214.175" gradientTransform="matrix(1 0 0 -1 0 280)">
			<stop  offset="0" style="stop-color:#FF4661"/>
			<stop  offset="1" style="stop-color:#E462C7"/>
			<stop  offset="1" style="stop-color:#FF2D4F"/>
		</linearGradient>
		<path class="st31" d="M87.4,66l0.6-0.3L87.4,66z"/>
		
			<linearGradient id="SVGID_28_" gradientUnits="userSpaceOnUse" x1="0" y1="212.74" x2="219.19" y2="212.74" gradientTransform="matrix(1 0 0 -1 0 280)">
			<stop  offset="0" style="stop-color:#FF4661"/>
			<stop  offset="1" style="stop-color:#E462C7"/>
			<stop  offset="1" style="stop-color:#FF2D4F"/>
		</linearGradient>
		<path class="st32" d="M85,67.5l0.8-0.5L85,67.5z"/>
		
			<linearGradient id="SVGID_29_" gradientUnits="userSpaceOnUse" x1="0" y1="206.715" x2="219.19" y2="206.715" gradientTransform="matrix(1 0 0 -1 0 280)">
			<stop  offset="0" style="stop-color:#FF4661"/>
			<stop  offset="1" style="stop-color:#E462C7"/>
			<stop  offset="1" style="stop-color:#FF2D4F"/>
		</linearGradient>
		<path class="st33" d="M76.5,74.2c0.7-0.7,1.4-1.3,2.1-1.9C77.9,73,77.2,73.6,76.5,74.2z"/>
		
			<linearGradient id="SVGID_30_" gradientUnits="userSpaceOnUse" x1="0" y1="208.14" x2="219.19" y2="208.14" gradientTransform="matrix(1 0 0 -1 0 280)">
			<stop  offset="0" style="stop-color:#FF4661"/>
			<stop  offset="1" style="stop-color:#E462C7"/>
			<stop  offset="1" style="stop-color:#FF2D4F"/>
		</linearGradient>
		<path class="st34" d="M78.7,72.3c0.4-0.3,0.7-0.6,1.1-0.9C79.4,71.7,79,72,78.7,72.3z"/>
		
			<linearGradient id="SVGID_31_" gradientUnits="userSpaceOnUse" x1="0" y1="204.615" x2="219.19" y2="204.615" gradientTransform="matrix(1 0 0 -1 0 280)">
			<stop  offset="0" style="stop-color:#FF4661"/>
			<stop  offset="1" style="stop-color:#E462C7"/>
			<stop  offset="1" style="stop-color:#FF2D4F"/>
		</linearGradient>
		<path class="st35" d="M164.6,76.3c-0.6-0.6-1.2-1.3-1.9-1.9C163.3,75.1,163.9,75.7,164.6,76.3z"/>
		
			<linearGradient id="SVGID_32_" gradientUnits="userSpaceOnUse" x1="0" y1="120.21" x2="219.19" y2="120.21" gradientTransform="matrix(1 0 0 -1 0 280)">
			<stop  offset="0" style="stop-color:#FF4661"/>
			<stop  offset="1" style="stop-color:#E462C7"/>
			<stop  offset="1" style="stop-color:#FF2D4F"/>
		</linearGradient>
		<path class="st36" d="M72.3,160.3c-0.3-0.4-0.6-0.7-0.9-1.1C71.7,159.6,72,160,72.3,160.3z"/>
		
			<linearGradient id="SVGID_33_" gradientUnits="userSpaceOnUse" x1="0" y1="204.595" x2="219.19" y2="204.595" gradientTransform="matrix(1 0 0 -1 0 280)">
			<stop  offset="0" style="stop-color:#FF4661"/>
			<stop  offset="1" style="stop-color:#E462C7"/>
			<stop  offset="1" style="stop-color:#FF2D4F"/>
		</linearGradient>
		<path class="st37" d="M76.3,74.5c-0.7,0.6-1.3,1.2-1.9,1.9C75,75.7,75.7,75.1,76.3,74.5z"/>
		
			<linearGradient id="SVGID_34_" gradientUnits="userSpaceOnUse" x1="0" y1="257.335" x2="219.19" y2="257.335" gradientTransform="matrix(1 0 0 -1 0 280)">
			<stop  offset="0" style="stop-color:#FF4661"/>
			<stop  offset="1" style="stop-color:#E462C7"/>
			<stop  offset="1" style="stop-color:#FF2D4F"/>
		</linearGradient>
		<path class="st38" d="M49.3,22.8l0.3-0.2L49.3,22.8z"/>
		
			<linearGradient id="SVGID_35_" gradientUnits="userSpaceOnUse" x1="43.4" y1="252.62" x2="43.4" y2="252.62" gradientTransform="matrix(1 0 0 -1 0 280)">
			<stop  offset="0" style="stop-color:#FF4661"/>
			<stop  offset="1" style="stop-color:#E462C7"/>
			<stop  offset="1" style="stop-color:#FF2D4F"/>
		</linearGradient>
		<path class="st39" d="M43.4,27.4L43.4,27.4z"/>
		
			<linearGradient id="SVGID_36_" gradientUnits="userSpaceOnUse" x1="0" y1="116.365" x2="219.19" y2="116.365" gradientTransform="matrix(1 0 0 -1 0 280)">
			<stop  offset="0" style="stop-color:#FF4661"/>
			<stop  offset="1" style="stop-color:#E462C7"/>
			<stop  offset="1" style="stop-color:#FF2D4F"/>
		</linearGradient>
		<path class="st40" d="M74.5,162.7c0.6,0.6,1.2,1.3,1.9,1.9C75.7,164,75.1,163.3,74.5,162.7z"/>
		
			<linearGradient id="SVGID_37_" gradientUnits="userSpaceOnUse" x1="37.68" y1="247.58" x2="37.68" y2="247.58" gradientTransform="matrix(1 0 0 -1 0 280)">
			<stop  offset="0" style="stop-color:#FF4661"/>
			<stop  offset="1" style="stop-color:#E462C7"/>
			<stop  offset="1" style="stop-color:#FF2D4F"/>
		</linearGradient>
		<path class="st41" d="M37.7,32.4"/>
		
			<linearGradient id="SVGID_38_" gradientUnits="userSpaceOnUse" x1="0" y1="190.015" x2="219.19" y2="190.015" gradientTransform="matrix(1 0 0 -1 0 280)">
			<stop  offset="0" style="stop-color:#FF4661"/>
			<stop  offset="1" style="stop-color:#E462C7"/>
			<stop  offset="1" style="stop-color:#FF2D4F"/>
		</linearGradient>
		<path class="st42" d="M174.4,89.9l0.1,0.2L174.4,89.9z"/>
		
			<linearGradient id="SVGID_39_" gradientUnits="userSpaceOnUse" x1="0" y1="192.315" x2="219.19" y2="192.315" gradientTransform="matrix(1 0 0 -1 0 280)">
			<stop  offset="0" style="stop-color:#FF4661"/>
			<stop  offset="1" style="stop-color:#E462C7"/>
			<stop  offset="1" style="stop-color:#FF2D4F"/>
		</linearGradient>
		<path class="st43" d="M173,87.4c0.1,0.2,0.2,0.4,0.4,0.6C173.2,87.8,173.1,87.6,173,87.4z"/>
		
			<linearGradient id="SVGID_40_" gradientUnits="userSpaceOnUse" x1="0" y1="128.685" x2="219.19" y2="128.685" gradientTransform="matrix(1 0 0 -1 0 280)">
			<stop  offset="0" style="stop-color:#FF4661"/>
			<stop  offset="1" style="stop-color:#E462C7"/>
			<stop  offset="1" style="stop-color:#FF2D4F"/>
		</linearGradient>
		<path class="st44" d="M173.3,151.1l-0.2,0.4L173.3,151.1z"/>
		
			<linearGradient id="SVGID_41_" gradientUnits="userSpaceOnUse" x1="0" y1="194.6" x2="219.19" y2="194.6" gradientTransform="matrix(1 0 0 -1 0 280)">
			<stop  offset="0" style="stop-color:#FF4661"/>
			<stop  offset="1" style="stop-color:#E462C7"/>
			<stop  offset="1" style="stop-color:#FF2D4F"/>
		</linearGradient>
		<path class="st45" d="M171.5,85c0.2,0.3,0.4,0.5,0.5,0.8C171.8,85.5,171.6,85.2,171.5,85z"/>
		
			<linearGradient id="SVGID_42_" gradientUnits="userSpaceOnUse" x1="0" y1="196.745" x2="219.19" y2="196.745" gradientTransform="matrix(1 0 0 -1 0 280)">
			<stop  offset="0" style="stop-color:#FF4661"/>
			<stop  offset="1" style="stop-color:#E462C7"/>
			<stop  offset="1" style="stop-color:#FF2D4F"/>
		</linearGradient>
		<path class="st46" d="M169.8,82.6c0.3,0.4,0.7,0.9,1,1.4C170.5,83.5,170.1,83,169.8,82.6z"/>
		
			<linearGradient id="SVGID_43_" gradientUnits="userSpaceOnUse" x1="0" y1="130.93" x2="219.19" y2="130.93" gradientTransform="matrix(1 0 0 -1 0 280)">
			<stop  offset="0" style="stop-color:#FF4661"/>
			<stop  offset="1" style="stop-color:#E462C7"/>
			<stop  offset="1" style="stop-color:#FF2D4F"/>
		</linearGradient>
		<path class="st47" d="M174.5,149l-0.1,0.1L174.5,149z"/>
		<path class="st6" d="M150.6,173.6l-0.1,0.1L150.6,173.6z"/>
		<path class="st6" d="M153.3,172c-0.5,0.3-1,0.6-1.6,1C152.2,172.6,152.8,172.3,153.3,172z"/>
		<path class="st6" d="M171.6,153.8c-0.4,0.6-0.9,1.3-1.3,1.9C170.8,155.1,171.2,154.4,171.6,153.8z"/>
		<path class="st6" d="M170.3,155.8c-0.5,0.7-0.9,1.3-1.4,1.9C169.3,157.1,169.8,156.4,170.3,155.8z"/>
		<path class="st6" d="M174.4,149.1c-0.4,0.7-0.8,1.4-1.1,2C173.7,150.4,174.1,149.8,174.4,149.1z"/>
		<path class="st6" d="M173.1,151.5c-0.4,0.7-0.8,1.3-1.2,1.9C172.3,152.8,172.7,152.2,173.1,151.5z"/>
		<path class="st6" d="M153.8,171.6c5-3.3,9.5-7.2,13.3-11.8C163.2,164.4,158.7,168.4,153.8,171.6z"/>
		<path class="st48" d="M197.5,178.3c-10.4,8.9-24.4,10.5-38.4,9.9l29.1,29.1c11.3-7.9,21.1-17.8,29-29.1l-14.9-14.9
			C200.8,175.1,199.2,176.8,197.5,178.3z"/>
		<path class="st6" d="M168.7,157.8c-0.5,0.6-1,1.3-1.6,1.9C167.7,159.1,168.2,158.5,168.7,157.8z"/>
		<path class="st6" d="M174.5,149c0.4-0.7,0.8-1.5,1.1-2.2l0,0C175.3,147.5,174.9,148.2,174.5,149z"/>
		<path class="st49" d="M197.5,178.3c1.8-1.5,3.4-3.2,4.8-5l-26.6-26.6c-0.4,0.8-0.8,1.5-1.1,2.2l-0.1,0.1c-0.4,0.7-0.8,1.4-1.1,2
			l-0.2,0.4c-0.4,0.7-0.8,1.3-1.2,1.9l-0.2,0.4c-0.4,0.6-0.9,1.3-1.3,1.9l-0.1,0.1c-0.5,0.7-1,1.3-1.4,1.9l-0.1,0.1
			c-0.5,0.6-1,1.3-1.6,1.9l-0.1,0.1c-3.9,4.5-8.3,8.5-13.3,11.8l-0.5,0.3c-0.5,0.3-1,0.6-1.6,1l-1.1,0.7l-0.1,0.1
			c-1.3,0.7-2.5,1.4-3.8,2l12.5,12.5C173.1,188.8,187.1,187.2,197.5,178.3z"/>
		<path class="st6" d="M74.3,76.5l0.1-0.2L74.3,76.5z"/>
		<path class="st6" d="M92.3,63.3c-0.7,0.4-1.5,0.7-2.2,1.1C90.8,64.1,91.5,63.7,92.3,63.3z"/>
		<path class="st6" d="M37.7,32.4c1.8-1.7,3.8-3.4,5.7-5C41.4,29,39.5,30.7,37.7,32.4z"/>
		<path class="st6" d="M50.7,21.8l-1.1,0.8L50.7,21.8L50.7,21.8z"/>
		<path class="st6" d="M83.9,68.2l1-0.7L83.9,68.2z"/>
		<path class="st6" d="M43.4,27.4c1.9-1.6,3.9-3.1,5.9-4.6C47.3,24.3,45.4,25.8,43.4,27.4z"/>
		<path class="st6" d="M85.8,67l1.6-1L85.8,67z"/>
		<path class="st6" d="M81.9,69.7l0.7-0.5L81.9,69.7z"/>
		<path class="st6" d="M37.7,32.4c-5.9,5.6-11.3,11.7-16,18.4l0,0C26.4,44.1,31.7,38,37.7,32.4z"/>
		<path class="st6" d="M79.8,71.4l0.4-0.3L79.8,71.4z"/>
		<path class="st6" d="M88,65.6c0.6-0.4,1.3-0.7,1.9-1.1C89.2,64.9,88.6,65.3,88,65.6z"/>
		<path class="st6" d="M76.3,74.5l0.2-0.2L76.3,74.5z"/>
		<path class="st6" d="M78.7,72.3"/>
		<path class="st49" d="M74.3,76.5l0.1-0.2c0.6-0.7,1.2-1.3,1.9-1.9l0.2-0.2c0.7-0.7,1.4-1.3,2.1-1.9l0,0c0.4-0.3,0.7-0.6,1.1-0.9
			l0.4-0.3c0.6-0.5,1.1-0.9,1.7-1.4l0.7-0.5l1.3-1l1-0.7l0.8-0.5l1.6-1l0.6-0.3c0.6-0.4,1.3-0.7,1.9-1.1l0.2-0.1
			c0.7-0.4,1.4-0.8,2.2-1.1L50.7,21.8l-1.1,0.8l-0.3,0.2c-2,1.5-4,3-5.9,4.6l0,0c-2,1.6-3.9,3.3-5.7,5l0,0
			c-5.9,5.6-11.3,11.8-16,18.5l41.5,41.5C66.1,86.5,69.8,81.2,74.3,76.5z"/>
		<path class="st6" d="M148.9,64.5c-0.7-0.4-1.4-0.8-2.2-1.1l0,0C147.5,63.7,148.2,64.1,148.9,64.5z"/>
		<path class="st6" d="M156.4,69.2l0.7,0.5L156.4,69.2z"/>
		<path class="st6" d="M169.3,81.9l0.5,0.7L169.3,81.9z"/>
		<path class="st6" d="M162.5,74.3l0.2,0.2L162.5,74.3z"/>
		<path class="st6" d="M170.8,83.9c0.2,0.3,0.5,0.7,0.7,1C171.2,84.6,171,84.3,170.8,83.9z"/>
		<path class="st6" d="M164.6,76.3l0.2,0.2L164.6,76.3z"/>
		<path class="st6" d="M167.6,79.8l0.2,0.3L167.6,79.8z"/>
		<path class="st6" d="M175.7,92.3c-0.4-0.7-0.7-1.5-1.1-2.2C174.9,90.8,175.3,91.5,175.7,92.3z"/>
		<path class="st48" d="M193,74.9l24.2-24.2c-7.9-11.3-17.7-21.1-29-29L170,40c2.7,5,4.2,11.2,6.8,16.4
			C180.5,63.8,186.6,69.5,193,74.9z"/>
		<path class="st6" d="M173.4,88c0.4,0.6,0.7,1.3,1.1,1.9C174.1,89.2,173.7,88.6,173.4,88z"/>
		<path class="st6" d="M172,85.8c0.3,0.5,0.7,1.1,1,1.6C172.7,86.8,172.4,86.3,172,85.8z"/>
		<path class="st6" d="M158.9,71.1l0.3,0.2L158.9,71.1z"/>
		<path class="st6" d="M149.1,64.6c0.6,0.3,1.3,0.7,1.9,1.1C150.4,65.3,149.8,64.9,149.1,64.6z"/>
		<path class="st6" d="M151.6,66c0.6,0.3,1.1,0.7,1.6,1C152.7,66.7,152.2,66.3,151.6,66z"/>
		<path class="st6" d="M154,67.5c0.3,0.2,0.7,0.5,1,0.7C154.7,68,154.4,67.8,154,67.5z"/>
		<path class="st49" d="M148.9,64.5l0.2,0.1c0.6,0.3,1.3,0.7,1.9,1.1l0.6,0.3c0.6,0.3,1.1,0.7,1.6,1l0.8,0.5c0.3,0.2,0.7,0.5,1,0.7
			l1.4,1l0.7,0.5c0.6,0.5,1.2,0.9,1.8,1.4l0.3,0.2c1.1,0.9,2.2,1.9,3.2,2.9l0.2,0.2c0.6,0.6,1.3,1.2,1.9,1.9l0.2,0.2
			c1,1.1,1.9,2.1,2.9,3.2l0.2,0.3c0.5,0.6,1,1.2,1.4,1.8l0.5,0.7c0.3,0.4,0.7,0.9,1,1.4s0.5,0.7,0.7,1s0.4,0.5,0.5,0.8
			c0.4,0.5,0.7,1.1,1,1.6c0.1,0.2,0.2,0.4,0.4,0.6c0.4,0.6,0.7,1.3,1.1,1.9l0.1,0.2c0.4,0.7,0.8,1.4,1.1,2.2L193,74.9
			c-6.4-5.4-12.5-11.2-16.2-18.6c-2.6-5.2-4.1-11.3-6.8-16.3l-23.3,23.3C147.5,63.7,148.2,64.1,148.9,64.5z"/>
		<path class="st6" d="M69.7,157.1l-0.5-0.7L69.7,157.1z"/>
		<path class="st6" d="M72.3,160.4L72.3,160.4z"/>
		<path class="st6" d="M63.3,146.7c0.4,0.7,0.7,1.5,1.1,2.2C64.1,148.2,63.7,147.5,63.3,146.7L63.3,146.7z"/>
		<path class="st6" d="M65.6,151c-0.4-0.6-0.7-1.3-1.1-1.9C64.9,149.8,65.3,150.4,65.6,151z"/>
		<path class="st6" d="M71.4,159.2l-0.3-0.4L71.4,159.2z"/>
		<path class="st48" d="M32.2,201.1c-3.8-4-7.3-8.3-10.4-12.8l0,0c7.9,11.3,17.7,21.1,29,29l20.6-20.6c-1.4-0.5-2.9-0.9-4.3-1.2
			C55.5,193.4,43.8,198.7,32.2,201.1z"/>
		<path class="st6" d="M67,153.2c-0.3-0.5-0.7-1.1-1-1.6C66.3,152.2,66.7,152.7,67,153.2z"/>
		<path class="st6" d="M68.2,155.1c-0.2-0.4-0.5-0.7-0.7-1.1C67.8,154.4,68,154.7,68.2,155.1z"/>
		<path class="st6" d="M76.5,164.7l-0.2-0.1L76.5,164.7z"/>
		<path class="st6" d="M74.5,162.7l-0.2-0.2L74.5,162.7z"/>
		<path class="st49" d="M76.5,164.7l-0.2-0.1c-0.6-0.6-1.3-1.2-1.9-1.9l-0.2-0.2c-0.7-0.7-1.3-1.4-1.9-2.1l0,0
			c-0.3-0.4-0.6-0.7-0.9-1.1l-0.3-0.4c-0.4-0.6-0.9-1.1-1.3-1.7l-0.5-0.7c-0.3-0.4-0.6-0.9-0.9-1.3s-0.5-0.7-0.7-1.1
			s-0.3-0.5-0.5-0.8c-0.3-0.5-0.7-1.1-1-1.6c-0.1-0.2-0.2-0.4-0.3-0.6c-0.4-0.6-0.7-1.3-1.1-1.9c0-0.1-0.1-0.1-0.1-0.2
			c-0.4-0.7-0.8-1.5-1.1-2.2l-41.6,41.5c3.2,4.5,6.7,8.8,10.4,12.8c11.5-2.4,23.3-7.7,34.8-5.6c1.5,0.3,2.9,0.7,4.3,1.2l21-21
			C86.5,172.9,81.2,169.2,76.5,164.7z"/>
		<polygon class="st50" points="80.2,71.1 80.2,71.1 80.2,71.1 		"/>
		<path class="st50" d="M79.2,71.9l0.6-0.5l0,0L79.2,71.9z"/>
		<polygon class="st50" points="78.7,72.3 78.7,72.3 78.7,72.3 		"/>
		<polygon class="st50" points="83.9,68.2 83.9,68.2 83.9,68.2 		"/>
		<polygon class="st50" points="81.9,69.7 81.9,69.7 81.9,69.7 		"/>
		<polygon class="st50" points="82.6,69.2 82.6,69.2 82.6,69.2 		"/>
		<path class="st50" d="M71.2,80l-0.4,0.5L71.2,80z"/>
		<path class="st50" d="M87.4,66L87.4,66l0.6-0.3l0,0L87.4,66z"/>
		<path class="st50" d="M64.6,149.1c0.1,0.2,0.2,0.4,0.3,0.6c-0.3-0.5-0.5-0.9-0.8-1.4c0.1,0.2,0.2,0.4,0.3,0.6
			S64.5,149.1,64.6,149.1z"/>
		<path class="st50" d="M77.7,165.9c0.5,0.4,1,0.9,1.5,1.3C78.7,166.7,78.2,166.3,77.7,165.9z"/>
		<path class="st50" d="M72.8,78.1l-0.3,0.3L72.8,78.1z"/>
		<path class="st50" d="M66,151.6c0.1,0.2,0.3,0.4,0.4,0.6c-0.3-0.5-0.7-1.1-1-1.6c0.1,0.1,0.2,0.3,0.2,0.4S65.9,151.4,66,151.6z"/>
		<path class="st50" d="M68.5,83.5l-0.8,1.1L68.5,83.5z"/>
		<path class="st50" d="M70,81.6l-0.8,1.1L70,81.6z"/>
		<path class="st50" d="M74.5,162.7c0.2,0.2,0.3,0.3,0.5,0.5l-1.1-1.2l0.4,0.4L74.5,162.7z"/>
		<path class="st50" d="M76.5,164.7c0.2,0.2,0.4,0.4,0.6,0.6l-1.3-1.2l0.5,0.5L76.5,164.7z"/>
		<path class="st50" d="M69.7,157.1L69.7,157.1c-0.5-0.7-1-1.3-1.4-2c0.3,0.4,0.6,0.8,0.9,1.2L69.7,157.1z"/>
		<path class="st50" d="M71.4,159.2l0.2,0.2c-0.4-0.5-0.9-1.1-1.3-1.7c0.3,0.4,0.6,0.7,0.8,1.1L71.4,159.2z"/>
		<path class="st50" d="M72.3,160.4c0.2,0.2,0.4,0.4,0.6,0.7c-0.4-0.5-0.8-0.9-1.3-1.4L72.3,160.4L72.3,160.4z"/>
		<path class="st50" d="M67,153.2c0.2,0.3,0.3,0.5,0.5,0.8l0.5,0.7c-0.4-0.6-0.8-1.2-1.2-1.9L67,153.2z"/>
		<path class="st6" d="M89.9,64.6l0.2-0.1c0.7-0.4,1.4-0.8,2.2-1.1c-1.5,0.7-2.9,1.5-4.3,2.3C88.6,65.3,89.2,64.9,89.9,64.6z"/>
		<path class="st6" d="M72.5,78.4c-0.4,0.5-0.9,1-1.3,1.5C71.7,79.4,72.1,78.9,72.5,78.4z"/>
		<path class="st6" d="M83.9,68.2l-1.3,1L83.9,68.2z"/>
		<path class="st6" d="M82.6,69.2l-0.7,0.5L82.6,69.2z"/>
		<path class="st6" d="M78.7,72.3l0.5-0.4L78.7,72.3z"/>
		<path class="st6" d="M85,67.5l0.8-0.5l1.6-1c-1.2,0.7-2.3,1.5-3.5,2.2L85,67.5z"/>
		<path class="st6" d="M81.9,69.7c-0.6,0.4-1.2,0.9-1.7,1.3C80.7,70.6,81.3,70.2,81.9,69.7z"/>
		<path class="st6" d="M80.2,71.1l-0.4,0.3L80.2,71.1z"/>
		<path class="st6" d="M67.8,84.6c0,0-0.1,0.1-0.1,0.1C67.7,84.7,67.7,84.6,67.8,84.6z"/>
		<path class="st6" d="M72.8,78.1c0.5-0.5,1-1.1,1.5-1.6l0.1-0.2c0.6-0.7,1.2-1.3,1.9-1.9l0.2-0.2c0.7-0.7,1.4-1.3,2.1-1.9
			C76.6,74.1,74.6,76,72.8,78.1z"/>
		<path class="st6" d="M70.8,80.5L70,81.6L70.8,80.5z"/>
		<path class="st6" d="M69.2,82.6l-0.6,0.8L69.2,82.6z"/>
		<path class="st48" d="M67.7,84.7c0,0,0-0.1,0.1-0.1l0.8-1.1l0.6-0.8l0.8-1.1l0.9-1.1l0.4-0.5c0.4-0.5,0.9-1,1.3-1.5l0.3-0.3
			c1.8-2,3.8-4,5.8-5.8l0,0l0.5-0.4l0.6-0.5l0,0l0.4-0.3l0,0c0.6-0.5,1.1-0.9,1.7-1.3l0,0l0.7-0.5l0,0l1.3-1l0,0
			c1.1-0.8,2.3-1.5,3.5-2.2l0,0l0.6-0.3l0,0c1.4-0.8,2.8-1.6,4.3-2.3l0,0l-6.6-6.6c-2.5,1.2-4.9,2.5-7.3,3.8
			c-7,3.8-14.2,7.6-19.6,13.4c-2.2,2.5-4.2,5.1-5.9,8l10.4,10.4C64.6,89.7,66,87.1,67.7,84.7z"/>
		<path class="st6" d="M68.2,155.1l-0.2-0.3L68.2,155.1L68.2,155.1z"/>
		<path class="st6" d="M69.8,157.2l0.5,0.6L69.8,157.2z"/>
		<path class="st6" d="M71.6,159.4l0.1,0.1L71.6,159.4z"/>
		<path class="st6" d="M77.1,165.3l0.6,0.6L77.1,165.3z"/>
		<path class="st6" d="M72.9,161c0.3,0.3,0.6,0.7,0.9,1C73.5,161.7,73.2,161.4,72.9,161z"/>
		<path class="st6" d="M79.2,167.2l0.5,0.4L79.2,167.2z"/>
		<path class="st6" d="M64.9,149.7c0.2,0.3,0.3,0.6,0.5,0.9C65.2,150.3,65.1,150,64.9,149.7z"/>
		<path class="st6" d="M63.6,147.2c0.2,0.4,0.4,0.7,0.6,1.1C64,147.9,63.8,147.6,63.6,147.2z"/>
		<path class="st6" d="M75.8,164.1l-0.9-0.9L75.8,164.1z"/>
		<path class="st6" d="M66.4,152.2l0.4,0.6L66.4,152.2z"/>
		<path class="st48" d="M67,153.2l-0.2-0.4l-0.4-0.6c-0.1-0.2-0.3-0.4-0.4-0.6s-0.2-0.4-0.3-0.6s-0.2-0.3-0.2-0.4
			c-0.2-0.3-0.3-0.6-0.5-0.9s-0.2-0.4-0.3-0.6s-0.1-0.1-0.1-0.2s-0.2-0.4-0.3-0.6c-0.2-0.4-0.4-0.7-0.6-1.1l-0.2-0.5l-9.9,9.9
			c5.5,7.7,12,14.6,18.5,21.6c2.9,3.1,5.9,6.3,9.6,8.3l10.8-10.8c-4.5-2.2-8.8-4.9-12.6-8.2l-0.5-0.4c-0.5-0.4-1-0.9-1.5-1.3
			l-0.6-0.6c-0.2-0.2-0.4-0.4-0.6-0.6l-0.2-0.1l-0.5-0.5l-0.9-0.9c-0.2-0.2-0.3-0.3-0.5-0.5l-0.2-0.2l-0.4-0.4
			c-0.3-0.3-0.6-0.7-0.9-1s-0.4-0.4-0.6-0.7l0,0l-0.6-0.8l-0.1-0.1l-0.2-0.2l-0.3-0.4c-0.3-0.4-0.6-0.7-0.8-1.1l-0.5-0.6l0,0
			l-0.5-0.7c-0.3-0.4-0.6-0.8-0.9-1.2l-0.3-0.4l-0.5-0.7C67.3,153.8,67.2,153.5,67,153.2z"/>
	</g>
</g>
</svg>
