<?xml version="1.0" encoding="utf-8"?>
<!-- Generator: Adobe Illustrator 23.0.1, SVG Export Plug-In . SVG Version: 6.00 Build 0)  -->
<svg version="1.1" id="Layer_1" xmlns="http://www.w3.org/2000/svg" xmlns:xlink="http://www.w3.org/1999/xlink" x="0px" y="0px"
	 viewBox="0 0 268.7 220.2" style="enable-background:new 0 0 268.7 220.2;" xml:space="preserve">
<style type="text/css">
	.st0{opacity:0.29;fill:#E6E6E6;enable-background:new    ;}
	.st1{clip-path:url(#SVGID_2_);}
	.st2{opacity:0.46;fill:#E6E6E6;enable-background:new    ;}
	.st3{fill:url(#SVGID_3_);}
	.st4{fill:#F9A500;}
	.st5{opacity:0.21;fill:#FFFFFF;enable-background:new    ;}
	.st6{fill:#571C8A;}
	.st7{fill:#FFFFFF;}
	.st8{fill:url(#SVGID_4_);}
	.st9{fill:#300C6D;}
	.st10{opacity:0.11;fill:#FFFFFF;enable-background:new    ;}
</style>
<title>Wspolne_playlisty</title>
<g>
	<g id="Layer_1-2">
		<circle class="st0" cx="122.9" cy="110" r="110"/>
		<g>
			<defs>
				<circle id="SVGID_1_" cx="122.9" cy="110" r="110"/>
			</defs>
			<clipPath id="SVGID_2_">
				<use xlink:href="#SVGID_1_"  style="overflow:visible;"/>
			</clipPath>
			<g class="st1">
				<path class="st2" d="M172,257.6c-10.1,5.2-20.6,10.6-31.9,11.3c-9.9,0.6-19.6-2.4-29-5.3l-37.4-11.7c-6.3-2-12.7-4-18.1-7.7
					s-9.8-9.6-10.2-16.1c-0.5-9.2,6.5-16.9,13-23.4s13.5-14.3,12.7-23.5c-0.9-11-12.2-18.1-16.3-28.3c-4.3-11.1,0.8-24,9.4-32.3
					s19.9-12.8,30.9-17.3s22.3-9.4,30.4-18.2c6-6.5,10-14.7,16.1-21c15.5-15.9,41-16.3,56.9-0.8c5.5,5.4,9.4,12.3,11.1,19.8
					c4.4,19.2-5.4,38.4-14.5,55.8c-2.9,5.6-5.9,11.7-5.4,18c0.6,8.4,7,15,12.1,21.7c12.9,16.8,19.5,37.5,18.9,58.6
					c-0.3,9.2-5.4,22.9-16.9,17.8c-4.1-1.8-7.4-3.9-12.1-3.9C184.9,251.1,178,254.4,172,257.6z"/>
			</g>
		</g>
		
			<linearGradient id="SVGID_3_" gradientUnits="userSpaceOnUse" x1="0" y1="194.0198" x2="223" y2="194.0198" gradientTransform="matrix(1 0 0 -1 0 269.8898)">
			<stop  offset="0" style="stop-color:#FCDF6A"/>
			<stop  offset="1" style="stop-color:#F9A500"/>
		</linearGradient>
		<path class="st3" d="M12.8,34.9h197.5c7,0,12.8,5.7,12.8,12.8v56.5c0,7-5.7,12.8-12.8,12.8H12.8c-7,0-12.8-5.7-12.8-12.8V47.6
			C0,40.6,5.7,34.9,12.8,34.9z"/>
		<path class="st4" d="M210.2,34.9h-17c0.4,2.9,0.2,5.9-0.4,8.8c-1,5.2-2.7,10.4-2.1,15.6c0.9,8.7,7.7,17.6,3.4,25.2
			c-3.4,5.9-11.6,6.7-18.2,5.4s-13.3-4.1-20-2.8c-9.2,1.7-15.5,10.6-24.5,13.1c-6.7,1.9-13.8,0-20.8-0.6
			c-20.5-1.7-39.9,8.3-58.7,16.8l-1.3,0.6h159.7c7,0,12.8-5.7,12.8-12.8V47.6C223,40.6,217.3,34.9,210.2,34.9L210.2,34.9z"/>
		<path class="st5" d="M81.4,34.9c-0.2,0.3-0.3,0.7-0.5,1c-1.7,3.7-3.7,7.6-7.3,9.6s-8.6,1.9-11.3,5.1s-1.8,8.1-4,11.6
			c-3.2,5.2-10.9,5.1-15.8,8.8c-4.3,3.3-5.9,9.2-10.1,12.5C26.6,88,18.2,86,10.9,87.1C6.9,87.8,3.2,89.5,0,92v12.2
			c0,7,5.7,12.8,12.8,12.8h0.8c2.3-2.3,6-3.5,9.4-3.8c5.2-0.3,10.7,0.6,15.3-1.7c8.4-4.1,9.8-16.2,17.7-21.2
			c4.5-2.9,10.3-2.7,15.7-3.1s11.4-1.9,14.1-6.5c2.1-3.4,1.9-7.9,3.9-11.5c3.3-5.8,11-7.1,17.6-7.9s14.4-2.4,17.2-8.5
			c2.4-5.3,0.4-12.8,5.1-16.3c1.2-0.8,2.6-1.4,4-1.8L81.4,34.9z"/>
		<circle class="st6" cx="37.6" cy="78" r="22"/>
		<path class="st7" d="M49.8,74.9h-9.1v-9.2c0.1-1.7-1.2-3.1-2.9-3.2c-1.7-0.1-3.1,1.2-3.2,2.9c0,0.1,0,0.2,0,0.3v9.2h-9.2
			c-1.7,0-3,1.4-3,3.1c0,1.7,1.4,3,3,3h9.2v9.2c0.1,1.7,1.5,3,3.2,2.9c1.6-0.1,2.8-1.3,2.9-2.9V81h9.1c1.7,0,3.1-1.4,3.1-3
			C52.9,76.3,51.5,74.9,49.8,74.9C49.9,74.9,49.9,74.9,49.8,74.9L49.8,74.9z"/>
		<path class="st7" d="M87.7,60h78.2c2.5,0,4.5,2,4.5,4.5v0c0,2.5-2,4.5-4.5,4.5H87.7c-2.5,0-4.5-2-4.5-4.5v0
			C83.2,62,85.2,60,87.7,60z"/>
		<path class="st7" d="M87.7,77.4h56.4c2.5,0,4.5,2,4.5,4.5v0c0,2.5-2,4.5-4.5,4.5H87.7c-2.5,0-4.5-2-4.5-4.5v0
			C83.2,79.4,85.2,77.4,87.7,77.4z"/>
		
			<linearGradient id="SVGID_4_" gradientUnits="userSpaceOnUse" x1="45.7" y1="123.4998" x2="268.7" y2="123.4998" gradientTransform="matrix(1 0 0 -1 0 269.8898)">
			<stop  offset="2.000000e-02" style="stop-color:#8552BF"/>
			<stop  offset="1" style="stop-color:#7035B1"/>
		</linearGradient>
		<path class="st8" d="M58.5,105.4H256c7,0,12.8,5.7,12.8,12.8v56.5c0,7-5.7,12.8-12.8,12.8H58.5c-7,0-12.8-5.7-12.8-12.8v-56.5
			C45.7,111.1,51.4,105.4,58.5,105.4z"/>
		<path class="st9" d="M256,105.4h-17c0.4,2.9,0.2,5.9-0.4,8.8c-1,5.2-2.7,10.4-2.1,15.6c0.9,8.7,7.7,17.6,3.4,25.2
			c-3.4,5.9-11.6,6.7-18.2,5.4s-13.3-4.1-19.9-2.8c-9.2,1.7-15.5,10.6-24.5,13.1c-6.7,1.9-13.8,0-20.8-0.6
			c-20.5-1.7-39.9,8.4-58.7,16.8l-1.3,0.6H256c7,0,12.8-5.7,12.8-12.8v-56.5C268.8,111.1,263,105.4,256,105.4z"/>
		<path class="st10" d="M127.1,105.4c-0.2,0.3-0.3,0.7-0.5,1c-1.7,3.7-3.7,7.6-7.3,9.6s-8.6,1.9-11.3,5.1s-1.8,8.1-4,11.6
			c-3.1,5.2-10.9,5.1-15.8,8.8c-4.3,3.3-5.8,9.3-10.1,12.5c-5.9,4.5-14.2,2.5-21.5,3.6c-4,0.7-7.8,2.3-10.9,4.8v12.2
			c0,7,5.7,12.8,12.8,12.8h0.8c2.6-2.3,5.9-3.6,9.4-3.7c5.2-0.3,10.7,0.6,15.3-1.7c8.4-4.1,9.8-16.2,17.7-21.2
			c4.6-2.9,10.3-2.7,15.7-3.1s11.3-1.8,14.1-6.4c2.1-3.5,1.9-7.9,3.9-11.5c3.3-5.8,11-7.1,17.6-7.9s14.4-2.4,17.1-8.5
			c2.4-5.3,0.4-12.8,5.1-16.3c1.2-0.8,2.6-1.4,4-1.8L127.1,105.4z"/>
		<circle class="st6" cx="83.3" cy="148.5" r="22"/>
		<path class="st7" d="M95.6,145.4h-9.2v-9.2c-0.1-1.7-1.5-3-3.2-2.9c-1.6,0.1-2.8,1.3-2.9,2.9v9.2h-9.2c-1.7,0.1-3,1.5-2.9,3.2
			c0.1,1.6,1.3,2.8,2.9,2.9h9.2v9.2c0.1,1.7,1.5,3,3.2,2.9c1.6-0.1,2.8-1.3,2.9-2.9v-9.2h9.2c1.7-0.1,3-1.5,2.9-3.2
			C98.4,146.8,97.1,145.5,95.6,145.4z"/>
		<path class="st7" d="M133.4,130.5h78.2c2.5,0,4.5,2,4.5,4.5v0c0,2.5-2,4.5-4.5,4.5h-78.2c-2.5,0-4.5-2-4.5-4.5v0
			C128.9,132.5,130.9,130.5,133.4,130.5z"/>
		<path class="st7" d="M133.4,147.9h56.4c2.5,0,4.5,2,4.5,4.5v0c0,2.5-2,4.5-4.5,4.5h-56.4c-2.5,0-4.5-2-4.5-4.5v0
			C128.9,149.9,130.9,147.9,133.4,147.9z"/>
	</g>
</g>
</svg>
