<?xml version="1.0" encoding="utf-8"?>
<!-- Generator: Adobe Illustrator 23.0.1, SVG Export Plug-In . SVG Version: 6.00 Build 0)  -->
<svg version="1.1" id="Layer_1" xmlns="http://www.w3.org/2000/svg" xmlns:xlink="http://www.w3.org/1999/xlink" x="0px" y="0px"
	 viewBox="0 0 220 229.2" style="enable-background:new 0 0 220 229.2;" xml:space="preserve">
<style type="text/css">
	.st0{opacity:0.29;fill:#E6E6E6;enable-background:new    ;}
	.st1{clip-path:url(#SVGID_2_);}
	.st2{opacity:0.46;fill:#E6E6E6;enable-background:new    ;}
	.st3{fill:url(#SVGID_3_);}
	.st4{fill:#571C8A;}
	.st5{fill:#7035B1;}
	.st6{fill:url(#SVGID_4_);}
	.st7{fill:url(#SVGID_5_);}
	.st8{fill:url(#SVGID_6_);}
	.st9{opacity:0.19;fill:#FFFFFF;enable-background:new    ;}
	.st10{fill:url(#SVGID_7_);}
	.st11{fill:#AAFFCE;}
	.st12{opacity:0.39;fill:#00D38F;enable-background:new    ;}
	.st13{fill:url(#SVGID_8_);}
	.st14{fill:none;}
</style>
<title>Wydarzenia_na_zywo</title>
<g>
	<g id="Layer_1-2">
		<circle class="st0" cx="110" cy="119.2" r="110"/>
		<g>
			<defs>
				<circle id="SVGID_1_" cx="110" cy="119.2" r="110"/>
			</defs>
			<clipPath id="SVGID_2_">
				<use xlink:href="#SVGID_1_"  style="overflow:visible;"/>
			</clipPath>
			<g class="st1">
				<path class="st2" d="M-29.1,49.6c3.4-10.9,7-22.1,14.6-30.6C-7.9,11.6,1,6.8,9.8,2.3l34.7-18.2c5.8-3,11.8-6.2,18.2-7.3
					c6.5-1.2,13.7-0.2,18.6,4.2c6.9,6.1,7.4,16.5,7.4,25.8s0.6,19.7,7.6,25.6c8.4,7.2,21.4,4.1,31.6,8.5
					c10.9,4.8,16.4,17.6,16.2,29.5c-0.2,11.9-5,23.1-9.6,34.1c-4.6,11-9.1,22.4-8.7,34.3c0.3,8.8,3.3,17.4,3.4,26.2
					c0.3,22.2-17.5,40.5-39.7,40.8c-7.7,0.1-15.3-2-21.8-6.1c-16.7-10.4-23.3-31-29.2-49.7c-1.9-6.1-4.1-12.4-8.9-16.6
					c-6.4-5.5-15.5-5.7-23.9-6.8c-21-2.8-40.3-12.7-54.8-28.1c-6.3-6.7-12.3-20-0.6-24.5c4.2-1.6,8-2.5,11.3-5.8
					C-33.6,63.3-31.1,56.1-29.1,49.6z"/>
			</g>
		</g>
		
			<linearGradient id="SVGID_3_" gradientUnits="userSpaceOnUse" x1="46.29" y1="72.625" x2="173.57" y2="72.625" gradientTransform="matrix(1 0 0 -1 0 206.56)">
			<stop  offset="0" style="stop-color:#7035B1"/>
			<stop  offset="0.98" style="stop-color:#8552BF"/>
		</linearGradient>
		<path class="st3" d="M46.3,88.2h127.3l0,0v34.5c0,31.5-25.5,57-57,57l0,0h-13.3c-31.5,0-57-25.5-57-57l0,0V88.2L46.3,88.2z"/>
		<path class="st4" d="M56.9,101.3c1.1,9-0.7,18.1,0.2,27.1c1.2,11.2,6.5,21.6,14.8,29.2c3.1,2.8,6.6,5.1,10.3,6.8
			c5.1,2.4,10.6,3.6,16.2,3.6c7.6,0,14.9-2.4,22.1-4.8c4.9-1.6,10.4-3.8,12.1-8.7c0.9-2.6,0.5-5.4,1.4-8c1.4-4.4,5.9-7,9.1-10.4
			c6.5-6.8,7.8-17,8.8-26.4c0.7-7,1.3-14.7-2.6-20.6c-0.2-0.3-0.4-0.6-0.7-1H51.9C54.7,92,56.4,96.5,56.9,101.3z"/>
		<path class="st4" d="M173.6,116.1V88.2h-31.6c0.4,0.2,0.8,0.4,1.1,0.6c3.6,2.3,6.8,5.2,9.5,8.5c8,9.8,11.2,22.7,8.6,35.2
			c-1.4,6.8-10.2,9.4-14.5,14.9c-10.2,13.1-20.2,27.2-36.8,27.9c-12.2,0.5-25.3-5.4-37.4-7.7c10.9,7.9,24,12.2,37.4,12.2l0,0
			C145,179.8,173.5,151.3,173.6,116.1C173.6,116.1,173.6,116.1,173.6,116.1z"/>
		<rect x="100.7" y="175.8" class="st4" width="18.2" height="35.1"/>
		<rect x="39.4" y="87.7" class="st5" width="140.6" height="7.4"/>
		
			<linearGradient id="SVGID_4_" gradientUnits="userSpaceOnUse" x1="35.7449" y1="115.2261" x2="43.1149" y2="115.2261" gradientTransform="matrix(1 0 0 -1 0 206.56)">
			<stop  offset="0" style="stop-color:#7035B1"/>
			<stop  offset="0.98" style="stop-color:#8552BF"/>
		</linearGradient>
		<path class="st6" d="M39.4,100.1c-2,0-3.7-1.7-3.7-3.7c0,0,0,0,0,0v-10c-0.1-2,1.5-3.8,3.5-3.9S43,84,43.1,86c0,0.1,0,0.3,0,0.4
			v10C43.1,98.5,41.5,100.1,39.4,100.1z"/>
		
			<linearGradient id="SVGID_5_" gradientUnits="userSpaceOnUse" x1="176.3849" y1="115.2261" x2="183.7549" y2="115.2261" gradientTransform="matrix(1 0 0 -1 0 206.56)">
			<stop  offset="0" style="stop-color:#7035B1"/>
			<stop  offset="0.98" style="stop-color:#8552BF"/>
		</linearGradient>
		<path class="st7" d="M180.1,100.1c-2,0-3.7-1.7-3.7-3.7v-10c-0.1-2,1.5-3.8,3.5-3.9c2-0.1,3.8,1.5,3.9,3.5c0,0.1,0,0.3,0,0.4v10
			C183.8,98.5,182.1,100.1,180.1,100.1L180.1,100.1z"/>
		
			<linearGradient id="SVGID_6_" gradientUnits="userSpaceOnUse" x1="69.57" y1="159.71" x2="149.94" y2="159.71" gradientTransform="matrix(1 0 0 -1 0 206.56)">
			<stop  offset="0" style="stop-color:#7035B1"/>
			<stop  offset="0.98" style="stop-color:#8552BF"/>
		</linearGradient>
		<path class="st8" d="M109.7,0C87.6,0,69.6,18,69.6,40.2v53.5h80.4V40.2C149.9,18,132,0,109.7,0C109.8,0,109.8,0,109.7,0z"/>
		<path class="st9" d="M79.4,27.2c-0.8,2.6-1.1,5.5-0.1,8s3.9,4.5,6.5,3.6c2.6-0.8,3.8-3.7,4.2-6.3c0.4-2.6,0.4-5.4,1.6-7.8
			s3.9-4,6.3-5.3c2.8-1.4,8.3-3.6,8.2-7.4c-0.2-4-5.4-5.2-8.6-4.6C89.1,8.9,81.6,19.5,79.4,27.2z"/>
		
			<linearGradient id="SVGID_7_" gradientUnits="userSpaceOnUse" x1="150.51" y1="158.8" x2="167.88" y2="158.8" gradientTransform="matrix(1 0 0 -1 0 206.56)">
			<stop  offset="0" style="stop-color:#7035B1"/>
			<stop  offset="0.98" style="stop-color:#8552BF"/>
		</linearGradient>
		<path class="st10" d="M121.8,1.8c3.1,3.1,5.1,7.5,4.3,11.9c-0.9,4.8-5,8.9-4.9,13.8c0.2,7,8.9,12.4,7.1,19.2
			c-1.3,4.7-6.8,6.5-11.3,8.4c-14.6,6.4-24.1,22.7-22.9,38.5h55.9V40.2C149.9,22.6,138.5,7.1,121.8,1.8z"/>
		<path class="st4" d="M170,221H49.5v-5c0-5.5,4.5-10,10-10H160c5.5,0,10,4.5,10,10V221z"/>
		<path class="st11" d="M64.6,83.9v11.4l4.9,3.7l-4.9,3.7v12.9c0.4,25,20.9,44.9,45.9,44.5c24.4-0.4,44.2-20.1,44.5-44.5v-12.9
			l-4.9-3.7l4.9-3.7V83.9H64.6z"/>
		<path class="st12" d="M109.7,160.7c25,0,45.2-20.2,45.2-45.2v-12.9l-4.9-3.7l4.9-3.7V83.9H64.6v3.8c5.9,4.6,15.4,6.2,21.8,6.6
			c10.7,0.6,21.4-1,32,0.7c3.2,0.5,6.8,1.8,7.9,4.8c1.9,5.6-6.2,9.6-7.3,15.4c-0.8,4.1,2,7.9,4.1,11.4s3.3,8.8,0.2,11.5
			c-3.4,2.9-9,0.4-13.2,2.2c-4.6,2-5.7,8.5-10.1,10.7c-3.1,1.5-6.8,0.5-9.6-1.4s-4.9-4.7-7.3-7.1c-4.2-4.3-9.3-7.6-14.9-9.7
			C75,149.6,91.4,160.7,109.7,160.7z"/>
		
			<linearGradient id="SVGID_8_" gradientUnits="userSpaceOnUse" x1="49.57" y1="-6.89" x2="145.5" y2="-6.89" gradientTransform="matrix(1 0 0 -1 0 206.56)">
			<stop  offset="0" style="stop-color:#7035B1"/>
			<stop  offset="0.98" style="stop-color:#8552BF"/>
		</linearGradient>
		<path class="st13" d="M73,216.3c2,0.2,4.1,0.8,6.1,0.5c2.7-0.4,4.9-2.4,7.3-3.6c3.4-1.7,7.4-1.8,11-0.4c2.3,0.9,4.4,2.4,6.8,2.7
			c3.6,0.3,6.8-2.3,10.2-3.4c6.8-2.3,14.5,1.3,21.4-0.5c3.6-1,6.6-3.3,9.7-5.5H59.6c-5.5,0-10,4.5-10,10v5h2.6
			c2.1-0.6,4.2-1.3,6.2-2.1C63,217.3,68,215.7,73,216.3z"/>
		<line class="st14" x1="155" y1="98.9" x2="64.6" y2="98.9"/>
		<rect x="64.6" y="95.3" class="st4" width="90.4" height="7.4"/>
		<circle class="st4" cx="89.7" cy="63.8" r="3.7"/>
		<circle class="st4" cx="109.7" cy="63.8" r="3.7"/>
		<circle class="st4" cx="129.9" cy="63.8" r="3.7"/>
		<circle class="st4" cx="89.7" cy="43.4" r="3.7"/>
		<circle class="st4" cx="109.7" cy="43.4" r="3.7"/>
		<circle class="st4" cx="129.9" cy="43.4" r="3.7"/>
		<circle class="st4" cx="90.9" cy="23.4" r="3.7"/>
		<circle class="st4" cx="109.7" cy="23.4" r="3.7"/>
		<circle class="st4" cx="129.1" cy="23.4" r="3.7"/>
	</g>
</g>
</svg>
