<?xml version="1.0" encoding="utf-8"?>
<!-- Generator: Adobe Illustrator 23.0.1, SVG Export Plug-In . SVG Version: 6.00 Build 0)  -->
<svg version="1.1" id="Layer_1" xmlns="http://www.w3.org/2000/svg" xmlns:xlink="http://www.w3.org/1999/xlink" x="0px" y="0px"
	 viewBox="0 0 225 225" style="enable-background:new 0 0 225 225;" xml:space="preserve">
<style type="text/css">
	.st0{opacity:0.29;fill:#E6E6E6;enable-background:new    ;}
	.st1{clip-path:url(#SVGID_2_);}
	.st2{opacity:0.46;fill:#E6E6E6;enable-background:new    ;}
	.st3{fill:#3015DF;}
	.st4{fill:#EAEBEF;}
	.st5{opacity:0.36;}
	.st6{fill:#D1D0CD;}
	.st7{fill:#FFFFFF;}
	.st8{fill:url(#SVGID_3_);}
	.st9{fill:url(#SVGID_4_);}
	.st10{fill:#F4F5F7;}
	.st11{fill:#6774FF;}
	.st12{fill:url(#SVGID_5_);}
	.st13{fill:#4B1591;}
	.st14{fill:url(#SVGID_6_);}
	.st15{fill:url(#SVGID_7_);}
	.st16{opacity:0.5;}
	.st17{fill:#FBA200;}
	.st18{fill:url(#SVGID_8_);}
</style>
<title>zespoly</title>
<g>
	<g id="Layer_1-2">
		<circle class="st0" cx="112.5" cy="112.5" r="112.5"/>
		<g>
			<defs>
				<circle id="SVGID_1_" cx="112.5" cy="112.5" r="112.5"/>
			</defs>
			<clipPath id="SVGID_2_">
				<use xlink:href="#SVGID_1_"  style="overflow:visible;"/>
			</clipPath>
			<g class="st1">
				<path class="st2" d="M69.1,68.8c-12.6-0.1-26.8-0.3-35.6,8.3c-7.7,7.5-8.6,19.3-15.4,27.5c-8.1,9.7-22.4,12-35.4,12.4
					s-26.7-0.1-38,6c-11.5,6.3-18.4,19.4-16.8,32c2.2,17,18.4,31.3,16.6,48.4c-0.9,8.8-6.6,16.5-12.7,23.1s-13,12.8-17.4,20.7
					c-4.4,7.8-5.6,18-0.3,25.2c6.8,9.3,21.5,9.9,32.3,5.2s18.9-13.5,27.9-20.9s20.3-13.8,32-12.3c17.1,2.1,26.9,19.1,40.4,29.3
					c13.3,10,31.1,13.5,48,11.9s32.8-8.1,47.4-16.4c11.5-6.5,22.5-14.3,30.3-24.6c7.9-10.3,12.4-23.4,10-35.9s-12.5-24-25.7-26.3
					c-5.4-0.9-11-0.4-16.4-0.9s-11.2-2.4-14.2-6.8c-4.4-6.5-0.5-15.5,5.7-20.4s14.2-7.1,21.4-10.6c12.8-6.2,23.1-16.7,29.1-29.6
					c2.8-6.2,4.4-13,3.5-19.7s-5-13.2-11.2-16.4c-6.5-3.2-14.9-2.8-20.1-7.7c-4.6-4.3-5.1-11.1-7.9-16.6
					c-4.1-7.8-13.7-12.6-22.7-11.3c-11.4,1.6-14.4,10.8-21.9,17.3C93.1,67.4,80.7,68.9,69.1,68.8z"/>
			</g>
		</g>
		<path class="st3" d="M126.5,142.3H102V92c0-1.1-0.9-2-2-2H83c-1.1,0-2,0.9-2,2s0.9,2,2,2h15v103H83c-1.1,0-2,0.9-2,2s0.9,2,2,2h17
			c1.1,0,2-0.9,2-2v-52.7h24.5c1.1,0,2-0.9,2-2S127.6,142.3,126.5,142.3z"/>
		<path class="st4" d="M64.7,154H32.4c-2.7,0-4.8-2.2-4.8-4.8v0c0-2.7,2.2-4.8,4.8-4.8h32.2c2.7,0,4.8,2.2,4.8,4.8v0
			C69.5,151.8,67.4,154,64.7,154z"/>
		<path class="st3" d="M27.5,140.7c-0.3-2.1-0.6-4.3,0.4-6.1c1.1-2.1,3.4-3.3,5.7-4.1c7.9-2.6,16.6-1.9,24,1.9
			c2.7,1.4,5.2,3.2,8.1,4.2c1.5,0.5,3.3,1,4,2.4c0.3,1,0.3,2-0.1,2.9L67,152.1c-0.1,0.8-0.5,1.5-1.1,2.1c-0.8,0.5-1.8,0.6-2.7,0.5
			l-20.6-1.5c-3.5-0.2-10.6,0.6-12.7-2.9C28.3,147.6,28,143.7,27.5,140.7z"/>
		<g class="st5">
			<path class="st6" d="M57.1,168.5v6.7c-0.7,0.8-1.8,1.3-2.9,1.2c-1.7-0.1-3.2-1.6-5-1.9c-1.2-0.3-2.4,0.4-2.9,1.6
				c-0.3,0.8-0.2,1.6,0.1,2.3c0.3,0.7,0.8,1.3,1.4,1.7c1.9,1.4,4.3,1.8,6.6,1c0.9-0.3,1.9-0.7,2.7-1.2v5.9H39.3v-17.3H57.1z"/>
			<path class="st4" d="M47.8,180.2c-0.6-0.5-1.1-1.1-1.4-1.7c-0.3-0.7-0.4-1.6-0.1-2.3c0.5-1.1,1.7-1.8,2.9-1.6
				c1.7,0.3,3.2,1.8,5,1.9c1.1,0,2.2-0.4,2.9-1.2v4.7c-0.9,0.5-1.8,0.9-2.7,1.2C52.2,181.9,49.7,181.6,47.8,180.2z"/>
		</g>
		<path class="st4" d="M48.4,174.6L48.4,174.6c9.7,0,17.5-10.7,17.5-20.4v-14.3c0-7.6-6.1-13.7-13.7-13.7c0,0,0,0,0,0h-7.7
			c-7.6,0-13.7,6.1-13.7,13.7v14.3C30.8,163.9,38.7,174.6,48.4,174.6z"/>
		<path class="st7" d="M46.3,169.1c-2-0.7-3.5-2.4-4.1-4.4c-0.6-2.6,0.8-5.4,0.5-8.1c-0.3-2.6-2-4.7-3.2-7s-1.7-5.4,0.2-7.2
			c2.1-2,5.6-0.8,8.2,0.4c3.7,2,7.6,3.4,11.7,4.4c2.1,0.4,4.2,0.5,6.3,0.2v6.7c-0.1,5-1.9,9.9-5.2,13.8c-2.7,1-5.5,1.6-8.3,1.9
			C50.3,170.1,48.2,169.8,46.3,169.1z"/>
		<path class="st3" d="M36,135.6c2.5-0.3,4.9,0.6,7.3,1.5c7.8,3.3,15.6,7.9,24.1,7.5c1.4,0,2.7-0.3,3.9-1c1.2-0.7,1.8-2.1,1.6-3.5
			c-0.4-1.5-2-2.2-3.3-2.9s-2.7-1.9-2.5-3.4c0.2-1.7,2.2-2.3,3.9-2.6s3.7-0.5,4.3-2.1c0.4-1.3-0.1-2.7-1.2-3.4
			c-1.1-0.7-2.4-1-3.7-0.8c-1.3,0.1-2.6,0.5-3.9,0.6c-5.6,0.7-11-2.4-16.6-3.2c-5.2-0.8-10.4,0.7-14.4,4.1
			c-3.3,2.9-6.5,9.1-4.7,13.6c0.6-0.8,0.8-2,1.7-2.9C33.5,136.3,34.7,135.7,36,135.6z"/>
		<path class="st3" d="M73.9,133.6c-1.1-2.4-0.2-5.8,2.3-6.8c0.8-0.3,1.8-0.5,2.1-1.3c0.3-1.2-1.5-1.8-2.7-1.4
			c-4.8,1.4-7.5,7.1-12.4,8.1c-2.7,0.5-5.4-0.5-7.8-1.8s-4.6-2.9-7.2-3.7c-4.6-1.4-9.9,0.2-13.5,3.4c-1.8,1.6-3.3,3.6-4.4,5.8
			c-0.1-4.7,3-10.1,6.2-12.8c4.7-4,10.9-5.7,17-4.8c6.6,0.9,13,4.6,19.6,3.8c1.5-0.2,3-0.6,4.6-0.7c1.5-0.2,3.1,0.1,4.4,0.9
			c1.3,0.9,1.9,2.5,1.4,4c-0.8,1.8-3.1,2.2-5.1,2.5s-4.4,1-4.6,3c-0.3,1.8,1.4,3.2,3,4.1c1,0.5,2,1.1,2.8,1.8
			C77.2,137.2,75.1,135.7,73.9,133.6z"/>
		
			<linearGradient id="SVGID_3_" gradientUnits="userSpaceOnUse" x1="-1030.29" y1="151.6279" x2="-923.0099" y2="151.6279" gradientTransform="matrix(-1 0 0 -1 -959.88 285.8898)">
			<stop  offset="0" style="stop-color:#3130EE"/>
			<stop  offset="0.42" style="stop-color:#5954FF"/>
			<stop  offset="1" style="stop-color:#6774FF"/>
		</linearGradient>
		<path class="st8" d="M34.7,130.1c3.6-3.2,8.8-4.8,13.5-3.4c2.6,0.8,4.9,2.4,7.2,3.7s5.1,2.3,7.8,1.8c5.3-1,8-7.6,13.6-8.3
			c0.8-0.1,1.5,0.4,1.6,1.2c0,0.1,0,0.1,0,0.2c0,1.1-1.2,1.3-2.1,1.6c-2.5,0.9-3.5,4.3-2.3,6.8c1.2,2.2,3.3,3.7,5.7,4.1
			c0.7,0.6,1.1,1.5,1.2,2.5c0,0.9-0.3,1.9-1,2.6c-1.4,1.6-3.6,1.9-5.6,2c-10.1,0.4-19.3-5-28.6-8.9c-2.7-1.2-5.7-2.2-8.6-1.8
			c-1.5,0.2-2.9,0.9-4,1.9c-1.1,1-1.3,2.4-2,3.4l0,0c-0.7-1.8-0.5-3.8,0.6-5.3C32.5,132.5,33.5,131.2,34.7,130.1z"/>
		
			<linearGradient id="SVGID_4_" gradientUnits="userSpaceOnUse" x1="19.36" y1="88.0548" x2="77.14" y2="88.0548" gradientTransform="matrix(1 0 0 -1 0 285.8898)">
			<stop  offset="0" style="stop-color:#3130EE"/>
			<stop  offset="0.42" style="stop-color:#5954FF"/>
			<stop  offset="1" style="stop-color:#6774FF"/>
		</linearGradient>
		<path class="st9" d="M70.8,183.7l-13.9-4l-8.7,5.8l-8.7-5.8l-13.9,4c-3.7,1.1-6.3,4.5-6.3,8.3v21.1c0,1.6,1.3,2.9,2.9,2.9h52
			c1.6,0,2.9-1.3,2.9-2.9V192C77.1,188.1,74.6,184.7,70.8,183.7z"/>
		<path class="st3" d="M59.8,205.3c0-1.5,0.4-3,1.3-4.2l3.8-5.2c0.5,1.1,0.8,2.2,0.8,3.4V214c0,1.1-0.7,2-1.5,2h-4.5L59.8,205.3
			L59.8,205.3z"/>
		<path class="st3" d="M48.2,185.4l-4.9,3.7c-0.8,0.6-1.9,0.4-2.4-0.3c0-0.1-0.1-0.1-0.1-0.2l-4.4-8l1.8-2.7
			c0.4-0.5,1.1-0.7,1.6-0.3c0.1,0,0.1,0.1,0.1,0.1L48.2,185.4z"/>
		<path class="st3" d="M48.2,185.4l4.9,3.7c0.8,0.6,1.8,0.4,2.4-0.3c0.1-0.1,0.1-0.1,0.1-0.2l4.4-8l-1.8-2.7
			c-0.4-0.5-1.1-0.7-1.6-0.3c-0.1,0-0.1,0.1-0.1,0.1L48.2,185.4z"/>
		<path class="st3" d="M75.9,38.2c1.2-6.1-0.4-12.7-3.1-18.4c-0.6-1.4-1.5-2.6-2.7-3.6c-2.5-1.9-3.8-4-6.7-5
			c-2.3-0.8-19.2-8.2-29.9,2.5C28.2,19,23.2,24.6,20,31.4c-1.4,3-2.7,6.2-2.5,9.5c0.3,4.1,2.7,8.2,1.3,12c-1.1,2.7-3.8,4.4-5.7,6.7
			c-1.8,2.3-2.6,5.1-2.3,8c0.4,3.7,2.7,7.2,1.9,10.8c-0.6,2.8-3,5-4.1,7.6c-1.3,3-1,6.3,0.6,9.1c0.3,0.6,0.8,1.1,1.3,1.4
			c0.5,0.2,1.1,0.3,1.6,0.3c12.9,0.1,24.6-7.3,34.5-15.5c5.4-4.5,15.7-8,19.2-14C70.7,58.8,74.5,45.6,75.9,38.2z"/>
		<ellipse transform="matrix(0.2239 -0.9746 0.9746 0.2239 10.6359 99.784)" class="st10" cx="68" cy="43.2" rx="6.4" ry="4.6"/>
		<path class="st11" d="M43.3,60.6h12.8l0,0V75c0,1.2-0.9,2.1-2.1,2.1h-8.6c-1.2,0-2.1-0.9-2.1-2.1v0V60.6L43.3,60.6z"/>
		<path class="st4" d="M71,77l-9.4-4.7c-2-1-3.2-3-3.2-5.2v-8.7H41.2v8.7c0,2.2-1.2,4.2-3.2,5.2L28.7,77c-2.9,1.5-4.8,4.5-4.8,7.8
			v17.1c0,1.6,1.3,2.9,2.9,2.9c0,0,0,0,0,0H73c1.6,0,2.9-1.3,2.9-2.9V84.7C75.8,81.5,74,78.5,71,77z"/>
		<path class="st6" d="M49.8,70c3,0,6-0.6,8.8-1.8c-0.1-0.4-0.1-0.7-0.2-1.1v-8.7H41.2v8.7c0,0.4-0.1,0.7-0.1,1.1
			C43.8,69.4,46.8,70,49.8,70z"/>
		
			<linearGradient id="SVGID_5_" gradientUnits="userSpaceOnUse" x1="23.87" y1="196.7048" x2="75.85" y2="196.7048" gradientTransform="matrix(1 0 0 -1 0 285.8898)">
			<stop  offset="0" style="stop-color:#7918B3"/>
			<stop  offset="1" style="stop-color:#E462C7"/>
		</linearGradient>
		<path class="st12" d="M71,77l-6.7-3.3c-5.2,8-15.9,10.4-23.9,5.2c-2.1-1.3-3.8-3.1-5.2-5.2L28.7,77c-2.9,1.5-4.8,4.5-4.8,7.8v17.1
			c0,1.6,1.3,2.9,2.9,2.9c0,0,0,0,0,0H73c1.6,0,2.9-1.3,2.9-2.9V84.7C75.8,81.5,74,78.5,71,77z"/>
		<path class="st7" d="M63.4,31.3c-12,5.1-27.2,3.9-32.1,17.2c0.5,1.7,1.1,3.4,1.9,4.9c2.7,5.1,6.7,9.8,12.1,12
			c1.6,0.7,3.3,1,5.1,0.9c1.8-0.2,3.5-0.8,5.1-1.8c4.2-2.2,8.2-5.2,10.5-9.3c3.3-6,1.9-15.4,1.9-22.1c0-2.8-0.6-4.3-1.5-5
			C65.8,29.5,64.7,30.6,63.4,31.3z"/>
		<path class="st4" d="M39.5,53.3c-0.6-2.6-0.3-5.4,0.9-7.9c1.4-2.3,3.6-4,6.1-5c2.8-1.1,5.7-2,8.7-2.8c2.9-0.8,5.7-2.2,8-4.2
			c1.6-1.4,2.7-3.3,3.2-5.3c-0.6,1.4-1.7,2.5-3,3.2c-12,5.1-27.2,3.9-32.1,17.2c0.5,1.7,1.1,3.4,1.9,4.9c2.7,5.1,6.7,9.8,12.1,12
			c0.5,0.2,1,0.4,1.5,0.5l-0.6-0.5C42.8,62.3,40.4,58,39.5,53.3z"/>
		<path class="st13" d="M40.5,98.5c-2.3-1.8-5.6-3.2-6.2-6.1c-0.4-2,0.8-4,1.8-5.8s1.9-4.1,1-5.9c-0.6-1.2-1.9-2-2.6-3.2
			c-0.5-1.1-0.5-2.4,0-3.5l-5.9,3c-2.9,1.5-4.8,4.5-4.8,7.8v17.1c0,1.6,1.3,2.9,2.9,2.9c0,0,0,0,0,0h17.9
			C43.9,102.3,42.5,100.1,40.5,98.5z"/>
		
			<linearGradient id="SVGID_6_" gradientUnits="userSpaceOnUse" x1="27.117" y1="252.7287" x2="66.0072" y2="252.7287" gradientTransform="matrix(1 0 0 -1 0 285.8898)">
			<stop  offset="0" style="stop-color:#3130EE"/>
			<stop  offset="0.42" style="stop-color:#5954FF"/>
			<stop  offset="1" style="stop-color:#6774FF"/>
		</linearGradient>
		<path class="st14" d="M61.9,27.2c-2.3,1.6-4.9,2.8-7.7,3.5c-5.3,1.7-10.8,3.1-15.6,5.9s-9.1,7-10.4,12.5c-1.5-2.6-1.4-5.7,0.2-8.2
			c1.1-1.7,2.9-3,3.9-4.8c1.5-2.8,1-6.5,3-8.9c1.6-2,4.3-2.6,6.9-2.6s5.1,0.5,7.6,0.1c2.3-0.3,4.4-1.3,6.2-2.9c1-0.9,1.8-2,2.8-2.9
			c1.9-1.8,6.1-2.7,7.1,0.6C66.7,22.3,63.9,25.7,61.9,27.2z"/>
		
			<linearGradient id="SVGID_7_" gradientUnits="userSpaceOnUse" x1="115.5698" y1="142.1198" x2="213.7501" y2="142.1198" gradientTransform="matrix(1 0 0 -1 0 285.8898)">
			<stop  offset="2.000000e-02" style="stop-color:#FBA200"/>
			<stop  offset="0.17" style="stop-color:#FBA600"/>
			<stop  offset="0.33" style="stop-color:#FDB300"/>
			<stop  offset="0.49" style="stop-color:#FFC600"/>
			<stop  offset="0.89" style="stop-color:#FFE658"/>
			<stop  offset="0.93" style="stop-color:#FFE75A"/>
			<stop  offset="0.95" style="stop-color:#FFE862"/>
			<stop  offset="0.96" style="stop-color:#FFEC70"/>
			<stop  offset="0.98" style="stop-color:#FFF083"/>
			<stop  offset="0.99" style="stop-color:#FFF69C"/>
			<stop  offset="1" style="stop-color:#FFFDBA"/>
			<stop  offset="1" style="stop-color:#FFFFC1"/>
		</linearGradient>
		<path class="st15" d="M206.1,132.3l-24.2-8.8l-17.3,5.8l-17.3-5.8l-24.2,8.8c-4.6,1.7-7.6,6-7.6,10.9v17.9c0,1.6,1.3,2.9,2.9,2.9
			c0,0,0,0,0,0h92.4c1.6,0,2.9-1.3,2.9-2.9v0v-17.9C213.8,138.3,210.7,134,206.1,132.3z"/>
		<rect x="147.3" y="103.3" class="st10" width="34.7" height="26"/>
		<g class="st16">
			<path class="st6" d="M176.5,121.5c-2,1.3-4.5,2.7-6.8,1.9c-2-0.7-3.2-2.9-5.3-3.2c-1.9-0.3-3.7,1-5.6,0.6
				c-2.3-0.5-3.3-3.7-2.1-5.8s3.7-3.1,6.1-3.1c2.4,0.1,4.8,0.4,7.1,1c3.8,0.7,7.9,0.6,11.1-1.6c0.4-0.3,0.7-0.5,1-0.8v-7.1h-34.6v26
				H182V118L176.5,121.5z"/>
		</g>
		<path class="st17" d="M164.7,129.3l-9.2,9.2c-1.1,1.1-3,1.1-4.1,0c-0.1-0.1-0.2-0.2-0.3-0.3l-9.6-12.6l2.5-5.3
			c0.7-1.4,2.4-2.1,3.9-1.4c0.1,0,0.2,0.1,0.3,0.1L164.7,129.3z"/>
		<path class="st17" d="M164.7,129.3l9.2,9.2c1.1,1.1,3,1.1,4.1,0c0.1-0.1,0.2-0.2,0.3-0.3l9.5-12.6l-2.5-5.3
			c-0.7-1.4-2.4-2.1-3.9-1.4c-0.1,0-0.2,0.1-0.3,0.1L164.7,129.3z"/>
		<path class="st17" d="M148.8,157.8c-1.1-1.6-1.7-3.6-2.9-5.2c-1.9-2.4-4.9-3.5-7.6-5.1s-5.2-4.1-4.9-7.2c0.4-3.3,3.8-5.2,6.8-6.5
			l16.2-7.3l-9.2-3.1l-24.2,8.8c-4.6,1.7-7.6,6-7.6,10.9v17.9c0,1.6,1.3,2.9,2.9,2.9c0,0,0,0,0,0h36.4c-0.4-0.5-0.8-0.9-1.2-1.4
			C152.1,161,150.1,159.7,148.8,157.8z"/>
		<path class="st4" d="M186.7,90.8h-43.6c-3.6,0-6.5-2.9-6.5-6.5l0,0c0-3.6,2.9-6.5,6.5-6.5h43.6c3.6,0,6.5,2.9,6.5,6.5l0,0
			C193.2,87.9,190.3,90.8,186.7,90.8z"/>
		<path class="st3" d="M136.4,71.5c-0.5-2.9-0.8-6.1,0.4-8.7c1.4-3,4.6-4.7,7.7-5.8c10.8-3.6,22.5-2.6,32.5,2.9
			c3.6,2,7,4.7,10.9,6.1c2.1,0.8,4.5,1.4,5.4,3.5c0.4,1.4,0.4,2.8-0.1,4.2l-3.4,14.4c-0.1,1.1-0.6,2.2-1.4,3c-1,0.8-2.4,0.8-3.6,0.7
			l-27.9-2.3c-4.7-0.4-14.4,0.8-17.2-4.2C137.4,81.4,137,75.8,136.4,71.5z"/>
		<path class="st4" d="M164.7,118.6L164.7,118.6c13.1,0,23.7-14.4,23.7-27.5V71.7c0-10.2-8.3-18.5-18.5-18.5h-10.4
			c-10.2,0-18.5,8.3-18.5,18.5l0,0v19.4C140.9,104.1,151.6,118.6,164.7,118.6z"/>
		<path class="st7" d="M161.8,111.1c-2.8-1.2-4.8-3.7-5.6-6.6c-0.9-4,1.1-8.1,0.7-12.1c-0.4-3.8-2.7-7.1-4.3-10.5s-2.2-8.2,0.3-10.8
			c2.9-3,7.6-1.2,11.1,0.7c5.1,2.7,10.2,5.4,15.8,6.6c2.8,0.6,5.7,0.8,8.5,0.4v10.1c-0.1,7.4-2.5,14.7-6.9,20.7
			c-3.6,1.5-7.4,2.5-11.3,2.8C167.3,112.5,164.4,112.2,161.8,111.1z"/>
		<path class="st3" d="M140.7,104.5c0,2,0.4,3.9,1.3,5.7c1.1,1.7,2.5,3.1,4.1,4.2c3.8,2.9,7.9,6,12.6,6.7c3.1,0.4,6.3,0,9.2-1.1
			c2.9-1.1,5.7-2.5,8.4-4.1c3.1-1.8,6.1-3.7,8.4-6.4c2.3-2.9,3.8-6.4,4.2-10.1c0.4-3.7,0.2-7.4-0.5-11c0-0.2-0.1-0.4-0.2-0.5
			c-0.4-0.3-0.9,0.3-1.1,0.8c-0.5,1.8-1.3,3.5-2.3,5.1c-1.1,1.6-2.6,2.8-4.4,3.3c-4.3,1.1-11.5-3.1-15.9-2.8
			c-3.6,0.3-6.7,2.9-10.3,3c-9.5,0.2-11.8-10.3-13.3-9c-1.1,1-0.4,6-0.4,7.5C140.4,98.8,140.5,101.6,140.7,104.5z"/>
		<path class="st3" d="M144.1,47.1c3.8-4.6,9.8-7,15.7-7.4c9.6-0.5,19,3.3,25.4,10.5c2.5,2.8,4.6,6.1,6,9.6c1.2,3,2,6.1,2.3,9.3
			c0.1,1,0.1,2.2-0.7,2.8c-1,0.8-2.6,0.2-3.4-0.9s-1.3-2.3-2.2-3.2c-1.7-1.7-4.5-1.7-6.7-1s-4.4,2-6.7,2.6c-3.5,0.9-7.3,0-10.7-1.3
			s-6.6-3.2-10-4.4c-2.5-0.9-5.3-1.2-7.9-0.9c-1,0.1-2.3,1-3,0.3s-1-2.3-1.2-3.1C140,55.5,141.1,50.7,144.1,47.1z"/>
		
			<linearGradient id="SVGID_8_" gradientUnits="userSpaceOnUse" x1="148.4852" y1="229.6383" x2="188.6895" y2="229.6383" gradientTransform="matrix(1 0 0 -1 0 285.8898)">
			<stop  offset="0" style="stop-color:#3130EE"/>
			<stop  offset="0.42" style="stop-color:#5954FF"/>
			<stop  offset="1" style="stop-color:#6774FF"/>
		</linearGradient>
		<path class="st18" d="M173.3,48.8c-6.5-2.9-14.5-3.2-20.6,0.4c-1.2,0.7-2.3,1.6-3.1,2.7c-0.9,1.1-1.2,2.6-1,4
			c0.4,1.8,1.9,3.2,3.4,4.3c7.3,5.3,17.2,7.5,25.5,4c1.3-0.6,2.7-1.2,4.1-1.6c0.9-0.3,1.9-0.3,2.9-0.1c1.1,0.2,1.7,1.1,2.6,1.5
			c1.7,0.7,1.9-1.1,1.4-2.4c-0.7-1.7-2.6-3.4-3.9-4.7c-1.5-1.6-3.1-3-4.9-4.3C177.7,51.1,175.6,49.8,173.3,48.8z"/>
	</g>
</g>
</svg>
