<?xml version="1.0" encoding="utf-8"?>
<!-- Generator: Adobe Illustrator 23.0.1, SVG Export Plug-In . SVG Version: 6.00 Build 0)  -->
<svg version="1.1" id="Layer_1" xmlns="http://www.w3.org/2000/svg" xmlns:xlink="http://www.w3.org/1999/xlink" x="0px" y="0px"
	 viewBox="0 0 220 220" style="enable-background:new 0 0 220 220;" xml:space="preserve">
<style type="text/css">
	.st0{opacity:0.29;fill:#E6E6E6;enable-background:new    ;}
	.st1{clip-path:url(#SVGID_2_);}
	.st2{opacity:0.46;fill:#E6E6E6;enable-background:new    ;}
	.st3{fill:#4C94C3;}
	.st4{fill:#AAFFCE;}
	.st5{fill:#63D6A0;}
	.st6{fill:#71EBB5;}
	.st7{clip-path:url(#SVGID_4_);}
	.st8{fill:#3BC3FF;}
	.st9{fill:#F4F5F7;}
	.st10{fill:#D1D0CD;}
	.st11{fill:#571C8A;}
	.st12{fill:#FCDF6A;}
	.st13{opacity:0.1;}
	.st14{fill:#FFFFFF;}
	.st15{opacity:0.1;fill:#FFFFFF;enable-background:new    ;}
</style>
<title>Zrodla_pod_reka</title>
<g>
	<g id="Layer_1-2">
		<circle class="st0" cx="110" cy="110" r="110"/>
		<g>
			<defs>
				<circle id="SVGID_1_" cx="110" cy="110" r="110"/>
			</defs>
			<clipPath id="SVGID_2_">
				<use xlink:href="#SVGID_1_"  style="overflow:visible;"/>
			</clipPath>
			<g class="st1">
				<path class="st2" d="M159.1,257.6c-10.1,5.2-20.6,10.6-31.9,11.3c-9.9,0.6-19.6-2.4-29-5.3l-37.4-11.7c-6.3-2-12.7-4-18.1-7.7
					s-9.8-9.5-10.2-16.1c-0.5-9.2,6.5-16.9,13-23.4s13.5-14.3,12.7-23.5c-0.9-11-12.2-18.1-16.3-28.3c-4.3-11.1,0.8-24,9.4-32.3
					s19.9-12.8,30.9-17.3s22.3-9.4,30.4-18.2c6-6.5,10-14.7,16.1-21c15.5-15.9,41-16.2,56.9-0.7c5.5,5.4,9.4,12.2,11.1,19.7
					c4.4,19.2-5.4,38.4-14.5,55.8c-2.9,5.6-5.9,11.7-5.4,18c0.6,8.4,7,15,12.1,21.7c12.9,16.8,19.6,37.5,19,58.7
					c-0.3,9.2-5.4,22.9-16.9,17.8c-4.1-1.8-7.4-3.9-12.1-3.9C172,251.1,165.2,254.4,159.1,257.6z"/>
			</g>
		</g>
		<path class="st3" d="M159.9,161.2h-3.2c-1.8,0-3.3-1.5-3.3-3.3c0-1.8,1.5-3.3,3.3-3.3h3.1c1.8,0,3.3,1.5,3.3,3.3
			S161.7,161.2,159.9,161.2C159.9,161.2,159.9,161.2,159.9,161.2L159.9,161.2z"/>
		<rect x="93" y="174.4" class="st4" width="33.3" height="18.4"/>
		<path class="st5" d="M126.3,174.4H93l1.8,3c2.1,3.6,6.2,5.5,10.3,4.8l0,0c3.3-0.6,6.7,0.6,9,3l1.2,1.3c1.1,1.2,2.5,2.1,4.1,2.6
			l6.9,2.4L126.3,174.4z"/>
		<path class="st6" d="M142,197.3H77.3c-1.7,0-3.1-1.4-3.1-3.1c0-1.7,1.4-3.1,3.1-3.1H142c1.7,0,3.1,1.4,3.1,3.1
			C145.1,195.9,143.7,197.3,142,197.3z"/>
		<path class="st4" d="M194,62.6v109.3c0,1.9-1.5,3.5-3.5,3.5h0H28.8c-1.9,0-3.5-1.5-3.5-3.4c0,0,0,0,0,0V62.6
			c0-2.9,2.3-5.2,5.2-5.2c0,0,0,0,0,0h158.3C191.6,57.4,194,59.7,194,62.6C194,62.6,194,62.6,194,62.6z"/>
		<g>
			<defs>
				<rect id="SVGID_3_" x="25.3" y="57.4" width="168.7" height="140"/>
			</defs>
			<clipPath id="SVGID_4_">
				<use xlink:href="#SVGID_3_"  style="overflow:visible;"/>
			</clipPath>
			<g class="st7">
				<rect x="118.3" y="83" class="st8" width="75.7" height="44.3"/>
			</g>
		</g>
		<path class="st3" d="M175.2,151.7h-47.8c-1.4,0.1-2.6-1-2.7-2.4s1-2.6,2.4-2.7c0.1,0,0.2,0,0.3,0h47.8c1.4-0.1,2.6,1,2.7,2.4
			s-1,2.6-2.4,2.7C175.4,151.7,175.3,151.7,175.2,151.7L175.2,151.7z"/>
		<path class="st3" d="M184.9,151.7h-2.4c-1.4,0.1-2.6-1-2.7-2.4s1-2.6,2.4-2.7c0.1,0,0.2,0,0.3,0h2.4c1.4,0.1,2.5,1.3,2.4,2.7
			C187.2,150.6,186.2,151.7,184.9,151.7z"/>
		<path class="st5" d="M188.8,57.4h-5.2c-0.3,1.5-0.9,2.9-1.8,4.2c-2.6,3.3-7.1,4.9-9,8.7s-0.5,8.3,1.1,12.2s3.6,8,2.7,12.1
			c-1.1,4.9-5.9,7.9-10.3,10.2s-9.3,4.8-11.3,9.4s-0.4,9.8,2.1,14s5.9,7.8,8.2,12.2s3.3,9.9,0.7,14c-1.8,2.9-5,4.6-8.3,5.6
			s-6.7,1.2-10.1,1.9c-8.8,1.9-16.7,6.7-22.4,13.6h65.3c1.9,0,3.5-1.5,3.5-3.5v0V62.6C194,59.7,191.6,57.4,188.8,57.4L188.8,57.4z"
			/>
		<rect x="25.3" y="66.5" class="st9" width="168.2" height="91.7"/>
		<path class="st10" d="M172.7,70.2c-1.9,3.8-0.5,8.3,1.1,12.2s3.6,8,2.7,12.1c-1.1,4.9-5.9,7.9-10.3,10.2s-9.3,4.8-11.3,9.4
			s-0.4,9.8,2.1,14s5.9,7.8,8.2,12.2s3.3,9.9,0.7,14c-1,1.6-2.5,2.9-4.1,3.8h31.7V66.5H176C174.6,67.5,173.5,68.7,172.7,70.2z"/>
		<path class="st11" d="M147.2,37.4v107.3c0,2.3-1.8,4.1-4.1,4.1H20c-2.3,0-4.1-1.8-4.1-4.1V37.4c0-2.3,1.8-4.1,4.1-4.1l0,0h123.1
			C145.4,33.3,147.2,35.1,147.2,37.4z"/>
		<path class="st9" d="M37.3,53.3h-0.2c-1.9-0.1-3.3-1.7-3.2-3.5c0.1-1.7,1.5-3.1,3.2-3.2h0.2c1.9,0.1,3.3,1.7,3.2,3.5
			C40.4,51.8,39.1,53.2,37.3,53.3z"/>
		<path class="st9" d="M60.3,53.3H47.8c-1.9-0.1-3.3-1.7-3.2-3.5c0.1-1.7,1.5-3.1,3.2-3.2h12.5c1.9,0.1,3.3,1.7,3.2,3.5
			C63.4,51.8,62,53.2,60.3,53.3z"/>
		<path class="st4" d="M37.3,64.3h-0.2c-1.9,0-3.4-1.5-3.4-3.3c0-1.9,1.5-3.4,3.4-3.4h0.2c1.9,0,3.4,1.5,3.4,3.4
			C40.7,62.9,39.2,64.3,37.3,64.3z"/>
		<path class="st4" d="M75.8,64.3h-28c-1.9,0-3.3-1.5-3.3-3.3c0-1.9,1.5-3.4,3.3-3.4h28c1.9,0,3.3,1.5,3.3,3.4
			C79.2,62.9,77.7,64.3,75.8,64.3z"/>
		<path class="st4" d="M37.3,75.4h-0.2c-1.9-0.1-3.3-1.7-3.2-3.5c0.1-1.7,1.5-3.1,3.2-3.2h0.2c1.9,0.1,3.3,1.7,3.2,3.5
			C40.4,73.9,39.1,75.3,37.3,75.4z"/>
		<path class="st4" d="M68.1,75.4H47.8c-1.9-0.1-3.3-1.7-3.2-3.5c0.1-1.7,1.5-3.1,3.2-3.2h20.3c1.9,0.1,3.3,1.7,3.2,3.5
			C71.2,73.9,69.8,75.3,68.1,75.4z"/>
		<path class="st4" d="M37.3,86.5h-0.2c-1.9,0-3.3-1.5-3.3-3.4c0-1.8,1.5-3.3,3.3-3.3h0.2c1.9,0,3.3,1.5,3.3,3.4
			C40.7,85,39.2,86.5,37.3,86.5z"/>
		<path class="st4" d="M99.1,86.5H66.6c-1.9,0-3.3-1.5-3.3-3.4c0-1.8,1.5-3.3,3.3-3.3h32.5c1.9,0,3.4,1.5,3.4,3.3
			C102.4,85,100.9,86.5,99.1,86.5C99.1,86.5,99.1,86.5,99.1,86.5z"/>
		<path class="st4" d="M57.3,86.5h-9.5c-1.9,0-3.3-1.5-3.3-3.4c0-1.8,1.5-3.3,3.3-3.3h9.5c1.9,0,3.4,1.5,3.4,3.3
			C60.7,85,59.2,86.5,57.3,86.5C57.4,86.5,57.4,86.5,57.3,86.5z"/>
		<path class="st12" d="M37.3,97.5h-0.2c-1.9,0-3.4-1.5-3.4-3.3c0-1.9,1.5-3.4,3.3-3.4c0,0,0,0,0,0h0.2c1.9,0,3.3,1.5,3.3,3.4
			C40.7,96,39.2,97.5,37.3,97.5z"/>
		<path class="st12" d="M75.8,97.5h-28c-1.9,0-3.3-1.5-3.3-3.4c0-1.8,1.5-3.3,3.3-3.3h28c1.9,0,3.4,1.5,3.4,3.3
			C79.2,96,77.7,97.5,75.8,97.5C75.8,97.5,75.8,97.5,75.8,97.5z"/>
		<path class="st12" d="M37.3,108.6h-0.2c-1.9-0.1-3.3-1.7-3.2-3.5c0.1-1.7,1.5-3.1,3.2-3.2h0.2c1.9,0.1,3.3,1.7,3.2,3.5
			C40.4,107.1,39.1,108.5,37.3,108.6z"/>
		<path class="st12" d="M75.8,108.6h-28c-1.9-0.1-3.3-1.7-3.2-3.5c0.1-1.7,1.5-3.1,3.2-3.2h28c1.9,0.1,3.3,1.7,3.2,3.5
			C78.9,107.1,77.5,108.5,75.8,108.6z"/>
		<path class="st9" d="M37.3,119.6h-0.2c-1.9,0-3.3-1.5-3.3-3.4c0-1.8,1.5-3.3,3.3-3.3h0.2c1.9,0,3.3,1.5,3.3,3.4
			C40.7,118.1,39.2,119.6,37.3,119.6z"/>
		<path class="st9" d="M101.6,119.6H90.7c-1.9,0-3.3-1.5-3.3-3.4c0-1.8,1.5-3.3,3.3-3.3h10.8c1.9,0,3.3,1.5,3.3,3.4
			C104.9,118.1,103.4,119.6,101.6,119.6z"/>
		<path class="st9" d="M80.9,119.6H47.8c-1.9,0-3.3-1.5-3.3-3.4c0-1.8,1.5-3.3,3.3-3.3h33.1c1.9,0,3.4,1.5,3.4,3.3
			C84.2,118.1,82.7,119.6,80.9,119.6C80.9,119.6,80.9,119.6,80.9,119.6z"/>
		<path class="st9" d="M37.3,130.7h-0.2c-1.9,0-3.4-1.5-3.4-3.3c0-1.9,1.5-3.4,3.3-3.4c0,0,0,0,0,0h0.2c1.9,0,3.3,1.5,3.3,3.4
			C40.7,129.2,39.2,130.7,37.3,130.7z"/>
		<path class="st9" d="M75.8,130.7h-28c-1.9,0-3.3-1.5-3.3-3.4c0-1.8,1.5-3.3,3.3-3.3h28c1.9,0,3.3,1.5,3.3,3.4
			C79.2,129.2,77.7,130.7,75.8,130.7z"/>
		<path class="st9" d="M86.5,130.7h-0.2c-1.9,0-3.3-1.5-3.3-3.4c0-1.8,1.5-3.3,3.3-3.3h0.2c1.9,0,3.3,1.5,3.3,3.4
			C89.9,129.2,88.4,130.7,86.5,130.7z"/>
		<path class="st9" d="M71,53.3h-0.2c-1.9-0.1-3.3-1.7-3.2-3.5c0.1-1.7,1.5-3.1,3.2-3.2H71c1.9-0.1,3.4,1.3,3.5,3.2
			c0.1,1.9-1.3,3.4-3.2,3.5C71.2,53.3,71.1,53.3,71,53.3z"/>
		<path class="st4" d="M77.2,75.4H77c-1.9-0.1-3.3-1.7-3.2-3.5c0.1-1.7,1.5-3.1,3.2-3.2h0.2c1.9-0.1,3.4,1.3,3.5,3.2
			c0.1,1.9-1.3,3.4-3.2,3.5C77.4,75.4,77.3,75.4,77.2,75.4z"/>
		<path class="st9" d="M95.5,130.7h-0.2c-1.9,0-3.3-1.5-3.3-3.4c0-1.8,1.5-3.3,3.3-3.3h0.2c1.9,0,3.3,1.5,3.3,3.4
			C98.8,129.2,97.3,130.7,95.5,130.7z"/>
		<path class="st9" d="M113.1,119.6h-0.2c-1.9,0-3.3-1.5-3.3-3.4c0-1.8,1.5-3.3,3.3-3.3h0.2c1.9,0,3.3,1.5,3.3,3.4
			C116.4,118.1,114.9,119.6,113.1,119.6z"/>
		<path class="st12" d="M86.4,108.7h-0.2c-1.9-0.1-3.3-1.7-3.2-3.5c0.1-1.7,1.5-3.1,3.2-3.2h0.2c1.9-0.1,3.4,1.3,3.5,3.2
			c0.1,1.9-1.3,3.4-3.2,3.5C86.6,108.7,86.5,108.7,86.4,108.7z"/>
		<path class="st12" d="M86.4,97.5h-0.2c-1.9,0-3.3-1.5-3.3-3.4c0-1.8,1.5-3.3,3.3-3.3h0.2c1.9,0,3.4,1.5,3.4,3.3
			C89.8,96,88.3,97.5,86.4,97.5C86.4,97.5,86.4,97.5,86.4,97.5z"/>
		<path class="st12" d="M95.5,108.7h-0.2c-1.9-0.1-3.3-1.7-3.2-3.5c0.1-1.7,1.5-3.1,3.2-3.2h0.2c1.9,0.1,3.3,1.7,3.2,3.5
			C98.5,107.3,97.2,108.6,95.5,108.7z"/>
		<path class="st12" d="M104.5,108.7h-0.2c-1.9-0.1-3.3-1.7-3.2-3.5c0.1-1.7,1.5-3.1,3.2-3.2h0.2c1.9,0.1,3.3,1.7,3.2,3.5
			C107.6,107.3,106.2,108.6,104.5,108.7z"/>
		<path class="st12" d="M113.6,108.7h-0.2c-1.9-0.1-3.3-1.7-3.2-3.5c0.1-1.7,1.5-3.1,3.2-3.2h0.2c1.9,0.1,3.3,1.7,3.2,3.5
			C116.7,107.3,115.3,108.6,113.6,108.7z"/>
		<g class="st13">
			<path class="st14" d="M74,129.5c5.4-2.8,10.8-7.1,11.6-13.1c0.8-5.5-2.5-10.6-5.3-15.4s-5.2-10.7-2.8-15.7c1.9-4,6.4-6,10.7-7.1
				s8.8-1.5,12.8-3.5c6.6-3.4,10.3-11,10.3-18.3s-3.3-14.4-7.9-20.2c-0.8-1-1.6-1.9-2.4-2.8H71.3c1,1,1.9,2,2.7,3.2
				c3.5,4.7,5.3,11.1,3.2,16.6c-3.7,9.6-17.6,13.5-18.8,23.7c-1.1,9.4,9.6,18.1,6.4,26.9c-1.3,3.5-4.5,5.9-8,7.2s-7.2,1.8-10.8,2.6
				c-11.6,2.7-22,8.8-30,17.6v13.7c0,2.3,1.8,4.1,4.1,4.1h34.4c0.5-3.5,2-6.9,4.2-9.6C62.6,134.5,68.6,132.3,74,129.5z"/>
		</g>
		<path class="st15" d="M115.2,40.7c2.8,5.9,4.1,12.5,3.8,19c-0.4,6.4-2.6,13-7.8,16.8c-4.2,3.1-9.6,3.8-14.6,5.4
			s-10.2,4.7-11.3,9.8c-1.1,5.3,2.6,10.3,5.8,14.7s6,10.4,3.2,15c-2,3.3-6.2,4.6-9.5,6.7c-4.9,3.2-7.9,8.6-10.6,13.7
			c-1.3,2.2-2.3,4.5-2.9,7h24.2c-0.5-0.8-1-1.6-1.3-2.6c-1.1-3.5,0.9-7.3,3.5-9.9s5.8-4.6,8.1-7.5c4.6-6.1,4.4-14.6-0.5-20.5
			c-1.7-1.9-3.8-3.4-5.5-5.3s-2.8-4.6-1.9-7.1c1.2-3.5,5.7-4.4,9.3-5.4c13.8-3.7,24.5-17,25-31.4c0.2-5.6-1.1-11.2-3.7-16.2
			c-1.2-2.3-3.8-7.1-6.8-9.8h-7.5C113.3,35.5,114.3,38.9,115.2,40.7z"/>
	</g>
</g>
</svg>
