<?xml version="1.0" encoding="iso-8859-1"?>
<!-- Generator: Adobe Illustrator 19.0.0, SVG Export Plug-In . SVG Version: 6.00 Build 0)  -->
<svg version="1.1" id="Capa_1" xmlns="http://www.w3.org/2000/svg" xmlns:xlink="http://www.w3.org/1999/xlink" x="0px" y="0px"
	 viewBox="0 0 490.88 490.88" style="enable-background:new 0 0 490.88 490.88;" xml:space="preserve">
<g>
	<g>
		<path d="M245.44,0C110.101,0,0,110.101,0,245.44s110.101,245.44,245.44,245.44s245.44-110.101,245.44-245.44S380.779,0,245.44,0z
			 M295.531,380.864c-2.091,2.091-4.821,3.115-7.552,3.115c-2.731,0-5.461-1.045-7.552-3.115l-128-128
			c-4.16-4.16-4.16-10.923,0-15.083l128-128c4.16-4.16,10.923-4.16,15.083,0c4.16,4.16,4.16,10.923,0,15.083L175.061,245.312
			l120.469,120.469C299.691,369.941,299.691,376.704,295.531,380.864z"/>
	</g>
</g>
<g>
</g>
<g>
</g>
<g>
</g>
<g>
</g>
<g>
</g>
<g>
</g>
<g>
</g>
<g>
</g>
<g>
</g>
<g>
</g>
<g>
</g>
<g>
</g>
<g>
</g>
<g>
</g>
<g>
</g>
</svg>
