<?xml version="1.0" encoding="iso-8859-1"?>
<!-- Generator: Adobe Illustrator 19.0.0, SVG Export Plug-In . SVG Version: 6.00 Build 0)  -->
<svg version="1.1" id="Capa_1" xmlns="http://www.w3.org/2000/svg" xmlns:xlink="http://www.w3.org/1999/xlink" x="0px" y="0px"
	 viewBox="0 0 512 512" style="enable-background:new 0 0 512 512;" xml:space="preserve">
<g>
	<path style="fill:#303C42;" d="M256,448c-5.896,0-10.667,4.771-10.667,10.667v42.667c0,5.896,4.771,10.667,10.667,10.667
		c5.896,0,10.667-4.771,10.667-10.667v-42.667C266.667,452.771,261.896,448,256,448z"/>
	<path style="fill:#303C42;" d="M142.563,38.198c-2.938-5.104-9.458-6.854-14.563-3.906c-5.104,2.948-6.854,9.469-3.896,14.573
		l10.667,18.479c1.958,3.417,5.563,5.333,9.229,5.333c1.813,0,3.646-0.458,5.333-1.427c5.104-2.948,6.854-9.469,3.896-14.573
		L142.563,38.198z"/>
	<path style="fill:#303C42;" d="M377.229,444.656c-2.938-5.104-9.479-6.844-14.563-3.906c-5.104,2.948-6.854,9.469-3.896,14.573
		l10.667,18.479c1.958,3.417,5.563,5.333,9.229,5.333c1.813,0,3.646-0.458,5.333-1.427c5.104-2.948,6.854-9.469,3.896-14.573
		L377.229,444.656z"/>
	<path style="fill:#303C42;" d="M67.333,134.76l-18.458-10.667c-5.083-2.906-11.604-1.198-14.563,3.906
		c-2.958,5.094-1.208,11.625,3.896,14.573l18.458,10.667c1.688,0.969,3.521,1.427,5.333,1.427c3.667,0,7.25-1.906,9.229-5.333
		C74.188,144.24,72.438,137.708,67.333,134.76z"/>
	<path style="fill:#303C42;" d="M473.792,369.427l-18.458-10.667c-5.063-2.917-11.604-1.198-14.563,3.906
		c-2.958,5.094-1.208,11.625,3.896,14.573l18.458,10.667c1.688,0.969,3.521,1.427,5.333,1.427c3.667,0,7.25-1.906,9.229-5.333
		C480.646,378.906,478.896,372.375,473.792,369.427z"/>
	<path style="fill:#303C42;" d="M64,256c0-5.896-4.771-10.667-10.667-10.667H10.667C4.771,245.333,0,250.104,0,256
		c0,5.896,4.771,10.667,10.667,10.667h42.667C59.229,266.667,64,261.896,64,256z"/>
	<path style="fill:#303C42;" d="M56.667,358.76l-18.458,10.667c-5.104,2.948-6.854,9.479-3.896,14.573
		c1.979,3.427,5.563,5.333,9.229,5.333c1.813,0,3.667-0.458,5.333-1.427l18.458-10.667c5.104-2.948,6.854-9.479,3.896-14.573
		C68.271,357.542,61.688,355.813,56.667,358.76z"/>
	<path style="fill:#303C42;" d="M149.333,440.75c-5.083-2.906-11.625-1.188-14.563,3.906l-10.667,18.479
		c-2.958,5.104-1.208,11.625,3.896,14.573c1.688,0.969,3.521,1.427,5.333,1.427c3.667,0,7.271-1.917,9.229-5.333l10.667-18.479
		C156.188,450.219,154.438,443.698,149.333,440.75z"/>
	<path style="fill:#303C42;" d="M256,0c-5.896,0-10.667,4.771-10.667,10.667V256c0,5.896,4.771,10.667,10.667,10.667h245.333
		c5.896,0,10.667-4.771,10.667-10.667C512,114.844,397.167,0,256,0z"/>
</g>
<path style="fill:#FBBE9D;" d="M266.667,245.333V21.573c120.917,5.438,218.313,102.844,223.771,223.76H266.667z"/>
<linearGradient id="SVGID_1_" gradientUnits="userSpaceOnUse" x1="-45.5301" y1="639.5552" x2="-23.8579" y2="629.4526" gradientTransform="matrix(21.3333 0 0 -21.3333 996.3334 13791.667)">
	<stop  offset="0" style="stop-color:#FFFFFF;stop-opacity:0.2"/>
	<stop  offset="1" style="stop-color:#FFFFFF;stop-opacity:0"/>
</linearGradient>
<path style="fill:url(#SVGID_1_);" d="M256,448c-5.896,0-10.667,4.771-10.667,10.667v42.667c0,5.896,4.771,10.667,10.667,10.667
	c5.896,0,10.667-4.771,10.667-10.667v-42.667C266.667,452.771,261.896,448,256,448z M142.563,38.198
	c-2.938-5.104-9.458-6.854-14.563-3.906c-5.104,2.948-6.854,9.469-3.896,14.573l10.667,18.479c1.958,3.417,5.563,5.333,9.229,5.333
	c1.813,0,3.646-0.458,5.333-1.427c5.104-2.948,6.854-9.469,3.896-14.573L142.563,38.198z M377.229,444.656
	c-2.938-5.104-9.479-6.844-14.563-3.906c-5.104,2.948-6.854,9.469-3.896,14.573l10.667,18.479c1.958,3.417,5.563,5.333,9.229,5.333
	c1.813,0,3.646-0.458,5.333-1.427c5.104-2.948,6.854-9.469,3.896-14.573L377.229,444.656z M67.333,134.76l-18.458-10.667
	c-5.083-2.906-11.604-1.198-14.563,3.906c-2.958,5.094-1.208,11.625,3.896,14.573l18.458,10.667
	c1.688,0.969,3.521,1.427,5.333,1.427c3.667,0,7.25-1.906,9.229-5.333C74.188,144.24,72.438,137.708,67.333,134.76z
	 M473.792,369.427l-18.458-10.667c-5.063-2.917-11.604-1.198-14.563,3.906c-2.958,5.094-1.208,11.625,3.896,14.573l18.458,10.667
	c1.688,0.969,3.521,1.427,5.333,1.427c3.667,0,7.25-1.906,9.229-5.333C480.646,378.906,478.896,372.375,473.792,369.427z M64,256
	c0-5.896-4.771-10.667-10.667-10.667H10.667C4.771,245.333,0,250.104,0,256c0,5.896,4.771,10.667,10.667,10.667h42.667
	C59.229,266.667,64,261.896,64,256z M56.667,358.76l-18.458,10.667c-5.104,2.948-6.854,9.479-3.896,14.573
	c1.979,3.427,5.563,5.333,9.229,5.333c1.813,0,3.667-0.458,5.333-1.427l18.458-10.667c5.104-2.948,6.854-9.479,3.896-14.573
	C68.271,357.542,61.688,355.813,56.667,358.76z M149.333,440.75c-5.083-2.906-11.625-1.188-14.563,3.906l-10.667,18.479
	c-2.958,5.104-1.208,11.625,3.896,14.573c1.688,0.969,3.521,1.427,5.333,1.427c3.667,0,7.271-1.917,9.229-5.333l10.667-18.479
	C156.188,450.219,154.438,443.698,149.333,440.75z M256,0c-5.896,0-10.667,4.771-10.667,10.667V256
	c0,5.896,4.771,10.667,10.667,10.667h245.333c5.896,0,10.667-4.771,10.667-10.667C512,114.844,397.167,0,256,0z"/>
<g>
</g>
<g>
</g>
<g>
</g>
<g>
</g>
<g>
</g>
<g>
</g>
<g>
</g>
<g>
</g>
<g>
</g>
<g>
</g>
<g>
</g>
<g>
</g>
<g>
</g>
<g>
</g>
<g>
</g>
</svg>
