<?xml version="1.0" encoding="iso-8859-1"?>
<!-- Generator: Adobe Illustrator 19.0.0, SVG Export Plug-In . SVG Version: 6.00 Build 0)  -->
<svg version="1.1" id="Capa_1" xmlns="http://www.w3.org/2000/svg" xmlns:xlink="http://www.w3.org/1999/xlink" x="0px" y="0px"
	 viewBox="0 0 512 512" style="enable-background:new 0 0 512 512;" xml:space="preserve">
<g>
	<path style="fill:#303C42;" d="M134.76,67.344c1.979,3.417,5.563,5.333,9.25,5.333c1.813,0,3.646-0.458,5.323-1.427
		c5.104-2.948,6.854-9.469,3.906-14.573l-10.667-18.479c-2.958-5.104-9.51-6.865-14.573-3.906
		c-5.104,2.948-6.854,9.469-3.906,14.573L134.76,67.344z"/>
	<path style="fill:#303C42;" d="M38.198,142.573l18.479,10.667c1.677,0.969,3.51,1.427,5.323,1.427c3.688,0,7.271-1.917,9.25-5.333
		c2.948-5.104,1.198-11.625-3.906-14.573l-18.479-10.667c-5.094-2.958-11.625-1.198-14.573,3.906
		C31.344,133.104,33.094,139.625,38.198,142.573z"/>
	<path style="fill:#303C42;" d="M256,0c-5.896,0-10.667,4.771-10.667,10.667v234.667H10.667C4.771,245.333,0,250.104,0,256
		c0,141.156,114.844,256,256,256s256-114.844,256-256S397.156,0,256,0z"/>
</g>
<path style="fill:#FBBE9D;" d="M256,490.667c-125.823,0-228.823-99.542-234.427-224H256c5.896,0,10.667-4.771,10.667-10.667V21.573
	c124.458,5.604,224,108.604,224,234.427C490.667,385.396,385.396,490.667,256,490.667z"/>
<linearGradient id="SVGID_1_" gradientUnits="userSpaceOnUse" x1="-45.5396" y1="639.537" x2="-23.8279" y2="629.4136" gradientTransform="matrix(21.3333 0 0 -21.3333 996.3334 13791.667)">
	<stop  offset="0" style="stop-color:#FFFFFF;stop-opacity:0.2"/>
	<stop  offset="1" style="stop-color:#FFFFFF;stop-opacity:0"/>
</linearGradient>
<path style="fill:url(#SVGID_1_);" d="M134.76,67.344c1.979,3.417,5.563,5.333,9.25,5.333c1.813,0,3.646-0.458,5.323-1.427
	c5.104-2.948,6.854-9.469,3.906-14.573l-10.667-18.479c-2.958-5.104-9.51-6.865-14.573-3.906c-5.104,2.948-6.854,9.469-3.906,14.573
	L134.76,67.344z M38.198,142.573l18.479,10.667c1.677,0.969,3.51,1.427,5.323,1.427c3.688,0,7.271-1.917,9.25-5.333
	c2.948-5.104,1.198-11.625-3.906-14.573l-18.479-10.667c-5.094-2.958-11.625-1.198-14.573,3.906
	C31.344,133.104,33.094,139.625,38.198,142.573z M256,0c-5.896,0-10.667,4.771-10.667,10.667v234.667H10.667
	C4.771,245.333,0,250.104,0,256c0,141.156,114.844,256,256,256s256-114.844,256-256S397.156,0,256,0z"/>
<g>
</g>
<g>
</g>
<g>
</g>
<g>
</g>
<g>
</g>
<g>
</g>
<g>
</g>
<g>
</g>
<g>
</g>
<g>
</g>
<g>
</g>
<g>
</g>
<g>
</g>
<g>
</g>
<g>
</g>
</svg>
