<?xml version="1.0" encoding="iso-8859-1"?>
<!-- Generator: Adobe Illustrator 19.0.0, SVG Export Plug-In . SVG Version: 6.00 Build 0)  -->
<svg version="1.1" id="Layer_1" xmlns="http://www.w3.org/2000/svg" xmlns:xlink="http://www.w3.org/1999/xlink" x="0px" y="0px"
	 viewBox="0 0 461.369 461.369" style="enable-background:new 0 0 461.369 461.369;" xml:space="preserve">
<g>
	<polygon style="fill:#F7B239;" points="438.009,316.925 433.968,341.851 431.072,359.655 405.254,359.655 405.254,316.925 	"/>
	<polygon style="fill:#F7B239;" points="56.115,316.925 56.115,359.655 30.297,359.655 27.402,341.851 23.35,316.925 	"/>
	<polygon style="opacity:0.44;fill:#333333;enable-background:new    ;" points="23.35,316.925 56.115,316.925 56.115,341.851 
		27.402,341.851 	"/>
	<polygon style="opacity:0.44;fill:#333333;enable-background:new    ;" points="438.009,316.925 433.968,341.851 405.254,341.851 
		405.254,316.925 	"/>
	<path style="fill:#F2F2F2;" d="M206.55,139.314c16.07,16.89,26.13,33.72,31.67,44.17c-7,7.58-21.07,14.48-36.67,19.8h-55.92h-33.87
		c-15.6-5.32-29.67-12.22-36.67-19.8c5.54-10.45,15.58-27.28,31.67-44.17c15.4-16.62,36.84-33.28,49.89-37.39
		C169.7,106.034,191.13,122.694,206.55,139.314z"/>
	<path style="opacity:0.44;fill:#333333;enable-background:new    ;" d="M166.79,105.444c-6.739-4.632-5.081-1.927-10.14-3.52
		c-13.05,4.11-34.49,20.77-49.89,37.39c-16.09,16.89-26.13,33.72-31.67,44.17c4.651,5.036,23.433,14.788,32.7,18.96
		C116.79,153.444,153.172,114.359,166.79,105.444z"/>
	<path style="fill:#F24125;" d="M174.91,232.564H51.49v-18.68c0-5.85,4.75-10.6,10.6-10.6h49.67h33.87L174.91,232.564z"/>
	<path style="opacity:0.44;fill:#333333;enable-background:new    ;" d="M85.09,203.284h-23c-5.85,0-10.6,4.75-10.6,10.6v18.68h23
		v-18.68C74.49,208.034,79.24,203.284,85.09,203.284z"/>
	<path style="fill:#F24125;" d="M409.88,213.884v18.68H286.46l29.28-29.28h83.54C405.13,203.284,409.88,208.034,409.88,213.884z"/>
	<polygon style="fill:#F7B239;" points="431.26,232.564 431.26,316.924 30.1,316.924 30.1,232.564 51.49,232.564 174.91,232.564 
		230.68,288.334 286.46,232.564 409.88,232.564 	"/>
	<polygon style="fill:#F7B239;" points="455.37,181.754 455.37,316.924 439.33,316.924 431.26,316.924 431.26,232.564 
		431.26,181.754 	"/>
	<path style="opacity:0.44;fill:#333333;enable-background:new    ;" d="M282.74,203.284l-29.28,29.28l-34.031,52.226
		c-2.809,4.311-8.981,4.69-12.297,0.756l-69.343-82.262h30.76L282.74,203.284L282.74,203.284z"/>
	<polygon style="fill:#F7B239;" points="30.1,232.564 30.1,316.924 22.03,316.924 6,316.924 6,101.714 30.1,101.714 	"/>
	<path style="fill:#FFFFFF;" d="M392.045,259.935c-0.002,0-0.005,0-0.008,0l-92.255-0.118c-3.313-0.004-5.997-2.694-5.992-6.008
		c0.004-3.311,2.69-5.992,6-5.992c0.002,0,0.005,0,0.008,0l92.255,0.118c3.313,0.004,5.997,2.694,5.992,6.008
		C398.041,257.254,395.355,259.935,392.045,259.935z"/>
	<path style="fill:#FFFFFF;" d="M410.808,259.814c-1.58,0-3.12-0.64-4.24-1.75c-0.28-0.28-0.53-0.59-0.75-0.92
		c-0.21-0.32-0.4-0.67-0.55-1.03c-0.15-0.36-0.26-0.74-0.34-1.12c-0.08-0.39-0.12-0.79-0.12-1.18s0.04-0.78,0.12-1.17
		c0.08-0.38,0.19-0.76,0.34-1.12s0.34-0.71,0.55-1.04c0.22-0.33,0.47-0.63,0.75-0.91c1.12-1.12,2.66-1.76,4.24-1.76
		s3.13,0.64,4.24,1.76c0.28,0.28,0.53,0.58,0.75,0.91s0.4,0.68,0.55,1.04s0.27,0.74,0.34,1.12c0.08,0.39,0.12,0.78,0.12,1.17
		s-0.04,0.79-0.12,1.18c-0.07,0.38-0.19,0.76-0.34,1.12c-0.15,0.36-0.33,0.71-0.55,1.03c-0.22,0.33-0.47,0.64-0.75,0.92
		C413.938,259.174,412.388,259.814,410.808,259.814z"/>
	<polygon style="fill:#F2F2F2;" points="315.74,203.284 286.46,232.564 230.68,288.334 174.91,232.564 145.63,203.284 
		201.55,203.284 	"/>
	<path style="fill:#333333;" d="M455.37,175.754h-24.11c-3.313,0-6,2.687-6,6v44.81h-9.38v-12.68c0-9.153-7.447-16.6-16.6-16.6
		H229.957c4.925-2.898,9.362-6.147,12.67-9.729c1.729-1.872,2.086-4.63,0.894-6.881c-8.903-16.793-19.88-32.1-32.573-45.44
		c-14.655-15.795-37.393-34.275-52.496-39.032c-1.174-0.37-2.432-0.37-3.605,0c-15.129,4.765-37.857,23.244-52.432,38.974
		c-12.727,13.36-23.704,28.667-32.627,45.498c-1.193,2.251-0.835,5.01,0.894,6.881c3.308,3.583,7.745,6.831,12.67,9.729H62.09
		c-9.153,0-16.6,7.447-16.6,16.6v12.68H36.1v-124.85c0-3.314-2.687-6-6-6H6c-3.313,0-6,2.686-6,6v215.21c0,3.314,2.687,6,6,6h12.246
		l6.129,37.694c0.472,2.904,2.98,5.037,5.922,5.037h25.818c3.313,0,6-2.687,6-6v-36.731h337.139v36.731c0,3.313,2.687,6,6,6h25.818
		c2.942,0,5.451-2.134,5.922-5.039l6.119-37.693h12.256c3.313,0,6-2.687,6-6v-135.17C461.37,178.441,458.683,175.754,455.37,175.754
		z M399.28,209.284c2.537,0,4.6,2.063,4.6,4.6v12.68H300.943l17.282-17.28H399.28z M301.253,209.284l-70.573,70.565l-70.565-70.565
		H301.253z M82.58,182.277c7.992-14.285,17.578-27.333,28.582-38.885c14.764-15.934,33.833-30.59,45.488-35.109
		c11.639,4.515,30.715,19.175,45.554,35.167c10.968,11.528,20.55,24.573,28.527,38.827c-6.298,5.137-16.791,10.363-30.195,15.007
		h-87.76C99.369,192.64,88.878,187.414,82.58,182.277z M57.49,213.884c0-2.536,2.063-4.6,4.6-4.6h81.055l17.28,17.28H57.49V213.884z
		 M36.1,238.564h136.325l54.013,54.013c1.172,1.171,2.707,1.757,4.243,1.757c1.535,0,3.071-0.586,4.242-1.757l54.02-54.013H425.26
		v72.36H36.1V238.564z M12,107.714h12.1v203.21H12V107.714z M50.115,353.656H35.4l-4.997-30.731h19.711L50.115,353.656
		L50.115,353.656z M425.967,353.656h-14.713v-30.731h19.702L425.967,353.656z M449.37,310.924h-12.11v-123.17h12.11V310.924z"/>
</g>
<g>
</g>
<g>
</g>
<g>
</g>
<g>
</g>
<g>
</g>
<g>
</g>
<g>
</g>
<g>
</g>
<g>
</g>
<g>
</g>
<g>
</g>
<g>
</g>
<g>
</g>
<g>
</g>
<g>
</g>
</svg>
