<?xml version="1.0" encoding="iso-8859-1"?>
<!-- Generator: Adobe Illustrator 19.0.0, SVG Export Plug-In . SVG Version: 6.00 Build 0)  -->
<svg version="1.1" id="Layer_1" xmlns="http://www.w3.org/2000/svg" xmlns:xlink="http://www.w3.org/1999/xlink" x="0px" y="0px"
	 viewBox="0 0 512 512" style="enable-background:new 0 0 512 512;" xml:space="preserve">
<path style="fill:#D7F3FF;" d="M460.8,261.389v37.726H8.084v-37.726V153.6c0-47.625,38.607-86.232,86.232-86.232h118.195
	c41.518,0,81.202,17.106,109.71,47.29L460.8,261.389z"/>
<path style="fill:#B5E1F4;" d="M148.211,288.337H8.084V153.6c0-47.625,38.607-86.232,86.232-86.232h53.895V288.337z"/>
<path style="fill:#AF7AAE;" d="M8.084,261.389H460.8c23.812,0,43.116,19.304,43.116,43.116v21.558
	c0,35.718-28.956,64.674-64.674,64.674H72.758c-35.718,0-64.674-28.955-64.674-64.674V261.389z"/>
<path style="fill:#8E5B8E;" d="M501.406,289.997c1.62,4.535,2.509,9.416,2.509,14.508v21.558c0,35.718-28.956,64.674-64.674,64.674
	H72.758c-35.718,0-64.674-28.955-64.674-64.674v-53.895c0,35.718,28.955,64.674,64.674,64.674h366.484
	C468.773,336.842,493.664,317.041,501.406,289.997z"/>
<path style="fill:#93D6BB;" d="M191.326,385.347c0,32.742-26.542,59.284-59.284,59.284s-59.284-26.542-59.284-59.284
	s26.542-59.284,59.284-59.284S191.326,352.605,191.326,385.347z M390.737,326.063c-32.742,0-59.284,26.542-59.284,59.284
	s26.542,59.284,59.284,59.284s59.284-26.542,59.284-59.284S423.479,326.063,390.737,326.063z"/>
<path style="fill:#5B7A7F;" d="M155.756,385.347c0,13.096-10.617,23.714-23.714,23.714s-23.714-10.617-23.714-23.714
	s10.617-23.714,23.714-23.714S155.756,372.251,155.756,385.347z M390.737,361.634c-13.096,0-23.714,10.617-23.714,23.714
	s10.617,23.714,23.714,23.714c13.096,0,23.714-10.617,23.714-23.714S403.833,361.634,390.737,361.634z"/>
<path style="fill:#8E5B8E;" d="M374.568,229.053h-32.337c-11.906,0-21.558,9.651-21.558,21.558l0,0
	c0,11.906,9.651,21.558,21.558,21.558h32.337c11.906,0,21.558-9.651,21.558-21.558l0,0
	C396.126,238.704,386.475,229.053,374.568,229.053z"/>
<path d="M26.947,444.632c0,4.466-3.618,8.084-8.084,8.084H8.084c-4.466,0-8.084-3.618-8.084-8.084s3.618-8.084,8.084-8.084h10.779
	C23.329,436.547,26.947,440.166,26.947,444.632z M299.116,285.642h-21.558c-4.466,0-8.084,3.618-8.084,8.084
	c0,4.466,3.618,8.084,8.084,8.084h21.558c4.466,0,8.084-3.618,8.084-8.084C307.2,289.261,303.582,285.642,299.116,285.642z
	 M512,304.505v21.558c0,33.684-22.728,62.461-54.835,70.536c-2.682,15.884-10.942,29.898-22.69,39.948H460.8
	c4.466,0,8.084,3.618,8.084,8.084s-3.618,8.084-8.084,8.084H202.105c-4.466,0-8.084-3.618-8.084-8.084s3.618-8.084,8.084-8.084
	h144.893c-11.196-9.578-19.225-22.759-22.276-37.726H198.057c-6.26,30.711-33.482,53.895-66.015,53.895
	c-1.344,0-2.682-0.04-4.008-0.117c-0.448,0.078-0.911,0.117-1.382,0.117H51.2c-4.466,0-8.084-3.618-8.084-8.084
	s3.618-8.084,8.084-8.084h37.103c-11.275-9.645-19.337-22.943-22.339-38.041C29.017,395.071,0,363.893,0,326.063V153.6
	c0-52.006,42.31-94.316,94.316-94.316H212.51c43.553,0,85.684,18.16,115.588,49.825l136.304,144.323
	C490.959,255.286,512,277.486,512,304.505z M156.295,253.305H312.71c-0.08-0.887-0.121-1.787-0.121-2.695
	c0-16.344,13.298-29.642,29.642-29.642h32.337c16.344,0,29.642,13.298,29.642,29.642c0,0.908-0.041,1.808-0.121,2.695h37.956
	L316.344,120.209c-26.862-28.442-64.708-44.756-103.834-44.756h-56.215V253.305z M183.242,385.347c0-28.231-22.969-51.2-51.2-51.2
	s-51.2,22.969-51.2,51.2s22.969,51.2,51.2,51.2S183.242,413.578,183.242,385.347z M441.937,385.347c0-28.231-22.969-51.2-51.2-51.2
	c-28.231,0-51.2,22.969-51.2,51.2s22.969,51.2,51.2,51.2C418.968,436.547,441.937,413.578,441.937,385.347z M495.832,304.505
	c0-19.31-15.704-35.022-35.012-35.032c-0.011,0-0.025,0-0.038,0h-63.363c-5.442,6.579-13.664,10.779-22.849,10.779
	c-4.466,0-8.084-3.618-8.084-8.084c0-4.466,3.618-8.084,8.084-8.084c7.43,0,13.474-6.044,13.474-13.474
	c0-7.43-6.044-13.474-13.474-13.474h-32.337c-7.43,0-13.474,6.044-13.474,13.474c0,7.43,6.044,13.474,13.474,13.474
	c4.466,0,8.084,3.618,8.084,8.084c0,4.466-3.618,8.084-8.084,8.084c-9.185,0-17.407-4.199-22.849-10.779H156.295v24.253
	c0,4.466-3.618,8.084-8.084,8.084c-4.466,0-8.084-3.618-8.084-8.084v-24.253H72.758c-4.466,0-8.084-3.618-8.084-8.084
	s3.618-8.084,8.084-8.084h67.368V75.453H94.316c-43.091,0-78.147,35.056-78.147,78.147v99.705h24.253
	c4.466,0,8.084,3.618,8.084,8.084s-3.618,8.084-8.084,8.084H16.168v56.589c0,28.487,21.158,52.123,48.583,56.026
	c1.706-35.641,31.236-64.11,67.291-64.11c36.244,0,65.896,28.77,67.315,64.674h124.066c1.419-35.904,31.07-64.674,67.315-64.674
	c35.19,0,64.165,27.122,67.12,61.56c22.474-7.748,37.974-28.938,37.974-53.475V304.505z M422.535,385.347
	c0,17.534-14.264,31.798-31.798,31.798c-17.534,0-31.798-14.264-31.798-31.798s14.264-31.798,31.798-31.798
	C408.271,353.549,422.535,367.813,422.535,385.347z M406.366,385.347c0-8.618-7.012-15.629-15.629-15.629
	s-15.629,7.012-15.629,15.629s7.012,15.629,15.629,15.629S406.366,393.965,406.366,385.347z M163.84,385.347
	c0,17.534-14.264,31.798-31.798,31.798s-31.798-14.264-31.798-31.798s14.264-31.798,31.798-31.798S163.84,367.813,163.84,385.347z
	 M147.672,385.347c0-8.618-7.012-15.629-15.629-15.629s-15.629,7.012-15.629,15.629s7.012,15.629,15.629,15.629
	S147.672,393.965,147.672,385.347z"/>
<g>
</g>
<g>
</g>
<g>
</g>
<g>
</g>
<g>
</g>
<g>
</g>
<g>
</g>
<g>
</g>
<g>
</g>
<g>
</g>
<g>
</g>
<g>
</g>
<g>
</g>
<g>
</g>
<g>
</g>
</svg>
