<?xml version="1.0" encoding="iso-8859-1"?>
<!-- Generator: Adobe Illustrator 19.0.0, SVG Export Plug-In . SVG Version: 6.00 Build 0)  -->
<svg version="1.1" id="Layer_1" xmlns="http://www.w3.org/2000/svg" xmlns:xlink="http://www.w3.org/1999/xlink" x="0px" y="0px"
	 viewBox="0 0 512 512" style="enable-background:new 0 0 512 512;" xml:space="preserve">
<path style="fill:#9E9E9E;" d="M51.2,8.533h409.6c9.429,0,17.067,7.637,17.067,17.067v426.667c0,9.429-7.637,17.067-17.067,17.067
	H51.2c-9.429,0-17.067-7.637-17.067-17.067V25.6C34.133,16.171,41.771,8.533,51.2,8.533z"/>
<path style="fill:#F5F5F5;" d="M51.2,8.533h375.467c9.429,0,17.067,7.637,17.067,17.067v426.667c0,9.429-7.637,17.067-17.067,17.067
	H51.2c-9.429,0-17.067-7.637-17.067-17.067V25.6C34.133,16.171,41.771,8.533,51.2,8.533z"/>
<path style="fill:#1566C0;" d="M315.733,153.6c-70.69,0-128,57.31-128,128s57.31,128,128,128s128-57.31,128-128
	S386.423,153.6,315.733,153.6z"/>
<path d="M460.8,477.867H51.2c-14.14,0-25.6-11.46-25.6-25.6V25.6C25.6,11.46,37.06,0,51.2,0h409.6c14.14,0,25.6,11.46,25.6,25.6
	v426.667C486.4,466.406,474.94,477.867,460.8,477.867z M51.2,17.067c-4.71,0-8.533,3.823-8.533,8.533v426.667
	c0,4.71,3.823,8.533,8.533,8.533h409.6c4.71,0,8.533-3.823,8.533-8.533V25.6c0-4.71-3.823-8.533-8.533-8.533H51.2z"/>
<path d="M315.733,418.133c-36.685,0.094-71.842-14.686-97.451-40.96c-52.796-53.837-51.951-140.279,1.886-193.075
	c9.429-9.242,20.147-17.075,31.821-23.245c66.688-35.2,149.282-9.668,184.474,57.02s9.668,149.282-57.02,184.474
	C359.808,412.715,337.937,418.133,315.733,418.133z M315.733,162.133c-65.98,0-119.467,53.487-119.467,119.467
	s53.487,119.467,119.467,119.467S435.2,347.58,435.2,281.6c0.521-65.459-52.122-118.946-117.581-119.467
	C316.988,162.125,316.365,162.125,315.733,162.133z"/>
<g>
	<path style="fill:#424242;" d="M59.733,469.333H128l0,0v25.6c0,4.71-3.823,8.533-8.533,8.533h-51.2
		c-4.71,0-8.533-3.823-8.533-8.533V469.333L59.733,469.333z"/>
	<path style="fill:#424242;" d="M384,469.333h68.267l0,0v25.6c0,4.71-3.823,8.533-8.533,8.533h-51.2
		c-4.71,0-8.533-3.823-8.533-8.533V469.333L384,469.333z"/>
</g>
<path d="M119.467,512h-51.2c-9.429,0-17.067-7.637-17.067-17.067v-25.6c0-4.71,3.823-8.533,8.533-8.533H128
	c4.71,0,8.533,3.823,8.533,8.533v25.6C136.533,504.363,128.896,512,119.467,512z M68.267,477.867v17.067h51.2v-17.067H68.267z"/>
<path d="M443.733,512h-51.2c-9.429,0-17.067-7.637-17.067-17.067v-25.6c0-4.71,3.823-8.533,8.533-8.533h68.267
	c4.71,0,8.533,3.823,8.533,8.533v25.6C460.8,504.363,453.163,512,443.733,512z M392.533,477.867v17.067h51.2v-17.067H392.533z"/>
<path d="M477.867,418.133H34.133c-4.71,0-8.533-3.823-8.533-8.533c0-4.71,3.823-8.533,8.533-8.533h443.733
	c4.71,0,8.533,3.823,8.533,8.533C486.4,414.31,482.577,418.133,477.867,418.133z"/>
<path d="M477.867,128H34.133c-4.71,0-8.533-3.823-8.533-8.533c0-4.71,3.823-8.533,8.533-8.533h443.733
	c4.71,0,8.533,3.823,8.533,8.533C486.4,124.177,482.577,128,477.867,128z"/>
<circle style="fill:#424242;" cx="413.867" cy="64" r="21.333"/>
<path d="M413.867,93.867C397.372,93.867,384,80.495,384,64s13.372-29.867,29.867-29.867c16.495,0,29.867,13.372,29.867,29.867
	S430.362,93.867,413.867,93.867z M413.867,51.2c-7.066,0-12.8,5.734-12.8,12.8c0,7.066,5.734,12.8,12.8,12.8
	c7.066,0,12.8-5.734,12.8-12.8C426.667,56.934,420.932,51.2,413.867,51.2z"/>
<path d="M68.267,93.867c-4.71,0-8.533-3.823-8.533-8.533V42.667c0-4.71,3.823-8.533,8.533-8.533s8.533,3.823,8.533,8.533v42.667
	C76.8,90.044,72.977,93.867,68.267,93.867z"/>
<path d="M102.4,93.867c-4.71,0-8.533-3.823-8.533-8.533V42.667c0-4.71,3.823-8.533,8.533-8.533c4.71,0,8.533,3.823,8.533,8.533
	v42.667C110.933,90.044,107.11,93.867,102.4,93.867z"/>
<path d="M136.533,93.867c-4.71,0-8.533-3.823-8.533-8.533V42.667c0-4.71,3.823-8.533,8.533-8.533s8.533,3.823,8.533,8.533v42.667
	C145.067,90.044,141.244,93.867,136.533,93.867z"/>
<path d="M170.667,93.867c-4.71,0-8.533-3.823-8.533-8.533V42.667c0-4.71,3.823-8.533,8.533-8.533s8.533,3.823,8.533,8.533v42.667
	C179.2,90.044,175.377,93.867,170.667,93.867z"/>
<path style="fill:#1566C0;" d="M224.427,371.2c9.242,9.463,19.891,17.434,31.573,23.637
	c-62.541,32.956-139.955,8.977-172.911-53.564s-8.986-139.955,53.555-172.911c37.35-19.686,82.005-19.686,119.356,0
	c-62.507,33.015-86.417,110.455-53.402,172.962C208.393,352.29,215.74,362.351,224.427,371.2z"/>
<path d="M196.267,418.133c-75.409-0.009-136.525-61.141-136.516-136.55c0-75.401,61.141-136.525,136.542-136.516
	c22.204,0,44.075,5.419,63.718,15.787c4.173,2.193,5.777,7.356,3.575,11.529c-0.802,1.527-2.048,2.773-3.575,3.575
	c-58.359,30.78-80.717,103.04-49.937,161.399c5.393,10.223,12.237,19.61,20.326,27.87l0,0c8.619,8.815,18.551,16.239,29.44,22.016
	c4.173,2.193,5.777,7.356,3.575,11.529c-0.802,1.527-2.048,2.773-3.575,3.575C240.23,412.664,218.419,418.074,196.267,418.133z
	 M196.267,162.133c-65.98,0.009-119.458,53.504-119.45,119.484c0.009,65.98,53.495,119.458,119.475,119.45
	c14.148,0,28.177-2.517,41.446-7.424c-61.858-43.127-77.039-128.23-33.911-190.089c4.352-6.238,9.216-12.1,14.541-17.527
	c5.948-6.093,12.467-11.605,19.456-16.469C224.529,164.617,210.449,162.099,196.267,162.133z"/>
<path style="fill:#0377BC;" d="M187.733,281.6c-0.043,33.536,13.141,65.732,36.693,89.6c-9.122,2.816-18.611,4.258-28.16,4.267
	c-51.84,0-93.867-42.027-93.867-93.867s42.027-93.867,93.867-93.867c9.549,0.009,19.038,1.451,28.16,4.267
	C200.875,215.868,187.691,248.064,187.733,281.6z"/>
<path d="M196.267,384c-56.55,0-102.4-45.85-102.4-102.4s45.85-102.4,102.4-102.4c10.385,0,20.71,1.553,30.635,4.608
	c4.497,1.408,7.006,6.195,5.598,10.692c-0.41,1.306-1.135,2.5-2.099,3.473c-45.534,46.455-45.534,120.798,0,167.253
	c3.311,3.354,3.285,8.755-0.068,12.066c-0.981,0.973-2.193,1.698-3.516,2.099C216.917,382.438,206.626,383.991,196.267,384z
	 M196.267,196.267c-47.13,0.094-85.257,38.374-85.171,85.495c0.094,47.13,38.374,85.257,85.495,85.171
	c3.968-0.009,7.936-0.29,11.87-0.853c-38.989-49.545-38.989-119.33,0-168.875C204.433,196.599,200.354,196.292,196.267,196.267z"/>
<path style="fill:#0377BC;" d="M315.733,375.467c-9.549-0.009-19.038-1.451-28.16-4.267
	c-49.485-15.454-77.073-68.096-61.619-117.581c9.182-29.406,32.213-52.437,61.619-61.619c9.122-2.816,18.611-4.258,28.16-4.267
	c51.84,0,93.867,42.027,93.867,93.867S367.573,375.467,315.733,375.467z"/>
<path d="M315.733,384c-10.385,0-20.71-1.553-30.635-4.608c-53.982-16.853-84.087-74.274-67.243-128.256
	c10.018-32.094,35.149-57.225,67.243-67.243c9.924-3.081,20.25-4.659,30.635-4.693c56.55,0,102.4,45.85,102.4,102.4
	S372.284,384,315.733,384z M315.733,196.267c-8.678,0.026-17.314,1.348-25.6,3.925c-44.988,14.054-70.059,61.918-56.004,106.897
	c8.346,26.726,29.278,47.65,56.004,56.004c8.294,2.551,16.922,3.84,25.6,3.84c47.13,0,85.333-38.204,85.333-85.333
	S362.863,196.267,315.733,196.267z"/>
<path d="M477.867,298.667H34.133c-4.71,0-8.533-3.823-8.533-8.533c0-4.71,3.823-8.533,8.533-8.533h443.733
	c4.71,0,8.533,3.823,8.533,8.533C486.4,294.844,482.577,298.667,477.867,298.667z"/>
<g>
</g>
<g>
</g>
<g>
</g>
<g>
</g>
<g>
</g>
<g>
</g>
<g>
</g>
<g>
</g>
<g>
</g>
<g>
</g>
<g>
</g>
<g>
</g>
<g>
</g>
<g>
</g>
<g>
</g>
</svg>
