<?xml version="1.0" encoding="iso-8859-1"?>
<!-- Generator: Adobe Illustrator 19.0.0, SVG Export Plug-In . SVG Version: 6.00 Build 0)  -->
<svg version="1.1" id="Layer_1" xmlns="http://www.w3.org/2000/svg" xmlns:xlink="http://www.w3.org/1999/xlink" x="0px" y="0px"
	 viewBox="0 0 512.002 512.002" style="enable-background:new 0 0 512.002 512.002;" xml:space="preserve">

<circle style="fill:#13CE66;" cx="90" cy="120" r="50" />	 
<circle style="fill:#FFBA5C;" cx="400" cy="103.516" r="70" stroke="black" stroke-width="20"/>
<circle style="fill:#F95F62;" cx="249" cy="110" r="100" stroke="black" stroke-width="20"/>


<path style="fill:#FFBA5C;" d="M249.56,160.924c0.001-26.545-21.519-48.064-48.064-48.064c-26.543,0-48.066,21.52-48.066,48.064
	H249.56z"/>
<!-- <path style="fill:#13CE66;" d="M32.801,112.859c-0.001,26.544,21.523,48.063,48.065,48.064c26.546-0.001,48.066-21.52,48.065-48.064
	c0.001-26.545-21.519-48.064-48.064-48.064C54.324,64.795,32.801,86.315,32.801,112.859z"/> -->
<rect x="10.459" y="160.922" style="fill:#6361B5;" width="491.091" height="56.423"/>
<polygon style="fill:#38388E;" points="501.546,217.346 10.455,217.346 205.847,412.737 205.847,501.552 306.155,466.026 
	306.155,412.737 "/>
<path d="M285.518,365.457c-2.675,0-5.348-1.02-7.388-3.06c-4.08-4.08-4.08-10.696,0-14.778l76.374-76.374
	c4.081-4.08,10.695-4.08,14.778,0c4.08,4.08,4.08,10.696,0,14.778l-76.374,76.374C290.866,364.437,288.192,365.457,285.518,365.457z
	 M384.317,266.659c-2.675,0-5.348-1.02-7.388-3.06c-4.08-4.08-4.08-10.696,0-14.778s10.732-4.115,14.812-0.036
	c4.08,4.08,4.116,10.662,0.036,14.742l-0.07,0.07C389.665,265.639,386.991,266.659,384.317,266.659z"/>
<path d="M501.546,150.474H259.069c-2.089-11.65-7.651-22.379-16.197-30.926c-11.053-11.052-25.747-17.138-41.377-17.138
	c-28.696,0-52.618,20.771-57.561,48.064h-18.257c8.865-10.524,13.705-23.695,13.704-37.614c0.001-15.629-6.085-30.323-17.137-41.376
	S96.496,54.345,80.867,54.345c-32.266,0-58.515,26.249-58.515,58.513c-0.001,13.92,4.84,27.091,13.706,37.615H10.455
	c-5.77,0-10.449,4.678-10.449,10.449v56.423c0.008,0,0.017-0.001,0.025-0.001c0,2.719,1.037,5.392,3.035,7.39l192.331,192.331
	v84.486c0,3.394,1.648,6.574,4.419,8.534c1.788,1.263,3.898,1.915,6.031,1.915c1.172,0,2.352-0.197,3.488-0.6l100.308-35.526
	c4.171-1.477,6.96-5.423,6.96-9.849v-48.961l192.331-192.331c1.998-1.999,3.034-4.672,3.035-7.39
	c0.009,0.001,0.017,0.001,0.025,0.001v-56.423C511.995,155.153,507.316,150.474,501.546,150.474z M201.496,123.307
	c10.048,0,19.494,3.913,26.599,11.017c4.568,4.568,7.808,10.107,9.545,16.15h-72.273
	C169.907,134.803,184.38,123.307,201.496,123.307z M54.268,139.457c-7.106-7.105-11.018-16.551-11.018-26.596l0,0
	c0-20.742,16.875-37.615,37.618-37.615c10.048,0,19.493,3.913,26.598,11.017s11.017,16.551,11.017,26.599
	c0,10.046-3.912,19.492-11.017,26.596c-7.105,7.105-16.552,11.018-26.599,11.018C70.82,150.474,61.374,146.561,54.268,139.457z
	 M298.765,405.349c-1.959,1.959-3.06,4.617-3.06,7.388v45.904l-79.41,28.125v-74.029c0-2.771-1.101-5.429-3.06-7.388L35.681,227.795
	H476.32L298.765,405.349z M491.098,206.897H20.904v-35.526h470.194V206.897z"/>
<g>
</g>
<g>
</g>
<g>
</g>
<g>
</g>
<g>
</g>
<g>
</g>
<g>
</g>
<g>
</g>
<g>
</g>
<g>
</g>
<g>
</g>
<g>
</g>
<g>
</g>
<g>
</g>
<g>
</g>
</svg>
