<?xml version="1.0" encoding="iso-8859-1"?>
<!-- Generator: Adobe Illustrator 19.0.0, SVG Export Plug-In . SVG Version: 6.00 Build 0)  -->
<svg version="1.1" id="Layer_1" xmlns="http://www.w3.org/2000/svg" xmlns:xlink="http://www.w3.org/1999/xlink" x="0px" y="0px"
	 viewBox="0 0 512.002 512.002" style="enable-background:new 0 0 512.002 512.002;" xml:space="preserve">
<circle style="fill:#F29C0B;" cx="422.997" cy="103.516" r="34.544"/>
<circle style="fill:#E31E10;" cx="304.069" cy="66.883" r="56.423"/>
<path style="fill:#45AD02;" d="M249.56,160.924c0.001-26.545-21.519-48.064-48.064-48.064c-26.543,0-48.066,21.52-48.066,48.064
	H249.56z"/>
<path style="fill:#0092E0;" d="M32.801,112.859c-0.001,26.544,21.523,48.063,48.065,48.064c26.546-0.001,48.066-21.52,48.065-48.064
	c0.001-26.545-21.519-48.064-48.064-48.064C54.324,64.795,32.801,86.315,32.801,112.859z"/>
<rect x="10.459" y="160.922" style="fill:#6361B5;" width="491.091" height="56.423"/>
<polygon style="fill:#38388E;" points="501.546,217.346 10.455,217.346 205.847,412.737 205.847,501.552 306.155,466.026 
	306.155,412.737 "/>
<path d="M285.518,365.457c-2.675,0-5.348-1.02-7.388-3.06c-4.08-4.08-4.08-10.696,0-14.778l76.374-76.374
	c4.081-4.08,10.695-4.08,14.778,0c4.08,4.08,4.08,10.696,0,14.778l-76.374,76.374C290.866,364.437,288.192,365.457,285.518,365.457z
	 M384.317,266.659c-2.675,0-5.348-1.02-7.388-3.06c-4.08-4.08-4.08-10.696,0-14.778s10.732-4.115,14.812-0.036
	c4.08,4.08,4.116,10.662,0.036,14.742l-0.07,0.07C389.665,265.639,386.991,266.659,384.317,266.659z"/>
<path d="M446.328,89.629c-2.711,0-5.419-1.048-7.465-3.139l-0.006-0.005l-0.095-0.097c-4.058-4.102-4.023-10.718,0.079-14.777
	c4.102-4.057,10.718-4.024,14.778,0.08l0.173,0.177c4.035,4.124,3.967,10.742-0.156,14.779
	C451.603,88.636,448.964,89.629,446.328,89.629z"/>
<path d="M423.182,147.166C423.181,147.166,423.182,147.166,423.182,147.166c-24.197,0-43.885-19.684-43.886-43.883
	c0-21.513,15.38-39.712,36.569-43.275c5.695-0.955,11.08,2.882,12.037,8.572c0.957,5.69-2.881,11.08-8.571,12.037
	c-11.088,1.864-19.136,11.396-19.136,22.665c0.001,12.674,10.313,22.986,22.987,22.985c11.319,0,21.095-8.424,22.741-19.596
	c0.841-5.709,6.152-9.659,11.86-8.815c5.709,0.841,9.656,6.15,8.816,11.859C463.451,131.066,444.786,147.166,423.182,147.166z"/>
<path d="M304.066,133.756c-17.862,0-34.655-6.956-47.286-19.587c-14.934-14.933-21.979-36.333-18.844-57.244
	c0.856-5.707,6.176-9.639,11.882-8.784c5.707,0.856,9.64,6.176,8.784,11.882c-2.189,14.599,2.533,28.949,12.954,39.37
	c8.684,8.684,20.228,13.466,32.508,13.466s23.825-4.782,32.508-13.465c8.685-8.684,13.466-20.229,13.466-32.509
	s-4.781-23.825-13.466-32.508c-10.169-10.169-24.195-14.933-38.474-13.081c-5.724,0.746-10.965-3.292-11.709-9.015
	c-0.743-5.723,3.292-10.965,9.015-11.708c20.767-2.699,41.156,4.237,55.946,19.026c12.63,12.63,19.586,29.424,19.586,47.286
	s-6.956,34.655-19.586,47.286C338.721,126.8,321.927,133.756,304.066,133.756z"/>
<path d="M264.168,37.436c-2.681,0-5.363-1.026-7.405-3.077c-4.071-4.09-4.056-10.706,0.032-14.777l0.114-0.114
	c4.091-4.071,10.707-4.056,14.778,0.033c4.071,4.09,4.056,10.706-0.032,14.777l-0.114,0.114
	C269.502,36.423,266.834,37.436,264.168,37.436z"/>
<path d="M501.546,150.474H259.069c-2.089-11.65-7.651-22.379-16.197-30.926c-11.053-11.052-25.747-17.138-41.377-17.138
	c-28.696,0-52.618,20.771-57.561,48.064h-18.257c8.865-10.524,13.705-23.695,13.704-37.614c0.001-15.629-6.085-30.323-17.137-41.376
	S96.496,54.345,80.867,54.345c-32.266,0-58.515,26.249-58.515,58.513c-0.001,13.92,4.84,27.091,13.706,37.615H10.455
	c-5.77,0-10.449,4.678-10.449,10.449v56.423c0.008,0,0.017-0.001,0.025-0.001c0,2.719,1.037,5.392,3.035,7.39l192.331,192.331
	v84.486c0,3.394,1.648,6.574,4.419,8.534c1.788,1.263,3.898,1.915,6.031,1.915c1.172,0,2.352-0.197,3.488-0.6l100.308-35.526
	c4.171-1.477,6.96-5.423,6.96-9.849v-48.961l192.331-192.331c1.998-1.999,3.034-4.672,3.035-7.39
	c0.009,0.001,0.017,0.001,0.025,0.001v-56.423C511.995,155.153,507.316,150.474,501.546,150.474z M201.496,123.307
	c10.048,0,19.494,3.913,26.599,11.017c4.568,4.568,7.808,10.107,9.545,16.15h-72.273
	C169.907,134.803,184.38,123.307,201.496,123.307z M54.268,139.457c-7.106-7.105-11.018-16.551-11.018-26.596l0,0
	c0-20.742,16.875-37.615,37.618-37.615c10.048,0,19.493,3.913,26.598,11.017s11.017,16.551,11.017,26.599
	c0,10.046-3.912,19.492-11.017,26.596c-7.105,7.105-16.552,11.018-26.599,11.018C70.82,150.474,61.374,146.561,54.268,139.457z
	 M298.765,405.349c-1.959,1.959-3.06,4.617-3.06,7.388v45.904l-79.41,28.125v-74.029c0-2.771-1.101-5.429-3.06-7.388L35.681,227.795
	H476.32L298.765,405.349z M491.098,206.897H20.904v-35.526h470.194V206.897z"/>
<g>
</g>
<g>
</g>
<g>
</g>
<g>
</g>
<g>
</g>
<g>
</g>
<g>
</g>
<g>
</g>
<g>
</g>
<g>
</g>
<g>
</g>
<g>
</g>
<g>
</g>
<g>
</g>
<g>
</g>
</svg>
