<?xml version="1.0" encoding="iso-8859-1"?>
<!-- Generator: Adobe Illustrator 19.0.0, SVG Export Plug-In . SVG Version: 6.00 Build 0)  -->
<svg version="1.1" id="Layer_1" xmlns="http://www.w3.org/2000/svg" xmlns:xlink="http://www.w3.org/1999/xlink" x="0px" y="0px"
	 viewBox="0 0 511.999 511.999" style="enable-background:new 0 0 511.999 511.999;" xml:space="preserve">
<path style="fill:#F9BE00;" d="M256.847,136.918c8.764,8.765,8.764,23.105,0,31.869l-32.179,32.179
	c-8.765,8.764-23.106,8.764-31.869,0L70.926,79.096c-8.763-8.764-8.763-23.105,0-31.869l32.18-32.178
	c8.765-8.764,23.106-8.764,31.87,0.001L256.847,136.918z"/>
<path style="opacity:0.1;enable-background:new    ;" d="M256.847,136.918l-42.622-42.622h-39.369L99.359,18.798L70.926,47.227
	c-8.763,8.764-8.763,23.106,0,31.869l121.872,121.87c8.764,8.764,23.104,8.764,31.869,0l32.179-32.179
	C265.609,160.023,265.609,145.683,256.847,136.918z"/>
<path style="fill:#F9BE00;" d="M255.147,136.918c-8.764,8.765-8.764,23.105,0,31.869l32.18,32.179
	c8.762,8.764,23.105,8.764,31.868,0l121.873-121.87c8.762-8.764,8.762-23.105,0-31.869l-32.183-32.178
	c-8.762-8.764-23.103-8.764-31.868,0.001L255.147,136.918z"/>
<path style="opacity:0.1;enable-background:new    ;" d="M393.831,94.297l15.2-15.2c8.764-8.764,8.764-23.105,0-31.869
	l-32.099-32.096L255.147,136.919c-8.764,8.765-8.764,23.105,0,31.869l32.18,32.179c8.762,8.764,23.105,8.764,31.868,0l106.67-106.67
	H393.831z"/>
<path style="fill:#F95F62;" d="M472.211,188.857c0-12.395-10.142-22.535-22.536-22.535H62.326
	c-12.394,0-22.534,10.141-22.534,22.535v292.144c0,12.394,10.14,22.535,22.534,22.535h387.349c12.394,0,22.536-10.141,22.536-22.535
	V188.857z"/>
<g>
	<circle style="fill:#00A6FF;" cx="154.96" cy="430.086" r="41.313"/>
	<circle style="fill:#00A6FF;" cx="210.718" cy="298.093" r="41.313"/>
	<circle style="fill:#00A6FF;" cx="331.711" cy="373.937" r="41.313"/>
	<circle style="fill:#00A6FF;" cx="373.025" cy="211.608" r="41.313"/>
	<circle style="fill:#00A6FF;" cx="105.669" cy="234.009" r="41.313"/>
	<path style="fill:#00A6FF;" d="M357.904,503.535c0-22.817,18.497-41.314,41.314-41.314c22.817,0,41.314,18.497,41.314,41.314
		H357.904z"/>
	<path style="fill:#00A6FF;" d="M39.791,310.499c22.814,0,41.313,18.498,41.313,41.314c0,22.817-18.499,41.314-41.313,41.314
		C39.791,393.127,39.791,310.499,39.791,310.499z"/>
	<path style="fill:#00A6FF;" d="M472.211,339.411c-22.818,0-41.315-18.496-41.315-41.314c0-22.817,18.497-41.313,41.315-41.313
		V339.411z"/>
</g>
<path style="opacity:0.1;enable-background:new    ;" d="M449.675,166.323H62.326c-12.394,0-22.534,10.141-22.534,22.535v292.144
	c0,12.394,10.14,22.535,22.534,22.535h330.26c12.393,0,22.534-10.141,22.534-22.535v-242.48h57.09v-49.664
	C472.211,176.462,462.069,166.323,449.675,166.323z"/>
<path style="fill:#13CE66;" d="M503.848,143.568c0-12.394-10.14-22.535-22.535-22.535H30.686c-12.393,0-22.535,10.141-22.535,22.535
	v45.507c0,12.395,10.142,22.535,22.535,22.535h450.627c12.395,0,22.535-10.14,22.535-22.535V143.568z"/>
<path style="opacity:0.15;enable-background:new    ;" d="M417.997,121.034H30.686c-12.393,0-22.535,10.141-22.535,22.535v45.507
	c0,12.395,10.142,22.535,22.535,22.535h387.311c12.395,0,22.534-10.14,22.534-22.535v-45.507
	C440.532,131.174,430.392,121.034,417.997,121.034z"/>
<path style="fill:#F9BE00;" d="M210.712,121.034v258.175c0,12.394,7.932,16.219,17.632,8.499l10.027-7.984
	c9.695-7.72,25.564-7.72,35.26,0l10.029,7.984c9.697,7.72,17.63,3.895,17.63-8.499V121.034H210.712z"/>
<path style="fill:#1E252B;" d="M481.314,112.882h-62.497l28.024-28.022c11.964-11.964,11.964-31.432-0.001-43.398L414.658,9.284
	C402.69-2.68,383.223-2.677,371.259,9.285L267.662,112.882h-23.324L140.74,9.284c-11.962-11.962-31.431-11.965-43.398,0
	L65.161,41.463c-11.964,11.966-11.964,31.433,0,43.398l28.022,28.022H30.686C13.766,112.882,0,126.647,0,143.568v45.507
	c0,16.921,13.766,30.686,30.686,30.686h0.953v261.239c0,16.921,13.766,30.686,30.685,30.686h387.349
	c16.921,0,30.688-13.767,30.688-30.686V219.762h0.951c16.921,0,30.686-13.766,30.686-30.686v-45.507
	C512,126.647,498.234,112.882,481.314,112.882z M382.788,20.813c5.609-5.607,14.734-5.608,20.344,0l32.179,32.177
	c5.607,5.608,5.608,14.734,0,20.341l-39.551,39.55H290.72L382.788,20.813z M293.136,129.185v250.023c0,2.389-0.397,3.673-0.658,4.26
	c-0.622-0.161-1.874-0.65-3.741-2.138l-10.03-7.984c-12.732-10.136-32.681-10.139-45.415,0l-10.026,7.983
	c-1.871,1.489-3.123,1.978-3.744,2.139c-0.261-0.587-0.658-1.871-0.658-4.26V129.185H293.136z M76.691,73.332
	c-5.608-5.607-5.607-14.733-0.001-20.341l32.18-32.178c5.606-5.607,14.734-5.607,20.342,0l92.069,92.069H116.242L76.691,73.332z
	 M30.686,203.459c-7.931,0-14.383-6.452-14.383-14.383v-45.507c0-7.931,6.453-14.383,14.383-14.383H202.56v74.273L30.686,203.459
	L30.686,203.459z M464.059,481.001c0,7.931-6.452,14.383-14.384,14.383H62.326c-7.93,0-14.382-6.453-14.382-14.383V219.762h154.617
	v159.446c0,9.161,3.568,16.135,9.79,19.135c6.224,3.002,13.903,1.448,21.072-4.258l10.027-7.984c6.687-5.324,18.418-5.324,25.105,0
	l10.03,7.984c4.77,3.799,9.768,5.756,14.411,5.756c2.332,0,4.576-0.493,6.656-1.497c6.223-2.999,9.791-9.973,9.791-19.135V219.762
	h154.619v261.239H464.059z M495.697,189.076c0,7.931-6.452,14.383-14.383,14.383H309.44v-74.273h171.874
	c7.931,0,14.383,6.452,14.383,14.383V189.076z"/>
<g>
</g>
<g>
</g>
<g>
</g>
<g>
</g>
<g>
</g>
<g>
</g>
<g>
</g>
<g>
</g>
<g>
</g>
<g>
</g>
<g>
</g>
<g>
</g>
<g>
</g>
<g>
</g>
<g>
</g>
</svg>
