<?xml version="1.0" encoding="utf-8"?>
<!-- Generator: Adobe Illustrator 21.1.0, SVG Export Plug-In . SVG Version: 6.00 Build 0)  -->
<svg version="1.1" id="Layer_1" xmlns="http://www.w3.org/2000/svg" xmlns:xlink="http://www.w3.org/1999/xlink" x="0px" y="0px"
	 viewBox="0 0 512 512" style="enable-background:new 0 0 512 512;" xml:space="preserve">
<style type="text/css">
	.st0{fill:#FB7B76;}
	.st1{fill:#F26B6B;}
	.st2{fill:#FFDC64;stroke:#000000;stroke-width:11.4458;stroke-miterlimit:10;}
	.st3{fill:#FFCB57;}
	.st4{fill:none;stroke:#000000;stroke-width:11.2852;stroke-miterlimit:10;}
	.st5{fill:#FFDC64;}
	.st6{fill:#FFDC64;stroke:#000000;stroke-width:11.925;stroke-miterlimit:10;}
	.st7{fill:none;stroke:#000000;stroke-width:11.9015;stroke-miterlimit:10;}
	.st8{fill:none;stroke:#000000;stroke-width:11.925;stroke-miterlimit:10;}
</style>
<path class="st0" d="M439.8,503.5H72.2c-1.3,0-2.4-1.1-2.4-2.4V163c0-1.3,1.1-2.4,2.4-2.4h367.5c1.3,0,2.4,1.1,2.4,2.4v338.2
	C442.2,502.5,441.1,503.5,439.8,503.5z"/>
<rect x="418.5" y="162" class="st1" width="26.7" height="344.9"/>
<rect x="227.6" y="160.5" class="st2" width="56.9" height="343"/>
<rect x="259.4" y="165.3" class="st3" width="20.7" height="333.5"/>
<path class="st4" d="M438.5,503.5h-365c-2,0-3.7-1.6-3.7-3.7V164.2c0-2,1.6-3.7,3.7-3.7h365c2,0,3.7,1.6,3.7,3.7v335.7
	C442.2,501.9,440.5,503.5,438.5,503.5z"/>
<rect x="227.6" y="146.6" transform="matrix(-1.836970e-16 1 -1 -1.836970e-16 588.0408 76.0408)" class="st5" width="56.9" height="370.9"/>
<path id="XMLID_1_" class="st5" d="M379.5,35.5c-0.5-0.5-1-0.9-1.5-1.4C252.9-66.4,259.2,160.6,259.2,160.6
	C336,163.5,470.8,119.3,379.5,35.5z M263.7,157c0,0,19.7-148.5,91.3-92.1c0.6,0.6,1.3,1.2,1.9,1.8
	C406.1,116.9,312.5,158.9,263.7,157z"/>
<path class="st6" d="M256.2,160.6c0,0,6.3-226.9-118.8-126.4c-0.5,0.5-1,0.9-1.5,1.4C44.6,119.3,179.4,163.5,256.2,160.6z
	 M158.5,66.8c0.6-0.6,1.2-1.2,1.9-1.8c71.7-56.4,91.3,92.1,91.3,92.1C202.9,158.9,109.2,116.9,158.5,66.8z"/>
<rect x="418.5" y="310.7" class="st3" width="24.4" height="47.9"/>
<rect x="227.6" y="146.6" transform="matrix(-1.836970e-16 1 -1 -1.836970e-16 588.0408 76.0408)" class="st7" width="56.9" height="370.9"/>
<path class="st3" d="M366,32.5c0,0,71.7,72.2-42.2,116.7c18.6-5,70.8-16.8,81.2-53C408.5,78,393.9,49.2,366,32.5z"/>
<path id="XMLID_2_" class="st8" d="M379.5,35.5c-0.5-0.5-1-0.9-1.5-1.4C252.9-66.4,259.2,160.6,259.2,160.6
	C336,163.5,470.8,119.3,379.5,35.5z M263.7,157c0,0,19.7-148.5,91.3-92.1c0.6,0.6,1.3,1.2,1.9,1.8
	C406.1,116.9,312.5,158.9,263.7,157z"/>
</svg>
