<?xml version="1.0" encoding="iso-8859-1"?>
<!-- Generator: Adobe Illustrator 19.0.0, SVG Export Plug-In . SVG Version: 6.00 Build 0)  -->
<svg version="1.1" id="Layer_1" xmlns="http://www.w3.org/2000/svg" xmlns:xlink="http://www.w3.org/1999/xlink" x="0px" y="0px"
	 viewBox="0 0 511.999 511.999" style="enable-background:new 0 0 511.999 511.999;" xml:space="preserve">
<path style="fill:#FFDB6F;" d="M354.019,175.427l-70.79,70.79c-3.059,3.059-4.595,7.072-4.595,11.084h-45.773
	c0-4.013-1.536-8.025-4.595-11.084l-70.803-70.79h121.171H354.019z"/>
<path style="fill:#E4F5F4;" d="M380.82,389.68v48.708h-0.037l-111.659-57.452c-8.397-4.322-18.354-4.322-26.751,0l-111.659,57.452
	h-0.037V389.68c0-15.184,6.031-29.748,16.756-40.473l80.834-80.822c3.059-3.059,4.595-7.072,4.595-11.084h45.773
	c0,4.013,1.536,8.025,4.595,11.084l80.822,80.822C374.788,359.932,380.82,374.497,380.82,389.68z"/>
<g>
	<path style="fill:#F27258;" d="M419.843,456.966v25.376c0,10.254-8.322,18.577-18.577,18.577H110.229
		c-10.267,0-18.577-8.322-18.577-18.577v-25.376c0-10.254,8.31-18.577,18.577-18.577h20.447h0.037h250.069h0.037h20.447
		C411.521,438.389,419.843,446.711,419.843,456.966z"/>
	<path style="fill:#F27258;" d="M419.843,31.952v25.995c0,10.093-8.186,18.267-18.267,18.267H380.82h-57.588H181.763h-51.086H109.92
		c-10.093,0-18.267-8.174-18.267-18.267V31.952c0-10.093,8.174-18.267,18.267-18.267h291.656
		C411.657,13.685,419.843,21.859,419.843,31.952z"/>
</g>
<path style="fill:#E4F5F4;" d="M380.82,76.215v48.708c0,15.183-6.031,29.748-16.769,40.473l-10.031,10.032h-75.385H157.464
	l-10.031-10.032c-10.725-10.725-16.756-25.289-16.756-40.473V76.215h51.086h141.469H380.82z"/>
<path style="fill:#FFDB6F;" d="M380.783,438.389H130.713l111.659-57.452c8.397-4.322,18.354-4.322,26.751,0L380.783,438.389z"/>
<g>
	<path style="fill:#201F2E;" d="M373.064,172.855c13.15-13.15,20.392-30.633,20.392-49.229l0.001-36.328h8.369
		c16.901,0,30.652-13.751,30.652-30.652V30.652C432.479,13.751,418.729,0,401.828,0H110.171C93.27,0,79.519,13.751,79.519,30.652
		v25.994c0,16.901,13.751,30.652,30.652,30.652h8.373l-0.002,36.323c-0.001,18.599,7.241,36.085,20.394,49.236l80.828,80.822
		c1.281,1.281,1.281,3.362,0,4.643l-80.827,80.822c-13.154,13.151-20.396,30.637-20.395,49.236l0.002,36.323h-8.064
		c-17.072,0-30.961,13.889-30.961,30.961v25.375c0,17.072,13.889,30.961,30.961,30.961h291.037
		c17.072,0,30.961-13.889,30.961-30.961v-25.375c0-17.072-13.889-30.961-30.961-30.961h-8.06l-0.001-36.328
		c0-18.597-7.242-36.08-20.392-49.229L292.24,258.32c-1.279-1.279-1.279-3.362,0-4.642L373.064,172.855z M130.931,62.528
		C130.93,62.528,130.93,62.528,130.931,62.528h-20.76c-3.244,0-5.883-2.639-5.883-5.883V30.652c0-3.244,2.639-5.883,5.883-5.883
		h291.656c3.243,0,5.883,2.639,5.883,5.883v25.994c0,3.244-2.639,5.883-5.883,5.883H130.931z M401.518,449.472
		c3.414,0,6.192,2.778,6.192,6.192v25.375c0,3.414-2.778,6.192-6.192,6.192H110.481c-3.414,0-6.192-2.778-6.192-6.192v-25.375
		c0-3.414,2.778-6.192,6.192-6.192h20.458c0.012,0,0.024,0.003,0.036,0.003c0.014,0,0.027-0.003,0.041-0.003H401.518z
		 M182.102,424.702l66.192-34.059c4.825-2.483,10.586-2.483,15.413,0l66.19,34.059H182.102z M274.726,275.836l80.824,80.824
		c8.472,8.471,13.138,19.735,13.138,31.714v28.432l-93.651-48.19c-11.92-6.134-26.157-6.134-38.078,0l-93.647,48.187l-0.002-28.428
		c-0.001-11.982,4.665-23.247,13.139-31.719l80.828-80.822c10.937-10.938,10.937-28.735,0-39.673l-49.656-49.652h91.274
		c6.839,0,12.385-5.545,12.385-12.385s-5.546-12.385-12.385-12.385H162.849l-6.4-6.4c-8.474-8.472-13.139-19.737-13.138-31.719
		l0.002-36.325h225.375l-0.001,36.328c0,11.98-4.667,23.243-13.138,31.716l-80.824,80.824
		C263.789,247.102,263.789,264.898,274.726,275.836z"/>
	<path style="fill:#201F2E;" d="M255.999,300.152c-6.839,0-12.385,5.545-12.385,12.385v15.862c0,6.84,5.546,12.385,12.385,12.385
		s12.385-5.545,12.385-12.385v-15.862C268.384,305.697,262.838,300.152,255.999,300.152z"/>
</g>
<g>
</g>
<g>
</g>
<g>
</g>
<g>
</g>
<g>
</g>
<g>
</g>
<g>
</g>
<g>
</g>
<g>
</g>
<g>
</g>
<g>
</g>
<g>
</g>
<g>
</g>
<g>
</g>
<g>
</g>
</svg>
