<?xml version="1.0" encoding="utf-8"?>
<!-- Generator: Adobe Illustrator 21.1.0, SVG Export Plug-In . SVG Version: 6.00 Build 0)  -->
<svg version="1.1" id="Layer_1" xmlns="http://www.w3.org/2000/svg" xmlns:xlink="http://www.w3.org/1999/xlink" x="0px" y="0px"
	 viewBox="0 0 512 512" style="enable-background:new 0 0 512 512;" xml:space="preserve">
<style type="text/css">
	.st0{fill:#FFE285;}
	.st1{fill:#FFD561;}
	.st2{fill:none;stroke:#F7C759;stroke-width:9.931;stroke-miterlimit:10;}
	.st3{fill:none;stroke:#000000;stroke-width:9.931;stroke-miterlimit:10;}
	.st4{fill:none;stroke:#000000;stroke-width:4.9655;stroke-miterlimit:10;}
	.st5{fill:#FFB0CE;stroke:#000000;stroke-width:9.931;stroke-miterlimit:10;}
	.st6{fill:#8CD2E5;stroke:#000000;stroke-width:9.931;stroke-miterlimit:10;}
	.st7{fill:#FFC0CF;}
	.st8{fill:#FFB0CE;}
	.st9{fill:#B5E1F4;}
	.st10{fill:#8CD2E5;}
	.st11{fill:#FFB088;}
	.st12{fill:#F9A37D;}
</style>
<path class="st0" d="M148.6,216.8c-2.1-5.1,1.6-10.7,7.1-10.7l116.6-0.5l116.6-0.4c5.5,0,9.3,5.6,7.2,10.7L337,361.4l-56.4,138.8
	c-2.6,6.4-11.7,6.5-14.3,0.1l-57.4-138.3L148.6,216.8z"/>
<polygon class="st1" points="394.3,220.3 393.6,221.9 278.9,502.7 262.2,496.7 368.5,224.5 394.3,205.2 "/>
<line class="st2" x1="337.6" y1="319" x2="232.3" y2="424.1"/>
<line class="st2" x1="324.9" y1="391.1" x2="251.4" y2="464.4"/>
<line class="st2" x1="327.1" y1="384.7" x2="283.1" y2="340.5"/>
<line class="st2" x1="343.2" y1="345.3" x2="318.9" y2="320.8"/>
<line class="st2" x1="309.4" y1="426.4" x2="244.5" y2="361.3"/>
<line class="st2" x1="293.4" y1="464.4" x2="221.4" y2="392.2"/>
<path class="st3" d="M148.6,216.8c-2.1-5.1,1.6-10.7,7.1-10.7l116.6-0.5l116.6-0.4c5.5,0,9.3,5.6,7.2,10.7L337,361.4l-56.4,138.8
	c-2.6,6.4-11.7,6.5-14.3,0.1l-57.4-138.3L148.6,216.8z"/>
<path class="st4" d="M399.1,222.8"/>
<path class="st4" d="M424.1,248"/>
<path class="st4" d="M182.6,300.4"/>
<path class="st4" d="M256.3,226.9"/>
<path class="st4" d="M288.9,225.6"/>
<path class="st4" d="M361.7,298.6"/>
<path class="st5" d="M275.3,220.8c-12.1,25.5-37.8,43.1-67.5,43.1c-22.9,0-43.3-10.4-57-26.7c-7.6-9-7-22.2,0.7-31.1
	C212.3,135.6,279.7,211.5,275.3,220.8z"/>
<path class="st6" d="M266.8,220.8c12.1,25.5,37.8,43.1,67.5,43.1c26.6,0,50-14.1,63.3-35.3c2.9-4.6,2.5-10.6-0.8-15
	C334.3,130.5,262.2,211.2,266.8,220.8z"/>
<circle class="st7" cx="209.3" cy="173.4" r="67.1"/>
<path class="st8" d="M148,193.4c19.4,25.7,70.5,57.7,118.8-9.1c14.8,8.9-19.3,44.2-19.3,44.2S176.7,265.6,148,193.4z"/>
<circle class="st3" cx="209.3" cy="173.4" r="67.1"/>
<circle class="st9" cx="333.9" cy="173.4" r="67.1"/>
<path class="st10" d="M278.4,199.7c19.4,25.7,91.9,43.1,118.3-30.2c14.8,8.9-21.5,59.1-21.5,59.1S307,259.9,278.4,199.7z"/>
<circle class="st3" cx="333.9" cy="173.4" r="67.1"/>
<circle class="st11" cx="266.8" cy="76.1" r="67.1"/>
<path class="st12" d="M211.4,102.9c19.4,25.7,91.9,43.1,118.3-30.2c14.8,8.9-21.5,59.1-21.5,59.1S240,163.1,211.4,102.9z"/>
<circle class="st3" cx="266.8" cy="76.1" r="67.1"/>
</svg>
