<?xml version="1.0" encoding="iso-8859-1"?>
<!-- Generator: Adobe Illustrator 19.0.0, SVG Export Plug-In . SVG Version: 6.00 Build 0)  -->
<svg version="1.1" id="Layer_1" xmlns="http://www.w3.org/2000/svg" xmlns:xlink="http://www.w3.org/1999/xlink" x="0px" y="0px"
	 viewBox="0 0 512 512" style="enable-background:new 0 0 512 512;" xml:space="preserve">
<path style="fill:#9B9B9B;" d="M396.126,503.916h-75.453l-204.8-204.8v-21.558h75.453v21.558L396.126,503.916z"/>
<path style="fill:#C1C1C1;" d="M396.126,277.558v21.558l-204.8,204.8h-75.453l204.8-204.8v-21.558H396.126z"/>
<path style="fill:#BBFFAB;" d="M450.021,299.116H61.979c-29.765,0-53.895-24.13-53.895-53.895l0,0
	c0-29.765,24.13-53.895,53.895-53.895h388.042c29.765,0,53.895,24.13,53.895,53.895l0,0
	C503.916,274.986,479.786,299.116,450.021,299.116z"/>
<path style="fill:#84D88B;" d="M502.836,256c-4.994,24.6-26.74,43.116-52.815,43.116H61.979c-26.073,0-47.821-18.516-52.815-43.116
	H502.836z"/>
<path style="fill:#D199D1;" d="M105.095,180.547h172.463c5.953,0,10.779,4.826,10.779,10.779v53.895
	c0,5.953-4.826,10.779-10.779,10.779h-97.011c-5.953,0-10.779,4.826-10.779,10.779v53.895c0,11.906-9.651,21.558-21.558,21.558
	h-32.337c-11.906,0-21.558-9.651-21.558-21.558V191.326C94.316,185.373,99.142,180.547,105.095,180.547z"/>
<path style="fill:#AF7AAE;" d="M94.316,256h86.232c-5.953,0-10.779,4.826-10.779,10.779v53.895c0,11.906-9.651,21.558-21.558,21.558
	h-32.337c-11.906,0-21.558-9.651-21.558-21.558V256z"/>
<path style="fill:#C1C1C1;" d="M439.242,158.989v53.895c0,11.906-9.651,21.558-21.558,21.558H277.558
	c-11.906,0-21.558-9.651-21.558-21.558v-10.779c0-35.718,28.955-64.674,64.674-64.674h97.011
	C429.591,137.432,439.242,147.083,439.242,158.989z"/>
<path style="fill:#9B9B9B;" d="M417.684,234.442h-75.453c-11.906,0-21.558-9.651-21.558-21.558v-10.779
	c0-35.718,28.955-64.674,64.674-64.674h32.337c11.906,0,21.558,9.651,21.558,21.558v53.895
	C439.242,224.791,429.591,234.442,417.684,234.442z"/>
<path style="fill:#F7F7F7;" d="M439.242,212.884v21.558c0,11.906-9.651,21.558-21.558,21.558H277.558
	C265.651,256,256,246.349,256,234.442v-21.558H439.242z"/>
<path style="fill:#E5E5E5;" d="M417.684,256h-75.453c-11.906,0-21.558-9.651-21.558-21.558v-21.558h118.568v21.558
	C439.242,246.349,429.591,256,417.684,256z"/>
<path d="M172.463,137.432V8.084c0-4.466,3.618-8.084,8.084-8.084c4.466,0,8.084,3.618,8.084,8.084v129.347
	c0,4.466-3.618,8.084-8.084,8.084C176.082,145.516,172.463,141.897,172.463,137.432z M223.663,145.516
	c4.466,0,8.084-3.618,8.084-8.084V40.421c0-4.466-3.618-8.084-8.084-8.084s-8.084,3.618-8.084,8.084v97.011
	C215.579,141.897,219.197,145.516,223.663,145.516z M137.432,145.516c4.466,0,8.084-3.618,8.084-8.084V40.421
	c0-4.466-3.618-8.084-8.084-8.084c-4.466,0-8.084,3.618-8.084,8.084v97.011C129.347,141.897,132.966,145.516,137.432,145.516z
	 M399.474,307.2l-94.316,94.316l94.316,94.316h50.547c4.466,0,8.084,3.618,8.084,8.084S454.487,512,450.021,512h-75.453
	c-4.466,0-8.084-3.618-8.084-8.084s3.618-8.084,8.084-8.084h2.042l-82.884-82.884l-26.294,26.294l56.59,56.589h18.21
	c4.466,0,8.084,3.618,8.084,8.084S346.697,512,342.232,512H61.979c-4.466,0-8.084-3.618-8.084-8.084s3.618-8.084,8.084-8.084h50.547
	l94.316-94.316l-51.958-51.957c-2.145,0.495-4.379,0.757-6.672,0.757h-32.337c-16.345,0-29.643-13.298-29.643-29.642V307.2H61.979
	C27.803,307.2,0,279.397,0,245.221s27.803-61.979,61.979-61.979h26.073c3.032-6.367,9.532-10.779,17.043-10.779H254.23
	c10.319-23.039,32.284-39.773,58.359-42.67v-3.141c0-22.289,18.132-40.421,40.421-40.421h43.116
	c22.289,0,40.421,18.132,40.421,40.421v9.488c6.579,5.442,10.779,13.664,10.779,22.849v24.253h2.695
	c34.176,0,61.979,27.803,61.979,61.979S484.197,307.2,450.021,307.2H399.474z M86.232,199.411H61.979
	c-25.26,0-45.811,20.55-45.811,45.811s20.55,45.811,45.811,45.811h24.253V199.411z M328.758,129.347h88.926
	c0.908,0,1.808,0.041,2.695,0.121v-2.815c0-13.372-10.88-24.253-24.253-24.253H353.01c-13.372,0-24.253,10.88-24.253,24.253V129.347
	z M264.084,234.442c0,7.43,6.044,13.474,13.474,13.474h140.126c7.43,0,13.474-6.044,13.474-13.474v-13.474h-45.811
	c-4.466,0-8.084-3.618-8.084-8.084s3.618-8.084,8.084-8.084h45.811v-45.811c0-7.43-6.044-13.474-13.474-13.474h-97.011
	c-31.203,0-56.589,25.387-56.589,56.589v2.695h88.926c4.466,0,8.084,3.618,8.084,8.084s-3.618,8.084-8.084,8.084h-88.926V234.442z
	 M180.547,264.084c-1.486,0-2.695,1.208-2.695,2.695v24.253h272.168c25.26,0,45.811-20.55,45.811-45.811
	s-20.55-45.811-45.811-45.811h-2.695v35.032c0,16.344-13.298,29.642-29.642,29.642H180.547z M210.843,307.2L256,352.357
	l45.157-45.157H210.843z M180.547,247.916h70.612c-2.073-4.044-3.243-8.625-3.243-13.474v-32.337c0-4.604,0.429-9.105,1.25-13.474
	H105.095c-1.486,0-2.695,1.208-2.695,2.695v107.789v21.558c0,7.43,6.044,13.474,13.474,13.474h32.337
	c1.942,0,3.791-0.414,5.46-1.155c0.051-0.024,0.101-0.046,0.153-0.069c4.635-2.133,7.861-6.821,7.861-12.248V266.78
	C161.684,256.378,170.147,247.916,180.547,247.916z M218.274,390.084l26.294-26.294L187.978,307.2h-10.126v13.474
	c0,8.007-3.191,15.281-8.368,20.621L218.274,390.084z M256,450.674l-45.157,45.157h90.314L256,450.674z M376.61,307.2h-52.587
	L135.391,495.832h52.587L376.61,307.2z"/>
<g>
</g>
<g>
</g>
<g>
</g>
<g>
</g>
<g>
</g>
<g>
</g>
<g>
</g>
<g>
</g>
<g>
</g>
<g>
</g>
<g>
</g>
<g>
</g>
<g>
</g>
<g>
</g>
<g>
</g>
</svg>
