<?xml version="1.0" encoding="iso-8859-1"?>
<!-- Generator: Adobe Illustrator 19.0.0, SVG Export Plug-In . SVG Version: 6.00 Build 0)  -->
<svg version="1.1" id="Capa_1" xmlns="http://www.w3.org/2000/svg" xmlns:xlink="http://www.w3.org/1999/xlink" x="0px" y="0px"
	 viewBox="0 0 512.001 512.001" style="enable-background:new 0 0 512.001 512.001;" xml:space="preserve">
<g transform="translate(1 1)">
	<path style="fill:#FFBA5C;" d="M408.62,203.793c0-84.841-68.779-153.62-153.619-153.62s-153.62,68.779-153.62,153.62
		S170.16,357.413,255,357.413S408.62,288.634,408.62,203.793"/>
	<path style="fill:#FFA800;" d="M254.999,50.173c-4.319,0-8.568,0.299-12.802,0.649c78.832,6.52,140.818,72.448,140.818,152.97
		s-61.986,146.451-140.818,152.97c4.234,0.35,8.483,0.649,12.802,0.649c84.841,0,153.619-68.779,153.619-153.62
		S339.84,50.173,254.999,50.173"/>
	<path style="fill:#FFFFFF;" d="M254.999,50.173c4.319,0,8.568,0.299,12.802,0.649c-78.832,6.52-140.818,72.448-140.818,152.97
		s61.977,146.451,140.818,152.97c-4.234,0.35-8.483,0.649-12.802,0.649c-84.841,0-153.62-68.779-153.62-153.62
		S170.16,50.173,254.999,50.173"/>
	<g>
		<path style="fill:#00A6FF;" d="M254.999,50.173c35.392,0,67.9,12.094,93.879,32.209V7.501H161.122v74.881
			C187.1,62.266,219.608,50.173,254.999,50.173"/>
		<path style="fill:#00A6FF;" d="M254.999,357.413c-35.393,0-67.9-12.094-93.879-32.209v177.293l93.879-93.879l93.879,93.879
			V325.203C322.9,345.319,290.392,357.413,254.999,357.413"/>
	</g>
	<g>
		<path style="fill:#0085cc;" d="M323.275,7.501v58.913c9.055,4.532,17.666,9.823,25.603,15.968V7.501H323.275z"/>
		<path style="fill:#0085cc;" d="M323.275,341.172v135.723l25.603,25.603V325.205C340.941,331.35,332.33,336.641,323.275,341.172"/>
	</g>
	<g>
		<path style="fill:#FFFFFF;" d="M186.725,7.501v58.913c-9.055,4.532-17.666,9.823-25.603,15.968V7.501H186.725z"/>
		<path style="fill:#FFFFFF;" d="M186.725,341.172v135.723l-25.603,25.603V325.205C169.059,331.35,177.67,336.641,186.725,341.172"
			/>
	</g>
	<path d="M255,365.913c-89.393,0-162.121-72.727-162.121-162.121S165.607,41.671,255,41.671s162.121,72.727,162.121,162.121
		S344.394,365.913,255,365.913z M255,58.675c-80.018,0-145.118,65.1-145.118,145.118S174.982,348.911,255,348.911
		s145.118-65.1,145.118-145.118C400.119,123.774,335.019,58.675,255,58.675z"/>
	<path d="M255.325,331.775H255c-0.699,0-1.397-0.005-2.094-0.017c-0.719-0.012-1.415-0.112-2.079-0.292
		c-0.674,0.135-1.377,0.192-2.093,0.157c-0.699-0.033-1.396-0.073-2.092-0.118c-0.719-0.047-1.412-0.182-2.068-0.394
		c-0.681,0.104-1.387,0.124-2.104,0.055c-0.696-0.068-1.391-0.142-2.084-0.222c-0.714-0.082-1.398-0.25-2.041-0.493
		c-0.685,0.068-1.388,0.056-2.098-0.048c-0.693-0.103-1.384-0.21-2.074-0.323c-0.712-0.117-1.388-0.319-2.021-0.595
		c-0.686,0.038-1.392-0.013-2.1-0.153c-0.688-0.136-1.374-0.278-2.058-0.426c-0.702-0.152-1.364-0.387-1.979-0.691
		c-0.658,0.036-1.39-0.081-2.09-0.256c-0.68-0.17-1.357-0.346-2.034-0.527c-0.695-0.187-1.346-0.454-1.946-0.789
		c-0.69-0.033-1.386-0.15-2.078-0.36c-0.667-0.203-1.331-0.411-1.993-0.623c-0.693-0.222-1.339-0.524-1.928-0.895
		c-0.688-0.066-1.377-0.218-2.057-0.461c-0.66-0.237-1.317-0.479-1.972-0.726c-0.678-0.256-1.304-0.589-1.872-0.986
		c-0.684-0.101-1.366-0.286-2.033-0.563c-0.647-0.27-1.292-0.544-1.934-0.823c-0.661-0.288-1.267-0.649-1.812-1.071
		c-0.679-0.134-1.352-0.354-2.005-0.664c-0.629-0.3-1.256-0.604-1.88-0.912c-0.65-0.321-1.241-0.715-1.768-1.165
		c-0.668-0.168-1.327-0.419-1.962-0.76c-0.618-0.332-1.232-0.668-1.845-1.01c-0.628-0.352-1.195-0.771-1.695-1.243
		c-0.663-0.2-1.311-0.485-1.931-0.859c-0.598-0.36-1.193-0.726-1.786-1.096c-0.611-0.381-1.156-0.827-1.633-1.324
		c-0.65-0.232-1.282-0.548-1.881-0.95c-0.58-0.389-1.156-0.782-1.729-1.18c-0.593-0.412-1.117-0.886-1.57-1.406
		c-0.635-0.263-1.248-0.607-1.825-1.036c-0.561-0.417-1.118-0.839-1.672-1.265c-0.572-0.44-1.072-0.938-1.499-1.48
		c-0.623-0.294-1.22-0.669-1.776-1.127c-0.539-0.442-1.072-0.89-1.604-1.341c-0.55-0.467-1.026-0.99-1.427-1.553
		c-0.606-0.323-1.183-0.726-1.715-1.208c-0.52-0.472-1.034-0.946-1.546-1.427c-0.523-0.491-0.97-1.033-1.341-1.612
		c-0.592-0.353-1.15-0.785-1.659-1.295c-0.492-0.492-0.98-0.988-1.464-1.488c-0.501-0.518-0.923-1.083-1.266-1.681
		c-0.574-0.382-1.11-0.84-1.594-1.374c-0.466-0.516-0.929-1.033-1.387-1.555c-0.476-0.543-0.871-1.129-1.186-1.743
		c-0.554-0.409-1.066-0.893-1.523-1.448c-0.444-0.541-0.883-1.085-1.318-1.632c-0.445-0.562-0.808-1.161-1.09-1.785
		c-0.533-0.435-1.021-0.942-1.451-1.52c-0.416-0.559-0.827-1.122-1.234-1.688c-0.419-0.584-0.754-1.204-1.007-1.845
		c-0.512-0.46-0.975-0.991-1.375-1.589c-0.388-0.579-0.771-1.161-1.149-1.747c-0.39-0.604-0.694-1.237-0.915-1.888
		c-0.487-0.484-0.924-1.036-1.294-1.652c-0.359-0.598-0.714-1.198-1.064-1.803c-0.359-0.621-0.632-1.269-0.82-1.928
		c-0.464-0.509-0.873-1.082-1.213-1.716c-0.329-0.612-0.652-1.229-0.971-1.846c-0.33-0.64-0.571-1.302-0.728-1.973
		c-0.438-0.53-0.818-1.122-1.127-1.772c-0.298-0.628-0.592-1.258-0.88-1.892c-0.297-0.654-0.505-1.326-0.628-2.001
		c-0.412-0.551-0.762-1.162-1.039-1.826c-0.266-0.64-0.527-1.283-0.783-1.927c-0.267-0.671-0.442-1.356-0.532-2.042
		c-0.385-0.571-0.706-1.199-0.949-1.876c-0.237-0.658-0.468-1.319-0.694-1.983c-0.232-0.681-0.372-1.371-0.428-2.056
		c-0.356-0.591-0.646-1.234-0.856-1.925c-0.203-0.666-0.4-1.334-0.592-2.004c-0.199-0.694-0.306-1.393-0.328-2.083
		c-0.327-0.608-0.585-1.266-0.761-1.967c-0.169-0.675-0.333-1.353-0.492-2.032c-0.164-0.702-0.236-1.405-0.224-2.094
		c-0.296-0.623-0.521-1.292-0.662-1.999c-0.136-0.684-0.267-1.37-0.392-2.058c-0.129-0.708-0.166-1.413-0.12-2.1
		c-0.266-0.637-0.457-1.317-0.563-2.031c-0.102-0.689-0.199-1.38-0.29-2.072c-0.094-0.714-0.096-1.419-0.016-2.104
		c-0.233-0.649-0.392-1.337-0.462-2.055c-0.068-0.692-0.13-1.387-0.188-2.083c-0.059-0.718-0.026-1.422,0.087-2.102
		c-0.201-0.66-0.325-1.354-0.36-2.075c-0.034-0.694-0.063-1.39-0.086-2.087c-0.023-0.72,0.043-1.421,0.189-2.095
		c-0.169-0.668-0.26-1.369-0.26-2.091v-0.082c0-0.669,0.005-1.338,0.016-2.005c0.011-0.719,0.112-1.417,0.291-2.081
		c-0.137-0.675-0.193-1.378-0.158-2.098c0.033-0.697,0.073-1.392,0.117-2.086c0.046-0.719,0.18-1.412,0.391-2.067
		c-0.104-0.682-0.125-1.387-0.056-2.104c0.067-0.695,0.141-1.388,0.219-2.08c0.081-0.717,0.249-1.403,0.493-2.048
		c-0.07-0.686-0.057-1.391,0.048-2.104c0.101-0.691,0.208-1.38,0.321-2.067c0.116-0.712,0.318-1.389,0.593-2.021
		c-0.036-0.688,0.012-1.393,0.152-2.1c0.135-0.686,0.276-1.369,0.423-2.051c0.151-0.705,0.386-1.37,0.691-1.988
		c-0.002-0.689,0.08-1.389,0.254-2.088c0.169-0.678,0.344-1.354,0.524-2.028c0.186-0.697,0.454-1.351,0.79-1.953
		c0.032-0.689,0.149-1.387,0.359-2.078c0.203-0.67,0.412-1.338,0.625-2.004c0.221-0.688,0.522-1.33,0.889-1.916
		c0.065-0.688,0.217-1.379,0.46-2.059c0.236-0.66,0.477-1.316,0.724-1.971c0.255-0.678,0.588-1.305,0.984-1.874
		c0.1-0.684,0.286-1.367,0.563-2.035c0.268-0.646,0.542-1.291,0.82-1.932c0.288-0.663,0.65-1.271,1.073-1.817
		c0.133-0.677,0.352-1.349,0.661-2.001c0.3-0.632,0.604-1.261,0.915-1.888c0.32-0.648,0.711-1.237,1.161-1.762
		c0.167-0.671,0.419-1.333,0.761-1.97c0.33-0.614,0.664-1.227,1.003-1.835c0.352-0.631,0.771-1.2,1.246-1.702
		c0.2-0.661,0.483-1.307,0.855-1.926c0.36-0.599,0.724-1.195,1.094-1.788c0.382-0.612,0.829-1.159,1.327-1.638
		c0.231-0.648,0.545-1.279,0.946-1.877c0.389-0.581,0.783-1.159,1.181-1.733c0.411-0.592,0.883-1.117,1.403-1.569
		c0.263-0.637,0.608-1.251,1.037-1.83c0.417-0.562,0.84-1.121,1.267-1.676c0.438-0.57,0.935-1.069,1.475-1.495
		c0.293-0.624,0.668-1.221,1.126-1.778c0.444-0.541,0.893-1.078,1.347-1.611c0.465-0.547,0.984-1.02,1.543-1.419
		c0.324-0.609,0.728-1.188,1.212-1.722c0.468-0.516,0.94-1.028,1.416-1.537c0.493-0.526,1.036-0.976,1.616-1.348
		c0.353-0.592,0.785-1.151,1.295-1.661c0.493-0.494,0.99-0.983,1.492-1.468c0.516-0.5,1.08-0.92,1.675-1.263
		c0.381-0.574,0.838-1.11,1.372-1.594c0.517-0.469,1.037-0.934,1.561-1.394c0.54-0.474,1.123-0.868,1.735-1.182
		c0.409-0.555,0.893-1.069,1.45-1.527c0.536-0.441,1.076-0.877,1.619-1.31c0.564-0.449,1.167-0.815,1.795-1.1
		c0.435-0.533,0.942-1.022,1.519-1.452c0.559-0.416,1.122-0.828,1.688-1.235c0.584-0.419,1.203-0.754,1.842-1.007
		c0.46-0.511,0.989-0.974,1.586-1.375c0.579-0.389,1.161-0.772,1.747-1.152c0.604-0.391,1.238-0.695,1.889-0.917
		c0.485-0.489,1.037-0.926,1.654-1.297c0.595-0.358,1.193-0.712,1.794-1.062c0.623-0.361,1.272-0.635,1.935-0.825
		c0.508-0.464,1.082-0.874,1.716-1.215c0.611-0.328,1.226-0.652,1.843-0.971c0.639-0.33,1.3-0.572,1.97-0.729
		c0.53-0.439,1.123-0.82,1.772-1.129c0.625-0.298,1.253-0.59,1.884-0.878c0.656-0.3,1.331-0.509,2.01-0.633
		c0.55-0.411,1.159-0.762,1.822-1.038c0.641-0.268,1.285-0.53,1.931-0.787c0.67-0.267,1.355-0.442,2.04-0.533
		c0.57-0.384,1.198-0.706,1.875-0.95c0.658-0.237,1.318-0.469,1.981-0.695c0.682-0.233,1.373-0.374,2.059-0.43
		c0.589-0.356,1.232-0.646,1.921-0.857c0.667-0.204,1.335-0.402,2.006-0.595c0.694-0.2,1.393-0.307,2.083-0.329
		c0.607-0.328,1.265-0.585,1.965-0.762c0.675-0.17,1.352-0.334,2.031-0.494c0.703-0.165,1.406-0.245,2.096-0.225
		c0.622-0.296,1.291-0.521,1.998-0.663c0.684-0.137,1.369-0.268,2.057-0.394c0.709-0.129,1.413-0.167,2.101-0.121
		c0.637-0.266,1.316-0.458,2.03-0.563c0.688-0.103,1.379-0.2,2.072-0.292c0.713-0.094,1.418-0.098,2.104-0.018
		c0.648-0.234,1.336-0.392,2.054-0.463c0.692-0.068,1.387-0.131,2.083-0.189c0.718-0.059,1.423-0.027,2.103,0.086
		c0.659-0.202,1.354-0.326,2.074-0.362c0.694-0.034,1.39-0.063,2.087-0.087c0.72-0.025,1.423,0.042,2.096,0.188
		c0.671-0.17,1.374-0.261,2.097-0.261h0.086c0.714-0.006,1.354,0.004,1.992,0.014c0.721,0.011,1.418,0.11,2.084,0.289
		c0.676-0.137,1.379-0.192,2.097-0.16c0.696,0.033,1.392,0.072,2.086,0.116c0.72,0.045,1.413,0.179,2.069,0.39
		c0.681-0.104,1.384-0.126,2.103-0.057c0.695,0.067,1.389,0.14,2.08,0.218c0.716,0.081,1.401,0.248,2.047,0.491
		c0.687-0.07,1.393-0.06,2.105,0.046c0.692,0.101,1.382,0.208,2.069,0.319c0.712,0.116,1.389,0.317,2.021,0.592
		c0.686-0.037,1.391,0.01,2.099,0.15c0.684,0.135,1.365,0.275,2.045,0.42c0.708,0.151,1.375,0.386,1.995,0.692
		c0.011,0,0.021,0,0.031,0c0.679,0,1.368,0.082,2.057,0.253c0.68,0.169,1.357,0.343,2.032,0.523c0.696,0.186,1.35,0.453,1.951,0.788
		c0.689,0.031,1.385,0.148,2.075,0.356c0.672,0.203,1.34,0.411,2.007,0.625c0.688,0.221,1.33,0.521,1.916,0.888
		c0.689,0.065,1.382,0.216,2.063,0.46c0.659,0.235,1.314,0.476,1.968,0.722c0.678,0.254,1.305,0.586,1.873,0.982
		c0.685,0.1,1.368,0.285,2.036,0.562c0.647,0.268,1.292,0.542,1.935,0.82c0.662,0.287,1.269,0.648,1.815,1.07
		c0.677,0.133,1.348,0.351,2,0.659c0.635,0.3,1.268,0.606,1.896,0.917c0.646,0.319,1.234,0.71,1.759,1.157
		c0.671,0.167,1.332,0.418,1.97,0.76c0.615,0.33,1.229,0.664,1.838,1.003c0.631,0.351,1.199,0.771,1.701,1.244
		c0.661,0.199,1.309,0.483,1.928,0.854c0.598,0.359,1.191,0.722,1.783,1.089c0.613,0.382,1.162,0.829,1.642,1.328
		c0.651,0.231,1.284,0.547,1.885,0.949c0.582,0.39,1.161,0.784,1.735,1.183c0.589,0.409,1.11,0.878,1.562,1.395
		c0.639,0.263,1.256,0.609,1.837,1.041c0.561,0.417,1.119,0.837,1.672,1.263c0.57,0.438,1.07,0.934,1.496,1.474
		c0.623,0.293,1.22,0.667,1.775,1.122c0.54,0.443,1.076,0.89,1.608,1.342c0.551,0.466,1.026,0.987,1.427,1.548
		c0.609,0.324,1.188,0.727,1.724,1.211c0.517,0.469,1.03,0.941,1.54,1.418c0.524,0.491,0.973,1.033,1.345,1.61
		c0.592,0.353,1.15,0.783,1.66,1.292c0.492,0.491,0.979,0.985,1.464,1.484c0.504,0.519,0.929,1.085,1.273,1.684
		c0.574,0.38,1.11,0.837,1.595,1.371c0.466,0.514,0.929,1.031,1.389,1.553c0.477,0.542,0.873,1.127,1.188,1.742
		c0.553,0.407,1.064,0.888,1.521,1.442c0.444,0.538,0.883,1.079,1.317,1.625c0.45,0.564,0.816,1.167,1.102,1.795
		c0.533,0.434,1.022,0.941,1.452,1.518c0.417,0.56,0.829,1.122,1.237,1.688c0.419,0.583,0.754,1.201,1.007,1.84
		c0.513,0.461,0.978,0.991,1.379,1.59c0.386,0.575,0.768,1.152,1.146,1.733c0.394,0.606,0.7,1.243,0.923,1.897
		c0.488,0.483,0.924,1.034,1.295,1.648c0.362,0.599,0.719,1.201,1.069,1.806c0.36,0.62,0.633,1.267,0.822,1.927
		c0.465,0.508,0.875,1.082,1.216,1.715c0.329,0.611,0.652,1.225,0.972,1.842c0.331,0.638,0.572,1.299,0.729,1.968
		c0.439,0.529,0.82,1.121,1.13,1.77c0.299,0.625,0.592,1.254,0.881,1.886c0.301,0.657,0.511,1.331,0.635,2.01
		c0.411,0.549,0.762,1.158,1.039,1.82c0.269,0.642,0.531,1.287,0.789,1.934c0.267,0.669,0.442,1.353,0.533,2.036
		c0.386,0.572,0.708,1.201,0.953,1.881c0.235,0.652,0.465,1.307,0.691,1.963c0.235,0.686,0.378,1.381,0.435,2.072
		c0.356,0.589,0.646,1.23,0.857,1.918c0.204,0.667,0.402,1.335,0.596,2.006c0.2,0.694,0.309,1.393,0.331,2.084
		c0.327,0.607,0.586,1.264,0.762,1.963c0.171,0.674,0.336,1.351,0.495,2.028c0.166,0.704,0.239,1.407,0.228,2.098
		c0.297,0.622,0.522,1.291,0.664,1.997c0.138,0.686,0.27,1.373,0.396,2.062c0.13,0.708,0.167,1.41,0.122,2.096
		c0.265,0.635,0.457,1.312,0.563,2.022c0.104,0.691,0.202,1.384,0.294,2.078c0.095,0.713,0.099,1.418,0.02,2.102
		c0.234,0.649,0.394,1.337,0.465,2.055c0.069,0.694,0.133,1.391,0.19,2.088c0.06,0.717,0.028,1.421-0.085,2.1
		c0.202,0.657,0.326,1.349,0.363,2.065c0.035,0.696,0.064,1.395,0.089,2.094c0.024,0.719-0.041,1.421-0.187,2.094
		c0.172,0.673,0.263,1.378,0.263,2.104v0.244c0,0.61-0.004,1.218-0.013,1.827c-0.01,0.721-0.109,1.419-0.287,2.086
		c0.137,0.675,0.194,1.377,0.161,2.097c-0.033,0.699-0.07,1.396-0.114,2.093c-0.046,0.718-0.179,1.41-0.389,2.064
		c0.104,0.683,0.127,1.389,0.058,2.108c-0.066,0.693-0.139,1.384-0.216,2.074c-0.08,0.717-0.247,1.403-0.49,2.049
		c0.071,0.685,0.06,1.39-0.044,2.102c-0.102,0.693-0.207,1.385-0.319,2.075c-0.115,0.709-0.315,1.385-0.589,2.016
		c0.037,0.691-0.01,1.397-0.149,2.107c-0.135,0.684-0.274,1.365-0.42,2.045c-0.15,0.706-0.384,1.372-0.689,1.991
		c0.003,0.69-0.079,1.391-0.253,2.091c-0.168,0.678-0.342,1.353-0.521,2.026c-0.186,0.697-0.452,1.35-0.786,1.953
		c-0.031,0.688-0.147,1.383-0.354,2.072c-0.201,0.67-0.409,1.338-0.621,2.004c-0.221,0.692-0.521,1.337-0.89,1.926
		c-0.064,0.689-0.216,1.381-0.459,2.063c-0.235,0.661-0.476,1.318-0.722,1.974c-0.254,0.677-0.585,1.301-0.979,1.869
		c-0.099,0.686-0.284,1.37-0.562,2.039c-0.267,0.644-0.538,1.285-0.814,1.924c-0.286,0.665-0.648,1.273-1.07,1.822
		c-0.133,0.68-0.352,1.354-0.661,2.008c-0.297,0.628-0.6,1.254-0.904,1.876c-0.321,0.653-0.714,1.246-1.165,1.775
		c-0.166,0.669-0.416,1.329-0.756,1.965c-0.33,0.619-0.665,1.234-1.005,1.845c-0.351,0.631-0.77,1.199-1.242,1.702
		c-0.198,0.659-0.48,1.306-0.851,1.923c-0.36,0.603-0.726,1.201-1.097,1.797c-0.38,0.61-0.824,1.155-1.319,1.633
		c-0.231,0.651-0.546,1.285-0.948,1.887c-0.388,0.58-0.779,1.157-1.177,1.731c-0.41,0.592-0.882,1.116-1.401,1.569
		c-0.262,0.638-0.606,1.253-1.035,1.832c-0.415,0.56-0.835,1.117-1.259,1.671c-0.439,0.573-0.937,1.074-1.478,1.503
		c-0.293,0.624-0.668,1.222-1.125,1.779c-0.443,0.541-0.891,1.079-1.343,1.611c-0.464,0.548-0.982,1.021-1.541,1.42
		c-0.322,0.608-0.725,1.187-1.206,1.72c-0.471,0.521-0.946,1.039-1.426,1.552c-0.49,0.523-1.03,0.97-1.606,1.341
		c-0.353,0.595-0.784,1.154-1.295,1.666c-0.487,0.488-0.978,0.973-1.473,1.455c-0.52,0.507-1.087,0.934-1.688,1.28
		c-0.38,0.573-0.836,1.109-1.367,1.594c-0.518,0.471-1.039,0.938-1.563,1.399c-0.539,0.475-1.121,0.868-1.732,1.183
		c-0.407,0.555-0.89,1.068-1.444,1.525c-0.537,0.443-1.077,0.882-1.621,1.316c-0.563,0.449-1.166,0.816-1.794,1.102
		c-0.436,0.534-0.943,1.025-1.521,1.456c-0.555,0.414-1.114,0.824-1.676,1.229c-0.584,0.422-1.204,0.759-1.845,1.014
		c-0.459,0.511-0.987,0.975-1.583,1.376c-0.579,0.391-1.161,0.775-1.748,1.156c-0.603,0.392-1.236,0.696-1.887,0.919
		c-0.483,0.488-1.034,0.926-1.649,1.298c-0.597,0.36-1.196,0.716-1.801,1.067c-0.621,0.361-1.27,0.635-1.93,0.825
		c-0.506,0.463-1.076,0.871-1.706,1.212c-0.615,0.332-1.233,0.659-1.854,0.98c-0.636,0.33-1.294,0.571-1.961,0.729
		c-0.53,0.439-1.123,0.822-1.773,1.133c-0.626,0.299-1.255,0.593-1.888,0.883c-0.655,0.3-1.329,0.51-2.007,0.635
		c-0.55,0.411-1.159,0.763-1.821,1.04c-0.64,0.268-1.282,0.529-1.928,0.787c-0.669,0.268-1.353,0.444-2.035,0.535
		c-0.571,0.387-1.198,0.709-1.876,0.954c-0.659,0.238-1.32,0.472-1.983,0.699c-0.681,0.232-1.37,0.375-2.057,0.432
		c-0.59,0.357-1.233,0.648-1.924,0.86c-0.663,0.203-1.328,0.4-1.996,0.594c-0.694,0.201-1.395,0.311-2.086,0.333
		c-0.605,0.328-1.26,0.586-1.957,0.763c-0.674,0.172-1.35,0.336-2.026,0.497c-0.708,0.168-1.423,0.247-2.108,0.23
		c-0.623,0.298-1.293,0.523-2.001,0.666c-0.682,0.137-1.365,0.269-2.052,0.395c-0.707,0.131-1.413,0.168-2.1,0.124
		c-0.637,0.267-1.315,0.46-2.029,0.566c-0.691,0.104-1.383,0.203-2.077,0.295c-0.712,0.096-1.416,0.1-2.099,0.02
		c-0.646,0.234-1.331,0.394-2.046,0.466c-0.693,0.07-1.39,0.134-2.089,0.192c-0.718,0.061-1.423,0.029-2.104-0.082
		c-0.658,0.202-1.352,0.327-2.071,0.364c-0.696,0.035-1.394,0.065-2.093,0.09c-0.721,0.019-1.418-0.041-2.089-0.185
		C256.76,331.684,256.053,331.775,255.325,331.775z M253.043,314.758c0.048,0,0.095,0,0.144,0.001
		c0.603,0.01,1.208,0.015,1.813,0.015h0.324c0.616,0,1.216,0.065,1.795,0.19c0.583-0.149,1.191-0.238,1.817-0.26
		c0.605-0.021,1.209-0.047,1.812-0.078c0.627-0.028,1.234,0.004,1.826,0.103c0.572-0.176,1.172-0.294,1.793-0.346
		c0.603-0.051,1.202-0.106,1.802-0.167c0.624-0.063,1.238-0.056,1.834,0.012c0.565-0.205,1.161-0.353,1.781-0.435
		c0.599-0.08,1.196-0.165,1.792-0.254c0.616-0.093,1.229-0.116,1.823-0.078c0.553-0.231,1.139-0.407,1.752-0.521
		c0.598-0.11,1.193-0.225,1.787-0.344c0.611-0.123,1.23-0.166,1.817-0.167c0.537-0.256,1.108-0.46,1.71-0.603
		c0.591-0.14,1.181-0.284,1.769-0.433c0.605-0.154,1.213-0.238,1.813-0.259c0.524-0.283,1.087-0.516,1.684-0.688
		c0.586-0.17,1.169-0.344,1.75-0.521c0.596-0.182,1.196-0.296,1.792-0.346c0.514-0.311,1.068-0.572,1.659-0.774
		c0.569-0.194,1.137-0.395,1.702-0.6c0.587-0.213,1.181-0.356,1.774-0.436c0.497-0.336,1.036-0.623,1.615-0.854
		c0.562-0.225,1.12-0.453,1.676-0.686c0.575-0.24,1.161-0.413,1.749-0.521c0.478-0.357,0.999-0.67,1.563-0.928
		c0.549-0.252,1.096-0.508,1.64-0.768c0.56-0.267,1.135-0.468,1.715-0.604c0.462-0.384,0.973-0.724,1.527-1.011
		c0.533-0.276,1.063-0.557,1.591-0.842c0.551-0.298,1.119-0.527,1.696-0.694c0.442-0.404,0.934-0.768,1.473-1.081
		c0.521-0.303,1.038-0.609,1.553-0.921c0.533-0.322,1.088-0.579,1.655-0.772c0.421-0.426,0.895-0.813,1.418-1.153
		c0.505-0.328,1.007-0.66,1.506-0.996c0.518-0.35,1.061-0.634,1.618-0.855c0.399-0.444,0.853-0.854,1.356-1.218
		c0.493-0.356,0.982-0.716,1.471-1.079c0.499-0.372,1.025-0.681,1.569-0.928c0.378-0.465,0.811-0.896,1.297-1.284
		c0.474-0.378,0.943-0.76,1.41-1.145c0.481-0.397,0.994-0.732,1.526-1.007c0.356-0.483,0.769-0.937,1.238-1.35
		c0.452-0.398,0.901-0.8,1.347-1.206c0.462-0.421,0.958-0.781,1.479-1.082c0.328-0.495,0.714-0.964,1.157-1.396
		c0.438-0.428,0.874-0.857,1.307-1.291c0.439-0.44,0.915-0.822,1.418-1.146c0.309-0.52,0.677-1.013,1.106-1.472
		c0.411-0.438,0.816-0.88,1.219-1.325c0.42-0.465,0.879-0.873,1.368-1.223c0.283-0.533,0.627-1.044,1.033-1.522
		c0.39-0.46,0.776-0.924,1.159-1.391c0.396-0.482,0.833-0.91,1.303-1.282c0.255-0.543,0.571-1.065,0.95-1.561
		c0.369-0.481,0.734-0.965,1.095-1.452c0.372-0.502,0.789-0.952,1.242-1.348c0.229-0.556,0.521-1.096,0.876-1.61
		c0.345-0.498,0.686-0.999,1.022-1.503c0.346-0.518,0.739-0.985,1.17-1.401c0.201-0.567,0.467-1.123,0.799-1.655
		c0.318-0.512,0.633-1.026,0.942-1.543c0.321-0.538,0.693-1.027,1.105-1.465c0.173-0.575,0.41-1.142,0.714-1.688
		c0.293-0.527,0.583-1.06,0.868-1.593c0.295-0.553,0.642-1.06,1.032-1.517c0.144-0.579,0.351-1.151,0.623-1.708
		c0.27-0.548,0.535-1.098,0.797-1.651c0.267-0.564,0.587-1.085,0.953-1.56c0.114-0.588,0.294-1.173,0.542-1.746
		c0.241-0.559,0.479-1.121,0.713-1.685c0.238-0.576,0.533-1.113,0.875-1.605c0.086-0.595,0.237-1.189,0.457-1.775
		c0.213-0.567,0.422-1.137,0.626-1.709c0.21-0.589,0.478-1.141,0.796-1.65c0.057-0.595,0.177-1.194,0.365-1.787
		c0.185-0.579,0.365-1.16,0.541-1.743c0.18-0.599,0.42-1.163,0.712-1.687c0.027-0.599,0.118-1.204,0.278-1.806
		c0.155-0.584,0.306-1.17,0.452-1.758c0.15-0.605,0.361-1.178,0.626-1.715c-0.002-0.598,0.06-1.206,0.189-1.815
		c0.126-0.593,0.248-1.188,0.365-1.783c0.12-0.609,0.303-1.19,0.539-1.738c-0.032-0.6-0.001-1.213,0.1-1.83
		c0.097-0.594,0.188-1.19,0.274-1.788c0.09-0.618,0.244-1.211,0.455-1.772c-0.062-0.595-0.061-1.207,0.009-1.825
		c0.067-0.603,0.13-1.207,0.188-1.813c0.06-0.619,0.185-1.217,0.366-1.786c-0.09-0.593-0.119-1.206-0.08-1.83
		c0.038-0.602,0.071-1.205,0.099-1.81c0.029-0.624,0.125-1.229,0.279-1.808c-0.119-0.587-0.178-1.195-0.169-1.819
		c0.007-0.53,0.011-1.062,0.011-1.593v-0.244c0-0.618,0.066-1.221,0.191-1.802c-0.147-0.582-0.236-1.188-0.258-1.812
		c-0.021-0.604-0.046-1.208-0.077-1.811c-0.031-0.626,0.005-1.24,0.104-1.833c-0.176-0.574-0.294-1.176-0.345-1.799
		c-0.05-0.603-0.105-1.203-0.165-1.803c-0.062-0.62-0.056-1.23,0.013-1.825c-0.203-0.564-0.351-1.159-0.433-1.778
		c-0.08-0.599-0.164-1.196-0.253-1.791c-0.094-0.619-0.117-1.232-0.077-1.832c-0.232-0.554-0.408-1.142-0.521-1.757
		c-0.108-0.593-0.223-1.185-0.341-1.775c-0.123-0.611-0.177-1.221-0.167-1.82c-0.257-0.54-0.461-1.114-0.604-1.72
		c-0.14-0.591-0.283-1.18-0.432-1.768c-0.152-0.604-0.235-1.209-0.255-1.808c-0.284-0.526-0.517-1.09-0.688-1.688
		c-0.168-0.582-0.341-1.163-0.518-1.74c-0.183-0.598-0.297-1.2-0.346-1.798c-0.308-0.509-0.567-1.059-0.769-1.645
		c-0.197-0.577-0.399-1.151-0.605-1.723c-0.211-0.585-0.354-1.179-0.433-1.772c-0.336-0.497-0.623-1.038-0.854-1.617
		c-0.223-0.559-0.45-1.116-0.682-1.67c-0.24-0.575-0.412-1.161-0.521-1.75c-0.356-0.476-0.667-0.997-0.925-1.56
		c-0.252-0.55-0.508-1.098-0.768-1.644c-0.268-0.562-0.469-1.138-0.605-1.72c-0.382-0.46-0.72-0.969-1.006-1.521
		c-0.278-0.537-0.561-1.072-0.847-1.604c-0.295-0.548-0.523-1.113-0.688-1.688c-0.404-0.443-0.769-0.936-1.082-1.476
		c-0.302-0.519-0.607-1.035-0.917-1.549c-0.323-0.535-0.581-1.092-0.774-1.66c-0.423-0.419-0.809-0.89-1.146-1.41
		c-0.331-0.51-0.666-1.017-1.005-1.521c-0.347-0.517-0.63-1.057-0.85-1.613c-0.446-0.401-0.856-0.855-1.222-1.362
		c-0.352-0.49-0.709-0.976-1.069-1.459c-0.373-0.5-0.683-1.028-0.93-1.574c-0.464-0.377-0.895-0.81-1.282-1.296
		c-0.378-0.473-0.758-0.942-1.142-1.409c-0.398-0.483-0.734-0.996-1.01-1.531c-0.48-0.354-0.932-0.765-1.343-1.231
		c-0.401-0.456-0.807-0.909-1.215-1.358c-0.419-0.462-0.778-0.957-1.078-1.477c-0.497-0.33-0.967-0.718-1.399-1.163
		c-0.424-0.436-0.851-0.869-1.28-1.298c-0.442-0.441-0.825-0.918-1.149-1.423c-0.518-0.308-1.01-0.676-1.467-1.104
		c-0.441-0.413-0.887-0.823-1.335-1.228c-0.462-0.419-0.867-0.877-1.216-1.365c-0.529-0.281-1.037-0.624-1.513-1.027
		c-0.462-0.391-0.926-0.779-1.394-1.162c-0.484-0.397-0.913-0.836-1.286-1.308c-0.544-0.256-1.069-0.574-1.565-0.956
		c-0.48-0.368-0.963-0.733-1.449-1.094c-0.5-0.371-0.947-0.787-1.341-1.238c-0.56-0.23-1.102-0.523-1.618-0.882
		c-0.496-0.344-0.995-0.684-1.497-1.02c-0.518-0.347-0.986-0.741-1.401-1.172c-0.563-0.201-1.115-0.465-1.645-0.793
		c-0.516-0.321-1.035-0.639-1.557-0.952c-0.535-0.321-1.022-0.693-1.46-1.104c-0.575-0.173-1.14-0.411-1.687-0.715
		c-0.529-0.295-1.063-0.585-1.598-0.872c-0.55-0.294-1.055-0.641-1.511-1.03c-0.583-0.145-1.16-0.354-1.722-0.632
		c-0.541-0.267-1.085-0.53-1.631-0.788c-0.566-0.268-1.09-0.59-1.566-0.958c-0.59-0.116-1.177-0.297-1.751-0.546
		c-0.555-0.241-1.113-0.477-1.673-0.709c-0.578-0.239-1.114-0.535-1.607-0.878c-0.594-0.086-1.187-0.237-1.771-0.457
		c-0.569-0.213-1.141-0.423-1.714-0.628c-0.589-0.21-1.14-0.479-1.648-0.797c-0.599-0.057-1.2-0.179-1.796-0.369
		c-0.577-0.185-1.157-0.366-1.739-0.542c-0.597-0.181-1.159-0.421-1.683-0.712c-0.599-0.028-1.204-0.12-1.807-0.28
		c-0.581-0.155-1.165-0.306-1.751-0.451c-0.606-0.15-1.182-0.363-1.72-0.629c-0.599,0.034-1.205-0.059-1.813-0.189
		c-0.592-0.126-1.186-0.249-1.781-0.366c-0.612-0.121-1.195-0.304-1.745-0.542c-0.602,0.031-1.208,0-1.822-0.1
		c-0.596-0.097-1.193-0.189-1.792-0.277c-0.618-0.09-1.21-0.244-1.771-0.455c-0.599,0.062-1.21,0.06-1.83-0.01
		c-0.6-0.067-1.201-0.13-1.805-0.188c-0.621-0.06-1.221-0.185-1.791-0.368c-0.592,0.089-1.2,0.119-1.824,0.079
		c-0.604-0.038-1.21-0.072-1.816-0.1c-0.623-0.03-1.228-0.125-1.808-0.281c-0.587,0.119-1.196,0.18-1.82,0.168
		c-0.555-0.008-1.109-0.012-1.666-0.012h-0.163c-0.621,0-1.227-0.066-1.81-0.193c-0.581,0.147-1.187,0.235-1.811,0.256
		c-0.606,0.021-1.212,0.046-1.817,0.076c-0.625,0.031-1.234-0.006-1.824-0.104c-0.573,0.175-1.174,0.292-1.795,0.344
		c-0.605,0.05-1.208,0.105-1.809,0.165c-0.62,0.061-1.231,0.054-1.826-0.015c-0.564,0.204-1.158,0.35-1.777,0.432
		c-0.601,0.079-1.2,0.164-1.797,0.252c-0.616,0.093-1.227,0.115-1.824,0.075c-0.553,0.231-1.14,0.406-1.753,0.519
		c-0.595,0.108-1.189,0.222-1.78,0.34c-0.612,0.123-1.225,0.174-1.821,0.166c-0.54,0.257-1.116,0.461-1.722,0.603
		c-0.59,0.139-1.179,0.282-1.766,0.429c-0.604,0.152-1.209,0.235-1.807,0.254c-0.526,0.284-1.091,0.516-1.689,0.688
		c-0.582,0.167-1.163,0.339-1.74,0.516c-0.597,0.182-1.199,0.296-1.796,0.345c-0.514,0.31-1.068,0.57-1.659,0.772
		c-0.571,0.195-1.14,0.395-1.707,0.599c-0.588,0.211-1.184,0.354-1.778,0.433c-0.496,0.334-1.035,0.621-1.613,0.851
		c-0.561,0.223-1.118,0.45-1.673,0.682c-0.575,0.24-1.161,0.412-1.749,0.52c-0.477,0.356-0.998,0.667-1.561,0.924
		c-0.551,0.252-1.1,0.507-1.646,0.767c-0.562,0.267-1.138,0.467-1.719,0.604c-0.461,0.381-0.969,0.719-1.521,1.004
		c-0.538,0.278-1.072,0.56-1.604,0.846c-0.548,0.294-1.114,0.522-1.688,0.687c-0.441,0.403-0.932,0.765-1.47,1.077
		c-0.523,0.304-1.043,0.611-1.561,0.923c-0.533,0.321-1.088,0.577-1.654,0.77c-0.422,0.425-0.896,0.812-1.419,1.15
		c-0.506,0.328-1.01,0.66-1.51,0.996c-0.518,0.348-1.061,0.631-1.618,0.852c-0.401,0.445-0.856,0.855-1.362,1.22
		c-0.491,0.353-0.978,0.709-1.462,1.069c-0.5,0.373-1.029,0.682-1.575,0.929c-0.378,0.464-0.812,0.895-1.298,1.282
		c-0.475,0.378-0.946,0.76-1.415,1.145c-0.481,0.396-0.992,0.729-1.524,1.002c-0.356,0.483-0.77,0.936-1.239,1.348
		c-0.454,0.399-0.905,0.801-1.352,1.208c-0.462,0.419-0.958,0.779-1.478,1.078c-0.333,0.5-0.725,0.974-1.174,1.409
		c-0.434,0.42-0.865,0.845-1.292,1.272c-0.441,0.441-0.918,0.823-1.422,1.147c-0.307,0.515-0.674,1.005-1.101,1.46
		c-0.415,0.443-0.825,0.889-1.232,1.337c-0.419,0.462-0.877,0.867-1.365,1.215c-0.283,0.532-0.627,1.042-1.034,1.519
		c-0.391,0.46-0.777,0.923-1.16,1.389c-0.396,0.483-0.835,0.911-1.306,1.282c-0.256,0.544-0.575,1.069-0.957,1.566
		c-0.368,0.479-0.732,0.959-1.092,1.444c-0.373,0.502-0.791,0.952-1.244,1.347c-0.229,0.555-0.521,1.094-0.877,1.607
		c-0.345,0.497-0.685,0.997-1.022,1.5c-0.348,0.521-0.744,0.99-1.177,1.407c-0.202,0.564-0.466,1.117-0.797,1.646
		c-0.32,0.514-0.637,1.031-0.949,1.55c-0.322,0.536-0.694,1.023-1.105,1.46c-0.174,0.574-0.411,1.139-0.715,1.684
		c-0.295,0.531-0.587,1.064-0.875,1.6c-0.295,0.549-0.642,1.054-1.031,1.509c-0.145,0.582-0.354,1.158-0.631,1.717
		c-0.268,0.543-0.533,1.089-0.792,1.638c-0.268,0.565-0.591,1.087-0.958,1.563c-0.116,0.588-0.297,1.174-0.546,1.747
		c-0.242,0.557-0.479,1.115-0.712,1.675c-0.24,0.578-0.536,1.115-0.879,1.608c-0.086,0.593-0.238,1.186-0.458,1.769
		c-0.213,0.568-0.423,1.138-0.628,1.71c-0.211,0.59-0.48,1.142-0.799,1.651c-0.058,0.599-0.179,1.2-0.371,1.795
		c-0.186,0.578-0.367,1.158-0.543,1.741c-0.181,0.596-0.421,1.158-0.712,1.68c-0.028,0.598-0.12,1.203-0.281,1.805
		c-0.156,0.583-0.307,1.168-0.453,1.755c-0.151,0.605-0.364,1.179-0.629,1.716c0.001,0.599-0.061,1.208-0.192,1.817
		c-0.126,0.591-0.249,1.183-0.366,1.776c-0.121,0.612-0.304,1.195-0.543,1.744c0.031,0.598,0,1.208-0.101,1.823
		c-0.098,0.597-0.19,1.195-0.279,1.794c-0.09,0.618-0.246,1.209-0.457,1.771c0.061,0.595,0.059,1.207-0.012,1.826
		c-0.068,0.601-0.131,1.203-0.19,1.807c-0.061,0.62-0.186,1.219-0.369,1.789c0.09,0.592,0.118,1.204,0.079,1.826
		c-0.039,0.604-0.073,1.209-0.102,1.815c-0.03,0.624-0.126,1.228-0.282,1.807c0.119,0.588,0.177,1.199,0.167,1.824
		c-0.009,0.579-0.014,1.158-0.014,1.739c0,0.638-0.07,1.26-0.203,1.858c0.153,0.593,0.244,1.212,0.265,1.85
		c0.02,0.606,0.045,1.212,0.074,1.817c0.031,0.623-0.007,1.233-0.105,1.824c0.175,0.574,0.292,1.175,0.343,1.797
		c0.049,0.605,0.104,1.208,0.163,1.809c0.061,0.621,0.053,1.231-0.016,1.827c0.203,0.564,0.349,1.159,0.43,1.777
		c0.079,0.601,0.163,1.2,0.251,1.797c0.091,0.616,0.114,1.227,0.074,1.824c0.23,0.554,0.406,1.141,0.518,1.755
		c0.108,0.595,0.222,1.188,0.339,1.78c0.122,0.611,0.174,1.221,0.164,1.82c0.257,0.541,0.46,1.117,0.602,1.724
		c0.138,0.591,0.281,1.179,0.428,1.766c0.151,0.604,0.234,1.208,0.253,1.807c0.284,0.527,0.516,1.092,0.687,1.69
		c0.167,0.583,0.339,1.164,0.515,1.743c0.182,0.596,0.294,1.197,0.343,1.793c0.31,0.514,0.57,1.069,0.771,1.661
		c0.194,0.571,0.394,1.139,0.597,1.706c0.211,0.587,0.354,1.183,0.432,1.778c0.333,0.496,0.62,1.035,0.849,1.613
		c0.224,0.561,0.451,1.121,0.683,1.678c0.239,0.574,0.41,1.158,0.517,1.746c0.357,0.479,0.669,1.003,0.927,1.57
		c0.25,0.549,0.504,1.095,0.762,1.639c0.267,0.562,0.467,1.139,0.603,1.721c0.38,0.46,0.717,0.968,1.002,1.521
		c0.277,0.536,0.558,1.071,0.844,1.603c0.294,0.548,0.522,1.114,0.687,1.688c0.404,0.443,0.767,0.937,1.08,1.477
		c0.302,0.521,0.608,1.039,0.918,1.555c0.321,0.534,0.577,1.09,0.77,1.656c0.425,0.423,0.812,0.896,1.15,1.421
		c0.329,0.508,0.66,1.012,0.996,1.513c0.347,0.519,0.63,1.061,0.85,1.618c0.445,0.401,0.854,0.855,1.218,1.362
		c0.352,0.49,0.708,0.978,1.068,1.462c0.372,0.5,0.681,1.028,0.928,1.574c0.467,0.381,0.9,0.817,1.29,1.309
		c0.374,0.472,0.753,0.94,1.135,1.406c0.396,0.482,0.73,0.995,1.004,1.528c0.481,0.355,0.931,0.768,1.342,1.234
		c0.401,0.457,0.805,0.91,1.213,1.359c0.418,0.462,0.776,0.957,1.075,1.477c0.499,0.332,0.97,0.722,1.403,1.17
		c0.421,0.436,0.846,0.867,1.275,1.297c0.441,0.441,0.823,0.919,1.147,1.424c0.517,0.309,1.008,0.678,1.465,1.106
		c0.438,0.412,0.881,0.82,1.326,1.224c0.464,0.421,0.871,0.882,1.22,1.372c0.528,0.281,1.034,0.624,1.509,1.027
		c0.462,0.393,0.927,0.781,1.396,1.167c0.483,0.396,0.911,0.836,1.282,1.308c0.542,0.256,1.066,0.574,1.561,0.954
		c0.479,0.369,0.961,0.734,1.446,1.095c0.503,0.374,0.953,0.793,1.348,1.247c0.554,0.229,1.092,0.521,1.604,0.877
		c0.498,0.347,0.999,0.688,1.502,1.025c0.519,0.348,0.986,0.742,1.402,1.175c0.566,0.203,1.12,0.469,1.65,0.801
		c0.514,0.321,1.031,0.638,1.551,0.951c0.533,0.321,1.019,0.692,1.454,1.103c0.576,0.175,1.143,0.413,1.69,0.719
		c0.527,0.295,1.057,0.586,1.59,0.871c0.552,0.296,1.058,0.645,1.515,1.036c0.579,0.145,1.152,0.354,1.709,0.629
		c0.546,0.27,1.094,0.536,1.645,0.797c0.563,0.269,1.084,0.59,1.558,0.956c0.59,0.117,1.177,0.299,1.752,0.549
		c0.555,0.242,1.113,0.479,1.672,0.712c0.578,0.24,1.116,0.537,1.609,0.882c0.593,0.087,1.186,0.239,1.77,0.459
		c0.567,0.214,1.136,0.424,1.708,0.628c0.59,0.212,1.142,0.482,1.652,0.802c0.594,0.058,1.19,0.179,1.781,0.368
		c0.582,0.187,1.166,0.369,1.752,0.547c0.596,0.182,1.157,0.422,1.679,0.714c0.6,0.028,1.207,0.121,1.811,0.283
		c0.582,0.156,1.165,0.307,1.75,0.453c0.605,0.151,1.178,0.364,1.715,0.63c0.653-0.009,1.214,0.063,1.826,0.194
		c0.588,0.128,1.177,0.249,1.769,0.367c0.611,0.121,1.195,0.305,1.744,0.544c0.597-0.032,1.207,0.002,1.823,0.103
		c0.594,0.098,1.19,0.191,1.788,0.278c0.619,0.091,1.213,0.247,1.775,0.459c0.598-0.06,1.211-0.058,1.833,0.014
		c0.6,0.068,1.2,0.132,1.801,0.19c0.621,0.062,1.219,0.188,1.79,0.371c0.593-0.089,1.203-0.115,1.825-0.077
		c0.602,0.039,1.205,0.073,1.809,0.103c0.625,0.03,1.231,0.127,1.812,0.283C251.905,314.815,252.467,314.758,253.043,314.758z"/>
	<path d="M348.879,90.884c-1.85,0-3.687-0.604-5.206-1.779c-25.709-19.908-56.372-30.43-88.674-30.43s-62.965,10.522-88.674,30.43
		c-2.564,1.986-6.037,2.338-8.948,0.911c-2.912-1.428-4.758-4.39-4.758-7.633V7.501c0-4.695,3.806-8.501,8.501-8.501h187.757
		c4.695,0,8.501,3.806,8.501,8.501v74.882c0,3.243-1.846,6.205-4.758,7.633C351.435,90.597,350.155,90.884,348.879,90.884z
		 M255,41.672c30.52,0,59.727,8.4,85.378,24.43v-50.1H169.623v50.1C195.273,50.072,224.48,41.672,255,41.672z"/>
	<path d="M348.88,510.999c-2.212,0-4.387-0.863-6.014-2.489l-87.867-87.868l-87.867,87.868c-2.43,2.431-6.087,3.161-9.264,1.842
		c-3.176-1.315-5.248-4.416-5.248-7.854V325.203c0-3.243,1.846-6.205,4.758-7.633c2.911-1.428,6.383-1.074,8.948,0.911
		c25.709,19.907,56.371,30.429,88.674,30.429s62.966-10.522,88.674-30.429c2.564-1.985,6.037-2.338,8.948-0.911
		c2.911,1.428,4.758,4.39,4.758,7.633v177.293c0,3.438-2.071,6.538-5.248,7.854C351.08,510.787,349.975,510.999,348.88,510.999z
		 M255,400.117c2.254,0,4.418,0.896,6.011,2.489l79.366,79.367v-140.49c-25.649,16.029-54.857,24.429-85.378,24.429
		s-59.728-8.399-85.378-24.429v140.491l79.366-79.367C250.583,401.013,252.745,400.117,255,400.117z"/>
	
	<text x="190" y="290" font-family="Calibri" font-size="250">
    7
  </text>
</g>
<g>
</g>
<g>
</g>
<g>
</g>
<g>
</g>
<g>
</g>
<g>
</g>
<g>
</g>
<g>
</g>
<g>
</g>
<g>
</g>
<g>
</g>
<g>
</g>
<g>
</g>
<g>
</g>
<g>
</g>
</svg>
