<?xml version="1.0" encoding="iso-8859-1"?>
<!-- Generator: Adobe Illustrator 19.0.0, SVG Export Plug-In . SVG Version: 6.00 Build 0)  -->
<svg version="1.1" id="Capa_1" xmlns="http://www.w3.org/2000/svg" xmlns:xlink="http://www.w3.org/1999/xlink" x="0px" y="0px"
	 viewBox="0 0 512.002 512.002" style="enable-background:new 0 0 512.002 512.002;" xml:space="preserve">
<path style="fill:#3F9CEF;" d="M194.107,289.071l-46.733-18.776L69.656,463.736c-1.617,4.026,2.171,8.122,6.311,6.822l47.736-14.988
	c2.337-0.734,4.866,0.283,6.046,2.429l24.097,43.848c2.09,3.802,7.659,3.466,9.276-0.56l77.718-193.441L194.107,289.071z"/>
<path style="fill:#2384CC;" d="M240.844,307.847l-77.726,193.436c-1.614,4.031-7.188,4.37-9.275,0.566l-14.519-26.426l72.081-179.4
	L240.844,307.847z"/>
<path style="fill:#3F9CEF;" d="M317.895,289.071l46.733-18.776l77.718,193.441c1.617,4.026-2.171,8.122-6.311,6.822l-47.736-14.988
	c-2.337-0.734-4.866,0.283-6.046,2.429l-24.097,43.848c-2.09,3.802-7.659,3.466-9.276-0.56l-77.718-193.441L317.895,289.071z"/>
<path style="fill:#2384CC;" d="M436.036,470.558l-28.47-8.935l-72.153-179.585l29.213-11.743l77.72,193.44
	C443.963,467.761,440.175,471.857,436.036,470.558z"/>
<path d="M435.398,466.527h0.01H435.398z"/>
<path style="fill:#FFD527;" d="M431.716,175.578c0,17.771-24.241,31.493-29.448,47.528c-5.396,16.619,5.962,41.934-4.105,55.767
	c-10.168,13.972-37.821,10.941-51.793,21.109c-13.833,10.067-19.44,37.358-36.059,42.754c-16.035,5.207-36.54-13.407-54.311-13.407
	s-38.276,18.614-54.311,13.407c-16.619-5.396-22.226-32.687-36.059-42.755c-13.972-10.168-41.625-7.138-51.793-21.109
	c-10.067-13.833,1.291-39.147-4.105-55.766c-5.207-16.035-29.448-29.757-29.448-47.528s24.241-31.493,29.448-47.528
	c5.396-16.619-5.962-41.934,4.105-55.767c10.168-13.972,37.821-10.941,51.793-21.109c13.833-10.067,19.44-37.358,36.059-42.754
	c16.035-5.207,36.54,13.407,54.311,13.407S294.276,3.213,310.311,8.42c16.619,5.396,22.226,32.687,36.059,42.755
	c13.971,10.168,41.625,7.138,51.793,21.109c10.067,13.833-1.291,39.147,4.105,55.766
	C407.475,144.085,431.716,157.807,431.716,175.578z"/>
<path style="fill:#EFC203;" d="M398.159,278.871c-10.163,13.977-37.818,10.942-51.786,21.106
	c-13.837,10.074-19.438,37.359-36.061,42.76c-16.034,5.202-36.54-13.408-54.311-13.408s-38.278,18.61-54.311,13.408
	c-12.19-3.964-18.45-19.688-26.387-31.778c16.503,4.393,37.339-14.207,55.45-14.207c18.46,0,39.755,19.328,56.408,13.927
	c17.262-5.611,23.082-33.955,37.449-44.408c14.506-10.563,43.23-7.418,53.792-21.924c10.453-14.367-1.348-40.654,4.263-57.916
	c4.752-14.646,24.81-27.445,29.562-42.87c8.726,10.133,19.488,20.177,19.488,32.018c0,17.771-24.241,31.489-29.442,47.522
	C396.871,239.725,408.233,265.044,398.159,278.871z"/>
<circle style="fill:#F95F62;" cx="256.001" cy="175.58" r="103.5"/>
<path style="fill:#D85041;" d="M359.502,175.58c0,57.167-46.334,103.501-103.501,103.501c-18.45,0-35.772-4.822-50.767-13.288
	c4.483,0.599,9.065,0.909,13.708,0.909c57.157,0,103.501-46.344,103.501-103.501c0-38.727-21.275-72.492-52.774-90.233
	C320.376,79.656,359.502,123.045,359.502,175.58z"/>
<path d="M449.294,460.945l-24.393-60.715c-1.541-3.837-5.904-5.698-9.739-4.156c-3.838,1.542-5.698,5.902-4.157,9.739l22.546,56.116
	l-43.009-13.504c-5.72-1.792-11.964,0.716-14.85,5.968l-21.711,39.505l-57.726-143.683c5.469,1.206,10.948,1.404,16.371-0.357
	c12.111-3.933,19.097-15.885,25.26-26.43c4.006-6.854,8.149-13.941,12.892-17.392c4.19-3.05,10.816-4.796,17.599-6.329
	l22.551,56.131c1.542,3.838,5.905,5.699,9.74,4.156c3.837-1.542,5.698-5.901,4.157-9.739l-21.718-54.057
	c8.345-2.407,16.022-5.926,21.113-12.921c7.316-10.052,6.065-23.074,4.855-35.666c-0.773-8.05-1.573-16.375,0.317-22.194
	c1.758-5.415,6.899-11.18,12.342-17.283c8.19-9.183,17.472-19.592,17.472-32.557s-9.282-23.374-17.472-32.557
	c-5.443-6.103-10.584-11.868-12.342-17.283c-1.89-5.82-1.09-14.144-0.317-22.194c1.21-12.592,2.461-25.614-4.855-35.666
	c-7.391-10.156-20.237-12.986-32.659-15.721c-7.835-1.726-15.937-3.51-20.782-7.036c-4.743-3.451-8.886-10.539-12.892-17.393
	c-6.164-10.545-13.15-22.497-25.261-26.43c-11.622-3.771-23.5,1.39-34.987,6.384c-7.529,3.273-15.314,6.657-21.636,6.657
	s-14.107-3.384-21.636-6.657c-11.486-4.994-23.363-10.155-34.988-6.384c-12.111,3.933-19.096,15.885-25.26,26.43
	c-4.006,6.854-8.149,13.941-12.892,17.393c-4.845,3.526-12.947,5.311-20.783,7.036c-12.422,2.736-25.267,5.565-32.659,15.721
	c-7.316,10.053-6.065,23.074-4.855,35.667c0.773,8.05,1.573,16.375-0.317,22.194c-1.758,5.414-6.899,11.179-12.342,17.281
	c-8.19,9.184-17.473,19.593-17.473,32.558s9.283,23.375,17.473,32.558c5.443,6.103,10.583,11.868,12.342,17.282
	c1.889,5.82,1.09,14.144,0.317,22.194c-1.21,12.592-2.461,25.614,4.855,35.666c5.091,6.995,12.768,10.514,21.113,12.921
	l-66.19,164.747c-1.838,4.574-0.9,9.665,2.448,13.284c3.349,3.62,8.352,4.952,13.054,3.473l45.901-14.412l23.172,42.164
	c2.248,4.089,6.427,6.547,11.041,6.547c0.261,0,0.524-0.008,0.787-0.023c4.921-0.297,9.12-3.324,10.959-7.898l64.574-160.725
	c7.442-3.235,15.113-6.536,21.357-6.536c6.244,0,13.915,3.301,21.357,6.536l64.574,160.726c1.838,4.575,6.038,7.602,10.959,7.898
	c0.264,0.016,0.526,0.023,0.787,0.023c4.614,0,8.794-2.458,11.041-6.547l23.172-42.164l45.902,14.412
	c4.703,1.478,9.705,0.147,13.053-3.473C450.194,470.61,451.132,465.52,449.294,460.945z M158.021,493.898l-21.71-39.503
	c-2.26-4.114-6.579-6.545-11.093-6.545c-1.251,0-2.517,0.186-3.759,0.576l-43.008,13.503l65.175-162.222
	c6.783,1.533,13.409,3.279,17.599,6.329c4.743,3.451,8.886,10.538,12.892,17.392c6.164,10.545,13.15,22.498,25.261,26.43
	c2.797,0.908,5.608,1.299,8.425,1.299c2.645,0,5.294-0.35,7.942-0.934L158.021,493.898z M228.395,329.74
	c-9.341,4.061-18.162,7.895-24.392,5.873c-6.685-2.17-11.674-10.705-16.957-19.742c-4.784-8.185-9.731-16.648-17.009-21.945
	c-7.377-5.368-17.034-7.496-26.373-9.552c-10.142-2.235-19.722-4.344-23.772-9.909c-3.974-5.461-3.043-15.157-2.057-25.421
	c0.919-9.573,1.87-19.472-0.98-28.252c-2.73-8.407-9.175-15.635-15.408-22.624c-7.032-7.886-13.674-15.333-13.674-22.591
	s6.642-14.705,13.674-22.59c6.233-6.99,12.679-14.217,15.408-22.624c2.851-8.78,1.9-18.679,0.98-28.252
	c-0.986-10.264-1.918-19.961,2.057-25.422c4.05-5.564,13.63-7.674,23.772-9.909c9.339-2.056,18.996-4.184,26.373-9.552
	c7.278-5.297,12.225-13.76,17.009-21.945c5.282-9.036,10.271-17.572,16.956-19.742c6.231-2.028,15.052,1.813,24.393,5.873
	c8.933,3.883,18.17,7.899,27.606,7.899c9.436,0,18.673-4.016,27.606-7.899c9.341-4.061,18.165-7.894,24.392-5.873
	c6.685,2.17,11.675,10.706,16.957,19.742c4.784,8.185,9.731,16.648,17.009,21.945c7.377,5.368,17.034,7.496,26.372,9.552
	c10.142,2.235,19.722,4.344,23.772,9.909c3.974,5.461,3.043,15.157,2.057,25.421c-0.919,9.573-1.87,19.472,0.98,28.252
	c2.73,8.408,9.175,15.636,15.409,22.625c7.031,7.885,13.673,15.332,13.673,22.59s-6.641,14.706-13.673,22.59
	c-6.234,6.99-12.679,14.217-15.409,22.625c-2.851,8.78-1.9,18.678-0.98,28.252c0.986,10.265,1.917,19.961-2.057,25.421
	c-4.05,5.564-13.63,7.674-23.772,9.909c-9.339,2.056-18.996,4.184-26.373,9.552c-7.277,5.297-12.224,13.76-17.008,21.945
	c-5.282,9.036-10.271,17.572-16.956,19.742c-6.232,2.026-15.052-1.813-24.393-5.873c-8.933-3.883-18.17-7.899-27.606-7.899
	C246.565,321.841,237.328,325.857,228.395,329.74z"/>
<path d="M366.994,175.578c0-61.202-49.791-110.993-110.993-110.993c-2.668,0-5.365,0.095-8.015,0.286
	c-4.125,0.294-7.23,3.876-6.935,8.002c0.295,4.125,3.871,7.246,8.002,6.935c2.297-0.164,4.634-0.247,6.949-0.247
	c52.944,0,96.017,43.073,96.017,96.017s-43.074,96.017-96.018,96.017s-96.017-43.073-96.017-96.017
	c0-32.39,16.169-62.384,43.252-80.232c3.453-2.276,4.407-6.92,2.131-10.373s-6.92-4.406-10.373-2.132
	c-31.3,20.629-49.986,55.298-49.986,92.737c0,61.202,49.791,110.993,110.993,110.993
	C317.203,286.571,366.994,236.78,366.994,175.578z"/>
<g>
</g>
<g>
</g>
<g>
</g>
<g>
</g>
<g>
</g>
<g>
</g>
<g>
</g>
<g>
</g>
<g>
</g>
<g>
</g>
<g>
</g>
<g>
</g>
<g>
</g>
<g>
</g>
<g>
</g>
</svg>
