<?xml version="1.0" encoding="iso-8859-1"?>
<!-- Generator: Adobe Illustrator 19.0.0, SVG Export Plug-In . SVG Version: 6.00 Build 0)  -->
<svg version="1.1" id="Capa_1" xmlns="http://www.w3.org/2000/svg" xmlns:xlink="http://www.w3.org/1999/xlink" x="0px" y="0px"
	 viewBox="0 0 512 512" style="enable-background:new 0 0 512 512;" xml:space="preserve">
<circle style="fill:#FDDB87;" cx="143.781" cy="175.843" r="56.11"/>
<path style="fill:#F9CB2A;" d="M103.703,175.843c0-28.266,20.904-51.64,48.094-55.53c-2.619-0.375-5.293-0.579-8.016-0.579
	c-30.989,0-56.11,25.121-56.11,56.11s25.121,56.11,56.11,56.11c2.722,0,5.397-0.204,8.016-0.579
	C124.606,227.483,103.703,204.11,103.703,175.843z"/>
<g>
	<circle style="fill:#FDDB87;" cx="380.243" cy="187.867" r="44.086"/>
	<circle style="fill:#FDDB87;" cx="360.203" cy="135.765" r="40.078"/>
	<circle style="fill:#FDDB87;" cx="296.078" cy="167.828" r="40.078"/>
	<circle style="fill:#FDDB87;" cx="328.141" cy="167.828" r="40.078"/>
	<circle style="fill:#FDDB87;" cx="223.937" cy="175.843" r="40.078"/>
	<circle style="fill:#FDDB87;" cx="191.875" cy="151.796" r="40.078"/>
	<circle style="fill:#FDDB87;" cx="312.11" cy="103.703" r="40.078"/>
	<circle style="fill:#FDDB87;" cx="320.125" cy="71.64" r="40.078"/>
	<circle style="fill:#FDDB87;" cx="264.016" cy="95.687" r="40.078"/>
	<circle style="fill:#FDDB87;" cx="231.953" cy="127.75" r="40.078"/>
	<circle style="fill:#FDDB87;" cx="183.859" cy="103.703" r="40.078"/>
</g>
<path style="fill:#F9CB2A;" d="M199.89,71.64c3.259,0,6.425,0.399,9.457,1.133c-6.928-5.715-15.807-9.149-25.489-9.149
	c-22.134,0-40.078,17.944-40.078,40.078c0,6.65,1.626,12.917,4.493,18.436l13.614,2.304c-1.339-3.999-2.075-8.274-2.075-12.724
	C159.812,89.584,177.756,71.64,199.89,71.64z"/>
<g>
	<circle style="fill:#FDDB87;" cx="243.977" cy="47.593" r="40.078"/>
	<circle style="fill:#FDDB87;" cx="243.977" cy="47.593" r="40.078"/>
</g>
<g>
	<path style="fill:#F9CB2A;" d="M215.922,55.609c0-22.134,17.944-40.078,40.078-40.078c5.618,0,10.964,1.16,15.818,3.247
		c-7.211-6.968-17.021-11.263-27.841-11.263c-22.134,0-40.078,17.944-40.078,40.078c0,16.516,9.994,30.695,24.26,36.831
		C220.618,77.136,215.922,66.924,215.922,55.609z"/>
	<path style="fill:#F9CB2A;" d="M288.063,63.624c0-9.023,2.984-17.349,8.016-24.047c-9.734,7.312-16.031,18.951-16.031,32.063
		c0,22.134,17.944,40.078,40.078,40.078c13.112,0,24.751-6.297,32.063-16.031c-6.699,5.032-15.024,8.016-24.047,8.016
		C306.007,103.703,288.063,85.758,288.063,63.624z"/>
	<path style="fill:#F9CB2A;" d="M344.172,199.89c-22.134,0-40.078-17.944-40.078-40.078c0-12.452,5.679-23.579,14.59-30.929
		c-17.568,4.252-30.621,20.07-30.621,38.945c0,22.134,17.944,40.078,40.078,40.078c9.682,0,18.562-3.434,25.489-9.149
		C350.597,199.492,347.432,199.89,344.172,199.89z"/>
	<path style="fill:#F9CB2A;" d="M223.937,119.734c-16.37,0-30.438,9.819-36.661,23.886l5.748,6.729
		c7.35-8.903,18.465-14.583,30.912-14.583c19.389,0,35.561,13.769,39.275,32.063c0.526-2.59,0.804-5.27,0.804-8.016
		C264.016,137.678,246.072,119.734,223.937,119.734z"/>
</g>
<path style="fill:#ECF0F0;" d="M352.188,223.937c0-17.708-14.355-32.063-32.063-32.063c-17.708,0-32.063,14.355-32.063,32.063
	h-64.125c0-17.708-14.355-32.063-32.063-32.063s-32.063,14.355-32.063,32.063H95.687l40.078,280.548h240.47l40.078-280.548H352.188z
	"/>
<g>
	<path style="fill:#ED3124;" d="M175.843,504.485l-16.031-280.548c0-17.708-14.355-32.063-32.063-32.063
		s-32.063,14.355-32.063,32.063c0,1.846,0.164,3.651,0.464,5.412l39.614,275.136H175.843z"/>
	<path style="fill:#ED3124;" d="M256,191.875c-17.708,0-32.063,14.355-32.063,32.063v280.548h64.125V223.937
		C288.063,206.23,273.708,191.875,256,191.875z"/>
	<path style="fill:#ED3124;" d="M416.313,223.937c0-17.708-14.355-32.063-32.063-32.063c-17.708,0-32.063,14.355-32.063,32.063
		l-16.031,280.548h40.078l39.614-275.136C416.149,227.589,416.313,225.783,416.313,223.937z"/>
</g>
<path style="fill:#F9CB2A;" d="M401.427,328.141h-37.7c-19.675-23.752-60.52-40.078-107.727-40.078s-88.052,16.326-107.727,40.078
	h-37.7l9.161,64.125h28.54c19.675,23.752,60.52,40.078,107.726,40.078s88.052-16.326,107.726-40.078h28.54L401.427,328.141z"/>
<ellipse style="fill:#F9A01B;" cx="256" cy="360.204" rx="80.157" ry="48.094"/>
<polygon style="fill:#F9CB2A;" points="256,320.125 264.999,347.818 294.116,347.818 270.559,364.934 279.557,392.628 256,375.512 
	232.443,392.628 241.441,364.934 217.884,347.818 247.001,347.818 "/>
<path d="M423.128,216.565c5.7-8.504,8.715-18.422,8.715-28.698c0-18.622-9.918-34.97-24.748-44.045
	c0.453-2.654,0.701-5.348,0.701-8.057c0-24.732-18.966-45.111-43.116-47.376c1.999-5.314,3.038-10.97,3.038-16.75
	c0-26.242-21.351-47.593-47.593-47.593c-11.197,0-21.872,4.015-30.269,10.92C284.309,14.835,265.848,0,243.977,0
	c-26.242,0-47.593,21.351-47.593,47.593c0,4.15,3.365,7.515,7.515,7.515s7.515-3.365,7.515-7.515
	c0-17.955,14.609-32.564,32.564-32.564c17.956,0,32.564,14.609,32.564,32.564c0,5.123-1.152,10.023-3.427,14.561
	c-1.716,3.426-0.507,7.715,2.742,9.742c3.707,2.313,8.741,0.89,10.694-3.01c1.706-3.406,2.975-6.949,3.813-10.599
	c0.128-0.211,0.247-0.431,0.356-0.658c5.383-11.271,16.925-18.553,29.406-18.553c17.956,0,32.564,14.609,32.564,32.564
	c0,6.518-1.917,12.805-5.544,18.183c-0.041,0.061-0.073,0.124-0.112,0.185c-16.313,4.64-29.198,17.734-33.194,34.972
	c-0.924,3.989,1.635,8.093,5.624,9.018c3.987,0.925,8.094-1.636,9.018-5.623c3.436-14.821,16.48-25.173,31.723-25.173
	c17.956,0,32.564,14.609,32.564,32.564c0,0.678-0.022,1.356-0.063,2.031c-3.993-0.994-8.165-1.53-12.461-1.53
	c-4.095,0-7.515,3.42-7.515,7.515s3.42,7.515,7.515,7.515c20.165,0,36.571,16.406,36.571,36.571c0,3.858-0.614,7.638-1.775,11.24
	c-7.261-8.986-18.362-14.747-30.788-14.747c-13.179,0-24.865,6.482-32.062,16.417c-7.197-9.935-18.885-16.417-32.064-16.417
	c-13.179,0-24.866,6.481-32.063,16.416c-7.197-9.935-18.884-16.416-32.063-16.416s-24.866,6.481-32.063,16.416
	c-7.197-9.935-18.884-16.416-32.063-16.416s-24.866,6.481-32.063,16.416c-7.197-9.935-18.884-16.416-32.063-16.416
	c-10.997,0-20.958,4.512-28.138,11.778c-2.91-6.315-4.426-13.198-4.426-20.295c0-26.795,21.8-48.595,48.595-48.595
	c19.233,0,36.687,11.368,44.467,28.962c1.655,3.744,6.167,5.49,9.912,3.833c3.745-1.656,5.49-6.167,3.833-9.912
	c-8.981-20.307-27.808-34.271-49.395-37.292c-0.862-2.954-1.304-6.019-1.304-9.137c0-17.955,14.609-32.564,32.564-32.564
	c10.821,0,20.751,5.302,26.791,14.059c-3.603,1.805-6.994,4.063-10.069,6.76c-3.12,2.736-3.431,7.485-0.694,10.605
	c2.736,3.12,7.485,3.431,10.605,0.694c5.935-5.205,13.556-8.072,21.462-8.072c17.955,0,32.564,14.609,32.564,32.564
	c0,4.15,3.364,7.515,7.515,7.515c4.151,0,7.515-3.365,7.515-7.515c0-26.242-21.351-47.593-47.593-47.593
	c-2.179,0-4.344,0.15-6.481,0.443c-8.409-15.14-24.229-24.49-41.613-24.49c-26.242,0-47.593,21.351-47.593,47.593
	c0,2.996,0.287,5.959,0.836,8.869c-31.954,3.349-56.945,30.444-56.945,63.272c0,12.459,3.565,24.421,10.332,34.764
	c-1.496,4.167-2.317,8.654-2.317,13.33c0,0.045,0.006,0.088,0.007,0.133c0.003,0.133,0.011,0.268,0.02,0.402
	c0.009,0.131,0.02,0.262,0.036,0.391c0.006,0.046,0.006,0.091,0.012,0.137l40.078,280.548c0.529,3.702,3.699,6.452,7.44,6.452
	h240.47c3.739,0,6.91-2.75,7.44-6.452L423.753,225c0.007-0.046,0.007-0.091,0.012-0.137c0.016-0.128,0.027-0.258,0.036-0.39
	c0.01-0.135,0.018-0.271,0.02-0.405c0.001-0.044,0.007-0.087,0.007-0.132C423.828,221.417,423.581,218.956,423.128,216.565z
	 M320.125,199.389c13.487,0,24.466,10.934,24.544,24.404l-0.919,16.085c-0.236,4.143,2.93,7.694,7.074,7.932
	c0.146,0.008,0.291,0.012,0.436,0.012c3.954,0,7.267-3.089,7.496-7.086l0.935-16.37c0.009-0.143,0.013-0.286,0.013-0.429
	c0-13.535,11.012-24.548,24.548-24.548c13.384,0,24.292,10.767,24.537,24.093l-13.879,97.144h-27.757
	c-3.621-3.984-7.753-7.719-12.322-11.188l2.609-45.658c0.235-4.143-2.931-7.694-7.075-7.931c-4.13-0.238-7.694,2.93-7.931,7.074
	l-2.124,37.185c-12.981-7.064-28.19-12.41-44.73-15.715v-60.455C295.577,210.402,306.589,199.389,320.125,199.389z M295.577,496.971
	v-60.957c13.625-2.721,26.342-6.831,37.66-12.144l-4.177,73.101H295.577z M256,424.83c-43.127,0-83.141-14.664-101.94-37.358
	c-1.428-1.723-3.549-2.72-5.787-2.72h-22.022l-7.014-49.096h29.036c2.237,0,4.36-0.998,5.787-2.72
	c18.799-22.694,58.813-37.358,101.94-37.358c43.128,0,83.141,14.664,101.94,37.357c1.428,1.723,3.549,2.721,5.786,2.721h29.036
	l-7.014,49.096h-22.022c-2.237,0-4.36,0.998-5.786,2.721C339.141,410.166,299.128,424.83,256,424.83z M182.941,496.971
	l-4.177-73.102c11.316,5.313,24.034,9.422,37.659,12.144v60.958H182.941z M256,199.389c13.536,0,24.548,11.012,24.548,24.548v58.065
	c-7.985-0.954-16.195-1.455-24.548-1.455s-16.563,0.501-24.548,1.455v-58.065C231.452,210.402,242.465,199.389,256,199.389z
	 M191.875,199.389c13.535,0,24.548,11.012,24.548,24.548v60.457c-16.54,3.304-31.75,8.651-44.73,15.715l-4.362-76.321
	C167.412,210.321,178.389,199.389,191.875,199.389z M127.749,199.389c13.535,0,24.548,11.012,24.548,24.548
	c0,0.143,0.004,0.287,0.012,0.429l4.861,85.072c-4.569,3.469-8.702,7.203-12.323,11.188h-27.757l-13.878-97.144
	C103.457,210.156,114.366,199.389,127.749,199.389z M128.399,399.781h16.45c5.155,5.672,11.345,10.839,18.368,15.446l4.67,81.744
	h-25.604L128.399,399.781z M231.452,496.971v-58.566c7.985,0.954,16.195,1.455,24.548,1.455s16.563-0.501,24.548-1.455v58.566
	H231.452z M369.717,496.971h-25.605l4.671-81.743c7.023-4.607,13.214-9.774,18.369-15.447h16.45L369.717,496.971z"/>
<path d="M294.116,340.304h-23.658l-7.311-22.501c-1.006-3.096-3.892-5.193-7.147-5.193s-6.141,2.096-7.147,5.193l-7.311,22.501
	h-23.659c-3.168,0-6.065,2.064-7.1,5.058c-1.069,3.091,0.036,6.613,2.683,8.537l19.14,13.906l-7.31,22.502
	c-0.963,2.961,0.049,6.296,2.495,8.224c2.612,2.059,6.378,2.133,9.069,0.177L256,384.802l19.141,13.906
	c2.824,2.051,6.794,1.855,9.404-0.461c2.212-1.963,3.073-5.127,2.159-7.942l-7.311-22.502l19.14-13.906
	c2.647-1.923,3.752-5.447,2.683-8.537C300.181,342.368,297.285,340.304,294.116,340.304z M266.143,358.855
	c-2.634,1.914-3.736,5.305-2.73,8.401l1.852,5.699l-4.847-3.522c-1.317-0.957-2.867-1.435-4.417-1.435s-3.1,0.479-4.417,1.436
	l-4.846,3.521l1.852-5.698c1.006-3.096-0.096-6.488-2.73-8.401l-4.846-3.521h5.991c3.255,0,6.141-2.096,7.147-5.193l1.852-5.697
	l1.852,5.697c1.006,3.096,3.892,5.193,7.147,5.193h5.991L266.143,358.855z"/>
<path d="M321.127,352.689h-1.002c-4.151,0-7.515,3.365-7.515,7.515s3.364,7.515,7.515,7.515h1.002c4.151,0,7.515-3.365,7.515-7.515
	S325.278,352.689,321.127,352.689z"/>
<path d="M345.174,352.689h-1.002c-4.151,0-7.515,3.365-7.515,7.515s3.364,7.515,7.515,7.515h1.002c4.151,0,7.515-3.365,7.515-7.515
	S349.325,352.689,345.174,352.689z"/>
<path d="M192.877,352.689h-1.002c-4.15,0-7.515,3.365-7.515,7.515s3.365,7.515,7.515,7.515h1.002c4.15,0,7.515-3.365,7.515-7.515
	S197.027,352.689,192.877,352.689z"/>
<path d="M160.814,352.689h-1.002c-4.15,0-7.515,3.365-7.515,7.515s3.365,7.515,7.515,7.515h1.002c4.15,0,7.515-3.365,7.515-7.515
	S164.964,352.689,160.814,352.689z"/>
<g>
</g>
<g>
</g>
<g>
</g>
<g>
</g>
<g>
</g>
<g>
</g>
<g>
</g>
<g>
</g>
<g>
</g>
<g>
</g>
<g>
</g>
<g>
</g>
<g>
</g>
<g>
</g>
<g>
</g>
</svg>
