<?xml version="1.0" encoding="iso-8859-1"?>
<!-- Generator: Adobe Illustrator 19.0.0, SVG Export Plug-In . SVG Version: 6.00 Build 0)  -->
<svg version="1.1" id="Capa_1" xmlns="http://www.w3.org/2000/svg" xmlns:xlink="http://www.w3.org/1999/xlink" x="0px" y="0px"
	 viewBox="0 0 512 512" style="enable-background:new 0 0 512 512;" xml:space="preserve">
<polygon style="fill:#8CCEEA;" points="448,177.98 376,105.98 296.333,105.98 209,105.98 136,105.98 64,177.98 "/>
<path style="fill:#657FC9;" d="M462,177.98H50c-22.091,0-40,17.909-40,40v244c0,22.091,17.909,40,40,40h412
	c22.091,0,40-17.909,40-40v-244C502,195.889,484.091,177.98,462,177.98z"/>
<rect x="124" y="379.98" style="fill:#BEF7F0;" width="264" height="122"/>
<g>
	<path style="fill:#CDEFF1;" d="M153.333,349.98H78.667c-8.1,0-14.667-6.566-14.667-14.667v-74.667
		c0-8.1,6.566-14.667,14.667-14.667h74.667c8.1,0,14.667,6.566,14.667,14.667v74.667C168,343.414,161.434,349.98,153.333,349.98z"/>
	<path style="fill:#CDEFF1;" d="M433.333,349.98h-74.667c-8.1,0-14.667-6.566-14.667-14.667v-74.667
		c0-8.1,6.566-14.667,14.667-14.667h74.667c8.1,0,14.667,6.566,14.667,14.667v74.667C448,343.414,441.434,349.98,433.333,349.98z"/>
</g>
<g>
	<circle style="fill:#FEB756;" cx="116" cy="297.98" r="24"/>
	<circle style="fill:#FEB756;" cx="396" cy="297.98" r="24"/>
</g>
<path d="M462,167.98h-9.857l-69.071-69.071c-1.876-1.875-4.419-2.929-7.071-2.929h-79.667c-5.522,0-10,4.478-10,10s4.478,10,10,10
	h75.524l52,52H266v-44.064c0-5.522-4.478-10-10-10s-10,4.478-10,10v44.064H88.143l52-52H209c5.522,0,10-4.478,10-10s-4.478-10-10-10
	h-73c-2.652,0-5.195,1.054-7.071,2.929L59.857,167.98H50c-27.57,0-50,22.43-50,50v244c0,27.57,22.43,50,50,50h412
	c27.57,0,50-22.43,50-50v-244C512,190.41,489.57,167.98,462,167.98z M196.929,442.052c1.953,1.952,4.512,2.929,7.071,2.929
	s5.118-0.977,7.071-2.929l51-51c0.338-0.338,0.636-0.7,0.916-1.071h43.871l-102,102H134v-102h100.857l-37.929,37.929
	C193.023,431.814,193.023,438.146,196.929,442.052z M233.143,491.98l101.262-101.262c0.237-0.237,0.459-0.484,0.667-0.738H378v102
	H233.143z M492,461.98c0,16.542-13.458,30-30,30h-64v-112c0-5.522-4.478-10-10-10H124c-5.522,0-10,4.478-10,10v112H50
	c-16.542,0-30-13.458-30-30v-244c0-16.542,13.458-30,30-30h412c16.542,0,30,13.458,30,30V461.98z"/>
<path d="M220.645,49.611c-3.905,3.905-3.905,10.237,0,14.143c3.906,3.904,10.236,3.904,14.143,0
	c11.697-11.697,30.729-11.697,42.426,0c1.953,1.952,4.512,2.929,7.071,2.929s5.118-0.977,7.071-2.929
	c3.905-3.905,3.905-10.237,0-14.143C271.859,30.117,240.141,30.117,220.645,49.611z"/>
<path d="M210.048,39.015c25.338-25.338,66.566-25.338,91.904,0c1.953,1.952,4.512,2.929,7.071,2.929s5.118-0.977,7.071-2.929
	c3.905-3.905,3.905-10.237,0-14.143c-33.137-33.137-87.053-33.137-120.189,0c-3.905,3.905-3.905,10.237,0,14.143
	C199.812,42.919,206.142,42.919,210.048,39.015z"/>
<path d="M256,221.98c-18.748,0-34,15.252-34,34s15.252,34,34,34s34-15.252,34-34S274.748,221.98,256,221.98z M256,269.98
	c-7.72,0-14-6.28-14-14c0-7.72,6.28-14,14-14s14,6.28,14,14C270,263.7,263.72,269.98,256,269.98z"/>
<path d="M153.333,235.98H78.667C65.065,235.98,54,247.046,54,260.647v74.666c0,13.602,11.065,24.667,24.667,24.667h74.666
	c13.602,0,24.667-11.065,24.667-24.667v-74.666C178,247.046,166.935,235.98,153.333,235.98z M117.459,311.904
	c-0.478-0.07-0.962-0.118-1.459-0.118s-0.982,0.048-1.459,0.118C107.504,311.171,102,305.207,102,297.98c0-7.72,6.28-14,14-14
	s14,6.28,14,14C130,305.207,124.496,311.171,117.459,311.904z M158,335.313c0,2.573-2.094,4.667-4.667,4.667H126v-9.503
	c13.882-4.28,24-17.228,24-32.497c0-18.748-15.252-34-34-34s-34,15.252-34,34c0,15.269,10.118,28.217,24,32.497v9.503H78.667
	c-2.573,0-4.667-2.094-4.667-4.667v-74.666c0-2.573,2.094-4.667,4.667-4.667h74.666c2.573,0,4.667,2.094,4.667,4.667V335.313z"/>
<path d="M433.333,235.98h-74.666c-13.602,0-24.667,11.065-24.667,24.667v74.666c0,13.602,11.065,24.667,24.667,24.667h74.666
	c13.602,0,24.667-11.065,24.667-24.667v-74.666C458,247.046,446.935,235.98,433.333,235.98z M396,311.98c-7.72,0-14-6.28-14-14
	s6.28-14,14-14s14,6.28,14,14S403.72,311.98,396,311.98z M438,335.313c0,2.573-2.094,4.667-4.667,4.667H406v-9.503
	c13.882-4.28,24-17.228,24-32.497c0-18.748-15.252-34-34-34s-34,15.252-34,34c0,15.269,10.118,28.217,24,32.497v9.503h-27.333
	c-2.573,0-4.667-2.094-4.667-4.667v-74.666c0-2.573,2.094-4.667,4.667-4.667h74.666c2.573,0,4.667,2.094,4.667,4.667V335.313z"/>
<path d="M64,406.09c-2.63,0-5.21,1.07-7.07,2.931c-1.86,1.859-2.93,4.439-2.93,7.08c0,2.63,1.069,5.199,2.93,7.06
	c1.86,1.87,4.44,2.93,7.07,2.93c2.63,0,5.21-1.06,7.069-2.93c1.86-1.86,2.931-4.439,2.931-7.06c0-2.641-1.07-5.221-2.931-7.08
	C69.21,407.16,66.63,406.09,64,406.09z"/>
<path d="M64,437.98c-2.63,0-5.21,1.069-7.07,2.93S54,445.35,54,447.98s1.069,5.21,2.93,7.069c1.86,1.86,4.44,2.931,7.07,2.931
	c2.63,0,5.21-1.07,7.069-2.931C72.93,453.19,74,450.61,74,447.98s-1.07-5.21-2.931-7.07C69.21,439.05,66.63,437.98,64,437.98z"/>
<path d="M256,94.971c-2.63,0-5.21-1.07-7.07-2.931c-1.86-1.859-2.93-4.439-2.93-7.069c0-2.641,1.069-5.21,2.93-7.08
	c1.86-1.86,4.44-2.931,7.07-2.931s5.21,1.07,7.069,2.931c1.86,1.87,2.931,4.439,2.931,7.08c0,2.63-1.07,5.199-2.931,7.069
	C261.21,93.9,258.63,94.971,256,94.971z"/>
<path d="M179,469.98c-2.56,0-5.118-0.977-7.071-2.929c-3.905-3.905-3.905-10.237,0-14.143l0.5-0.5
	c3.906-3.904,10.236-3.904,14.143,0c3.905,3.905,3.905,10.237,0,14.143l-0.5,0.5C184.118,469.004,181.56,469.98,179,469.98z"/>
<g>
</g>
<g>
</g>
<g>
</g>
<g>
</g>
<g>
</g>
<g>
</g>
<g>
</g>
<g>
</g>
<g>
</g>
<g>
</g>
<g>
</g>
<g>
</g>
<g>
</g>
<g>
</g>
<g>
</g>
</svg>
