<?xml version="1.0" encoding="iso-8859-1"?>
<!-- Generator: Adobe Illustrator 19.0.0, SVG Export Plug-In . SVG Version: 6.00 Build 0)  -->
<svg version="1.1" id="Layer_1" xmlns="http://www.w3.org/2000/svg" xmlns:xlink="http://www.w3.org/1999/xlink" x="0px" y="0px"
	 viewBox="0 0 511.999 511.999" style="enable-background:new 0 0 511.999 511.999;" xml:space="preserve">
<path style="fill:#5B7A7F;" d="M191.328,299.116v64.674v118.568c0,12.167-10.079,21.98-22.344,21.544
	c-11.682-0.415-20.772-10.372-20.772-22.06v-96.494c0-11.906-9.651-21.558-21.558-21.558l0,0c-11.906,0-21.558,9.651-21.558,21.558
	v97.011c0,12.167-10.079,21.98-22.344,21.544c-11.682-0.415-20.772-10.372-20.772-22.06V363.789v-64.674H191.328z"/>
<path style="fill:#D199D1;" d="M223.665,191.326v107.789H29.644V191.326c0-35.718,28.955-64.674,64.674-64.674h64.674
	C194.709,126.653,223.665,155.608,223.665,191.326z"/>
<path style="fill:#AF7AAE;" d="M126.654,299.116H29.644V191.326c0-35.718,28.955-64.674,64.674-64.674h32.337V299.116z"/>
<path style="fill:#F4C064;" d="M169.77,51.2c0,23.812-19.304,43.116-43.116,43.116S83.538,75.012,83.538,51.2
	s19.304-43.116,43.116-43.116S169.77,27.388,169.77,51.2z M191.328,212.884c-5.953,0-10.779,4.826-10.779,10.779v64.674
	c0,11.906,9.651,21.558,21.558,21.558s21.558-9.651,21.558-21.558v-75.453H191.328z"/>
<path style="fill:#F4AB53;" d="M126.654,8.084v86.232c-23.812,0-43.116-19.304-43.116-43.116S102.842,8.084,126.654,8.084z"/>
<path style="fill:#6BAF6E;" d="M428.465,246.906c0,30.695-24.883,55.579-55.579,55.579c-9.266,0-17.993-2.28-25.674-6.29
	c-8.342,10.017-20.903,16.395-34.957,16.395c-25.115,0-45.474-20.359-45.474-45.474c0-25.115,20.359-45.474,45.474-45.474
	c3.617,0,7.13,0.435,10.504,1.233c8.963-18.664,28.04-31.549,50.128-31.549C403.581,191.326,428.465,216.21,428.465,246.906z"/>
<path style="fill:#84D88B;" d="M383.665,245.895c-9.266,0-17.993-2.28-25.674-6.29C349.649,249.622,337.088,256,323.034,256
	c-17.247,0-32.252-9.603-39.96-23.754c7.898-6.616,18.072-10.604,29.181-10.604c3.617,0,7.13,0.435,10.504,1.233
	c8.963-18.664,28.04-31.549,50.128-31.549c23.866,0,44.212,15.045,52.087,36.166C414.799,238.789,400.063,245.895,383.665,245.895z"
	/>
<path style="fill:#FFC248;" d="M371.946,317.49l47.365-143.279c5.605-16.956,23.896-26.158,40.852-20.553l0,0
	c16.956,5.605,26.158,23.896,20.553,40.852l-47.365,143.279c-5.605,16.956-23.896,26.158-40.852,20.553l0,0
	C375.542,352.737,366.34,334.447,371.946,317.49z"/>
<path style="fill:#FFE77C;" d="M375.625,345.384c-5.223-7.966-6.901-18.149-3.679-27.895l47.365-143.279
	c4.376-13.24,16.486-21.751,29.657-22.179c5.222,7.966,6.901,18.149,3.679,27.895l-47.365,143.279
	C400.905,336.445,388.795,344.958,375.625,345.384z"/>
<path style="fill:#FFA669;" d="M229.197,446.811L169.77,288.337h291.032l-19.197,153.58c-1.348,10.789-10.519,18.884-21.392,18.884
	H249.383C240.397,460.8,232.353,455.226,229.197,446.811z"/>
<path style="fill:#E55D30;" d="M417.686,476.968c0,14.882-12.065,26.947-26.947,26.947s-26.947-12.065-26.947-26.947
	c0-14.883,12.065-26.947,26.947-26.947S417.686,462.086,417.686,476.968z M293.728,450.021c-14.883,0-26.947,12.065-26.947,26.947
	c0,14.882,12.065,26.947,26.947,26.947s26.947-12.065,26.947-26.947C320.675,462.086,308.61,450.021,293.728,450.021z
	 M460.801,277.558H126.654c-11.906,0-21.558,9.651-21.558,21.558l0,0c0,11.906,9.651,21.558,21.558,21.558h334.147
	c11.906,0,21.558-9.651,21.558-21.558l0,0C482.359,287.209,472.708,277.558,460.801,277.558z"/>
<path style="fill:#F4C064;" d="M148.212,299.116L148.212,299.116c0,11.906-9.651,21.558-21.558,21.558H51.201
	c-11.906,0-21.558-9.651-21.558-21.558v-86.232H61.98c5.953,0,10.779,4.826,10.779,10.779v53.895h53.895
	C138.56,277.558,148.212,287.209,148.212,299.116z"/>
<path d="M188.629,212.884v37.008c0,4.466-3.62,8.084-8.084,8.084c-4.465,0-8.084-3.618-8.084-8.084v-37.008
	c0-4.466,3.62-8.084,8.084-8.084C185.009,204.8,188.629,208.418,188.629,212.884z M75.453,51.2c0-28.231,22.968-51.2,51.199-51.2
	s51.199,22.969,51.199,51.2s-22.969,51.2-51.199,51.2S75.453,79.431,75.453,51.2z M91.62,51.2c0,19.317,15.715,35.032,35.03,35.032
	s35.031-15.715,35.031-35.032s-15.714-35.032-35.029-35.032S91.62,31.883,91.62,51.2z M272.163,363.788v43.116
	c0,4.466,3.62,8.084,8.084,8.084c4.465,0,8.084-3.618,8.084-8.084v-43.116c0-4.466-3.62-8.084-8.084-8.084
	C275.783,355.704,272.163,359.324,272.163,363.788z M440.742,229.547l-10.234-3.384c-4.243-1.398-8.812,0.9-10.213,5.138
	c-1.401,4.24,0.899,8.813,5.138,10.214l10.234,3.383c0.843,0.278,1.698,0.411,2.538,0.411c3.392,0,6.551-2.153,7.675-5.549
	C447.28,235.521,444.98,230.948,440.742,229.547z M326.057,363.788v43.116c0,4.466,3.62,8.084,8.084,8.084s8.084-3.618,8.084-8.084
	v-43.116c0-4.466-3.62-8.084-8.084-8.084S326.057,359.324,326.057,363.788z M388.034,355.704c-4.465,0-8.084,3.618-8.084,8.084
	v43.116c0,4.466,3.62,8.084,8.084,8.084c4.465,0,8.084-3.618,8.084-8.084v-43.116C396.118,359.324,392.498,355.704,388.034,355.704z
	 M490.432,299.115c0,15.293-11.64,27.919-26.527,29.48l-14.29,114.323c-1.659,13.276-12.002,23.625-24.881,25.618
	c0.67,2.702,1.026,5.525,1.026,8.431c0,19.317-15.715,35.032-35.031,35.032s-35.03-15.715-35.03-35.032
	c0-2.781,0.326-5.489,0.942-8.084h-28.829c0.616,2.596,0.942,5.303,0.942,8.084c0,19.317-15.715,35.032-35.03,35.032
	s-35.03-15.715-35.03-35.032c0-2.781,0.326-5.489,0.942-8.084h-10.254c-12.287,0-23.44-7.73-27.754-19.234l-45.334-120.892h-6.523
	c-4.465,0-8.084-3.618-8.084-8.084s3.62-8.084,8.084-8.084h11.938c0.124-0.002,0.249-0.002,0.374,0h214.04
	c4.465,0,8.084,3.618,8.084,8.084s-3.62,8.084-8.084,8.084H193.558l43.204,115.214c1.961,5.23,7.031,8.743,12.616,8.743h19.088
	c6.379-6.64,15.343-10.779,25.256-10.779s18.877,4.139,25.256,10.779h46.497c6.379-6.64,15.343-10.779,25.256-10.779
	c9.913,0,18.877,4.139,25.256,10.779h4.218c6.781,0,12.528-5.074,13.37-11.802l14.019-112.156h-19.141
	c-4.465,0-8.084-3.618-8.084-8.084c0-4.466,3.62-8.084,8.084-8.084h28.168c0.078-0.001,0.155-0.001,0.233,0h3.935
	c7.429,0,13.474-6.044,13.474-13.474s-6.044-13.474-13.474-13.474h-7.35c-0.125,0.002-0.249,0.002-0.374,0h-67.74
	c-0.125,0.002-0.249,0.002-0.374,0H153.05c2.073,4.044,3.243,8.625,3.243,13.474c0,16.344-13.297,29.642-29.641,29.642H70.063
	v153.083c0,7.455,5.821,13.727,12.975,13.982c3.712,0.103,7.2-1.207,9.853-3.768c2.656-2.563,4.119-6.007,4.119-9.697v-97.011
	c0-16.344,13.297-29.642,29.641-29.642s29.641,13.298,29.641,29.642v96.493c0,7.455,5.821,13.727,12.975,13.982
	c3.709,0.103,7.2-1.207,9.853-3.768c2.656-2.563,4.119-6.007,4.119-9.697v-64.674c0-4.466,3.62-8.084,8.084-8.084
	c4.465,0,8.084,3.618,8.084,8.084v64.674c0,8.118-3.218,15.693-9.059,21.33c-5.578,5.383-12.846,8.312-20.566,8.313
	c-0.362,0-0.725-0.008-1.09-0.021c-16.02-0.57-28.569-13.809-28.569-30.14v-96.493c0-7.43-6.044-13.474-13.474-13.474
	c-7.429,0-13.474,6.044-13.474,13.474v97.011c0,8.118-3.218,15.693-9.059,21.33c-5.84,5.635-13.542,8.573-21.656,8.292
	c-16.02-0.57-28.569-13.809-28.569-30.14V328.756h-2.695c-16.344,0-29.641-13.298-29.641-29.642V191.324
	c0-40.119,32.639-72.758,72.756-72.758h64.672c40.118,0,72.756,32.639,72.756,72.758v78.147h26.998
	c-0.034-0.786-0.052-1.572-0.052-2.357c0-29.531,24.025-53.557,53.556-53.557c2.059,0,4.122,0.121,6.177,0.36
	c11.452-18.814,32.201-30.675,54.456-30.675c11.335,0,22.393,3.025,32.062,8.66l6.686-20.23
	c6.996-21.161,29.905-32.684,51.064-25.691c10.251,3.389,18.569,10.568,23.42,20.212c4.853,9.645,5.658,20.602,2.269,30.854
	l-24.013,72.64C479.032,271.459,490.432,283.98,490.432,299.115z M215.575,191.326c0-31.203-25.385-56.589-56.588-56.589H94.315
	c-31.203,0-56.587,25.385-56.587,56.589v107.789c0,7.43,6.044,13.474,13.474,13.474h75.45c7.429,0,13.474-6.044,13.474-13.474
	s-6.044-13.474-13.474-13.474H72.758c-4.465,0-8.084-3.618-8.084-8.084v-64.674c0-4.466,3.62-8.084,8.084-8.084
	s8.084,3.618,8.084,8.084v56.589h134.734v-78.147H215.575z M399.712,207.715c-7.861-5.385-17.213-8.304-26.834-8.304
	c-18.157,0-34.972,10.584-42.84,26.965c-1.645,3.424-5.451,5.239-9.148,4.368c-2.849-0.674-5.756-1.015-8.643-1.015
	c-20.616,0-37.389,16.773-37.389,37.389c0,0.786,0.024,1.574,0.073,2.357h104.364L399.712,207.715z M473.029,191.971
	c2.034-6.149,1.55-12.725-1.361-18.511c-2.911-5.787-7.902-10.094-14.053-12.127c-12.699-4.202-26.442,2.717-30.639,15.415
	l-10.075,30.476c-0.028,0.092-0.058,0.182-0.089,0.273l-20.488,61.976h51.086L473.029,191.971z M312.583,476.967
	c0-10.401-8.461-18.863-18.863-18.863s-18.863,8.463-18.863,18.863s8.461,18.863,18.863,18.863S312.583,487.368,312.583,476.967z
	 M409.592,476.967c0-10.401-8.461-18.863-18.863-18.863s-18.863,8.463-18.863,18.863s8.461,18.863,18.863,18.863
	S409.592,487.368,409.592,476.967z M450.891,198.844l-10.234-3.384c-4.242-1.398-8.812,0.901-10.213,5.138
	c-1.401,4.24,0.899,8.813,5.138,10.214l10.234,3.384c0.843,0.278,1.698,0.411,2.538,0.411c3.392,0,6.551-2.153,7.675-5.549
	C457.431,204.817,455.13,200.245,450.891,198.844z"/>
<g>
</g>
<g>
</g>
<g>
</g>
<g>
</g>
<g>
</g>
<g>
</g>
<g>
</g>
<g>
</g>
<g>
</g>
<g>
</g>
<g>
</g>
<g>
</g>
<g>
</g>
<g>
</g>
<g>
</g>
</svg>
