<?xml version="1.0" encoding="utf-8"?>
<!-- Generator: Adobe Illustrator 21.1.0, SVG Export Plug-In . SVG Version: 6.00 Build 0)  -->
<svg version="1.1" id="Layer_1" xmlns="http://www.w3.org/2000/svg" xmlns:xlink="http://www.w3.org/1999/xlink" x="0px" y="0px"
	 viewBox="0 0 512 512" style="enable-background:new 0 0 512 512;" xml:space="preserve">
<style type="text/css">
	.st0{fill:#69788D;}
	.st1{fill:#536D84;}
	.st2{fill:none;stroke:#000000;stroke-width:12.5861;stroke-miterlimit:10;}
	.st3{fill:#97C2F7;stroke:#97C2F7;stroke-width:6.293;stroke-miterlimit:10;}
	.st4{fill:#37CC8F;}
	.st5{fill:#20B772;}
</style>
<g>
	<circle class="st0" cx="440.7" cy="252" r="36.3"/>
	<path class="st1" d="M440.7,215.7c-11.9,0-28.7,12-35.3,20.8c6.1-4.5,13.3-7.6,21.3-8.9c26.1-4.5,42.6,13.9,38.2,36.8
		c-1.6,8-4.3,13.1-8.8,19.2c8.8-6.6,20.9-19.7,20.9-31.6C477,232,460.8,215.7,440.7,215.7z"/>
	<circle class="st2" cx="440.7" cy="252" r="36.3"/>
	<circle class="st0" cx="240.1" cy="431.8" r="36.3"/>
	<circle class="st3" cx="240.1" cy="431.8" r="5.4"/>
	<path class="st1" d="M239.6,395.5c-11.9,0-28.7,12-35.3,20.8c6.1-4.5,13.3-7.6,21.3-8.9c26.1-4.5,42.6,13.9,38.2,36.8
		c-1.6,8-4.3,13.1-8.8,19.2c8.8-6.6,20.9-19.7,20.9-31.6C275.9,411.7,259.6,395.5,239.6,395.5z"/>
	<circle class="st2" cx="240.1" cy="431.8" r="36.3"/>
	<circle class="st3" cx="440.7" cy="252" r="5.4"/>
	<path class="st4" d="M142.5,309.5l207.7-195.1c0,0,24.4-28.3,37.8-66.1C401.3,10.5,490.6,26.2,501.6,74
		c7.2,61-18.5,98.3-59.4,132.4c-35.8,30.7-50.9,47.7-50.9,47.7S216.2,421.4,188.1,439.3C168,451.8,83.5,501.1,53.6,481.7
		C8.3,450.8,1.4,406,12.7,377.2C21.1,354.3,115,333.3,142.5,309.5z"/>
	<ellipse transform="matrix(0.8839 -0.4676 0.4676 0.8839 -141.4119 114.0111)" cx="159" cy="341.9" rx="9.4" ry="5.5"/>
	<ellipse transform="matrix(0.8839 -0.4676 0.4676 0.8839 -151.4858 128.2263)" cx="182.6" cy="369.3" rx="9.4" ry="5.5"/>
	<ellipse transform="matrix(0.7633 -0.646 0.646 0.7633 -31.4232 288.5118)" cx="378" cy="187.1" rx="9.4" ry="5.5"/>
	<ellipse transform="matrix(0.7633 -0.646 0.646 0.7633 -23.3663 263.8609)" cx="348.4" cy="163.8" rx="9.4" ry="5.5"/>
	<path class="st5" d="M473.7,47c13,10.8,24.3,60.3-2.9,101.7c-19.7,29.9-54.5,61.2-54.5,61.2L211,403.6c0,0-41,42.1-84.4,61.9
		c-43.5,19.8,59.3-28.3,59.3-28.3l224.7-202.2c0,0,92.2-80.8,93.3-130c2.2-38-6.7-54.8-26.8-60.6C473.9,42.6,464.6,43.3,473.7,47z"
		/>
	<path class="st2" d="M142.5,309.5l207.7-195.1c0,0,24.4-28.3,37.8-66.1C401.3,10.5,490.6,26.2,501.6,74
		c7.2,61-18.5,98.3-59.4,132.4c-35.8,30.7-50.9,47.7-50.9,47.7S216.2,421.4,188.1,439.3C168,451.8,83.5,501.1,53.6,481.7
		C8.3,450.8,1.4,406,12.7,377.2C21.1,354.3,115,333.3,142.5,309.5z"/>
</g>
</svg>
