<?xml version="1.0" encoding="iso-8859-1"?>
<!-- Generator: Adobe Illustrator 19.0.0, SVG Export Plug-In . SVG Version: 6.00 Build 0)  -->
<svg version="1.1" id="Capa_1" xmlns="http://www.w3.org/2000/svg" xmlns:xlink="http://www.w3.org/1999/xlink" x="0px" y="0px"
	 viewBox="0 0 512 512" style="enable-background:new 0 0 512 512;" xml:space="preserve">
<g>
	<path style="fill:#283593;" d="M130.639,109.391c-4.779,8.192-9.387,16.726-13.654,25.344c-3.755,7.509-7.339,15.19-10.667,22.87
		c-1.877,4.267-3.669,8.533-5.376,12.886c-3.755,9.301-7.253,18.688-10.411,27.99c-0.171,0.427-0.256,0.768-0.427,1.195
		c-7.458,22.042-13.278,44.604-17.408,67.5c-24.585-25.498-38.401-59.478-38.571-94.892c0.367-39.834,17.715-77.62,47.702-103.852
		C90.335,89.303,108.597,104.637,130.639,109.391z"/>
	<path style="fill:#283593;" d="M477.866,172.282c-0.179,35.414-13.986,69.394-38.571,94.892l-0.683,0.085
		c-4.053-22.861-9.873-45.372-17.408-67.329c-0.102-0.495-0.247-0.981-0.427-1.451c-3.157-9.387-6.656-18.688-10.411-27.99
		c-4.949-12.203-10.351-24.209-16.214-36.011c-4.181-8.448-8.619-16.811-13.312-24.832l0.512-0.256
		c22.033-4.753,40.304-20.088,48.811-40.961C460.142,94.662,477.499,132.448,477.866,172.282z"/>
</g>
<path style="fill:#13CE66;" d="M443.732,315.73c0,103.682-84.055,187.736-187.736,187.736S68.259,419.412,68.259,315.73
	c1.451-40.013,9.08-79.566,22.614-117.25c3.157-9.301,6.656-18.688,10.411-27.99c1.707-4.352,3.499-8.619,5.376-12.886
	c3.328-7.68,6.912-15.36,10.667-22.87c7.023-14.234,14.857-28.058,23.467-41.387c2.133-3.328,4.267-6.485,6.485-9.643
	c1.109-1.621,2.219-3.157,3.328-4.693h0.171c5.991-8.44,12.484-16.504,19.456-24.15c5.658-6.178,11.665-12.015,18.006-17.494
	C206.681,19.9,230.796,9.66,256.166,8.525c7.987-0.009,15.932,1.203,23.552,3.584c24.355,8.414,45.978,23.279,62.55,43.009
	c7.168,7.868,13.867,16.162,20.054,24.832c0.085,0.085,0.085,0.085,0.085,0.171c0.085,0.256,0.256,0.512,0.341,0.768
	c0.853,1.195,1.621,2.304,2.475,3.499c10.966,15.958,20.745,32.7,29.27,50.091c5.888,11.776,11.29,23.783,16.214,36.011
	c3.755,9.301,7.253,18.603,10.411,27.99C434.644,236.164,442.273,275.717,443.732,315.73z"/>
<path style="fill:#13CE66;" d="M409.94,298.663c-0.06,103.741-84.208,187.796-187.958,187.736
	c-22.878-0.017-45.569-4.207-66.937-12.374c-54.094-34.458-86.828-94.158-86.785-158.296c1.451-40.013,9.08-79.566,22.614-117.25
	c3.157-9.301,6.656-18.688,10.411-27.99c1.707-4.352,3.499-8.619,5.376-12.886c3.328-7.68,6.912-15.36,10.667-22.87
	c7.023-14.234,14.857-28.058,23.467-41.387c2.133-3.328,4.267-6.485,6.485-9.643c1.109-1.621,2.219-3.157,3.328-4.693h0.171
	c5.991-8.44,12.484-16.504,19.456-24.15c5.658-6.178,11.665-12.015,18.006-17.494C206.681,19.9,230.796,9.66,256.166,8.525
	c7.987-0.009,15.932,1.203,23.552,3.584c10.496,7.586,20.13,16.282,28.758,25.942c7.168,7.868,13.867,16.162,20.054,24.832
	c0.085,0.085,0.085,0.085,0.085,0.171c0.085,0.256,0.256,0.512,0.341,0.768c0.853,1.195,1.621,2.304,2.475,3.499
	c10.966,15.958,20.745,32.7,29.27,50.092c5.888,11.776,11.29,23.783,16.214,36.011c3.755,9.301,7.253,18.603,10.411,27.99
	C400.852,219.097,408.48,258.65,409.94,298.663z"/>
<path style="fill:#283593;" d="M441.855,289.959c-3.644-30.661-10.564-60.844-20.651-90.028c-0.102-0.495-0.247-0.981-0.427-1.451
	c-3.157-9.387-6.656-18.688-10.411-27.99c-4.949-12.203-10.351-24.209-16.214-36.011c-8.525-17.391-18.304-34.134-29.27-50.091
	c-0.853-1.195-1.621-2.304-2.475-3.499c-0.085-0.256-0.256-0.512-0.341-0.768c0-0.085,0-0.085-0.085-0.171
	c-6.187-8.67-12.877-16.965-20.054-24.832c-14.345-16.674-32.094-30.089-52.054-39.339c-3.635-1.545-7.373-2.859-11.179-3.925
	c-1.877-0.597-3.755-1.024-5.632-1.451c-2.364-0.521-4.762-0.922-7.168-1.195c-1.365-0.171-2.816-0.341-4.267-0.427
	c-1.963-0.171-3.84-0.256-5.803-0.256c-4.352-0.017-8.687,0.358-12.971,1.109c-20.378,4.139-39.245,13.73-54.614,27.734
	c-6.34,5.478-12.348,11.315-18.006,17.494c-6.972,7.646-13.466,15.71-19.456,24.15h-0.171c-1.109,1.536-2.219,3.072-3.328,4.693
	c-2.219,3.157-4.352,6.315-6.485,9.643c-8.61,13.329-16.444,27.154-23.467,41.387c-3.755,7.509-7.339,15.19-10.667,22.87
	c-1.877,4.267-3.669,8.533-5.376,12.886c-3.755,9.301-7.253,18.688-10.411,27.99c-13.534,37.684-21.163,77.236-22.614,117.25
	c0,1.963,0,3.925,0.085,5.888c0.401,13.389,2.261,26.693,5.547,39.681l51.628-51.628c1.596-1.57,3.738-2.458,5.973-2.475h249.007
	c2.236,0.017,4.378,0.905,5.973,2.475l21.248,21.248l30.123,30.123c3.721-14.814,5.581-30.038,5.547-45.313
	C443.357,307.12,442.845,298.518,441.855,289.959z"/>
<path style="fill:#00A6FF;" d="M409.598,304.295c0.026,8.909-0.606,17.809-1.877,26.624l-21.248-21.248
	c-1.596-1.57-3.738-2.458-5.973-2.475H131.492c-2.236,0.017-4.378,0.905-5.973,2.475l-51.628,51.628
	c-3.285-12.988-5.146-26.292-5.547-39.681c-0.085-1.963-0.085-3.925-0.085-5.888c1.451-40.013,9.08-79.566,22.614-117.25
	c3.157-9.301,6.656-18.688,10.411-27.99c1.707-4.352,3.499-8.619,5.376-12.886c3.328-7.68,6.912-15.36,10.667-22.87
	c7.023-14.234,14.857-28.058,23.467-41.387c2.133-3.328,4.267-6.485,6.485-9.643c1.109-1.621,2.219-3.157,3.328-4.693h0.171
	c5.991-8.44,12.484-16.504,19.456-24.15c5.658-6.178,11.665-12.015,18.006-17.494c15.369-14.003,34.236-23.595,54.614-27.734
	c4.284-0.751,8.619-1.126,12.971-1.109c1.963,0,3.84,0.085,5.803,0.256c1.451,0.085,2.901,0.256,4.267,0.427
	c15.915,9.037,30.2,20.694,42.241,34.475c7.168,7.868,13.867,16.162,20.054,24.832c0.085,0.085,0.085,0.085,0.085,0.171
	c0.085,0.256,0.256,0.512,0.341,0.768c0.853,1.195,1.621,2.304,2.475,3.499c10.966,15.958,20.745,32.7,29.27,50.091
	c5.888,11.776,11.29,23.783,16.214,36.011c3.755,9.301,7.253,18.603,10.411,27.99c0.179,0.469,0.324,0.956,0.427,1.451
	c10.087,29.184,17.007,59.367,20.651,90.028C409.052,287.083,409.564,295.685,409.598,304.295z"/>
<path style="fill:#283593;" d="M332.968,486.826c-48.974,22.102-105.064,22.187-154.115,0.256l0.341-0.683l34.134-34.134h85.335
	l34.134,34.134L332.968,486.826z"/>
<path d="M255.646,512c-108.222,0-196.27-88.04-196.27-196.27c0.034-8.935,0.572-17.929,1.596-26.752
	c3.746-31.309,10.829-62.277,21.052-92.076l0.563-1.579c3.012-8.909,6.579-18.484,10.428-28.032
	c1.715-4.378,3.558-8.747,5.478-13.124c3.362-7.748,7.015-15.591,10.846-23.254c7.117-14.439,15.181-28.647,23.936-42.198
	c2.176-3.405,4.378-6.656,6.665-9.916c1.101-1.604,2.244-3.192,3.388-4.787c0.299-0.41,0.623-0.794,0.981-1.135
	c5.956-8.286,12.433-16.273,19.26-23.766c5.845-6.392,12.143-12.502,18.731-18.202C201.953,12.297,228.023,1.229,255.441,0
	c0.009,0,0.017,0,0.026,0c31.787,0,62.875,16.615,92.767,49.366c7.399,8.124,14.362,16.751,20.702,25.635h-0.009
	c0.367,0.512,0.674,1.058,0.922,1.63l1.988,2.816c11.23,16.35,21.291,33.571,29.978,51.278c5.956,11.93,11.512,24.261,16.47,36.592
	c4.088,10.112,7.552,19.422,10.582,28.451c0.171,0.418,0.375,1.075,0.546,1.792c10.189,29.594,17.229,60.34,20.916,91.394
	c1.024,8.824,1.562,17.818,1.596,26.744c0,0.009,0,0.026,0,0.034C451.916,423.96,363.876,512,255.646,512z M156.35,85.156
	c-0.794,1.101-1.587,2.219-2.381,3.379c-2.202,3.132-4.267,6.195-6.34,9.421c-8.414,13.031-16.145,26.667-22.998,40.56
	c-3.721,7.433-7.236,14.985-10.488,22.486c-1.843,4.207-3.593,8.363-5.257,12.604c-3.763,9.336-7.219,18.603-10.283,27.623
	l-0.589,1.63c-9.677,28.246-16.495,58.028-20.096,88.125c-0.947,8.158-1.442,16.512-1.476,24.781
	c0,98.775,80.385,179.169,179.203,179.169c98.809,0,179.194-80.385,179.203-179.194c-0.034-8.286-0.538-16.623-1.476-24.79
	c-3.558-29.97-10.368-59.658-20.241-88.228c-0.111-0.316-0.196-0.64-0.265-0.964c-3.115-9.267-6.46-18.262-10.419-28.067
	c-4.796-11.913-10.146-23.825-15.932-35.397c-8.354-17.024-17.98-33.511-28.672-49.067l-2.372-3.362
	c-0.358-0.503-0.666-1.05-0.905-1.621c-5.828-8.098-12.194-15.966-18.944-23.382c-26.531-29.065-53.377-43.802-79.797-43.802
	c-22.938,1.041-45.116,10.454-62.055,26.505c-6.374,5.521-12.186,11.179-17.579,17.067c-6.682,7.322-13.005,15.181-18.799,23.322
	C157.076,84.388,156.726,84.797,156.35,85.156z M353.525,80.121c0,1.263,0.29,2.509,0.836,3.627
	c-0.026-0.068-0.043-0.137-0.068-0.205C353.96,82.621,353.525,81.102,353.525,80.121z"/>
<path d="M72.697,275.708c-2.236,0-4.463-0.879-6.144-2.611c-26.232-27.205-40.781-62.994-40.961-100.772
	c0.384-42.343,18.833-82.51,50.612-110.312c2.074-1.818,4.907-2.517,7.586-1.886c2.68,0.64,4.898,2.526,5.939,5.086
	c7.45,18.279,23.416,31.676,42.71,35.841c4.608,0.998,7.535,5.53,6.545,10.138c-0.998,4.608-5.538,7.509-10.138,6.545
	c-20.805-4.489-38.588-17.323-49.443-35.209c-23.177,24.03-36.446,56.193-36.745,89.832c0.171,33.246,13.014,64.863,36.182,88.885
	c3.268,3.388,3.174,8.798-0.213,12.066C76.963,274.914,74.83,275.708,72.697,275.708z"/>
<path d="M439.295,275.708c-2.133,0-4.267-0.794-5.922-2.389c-3.388-3.268-3.49-8.679-0.213-12.066
	c23.16-24.03,36.011-55.647,36.173-89.013c-0.307-33.537-13.577-65.691-36.737-89.721c-10.846,17.886-28.638,30.721-49.443,35.209
	c-4.591,0.981-9.139-1.929-10.138-6.545c-0.99-4.608,1.937-9.148,6.545-10.138c19.294-4.164,35.26-17.562,42.71-35.841
	c1.041-2.552,3.251-4.446,5.931-5.086c2.671-0.631,5.513,0.06,7.586,1.886c31.787,27.794,50.228,67.961,50.621,110.193
	c-0.179,37.897-14.737,73.687-40.961,100.891C443.758,274.829,441.531,275.708,439.295,275.708z"/>
<path d="M73.55,370.174c-2.185,0-4.369-0.836-6.033-2.5c-3.337-3.337-3.337-8.73,0-12.066l51.943-51.943
	c3.226-3.226,7.509-5.001,12.066-5.001h248.939c4.489,0,8.892,1.826,12.066,5.001l51.346,51.346c3.337,3.337,3.337,8.73,0,12.066
	s-8.73,3.337-12.066,0l-51.346-51.346H131.526l-51.943,51.943C77.911,369.337,75.726,370.174,73.55,370.174z"/>
<path d="M332.797,494.933c-2.185,0-4.369-0.836-6.033-2.5l-31.634-31.634h-78.269l-31.634,31.634c-3.337,3.337-8.73,3.337-12.066,0
	s-3.337-8.73,0-12.066l34.134-34.134c1.604-1.604,3.772-2.5,6.033-2.5h85.335c2.27,0,4.437,0.896,6.033,2.5l34.134,34.134
	c3.337,3.337,3.337,8.73,0,12.066C337.158,494.097,334.973,494.933,332.797,494.933z"/>
<path style="fill:#00838F;" d="M238.929,209.659v41.131c-0.009,4.25-3.132,7.851-7.339,8.448l-77.825,11.179l-18.176,2.56
	c-4.693,0.657-9.02-2.62-9.677-7.305c-0.239-1.707,0.043-3.439,0.802-4.984l16.64-33.195c1.092-2.168,3.046-3.772,5.376-4.437
	l79.447-21.675c3.866-1.05,7.936,0.768,9.728,4.352C238.587,206.928,238.937,208.285,238.929,209.659z"/>
<path style="fill:#F95F62;" d="M241.105,209.659v41.131c-0.009,4.25-3.132,7.851-7.339,8.448l-77.825,11.179
	c-2.475-2.62-3.055-6.503-1.451-9.728l16.64-33.195c1.092-2.168,3.046-3.772,5.376-4.437l63.574-17.323
	C240.764,206.928,241.122,208.285,241.105,209.659z"/>
<path style="fill:#00838F;" d="M376.403,272.977l-18.176-2.56l-77.825-11.179c-4.207-0.597-7.33-4.198-7.339-8.448v-41.131
	c-0.017-1.374,0.341-2.731,1.024-3.925c1.792-3.584,5.862-5.402,9.728-4.352l79.447,21.675c2.33,0.666,4.284,2.27,5.376,4.437
	l16.64,33.195c2.099,4.25,0.35,9.387-3.891,11.486C379.842,272.935,378.101,273.216,376.403,272.977z"/>
<path style="fill:#F95F62;" d="M358.227,270.417l-77.825-11.179c-4.207-0.597-7.33-4.198-7.339-8.448v-41.131
	c-0.017-1.374,0.341-2.731,1.024-3.925l63.574,17.323c2.33,0.666,4.284,2.27,5.376,4.437l16.64,33.195
	C361.273,263.915,360.693,267.798,358.227,270.417z"/>
<path d="M134.343,281.596c-3.669,0-7.219-1.186-10.206-3.413c-3.652-2.731-6.016-6.733-6.656-11.239
	c-0.486-3.465,0.077-6.929,1.621-10.035c0,0,0,0,0-0.009l16.606-33.221c2.176-4.344,6.101-7.561,10.778-8.832l79.404-21.658
	c4.403-1.203,8.994-0.614,12.954,1.647c3.96,2.261,6.801,5.922,8.004,10.317c0.41,1.459,0.614,2.978,0.614,4.489v41.165
	c0,8.44-6.298,15.702-14.652,16.896l-96.01,13.713C135.972,281.536,135.153,281.596,134.343,281.596z M134.377,264.521
	c0,0,0,0.009,0,0.017l96.019-13.73v-41.165L150.983,231.3L134.377,264.521L134.377,264.521L134.377,264.521z"/>
<path d="M377.64,281.596c-0.811,0-1.63-0.06-2.449-0.179l-96.019-13.713c-8.346-1.195-14.643-8.457-14.643-16.896v-41.165
	c0-1.519,0.196-3.029,0.597-4.489c1.203-4.403,4.045-8.064,8.004-10.325c3.977-2.261,8.576-2.842,12.962-1.638l79.404,21.649
	c4.693,1.271,8.619,4.497,10.786,8.841l16.606,33.212c0,0,0,0,0,0.009c1.562,3.115,2.116,6.579,1.63,10.018
	c-0.649,4.523-3.012,8.525-6.656,11.256C384.86,280.41,381.31,281.596,377.64,281.596z M281.596,209.65v41.157l96.019,13.713l0,0
	L361.009,231.3L281.596,209.65z"/>
<path style="fill:#728F9C;" d="M281.596,379.731c0,16.495,0,29.867-25.6,29.867s-25.6-13.372-25.6-29.867
	c-1.084-15.283,10.326-28.604,25.6-29.867C271.262,351.127,282.68,364.448,281.596,379.731z"/>
<path d="M255.996,418.132c-34.134,0-34.134-22.196-34.134-38.401c-1.382-19.243,13.602-36.728,33.426-38.366
	c0.469-0.051,0.93-0.051,1.417,0c19.721,1.63,34.654,18.936,33.426,38.648C290.13,396.192,289.925,418.132,255.996,418.132z
	 M255.996,358.44c-10.206,1.229-17.818,10.36-17.084,20.694c0.017,17.417,0.017,21.931,17.084,21.931s17.067-4.514,17.067-21.334
	c0-0.196,0.009-0.401,0.026-0.597C273.805,368.791,266.202,359.66,255.996,358.44z"/>
<g>
</g>
<g>
</g>
<g>
</g>
<g>
</g>
<g>
</g>
<g>
</g>
<g>
</g>
<g>
</g>
<g>
</g>
<g>
</g>
<g>
</g>
<g>
</g>
<g>
</g>
<g>
</g>
<g>
</g>
</svg>
