<?xml version="1.0" encoding="iso-8859-1"?>
<!-- Generator: Adobe Illustrator 19.0.0, SVG Export Plug-In . SVG Version: 6.00 Build 0)  -->
<svg version="1.1" id="Layer_1" xmlns="http://www.w3.org/2000/svg" xmlns:xlink="http://www.w3.org/1999/xlink" x="0px" y="0px"
	 viewBox="0 0 512.001 512.001" style="enable-background:new 0 0 512.001 512.001;" xml:space="preserve">
<path style="fill:#1BA8C9;" d="M504.396,177.796c-31.052,0-31.052,24.333-62.103,24.333s-31.052-24.333-62.103-24.333
	c-31.051,0-31.051,24.333-62.1,24.333s-31.05-24.333-62.098-24.333c-31.047,0-31.047,24.333-62.095,24.333
	c-31.048,0-31.048-24.333-62.098-24.333s-31.05,24.333-62.099,24.333c-31.047,0-31.047-24.333-62.096-24.333v66.038
	c31.047,0,31.047,24.333,62.096,24.333c31.049,0,31.049-24.333,62.099-24.333c31.048,0,31.048,24.333,62.098,24.333
	c31.047,0,31.047-24.333,62.095-24.333c31.05,0,31.05,24.333,62.098,24.333c31.051,0,31.051-24.333,62.1-24.333
	c31.052,0,31.052,24.333,62.103,24.333s31.052-24.333,62.103-24.333"/>
<path style="fill:#53C5F2;" d="M504.396,243.834c-31.052,0-31.052,24.333-62.103,24.333s-31.052-24.333-62.103-24.333
	c-31.051,0-31.051,24.333-62.1,24.333s-31.05-24.333-62.098-24.333c-31.047,0-31.047,24.333-62.095,24.333
	c-31.048,0-31.048-24.333-62.098-24.333s-31.05,24.333-62.099,24.333c-31.047,0-31.047-24.333-62.096-24.333v66.037
	c31.047,0,31.047,24.333,62.096,24.333c31.049,0,31.049-24.333,62.099-24.333c31.048,0,31.048,24.333,62.098,24.333
	c31.047,0,31.047-24.333,62.095-24.333c31.05,0,31.05,24.333,62.098,24.333c31.051,0,31.051-24.333,62.1-24.333
	c31.052,0,31.052,24.333,62.103,24.333s31.052-24.333,62.103-24.333"/>
<path style="fill:#1BA8C9;" d="M504.396,45.723c-31.052,0-31.052,24.333-62.103,24.333s-31.052-24.333-62.103-24.333
	c-31.051,0-31.051,24.333-62.1,24.333s-31.05-24.333-62.098-24.333c-31.047,0-31.047,24.333-62.095,24.333
	c-31.048,0-31.048-24.333-62.098-24.333S100.749,70.055,69.7,70.055c-31.047,0-31.047-24.333-62.096-24.333v66.037
	c31.047,0,31.047,24.333,62.096,24.333c31.049,0,31.049-24.333,62.099-24.333c31.048,0,31.048,24.333,62.098,24.333
	c31.047,0,31.047-24.333,62.095-24.333c31.05,0,31.05,24.333,62.098,24.333c31.051,0,31.051-24.333,62.1-24.333
	c31.052,0,31.052,24.333,62.103,24.333s31.052-24.333,62.103-24.333"/>
<path style="fill:#53C5F2;" d="M504.396,111.759c-31.052,0-31.052,24.333-62.103,24.333s-31.052-24.333-62.103-24.333
	c-31.051,0-31.051,24.333-62.1,24.333s-31.05-24.333-62.098-24.333c-31.047,0-31.047,24.333-62.095,24.333
	c-31.048,0-31.048-24.333-62.098-24.333s-31.05,24.333-62.099,24.333c-31.047,0-31.047-24.333-62.096-24.333v66.037
	c31.047,0,31.047,24.333,62.096,24.333c31.049,0,31.049-24.333,62.099-24.333c31.048,0,31.048,24.333,62.098,24.333
	c31.047,0,31.047-24.333,62.095-24.333c31.05,0,31.05,24.333,62.098,24.333c31.051,0,31.051-24.333,62.1-24.333
	c31.052,0,31.052,24.333,62.103,24.333s31.052-24.333,62.103-24.333"/>
<path style="fill:#FFCDA5;" d="M396.93,312.928c-4.502-1.855-9.855-3.052-16.739-3.052c-31.055,0-31.055,24.333-62.099,24.333
	c-31.055,0-31.055-24.333-62.099-24.333s-31.044,24.333-62.099,24.333c-31.044,0-31.044-24.333-62.099-24.333l120.244-59.027
	l-56.969-71.214l-135.756,25.59c0-21.423,14.64-40.078,35.445-45.178l30.102-7.371l80.744-19.78
	c6.752-1.653,13.89,0.182,19.02,4.887l89.869,82.528c0,17.124,6.539,34.248,19.598,47.317
	c13.069,13.069,30.193,19.598,47.317,19.598L396.93,312.928z"/>
<path style="fill:#EDB892;" d="M252.044,250.849c0,0,5.599,58.915,113.57,83.247c107.971,24.332-144.468,12.165-144.468,12.165
	l-94.284-13.686l4.938-22.704"/>
<path style="fill:#FFCDA5;" d="M428.714,172.99c26.137,26.137,26.137,68.496,0,94.634c-13.069,13.069-30.173,19.598-47.307,19.598
	c-17.124,0-34.248-6.529-47.317-19.598c-13.059-13.069-19.598-30.193-19.598-47.317s6.539-34.248,19.598-47.317
	C360.218,146.862,402.587,146.862,428.714,172.99z"/>
<path style="fill:#EDB892;" d="M375.15,267.623c-13.059-13.069-19.598-30.193-19.598-47.317s6.539-34.248,19.598-47.317
	c7.773-7.773,16.989-13.215,26.782-16.363c-23.123-7.433-49.488-1.991-67.842,16.363c-13.059,13.069-19.598,30.193-19.598,47.317
	s6.539,34.248,19.598,47.317c13.069,13.069,30.193,19.598,47.317,19.598c6.939,0,13.868-1.09,20.53-3.232
	C392.144,280.842,382.926,275.4,375.15,267.623z"/>
<path style="fill:#1BA8C9;" d="M504.396,309.871c-31.052,0-31.052,24.333-62.103,24.333s-31.052-24.333-62.103-24.333
	c-31.051,0-31.051,24.333-62.1,24.333s-31.05-24.333-62.098-24.333c-31.047,0-31.047,24.333-62.095,24.333
	c-31.048,0-31.048-24.333-62.098-24.333s-31.05,24.333-62.099,24.333c-31.047,0-31.047-24.333-62.096-24.333v66.037
	c31.047,0,31.047,24.333,62.096,24.333c31.049,0,31.049-24.333,62.099-24.333c31.048,0,31.048,24.333,62.098,24.333
	c31.047,0,31.047-24.333,62.095-24.333c31.05,0,31.05,24.333,62.098,24.333c31.051,0,31.051-24.333,62.1-24.333
	c31.052,0,31.052,24.333,62.103,24.333s31.052-24.333,62.103-24.333"/>
<path style="fill:#53C5F2;" d="M504.396,375.909c-31.052,0-31.052,24.333-62.103,24.333s-31.052-24.333-62.103-24.333
	c-31.051,0-31.051,24.333-62.1,24.333s-31.05-24.333-62.098-24.333c-31.047,0-31.047,24.333-62.095,24.333
	c-31.048,0-31.048-24.333-62.098-24.333s-31.05,24.333-62.099,24.333c-31.047,0-31.047-24.333-62.096-24.333v66.037
	c31.047,0,31.047,24.333,62.096,24.333c31.049,0,31.049-24.333,62.099-24.333c31.048,0,31.048,24.333,62.098,24.333
	c31.047,0,31.047-24.333,62.095-24.333c31.05,0,31.05,24.333,62.098,24.333c31.051,0,31.051-24.333,62.1-24.333
	c31.052,0,31.052,24.333,62.103,24.333s31.052-24.333,62.103-24.333"/>
<path style="fill:#F74F7B;" d="M428.721,267.628c-3.64,3.64-7.594,6.773-11.771,9.388v-0.01
	c8.547-18.148-0.314-46.932-22.812-69.429c-22.487-22.487-51.281-31.359-69.429-22.812c2.616-4.187,5.749-8.131,9.388-11.771
	c26.127-26.127,68.496-26.127,94.624,0C454.849,199.132,454.849,241.491,428.721,267.628z"/>
<path style="fill:#E52E66;" d="M334.094,172.995c-3.64,3.64-6.773,7.584-9.388,11.771c10.695-5.037,25.087-4.019,39.706,2.264
	c2.88-5.019,6.45-9.75,10.736-14.04c7.772-7.772,16.986-13.214,26.778-16.362C378.805,149.2,352.446,154.643,334.094,172.995z"/>
<path style="fill:#EDB892;" d="M195.07,179.635l-135.756,25.59c0-21.423,14.64-40.078,35.445-45.178l30.102-7.371
	C124.86,152.677,134.157,181.471,195.07,179.635z"/>
<path d="M504.396,302.267c-18.15,0-27.496,7.324-35.742,13.785c-7.52,5.894-13.46,10.547-26.361,10.547s-18.841-4.655-26.361-10.547
	c-4.016-3.147-8.301-6.492-13.729-9.102l-7.994-13.236c15.031-2.589,28.88-9.707,39.886-20.713
	c29.053-29.053,29.053-76.328,0-105.381c-14.073-14.074-32.786-21.825-52.69-21.825s-38.616,7.751-52.69,21.825
	c-10.281,10.281-17.169,23.041-20.145,36.927l-78.807-72.365c-7.014-6.441-16.725-8.933-25.973-6.668L92.953,152.66
	c-24.284,5.948-41.245,27.564-41.245,52.566c0,2.263,1.009,4.409,2.751,5.853c1.743,1.445,4.038,2.037,6.262,1.619l131.268-24.743
	l12.699,15.874c2.624,3.28,7.408,3.812,10.688,1.187c3.279-2.623,3.811-7.408,1.187-10.688l-15.554-19.443
	c-1.757-2.197-4.583-3.244-7.346-2.722L68.055,195.84c3.407-13.803,14.189-24.899,28.518-28.408l110.836-27.146
	c4.297-1.053,8.808,0.105,12.068,3.098l87.496,80.343c0.835,18.621,8.477,36.007,21.742,49.273
	c13.037,13.037,30.058,20.636,48.316,21.686l4.6,7.617c-0.483-0.011-0.946-0.037-1.441-0.037c-18.149,0-27.495,7.324-35.74,13.785
	c-7.52,5.894-13.459,10.547-26.36,10.547c-12.9,0-18.84-4.655-26.359-10.547c-8.245-6.461-17.591-13.785-35.739-13.785
	s-27.494,7.324-35.739,13.785c-7.519,5.893-13.458,10.547-26.357,10.547c-12.9,0-18.84-4.655-26.358-10.547
	c-3.867-3.03-7.989-6.241-13.134-8.806l100.991-49.571c2.07-1.016,3.568-2.917,4.071-5.168s-0.043-4.608-1.483-6.409l-26.64-33.3
	c-2.625-3.28-7.41-3.812-10.688-1.187c-3.28,2.623-3.811,7.408-1.187,10.688l20.72,25.9l-110.251,54.115
	c-16.919,0.489-25.922,7.505-33.877,13.738C88.54,321.946,82.6,326.6,69.7,326.6c-12.899,0-18.839-4.655-26.357-10.547
	c-8.245-6.461-17.59-13.785-35.739-13.785c-4.199,0-7.604,3.405-7.604,7.604c0,4.199,3.405,7.604,7.604,7.604
	c12.899,0,18.839,4.655,26.357,10.547c8.245,6.461,17.59,13.785,35.739,13.785c18.149,0,27.495-7.324,35.74-13.785
	c7.52-5.894,13.458-10.547,26.358-10.547s18.84,4.655,26.358,10.547c8.246,6.461,17.59,13.785,35.74,13.785
	c18.148,0,27.493-7.324,35.739-13.785c7.519-5.894,13.458-10.547,26.357-10.547c12.9,0,18.84,4.655,26.358,10.547
	c8.246,6.461,17.591,13.785,35.74,13.785c18.149,0,27.495-7.324,35.74-13.785c7.52-5.894,13.459-10.547,26.36-10.547
	c12.901,0,18.841,4.655,26.361,10.547c8.246,6.461,17.592,13.785,35.742,13.785c18.15,0,27.496-7.324,35.742-13.785
	c7.52-5.894,13.46-10.547,26.361-10.547c4.199,0,7.604-3.405,7.604-7.604C512,305.672,508.595,302.267,504.396,302.267z
	 M423.342,178.373c21.603,21.604,23.018,55.862,4.255,79.13c-1.315-18.101-11.289-38.505-28.082-55.298
	c-16.795-16.795-37.2-26.771-55.301-28.088c10.507-8.492,23.492-13.114,37.193-13.114
	C397.247,161.003,412.141,167.171,423.342,178.373z M329.96,190.815c15.69-5.719,39.949,3.29,58.801,22.142
	c18.861,18.86,27.866,43.138,22.124,58.824c-8.876,5.103-18.965,7.835-29.48,7.835c-15.842,0-30.735-6.169-41.936-17.37
	C320.143,242.92,316.982,213.469,329.96,190.815z"/>
<path d="M504.396,236.23c-18.15,0-27.496,7.324-35.741,13.785c-3.645,2.855-7.086,5.553-11.16,7.468
	c-3.801,1.786-5.433,6.316-3.646,10.117c1.295,2.755,4.031,4.371,6.886,4.371c1.084,0,2.185-0.233,3.23-0.725
	c5.63-2.647,9.921-6.009,14.069-9.261c7.52-5.894,13.46-10.547,26.36-10.547c4.199,0,7.604-3.405,7.604-7.604
	C512,239.636,508.595,236.23,504.396,236.23z"/>
<path d="M7.604,251.438c12.899,0,18.839,4.655,26.357,10.547c8.245,6.461,17.59,13.785,35.739,13.785
	c18.149,0,27.495-7.324,35.74-13.785c7.52-5.894,13.458-10.547,26.358-10.547c12.899,0,18.84,4.655,26.358,10.547
	c2.299,1.803,4.677,3.666,7.328,5.428c3.497,2.325,8.217,1.377,10.542-2.121c2.326-3.497,1.376-8.216-2.121-10.542
	c-2.158-1.435-4.203-3.038-6.368-4.735c-8.245-6.461-17.59-13.785-35.739-13.785c-18.149,0-27.494,7.324-35.739,13.785
	c-7.521,5.893-13.46,10.547-26.36,10.547c-12.899,0-18.839-4.655-26.357-10.547c-8.245-6.462-17.59-13.785-35.739-13.785
	c-4.199,0-7.604,3.405-7.604,7.604C0,248.034,3.405,251.438,7.604,251.438z"/>
<path d="M504.396,170.192c-18.15,0-27.496,7.324-35.742,13.785c-3.305,2.59-3.886,7.37-1.295,10.675
	c1.499,1.914,3.734,2.915,5.991,2.915c1.64,0,3.293-0.528,4.685-1.619c7.52-5.894,13.46-10.547,26.361-10.547
	c4.199,0,7.604-3.405,7.604-7.604C512.001,173.598,508.595,170.192,504.396,170.192z"/>
<path d="M7.604,185.4c11.796,0,17.824,3.935,24.478,9.08c1.385,1.071,3.021,1.589,4.646,1.589c2.274,0,4.523-1.015,6.021-2.953
	c2.568-3.322,1.958-8.098-1.365-10.667c-8.021-6.202-17.237-12.257-33.779-12.257c-4.199,0-7.604,3.405-7.604,7.604
	C0.001,181.996,3.405,185.4,7.604,185.4z"/>
<path d="M504.396,434.342c-18.15,0-27.496,7.324-35.742,13.785c-7.52,5.894-13.46,10.547-26.361,10.547s-18.841-4.655-26.361-10.547
	c-8.246-6.461-17.592-13.785-35.742-13.785c-18.149,0-27.495,7.324-35.74,13.785c-7.52,5.894-13.459,10.547-26.36,10.547
	c-12.9,0-18.84-4.655-26.359-10.547c-8.245-6.461-17.591-13.785-35.739-13.785s-27.494,7.324-35.739,13.785
	c-7.519,5.893-13.458,10.547-26.357,10.547c-12.9,0-18.84-4.655-26.358-10.547c-8.245-6.461-17.59-13.785-35.74-13.785
	s-27.494,7.324-35.739,13.785c-7.52,5.894-13.459,10.547-26.359,10.547c-12.899,0-18.839-4.655-26.357-10.547
	c-8.245-6.461-17.59-13.785-35.739-13.785c-4.199,0-7.604,3.405-7.604,7.604c0,4.199,3.405,7.604,7.604,7.604
	c12.899,0,18.839,4.655,26.357,10.547c8.245,6.461,17.59,13.785,35.739,13.785c18.149,0,27.495-7.324,35.74-13.785
	c7.52-5.894,13.458-10.547,26.358-10.547s18.84,4.655,26.358,10.547c8.246,6.461,17.59,13.785,35.74,13.785
	c18.148,0,27.493-7.324,35.739-13.785c7.519-5.894,13.458-10.547,26.357-10.547c12.9,0,18.84,4.655,26.358,10.547
	c8.246,6.461,17.591,13.785,35.74,13.785c18.149,0,27.495-7.324,35.74-13.785c7.52-5.894,13.459-10.547,26.36-10.547
	c12.901,0,18.841,4.655,26.361,10.547c8.246,6.461,17.592,13.785,35.742,13.785c18.15,0,27.496-7.324,35.742-13.785
	c7.52-5.894,13.46-10.547,26.361-10.547c4.199,0,7.604-3.405,7.604-7.604C512,437.746,508.595,434.342,504.396,434.342z"/>
<path d="M504.396,368.305c-18.15,0-27.496,7.324-35.742,13.785c-7.52,5.894-13.46,10.547-26.361,10.547s-18.841-4.655-26.361-10.547
	c-8.246-6.461-17.592-13.785-35.742-13.785c-18.149,0-27.495,7.324-35.74,13.785c-7.52,5.894-13.459,10.547-26.36,10.547
	c-12.9,0-18.84-4.655-26.358-10.547c-8.245-6.461-17.591-13.785-35.74-13.785c-18.148,0-27.494,7.324-35.739,13.785
	c-7.519,5.893-13.458,10.547-26.357,10.547c-12.9,0-18.84-4.655-26.358-10.547c-8.245-6.461-17.59-13.785-35.74-13.785
	c-8.108,0-15.196,1.48-21.671,4.525c-3.801,1.787-5.432,6.316-3.646,10.117c1.787,3.801,6.316,5.432,10.117,3.646
	c4.467-2.101,9.297-3.079,15.2-3.079c12.9,0,18.84,4.655,26.358,10.547c8.246,6.461,17.59,13.785,35.74,13.785
	c18.148,0,27.493-7.324,35.739-13.785c7.519-5.894,13.458-10.547,26.357-10.547c12.9,0,18.84,4.655,26.358,10.547
	c8.246,6.461,17.591,13.785,35.74,13.785c18.149,0,27.495-7.324,35.74-13.785c7.52-5.894,13.459-10.547,26.36-10.547
	c12.901,0,18.841,4.655,26.361,10.547c8.246,6.461,17.592,13.785,35.742,13.785c18.15,0,27.496-7.324,35.742-13.785
	c7.52-5.894,13.46-10.547,26.361-10.547c4.199,0,7.604-3.405,7.604-7.604C512,371.711,508.595,368.305,504.396,368.305z"/>
<path d="M7.604,383.513c12.899,0,18.839,4.655,26.357,10.547c8.245,6.461,17.59,13.785,35.739,13.785
	c14.488,0,23.339-4.836,29.43-9.049c3.454-2.389,4.318-7.124,1.929-10.579c-2.388-3.454-7.124-4.319-10.579-1.929
	c-4.769,3.297-10.587,6.349-20.781,6.349c-12.899,0-18.839-4.655-26.357-10.547c-8.245-6.461-17.59-13.785-35.739-13.785
	c-4.199,0-7.604,3.405-7.604,7.604C0,380.108,3.405,383.513,7.604,383.513z"/>
<path d="M504.396,104.156c-18.15,0-27.496,7.324-35.742,13.785c-7.52,5.894-13.46,10.547-26.361,10.547
	c-12.9,0-18.841-4.655-26.36-10.547l-1.593-1.245c-3.317-2.575-8.093-1.974-10.67,1.342c-2.576,3.316-1.975,8.094,1.342,10.67
	l1.541,1.203c8.246,6.461,17.592,13.784,35.741,13.784c18.15,0,27.496-7.324,35.742-13.785c7.52-5.894,13.46-10.547,26.361-10.547
	c4.199,0,7.604-3.405,7.604-7.604C512.001,107.56,508.595,104.156,504.396,104.156z"/>
<path d="M344.45,117.941c-7.52,5.894-13.459,10.547-26.36,10.547c-12.9,0-18.84-4.655-26.358-10.547
	c-8.246-6.461-17.591-13.785-35.74-13.785c-8.108,0-15.196,1.48-21.67,4.525c-3.801,1.787-5.432,6.316-3.646,10.117
	c1.787,3.801,6.316,5.431,10.117,3.646c4.467-2.101,9.297-3.079,15.199-3.079c12.9,0,18.84,4.655,26.358,10.547
	c8.246,6.461,17.591,13.785,35.74,13.785c18.149,0,27.495-7.324,35.74-13.785c7.52-5.894,13.459-10.547,26.36-10.547
	c4.199,0,7.604-3.405,7.604-7.604c0-4.199-3.405-7.604-7.604-7.604C362.041,104.156,352.695,111.48,344.45,117.941z"/>
<path d="M7.604,119.363c12.899,0,18.839,4.655,26.357,10.547c8.245,6.461,17.59,13.785,35.739,13.785
	c18.149,0,27.495-7.324,35.74-13.785c7.52-5.894,13.458-10.547,26.358-10.547c11.357,0,17.447,3.822,22.709,7.736
	c3.369,2.505,8.132,1.806,10.639-1.563c2.506-3.37,1.806-8.133-1.563-10.639c-7.501-5.578-16.543-10.741-31.785-10.741
	c-18.149,0-27.494,7.324-35.739,13.785c-7.52,5.894-13.459,10.547-26.359,10.547c-12.899,0-18.839-4.655-26.357-10.547
	c-8.245-6.461-17.59-13.785-35.739-13.785c-4.199,0-7.604,3.405-7.604,7.604C0.001,115.959,3.405,119.363,7.604,119.363z"/>
<path d="M7.604,53.327c12.899,0,18.839,4.655,26.357,10.547c8.245,6.461,17.59,13.785,35.739,13.785
	c18.149,0,27.495-7.324,35.74-13.785c7.52-5.894,13.458-10.547,26.358-10.547s18.84,4.655,26.359,10.547
	c8.246,6.461,17.59,13.785,35.74,13.785c18.148,0,27.493-7.324,35.739-13.785c7.519-5.894,13.458-10.547,26.357-10.547
	c12.9,0,18.84,4.655,26.358,10.547c8.246,6.461,17.59,13.785,35.74,13.785s27.495-7.324,35.74-13.785
	c7.52-5.894,13.459-10.547,26.36-10.547s18.841,4.655,26.361,10.547c8.246,6.461,17.592,13.785,35.742,13.785
	s27.496-7.324,35.742-13.785c7.52-5.894,13.46-10.547,26.361-10.547c4.199,0,7.604-3.405,7.604-7.604s-3.405-7.604-7.604-7.604
	c-18.15,0-27.496,7.324-35.742,13.785c-7.52,5.894-13.46,10.547-26.361,10.547s-18.841-4.655-26.361-10.547
	c-8.246-6.461-17.592-13.785-35.742-13.785c-18.149,0-27.495,7.324-35.74,13.785c-7.52,5.894-13.459,10.547-26.36,10.547
	c-12.9,0-18.84-4.655-26.359-10.547c-8.245-6.461-17.591-13.785-35.739-13.785s-27.494,7.324-35.739,13.785
	c-7.519,5.893-13.458,10.547-26.357,10.547c-12.9,0-18.84-4.655-26.358-10.547c-8.245-6.461-17.59-13.785-35.74-13.785
	s-27.494,7.324-35.74,13.785C88.54,57.798,82.6,62.451,69.7,62.451c-12.899,0-18.839-4.655-26.357-10.547
	c-8.245-6.461-17.591-13.785-35.739-13.785C3.405,38.119,0,41.523,0,45.723S3.405,53.327,7.604,53.327z"/>
<path d="M355.627,203.07c-2.97-2.97-7.784-2.97-10.753,0c-2.97,2.97-2.97,7.784,0,10.753l8.603,8.603
	c1.484,1.484,3.431,2.227,5.377,2.227c1.946,0,3.892-0.742,5.376-2.227c2.97-2.97,2.97-7.784,0-10.753L355.627,203.07z"/>
<path d="M393.265,259.065c1.946,0,3.892-0.742,5.377-2.227c2.97-2.97,2.97-7.784,0-10.753l-8.603-8.603
	c-2.97-2.97-7.784-2.97-10.753,0c-2.97,2.97-2.97,7.784,0,10.753l8.603,8.603C389.372,258.323,391.319,259.065,393.265,259.065z"/>
<g>
</g>
<g>
</g>
<g>
</g>
<g>
</g>
<g>
</g>
<g>
</g>
<g>
</g>
<g>
</g>
<g>
</g>
<g>
</g>
<g>
</g>
<g>
</g>
<g>
</g>
<g>
</g>
<g>
</g>
</svg>
