<?xml version="1.0" encoding="utf-8"?>
<!-- Generator: Adobe Illustrator 21.1.0, SVG Export Plug-In . SVG Version: 6.00 Build 0)  -->
<svg version="1.1" id="Layer_1" xmlns="http://www.w3.org/2000/svg" xmlns:xlink="http://www.w3.org/1999/xlink" x="0px" y="0px"
	 viewBox="0 0 512 512" style="enable-background:new 0 0 512 512;" xml:space="preserve">
<style type="text/css">
	.st0{fill:#FFA071;stroke:#000000;stroke-width:13.0259;stroke-miterlimit:10;}
	.st1{fill:#FF926C;}
	.st2{fill:none;stroke:#000000;stroke-width:13.0259;stroke-miterlimit:10;}
	.st3{fill:#FFBCA4;stroke:#000000;stroke-width:13.0259;stroke-miterlimit:10;}
	.st4{fill:#A5CCF2;stroke:#000000;stroke-width:13.0259;stroke-miterlimit:10;}
	.st5{fill:#B9D6ED;stroke:#000000;stroke-width:13.0259;stroke-miterlimit:10;}
	.st6{fill:#8EC3EF;}
</style>
<path class="st0" d="M330.3,31.8c-3.8-2.9-6.9-6.3-9.4-10l-146.1,100l-5.1,3.5l-146.1,100c2.6,3.7,4.7,7.8,5.9,12.4
	c4.7,16.9-2.1,34.4-15.8,43.9l101.7,148.6c3.5-2.4,7.4-4.2,11.7-5.4c13.1-3.7,26.5-0.4,36.3,7.7l147.4-100.9l5.1-3.5L463.3,227
	c-3.9-12-2.2-25.7,6-36.6c2.7-3.6,5.8-6.5,9.3-8.9L376.9,32.9C363.1,42.2,344.4,42.4,330.3,31.8z"/>
<path class="st1" d="M462.8,227.1c0,0-4.7-14.6,0-24.4c4.7-9.8,14.1-25.9,14.1-25.9L378,32.3l-5.6,2.7c0,0,20.9,44.1,25.3,51.3
	c16.9,28.4,40.3,75.4,39.9,87.5c-0.4,12.1-0.4,12.1-21,15.7"/>
<path class="st2" d="M330.3,31.8c-3.8-2.9-6.9-6.3-9.4-10l-146.1,100l-5.1,3.5l-146.1,100c2.6,3.7,4.7,7.8,5.9,12.4
	c4.7,16.9-2.1,34.4-15.8,43.9l101.7,148.6c3.5-2.4,7.4-4.2,11.7-5.4c13.1-3.7,26.5-0.4,36.3,7.7l147.4-100.9l5.1-3.5L463.3,227
	c-3.9-12-2.2-25.7,6-36.6c2.7-3.6,5.8-6.5,9.3-8.9L376.9,32.9C363.1,42.2,344.4,42.4,330.3,31.8z"/>
<path class="st3" d="M308.3,80.8c-2.8-2.1-5.2-4.7-7-7.5l-109.3,74.9l-3.8,2.6L78.8,225.6c1.9,2.7,3.5,5.8,4.4,9.3
	c3.5,12.7-1.6,25.7-11.8,32.8l76.1,111.2c2.6-1.8,5.5-3.2,8.7-4.1c9.8-2.7,19.9-0.3,27.2,5.7L293.8,305l3.8-2.6l110.3-75.5
	c-2.9-9-1.6-19.3,4.5-27.4c2-2.7,4.4-4.9,6.9-6.7L343.2,81.6C332.8,88.6,318.8,88.7,308.3,80.8z"/>
<g>
	<path class="st4" d="M409.4,172.4c-2.7-3.9-4.5-8.2-5.6-12.6l-170.8,46.4l-5.9,1.6L56.2,254.3c1.2,4.3,1.8,8.9,1.5,13.7
		c-1.1,17.6-13.3,31.7-29.4,36.2l47.2,173.8c4.1-1.1,8.4-1.6,12.8-1.3c13.6,0.8,25.2,8.4,31.8,19.2L292.5,449l5.9-1.6l172.4-46.8
		c0.2-12.7,6.4-25,17.7-32.6c3.7-2.5,7.6-4.2,11.7-5.4L453,188.8C436.9,193.1,419.2,187,409.4,172.4z"/>
	<path class="st5" d="M372.5,211.4c-2-3-3.3-6.1-4.2-9.4l-127.9,34.7L236,238l-127.9,34.7c0.9,3.2,1.4,6.7,1.1,10.2
		c-0.8,13.1-10,23.8-22,27.1l35.3,130.1c3-0.8,6.3-1.2,9.6-1c10.2,0.6,18.8,6.3,23.8,14.3l129-35.1l4.4-1.2l129-35.1
		c0.2-9.5,4.8-18.7,13.3-24.4c2.8-1.9,5.7-3.2,8.8-4l-35.3-130.1C393.1,226.9,379.8,222.4,372.5,211.4z"/>
</g>
<path class="st6" d="M416.8,186.2c0,0,10.1,17.8,15.1,31.8c4.9,13.6,28.1,99.6,33.4,118.4c3.6,12.9,3.6,37.9-20.2,50.7
	c-21.2,12.6-264,74.9-261.1,87.7c3.6,13.3,286.9-74.1,286.9-74.1s0.2-15.3,7.8-23.1c7.6-7.8,21.6-20,21.6-20L453,188.8L416.8,186.2z
	"/>
<path class="st2" d="M409.4,172.4c-2.7-3.9-4.5-8.2-5.6-12.6l-170.8,46.4l-5.9,1.6L56.2,254.3c1.2,4.3,1.8,8.9,1.5,13.7
	c-1.1,17.6-13.3,31.7-29.4,36.2l47.2,173.8c4.1-1.1,8.4-1.6,12.8-1.3c13.6,0.8,25.2,8.4,31.8,19.2L292.5,449l5.9-1.6l172.4-46.8
	c0.2-12.7,6.4-25,17.7-32.6c3.7-2.5,7.6-4.2,11.7-5.4L453,188.8C436.9,193.1,419.2,187,409.4,172.4z"/>
</svg>
