<?xml version="1.0" encoding="iso-8859-1"?>
<!-- Generator: Adobe Illustrator 19.0.0, SVG Export Plug-In . SVG Version: 6.00 Build 0)  -->
<svg version="1.1" id="Layer_1" xmlns="http://www.w3.org/2000/svg" xmlns:xlink="http://www.w3.org/1999/xlink" x="0px" y="0px"
	 viewBox="0 0 512 512" style="enable-background:new 0 0 512 512;" xml:space="preserve">
<path style="fill:#B5E1F4;" d="M299.116,256H460.8c11.906,0,21.558,9.651,21.558,21.558v129.347h-204.8V277.558
	C277.558,265.651,287.209,256,299.116,256z"/>
<path style="fill:#64AF8F;" d="M482.358,450.021H29.642c-11.906,0-21.558-9.651-21.558-21.558v-21.558
	c0-11.906,9.651-21.558,21.558-21.558h452.716c11.906,0,21.558,9.651,21.558,21.558v21.558
	C503.916,440.37,494.264,450.021,482.358,450.021z"/>
<path style="fill:#82CEAD;" d="M8.084,417.684v-10.779c0-11.906,9.651-21.558,21.558-21.558h452.716
	c11.906,0,21.558,9.651,21.558,21.558v10.779H8.084z"/>
<path style="fill:#FFC0CF;" d="M503.916,61.979v75.453v37.726c0,20.836-16.891,37.726-37.726,37.726H293.726
	c-20.836,0-37.726-16.891-37.726-37.726l0,0c0-20.836,16.891-37.726,37.726-37.726h134.737l0,0
	C428.463,95.76,462.244,61.979,503.916,61.979L503.916,61.979z"/>
<path style="fill:#FF9CAB;" d="M503.916,132.042v5.389v37.726c0,20.836-16.891,37.726-37.726,37.726H293.726
	c-20.836,0-37.726-16.891-37.726-37.726l0,0c0-8.018,2.508-15.446,6.773-21.558c6.818,9.77,18.135,16.168,30.953,16.168h172.463
	C487.025,169.768,503.916,152.878,503.916,132.042z"/>
<path d="M512,61.979v113.179c0,25.26-20.55,45.811-45.811,45.811H293.726c-25.26,0-45.811-20.55-45.811-45.811
	s20.55-45.811,45.811-45.811h16.168c4.466,0,8.084,3.618,8.084,8.084c0,4.466-3.618,8.084-8.084,8.084h-16.168
	c-16.344,0-29.642,13.298-29.642,29.642s13.298,29.642,29.642,29.642h172.463c16.344,0,29.642-13.298,29.642-29.642V70.545
	c-30.701,3.686-55.116,28.101-58.802,58.802H460.8c4.466,0,8.084,3.618,8.084,8.084c0,4.466-3.618,8.084-8.084,8.084H342.232
	c-4.466,0-8.084-3.618-8.084-8.084c0-4.466,3.618-8.084,8.084-8.084h78.535c4.079-42.284,39.814-75.453,83.149-75.453
	C508.382,53.895,512,57.513,512,61.979z M512,406.905v21.558c0,16.344-13.298,29.642-29.642,29.642H29.642
	C13.298,458.105,0,444.807,0,428.463v-21.558c0-16.344,13.298-29.642,29.642-29.642h239.832v-99.705
	c0-16.344,13.298-29.642,29.642-29.642H460.8c16.344,0,29.642,13.298,29.642,29.642v100.825C502.87,381.911,512,393.363,512,406.905
	z M495.832,406.905c0-7.43-6.044-13.474-13.474-13.474h-32.337c-4.466,0-8.084-3.618-8.084-8.084s3.618-8.084,8.084-8.084h24.253
	v-99.705c0-7.43-6.044-13.474-13.474-13.474h-8.084v35.032c0,4.466-3.618,8.084-8.084,8.084s-8.084-3.618-8.084-8.084v-35.032H409.6
	v67.368c0,4.466-3.618,8.084-8.084,8.084s-8.084-3.618-8.084-8.084v-67.368h-26.947v35.032c0,4.466-3.618,8.084-8.084,8.084
	c-4.466,0-8.084-3.618-8.084-8.084v-35.032h-26.947v67.368c0,4.466-3.618,8.084-8.084,8.084c-4.466,0-8.084-3.618-8.084-8.084
	v-67.368h-8.084c-7.43,0-13.474,6.044-13.474,13.474v99.705h132.042c4.466,0,8.084,3.618,8.084,8.084s-3.618,8.084-8.084,8.084
	H29.642c-7.43,0-13.474,6.044-13.474,13.474v2.695h218.274c4.466,0,8.084,3.618,8.084,8.084c0,4.466-3.618,8.084-8.084,8.084H16.168
	v2.695c0,7.43,6.044,13.474,13.474,13.474h452.716c7.43,0,13.474-6.044,13.474-13.474V406.905z"/>
<g>
</g>
<g>
</g>
<g>
</g>
<g>
</g>
<g>
</g>
<g>
</g>
<g>
</g>
<g>
</g>
<g>
</g>
<g>
</g>
<g>
</g>
<g>
</g>
<g>
</g>
<g>
</g>
<g>
</g>
</svg>
