<?xml version="1.0" encoding="iso-8859-1"?>
<!-- Generator: Adobe Illustrator 19.0.0, SVG Export Plug-In . SVG Version: 6.00 Build 0)  -->
<svg version="1.1" id="Layer_1" xmlns="http://www.w3.org/2000/svg" xmlns:xlink="http://www.w3.org/1999/xlink" x="0px" y="0px"
	 viewBox="0 0 512 512" style="enable-background:new 0 0 512 512;" xml:space="preserve">
<g>
	<path style="fill:#E4AD40;" d="M83.422,191.243l-19.29,10.595c-2.98,1.655-6.621,1.655-9.601,0l-19.3-10.595l10.604,19.29
		c1.646,2.989,1.646,6.612,0,9.601l-10.604,19.3l19.3-10.604c1.49-0.828,3.145-1.237,4.801-1.237s3.311,0.409,4.801,1.237
		l19.29,10.604l-10.595-19.3c-1.646-2.989-1.646-6.612,0-9.601L83.422,191.243z"/>
	<path style="fill:#E4AD40;" d="M422.447,91.529l-19.29,10.595c-2.98,1.655-6.621,1.655-9.601,0l-19.3-10.595l10.604,19.29
		c1.646,2.989,1.646,6.612,0,9.601l-10.604,19.3l19.3-10.604c1.49-0.828,3.145-1.237,4.801-1.237c1.655,0,3.311,0.409,4.801,1.237
		l19.29,10.604l-10.595-19.3c-1.646-2.989-1.646-6.612,0-9.601L422.447,91.529z"/>
</g>
<path style="fill:#EAEAEA;" d="M470.24,198.536c33.858-69.332,27.363-147.583-14.49-174.44c-8.296-5.326-33.702-1.967-58.299,1.266
	c-21.014,2.785-44.832,5.93-68.894,5.93s-47.88-3.145-68.894-5.93c-24.568-3.223-49.983-6.602-58.299-1.266
	c-42.612,27.343-48.591,106.656-13.311,176.796c0.935,1.85,1.256,3.953,0.945,5.998c-2.658,17.226-4.002,37.11-4.002,59.098
	c0,77.93,17.781,151.683,48.357,203.497c11.091-100.736,43.342-194.324,95.205-194.324c52.447,0,84.727,95.098,95.526,197.236
	c31.657-51.902,50.081-126.755,50.081-206.408c0-22.903-1.607-43.537-4.781-61.328C469.013,202.577,469.315,200.435,470.24,198.536z
	 M456.441,160.179c2.142,3.885,1.451,8.715-1.685,11.851c-1.918,1.918-4.47,2.921-7.05,2.921c-1.646,0-3.291-0.399-4.801-1.237
	l-44.55-24.49l-44.559,24.49c-3.866,2.152-8.705,1.461-11.851-1.685c-3.135-3.135-3.827-7.965-1.685-11.851l24.49-44.559
	l-24.49-44.55c-2.142-3.885-1.451-8.715,1.685-11.851c3.135-3.145,7.965-3.837,11.851-1.685l44.559,24.48l44.55-24.48
	c3.885-2.142,8.715-1.451,11.851,1.685c3.136,3.135,3.827,7.965,1.685,11.851l-24.48,44.55L456.441,160.179z"/>
<g>
	<path style="fill:#314E55;" d="M454.757,59.22c-3.135-3.135-7.965-3.827-11.851-1.685l-44.55,24.48l-44.559-24.48
		c-3.885-2.152-8.715-1.461-11.851,1.685c-3.135,3.135-3.827,7.965-1.685,11.851l24.49,44.55l-24.49,44.559
		c-2.142,3.885-1.451,8.715,1.685,11.851c3.145,3.145,7.985,3.837,11.851,1.685l44.559-24.49l44.55,24.49
		c1.509,0.837,3.155,1.237,4.801,1.237c2.581,0,5.132-1.003,7.05-2.921c3.135-3.135,3.827-7.965,1.685-11.851l-24.48-44.559
		l24.48-44.55C458.584,67.185,457.892,62.355,454.757,59.22z M411.853,120.421l10.595,19.3l-19.29-10.604
		c-1.49-0.828-3.145-1.237-4.801-1.237c-1.655,0-3.311,0.409-4.801,1.237l-19.3,10.604l10.604-19.3c1.646-2.989,1.646-6.612,0-9.601
		l-10.604-19.29l19.3,10.595c2.98,1.655,6.621,1.655,9.601,0l19.29-10.595l-10.595,19.29
		C410.207,113.809,410.207,117.431,411.853,120.421z"/>
	<path style="fill:#314E55;" d="M115.732,158.933c-3.135-3.135-7.965-3.827-11.851-1.685l-44.55,24.48l-44.559-24.48
		c-3.885-2.162-8.715-1.461-11.851,1.685c-3.135,3.135-3.827,7.965-1.685,11.851l24.49,44.55l-24.49,44.559
		c-2.142,3.885-1.451,8.715,1.685,11.851c3.145,3.145,7.975,3.837,11.851,1.685l44.559-24.49l44.55,24.49
		c1.509,0.837,3.155,1.237,4.801,1.237c2.581,0,5.132-1.003,7.05-2.921c3.135-3.135,3.827-7.965,1.685-11.851l-24.48-44.559
		l24.48-44.55C119.559,166.898,118.867,162.068,115.732,158.933z M72.828,220.134l10.595,19.3l-19.29-10.604
		c-1.49-0.828-3.145-1.237-4.801-1.237s-3.311,0.409-4.801,1.237l-19.3,10.604l10.604-19.3c1.646-2.989,1.646-6.612,0-9.601
		l-10.604-19.29l19.3,10.595c2.98,1.656,6.621,1.656,9.601,0l19.29-10.595l-10.595,19.29
		C71.182,213.522,71.182,217.145,72.828,220.134z"/>
	<path style="fill:#314E55;" d="M466.52,7.308c-14.451-9.251-39.7-5.94-71.688-1.714c-20.4,2.697-43.527,5.755-66.274,5.755
		c-22.747,0-45.874-3.058-66.274-5.755c-32.008-4.236-57.228-7.547-71.689,1.714c-51.201,32.855-60.539,120.123-21.773,199.69
		c-2.503,17.479-3.768,37.305-3.768,58.991c0,94.406,25.357,183.525,67.822,238.387c2.541,3.272,6.826,4.655,10.78,3.437
		c3.953-1.198,6.768-4.713,7.05-8.842c9.027-127.612,46.673-203.867,77.852-203.867c31.511,0,69.303,77.141,78.008,206.224
		c0.282,4.099,3.048,7.615,6.972,8.842c0.983,0.312,1.987,0.458,2.98,0.458c2.98,0,5.862-1.334,7.79-3.749
		c43.702-54.686,69.799-144.74,69.799-240.889c0-22.728-1.529-43.44-4.538-61.63C526.718,125.689,516.834,39.598,466.52,7.308z
		 M424.083,472.397c-10.799-102.138-43.079-197.236-95.526-197.236c-51.863,0-84.114,93.588-95.205,194.324
		c-30.576-51.814-48.357-125.567-48.357-203.497c0-21.988,1.344-41.872,4.002-59.098c0.312-2.045-0.01-4.148-0.945-5.998
		c-35.28-70.14-29.301-149.453,13.311-176.796c8.316-5.336,33.731-1.957,58.299,1.266c21.014,2.785,44.832,5.93,68.894,5.93
		c24.062,0,47.88-3.145,68.894-5.93c24.597-3.233,50.003-6.592,58.299-1.266c41.852,26.856,48.347,105.108,14.49,174.44
		c-0.925,1.899-1.227,4.041-0.857,6.125c3.174,17.791,4.781,38.425,4.781,61.328C474.164,345.642,455.74,420.495,424.083,472.397z"
		/>
</g>
<g>
</g>
<g>
</g>
<g>
</g>
<g>
</g>
<g>
</g>
<g>
</g>
<g>
</g>
<g>
</g>
<g>
</g>
<g>
</g>
<g>
</g>
<g>
</g>
<g>
</g>
<g>
</g>
<g>
</g>
</svg>
