<?xml version="1.0" encoding="iso-8859-1"?>
<!-- Generator: Adobe Illustrator 19.0.0, SVG Export Plug-In . SVG Version: 6.00 Build 0)  -->
<svg version="1.1" id="Layer_1" xmlns="http://www.w3.org/2000/svg" xmlns:xlink="http://www.w3.org/1999/xlink" x="0px" y="0px"
	 viewBox="0 0 511.999 511.999" style="enable-background:new 0 0 511.999 511.999;" xml:space="preserve">
<path style="fill:#F25B22;" d="M256,351.002c34.939,0,63.334,28.395,63.334,63.334S290.94,477.671,256,477.671
	s-63.335-28.395-63.335-63.335S221.06,351.002,256,351.002z"/>
<path style="fill:#FFD311;" d="M256,192.665c34.939,0,63.334,28.395,63.334,63.335S290.94,319.335,256,319.335
	S192.665,290.94,192.665,256S221.06,192.665,256,192.665z"/>
<path style="fill:#36C63F;" d="M256,34.328c34.939,0,63.334,28.395,63.334,63.335S290.94,160.998,256,160.998
	s-63.335-28.395-63.335-63.335S221.06,34.328,256,34.328z"/>
<path style="fill:#EF3B25;" d="M234.889,414.337c0-27.528,17.658-50.927,42.224-59.643c-6.614-2.347-13.699-3.691-21.112-3.691
	c-34.939,0-63.335,28.395-63.335,63.334S221.06,477.672,256,477.672c7.411,0,14.498-1.344,21.112-3.691
	C252.547,465.264,234.889,441.865,234.889,414.337z"/>
<path style="fill:#FABD1B;" d="M234.889,256c0-27.528,17.658-50.927,42.224-59.643c-6.614-2.347-13.699-3.691-21.112-3.691
	c-34.939,0-63.335,28.395-63.335,63.335S221.06,319.336,256,319.336c7.411,0,14.498-1.344,21.112-3.691
	C252.547,306.927,234.889,283.528,234.889,256z"/>
<path style="fill:#00AC4E;" d="M256,160.997c7.411,0,14.498-1.344,21.112-3.691c-24.565-8.716-42.224-32.115-42.224-59.643
	s17.658-50.927,42.224-59.643c-6.614-2.348-13.699-3.691-21.112-3.691c-34.939,0-63.335,28.395-63.335,63.335
	S221.06,160.997,256,160.997z"/>
<g>
	<path style="fill:#AFB6BB;" d="M377.392,71.274h82.758c-9.289,26.706-31.245,58.057-82.758,58.057V71.274z"/>
	<path style="fill:#AFB6BB;" d="M377.392,229.611h82.758c-9.289,26.706-31.245,58.057-82.758,58.057V229.611z"/>
	<path style="fill:#AFB6BB;" d="M377.392,393.225h82.758c-9.289,26.707-31.245,58.057-82.758,58.057V393.225z"/>
	<path style="fill:#AFB6BB;" d="M134.608,393.225v58.057c-51.512,0-73.469-31.351-82.758-58.057H134.608z"/>
	<path style="fill:#AFB6BB;" d="M134.608,229.611v58.057c-51.512,0-73.469-31.351-82.758-58.057L134.608,229.611L134.608,229.611z"
		/>
	<path style="fill:#AFB6BB;" d="M134.608,71.274v58.057c-51.512,0-73.469-31.351-82.758-58.057H134.608z"/>
</g>
<g>
	<path style="fill:#595E62;" d="M377.392,356.28h89.724c0,0,0,17.206-6.967,36.945h-82.758V356.28z"/>
	<path style="fill:#595E62;" d="M134.608,356.28v36.945H51.851c-6.967-19.739-6.967-36.945-6.967-36.945H134.608z"/>
	<path style="fill:#595E62;" d="M134.608,192.665v36.945H51.851c-6.967-19.739-6.967-36.945-6.967-36.945H134.608z"/>
	<path style="fill:#595E62;" d="M377.392,192.665h89.724c0,0,0,17.206-6.967,36.945h-82.758V192.665z"/>
	<path style="fill:#595E62;" d="M377.392,34.328h89.724c0,0,0,17.206-6.967,36.945h-82.758V34.328z"/>
	<path style="fill:#595E62;" d="M134.608,34.328v36.945H51.851c-6.967-19.739-6.967-36.945-6.967-36.945H134.608z"/>
</g>
<path style="fill:#7E8488;" d="M366.837,7.938H256H145.164c-5.806,0-10.556,4.75-10.556,10.556v15.833v36.945v58.057v63.335v36.945
	v58.057v68.613v36.945v58.057v42.224c0,5.806,4.75,10.556,10.556,10.556H256h110.836c5.806,0,10.556-4.75,10.556-10.556v-42.224
	v-58.057v-36.945v-68.613V229.61v-36.945v-63.335V71.274V34.328V18.494C377.392,12.689,372.642,7.938,366.837,7.938z M256,477.671
	c-34.939,0-63.335-28.395-63.335-63.335c0-34.939,28.395-63.334,63.335-63.334c34.939,0,63.334,28.395,63.334,63.334
	C319.335,449.276,290.94,477.671,256,477.671z M256,319.334c-34.939,0-63.335-28.395-63.335-63.335S221.06,192.664,256,192.664
	c34.939,0,63.334,28.395,63.334,63.335S290.94,319.334,256,319.334z M256,160.997c-34.939,0-63.335-28.395-63.335-63.335
	S221.06,34.326,256,34.326c34.939,0,63.334,28.395,63.334,63.335S290.94,160.997,256,160.997z"/>
<path style="fill:#707679;" d="M192.665,414.337c0-34.939,28.395-63.334,63.335-63.334v-31.668
	c-34.939,0-63.335-28.395-63.335-63.335S221.06,192.665,256,192.665v-31.668c-34.939,0-63.335-28.395-63.335-63.335
	S221.06,34.326,256,34.326V7.938H145.164c-5.806,0-10.556,4.75-10.556,10.556v15.833v36.945v58.057v63.335v36.945v58.057v68.613
	v36.945v58.057v42.224c0,5.806,4.75,10.556,10.556,10.556H256v-26.389C221.06,477.671,192.665,449.276,192.665,414.337z"/>
<g>
	<path style="fill:#FFFFFF;" d="M237.55,97.663h-15.877c0-18.928,15.399-34.328,34.328-34.328v15.877
		C245.826,79.212,237.55,87.488,237.55,97.663z"/>
	<path style="fill:#FFFFFF;" d="M237.55,256h-15.877c0-18.929,15.399-34.329,34.328-34.329v15.877
		C245.826,237.549,237.55,245.826,237.55,256z"/>
	<path style="fill:#FFFFFF;" d="M237.55,414.337h-15.877c0-18.929,15.399-34.329,34.328-34.329v15.877
		C245.826,395.885,237.55,404.163,237.55,414.337z"/>
	<rect x="155.719" y="31.668" style="fill:#FFFFFF;" width="21.112" height="15.877"/>
	<rect x="335.168" y="464.457" style="fill:#FFFFFF;" width="21.112" height="15.877"/>
	<rect x="335.168" y="168.896" style="fill:#FFFFFF;" width="21.112" height="15.877"/>
	<rect x="155.719" y="327.229" style="fill:#FFFFFF;" width="21.112" height="15.877"/>
</g>
<path d="M256,184.726c-39.3,0-71.273,31.974-71.273,71.274s31.974,71.273,71.273,71.273S327.273,295.3,327.273,256
	C327.273,216.7,295.301,184.726,256,184.726z M256,311.396c-30.546,0-55.396-24.851-55.396-55.396
	c0-30.546,24.851-55.397,55.396-55.397s55.396,24.851,55.396,55.397S286.546,311.396,256,311.396z"/>
<path d="M256,26.39c-39.3,0-71.273,31.972-71.273,71.273s31.974,71.274,71.273,71.274s71.273-31.974,71.273-71.274
	S295.301,26.39,256,26.39z M256,153.059c-30.546,0-55.396-24.851-55.396-55.397c0-30.545,24.851-55.396,55.396-55.396
	s55.396,24.851,55.396,55.396C311.396,128.209,286.546,153.059,256,153.059z"/>
<path d="M256,343.064c-39.3,0-71.273,31.974-71.273,71.274s31.974,71.273,71.273,71.273s71.273-31.972,71.273-71.273
	S295.301,343.064,256,343.064z M256,469.733c-30.546,0-55.396-24.85-55.396-55.396S225.456,358.94,256,358.94
	s55.396,24.851,55.396,55.397C311.396,444.882,286.546,469.733,256,469.733z"/>
<path d="M439.759,116.354c12.379-10.569,21.762-24.859,27.876-42.438c7.335-20.783,7.42-38.83,7.42-39.587V26.39h-89.724v-7.896
	C385.33,8.296,377.034,0,366.837,0H145.164c-10.197,0-18.494,8.296-18.494,18.494v7.896H36.946v7.938
	c0,0.758,0.085,18.805,7.407,39.553c6.126,17.614,15.509,31.904,27.888,42.472c14.509,12.388,32.797,19.308,54.428,20.655v47.718
	H36.945v7.938c0,0.758,0.085,18.805,7.407,39.553c6.126,17.614,15.509,31.904,27.888,42.472
	c14.509,12.388,32.797,19.308,54.428,20.655v52.996H36.943v7.938c0,0.758,0.085,18.805,7.407,39.553
	c6.126,17.614,15.509,31.904,27.888,42.472c14.509,12.389,32.797,19.309,54.428,20.656v34.544c0,10.198,8.296,18.494,18.494,18.494
	h221.676c10.197,0,18.494-8.296,18.494-18.494V458.96c21.631-1.346,39.919-8.266,54.428-20.656
	c12.379-10.569,21.762-24.859,27.876-42.438c7.335-20.783,7.42-38.83,7.42-39.587v-7.938h-89.724v-52.996
	c21.632-1.346,39.919-8.268,54.428-20.655c12.379-10.569,21.762-24.859,27.876-42.438c7.335-20.783,7.42-38.83,7.42-39.587v-7.938
	h-89.724v-47.718C406.962,135.662,425.249,128.742,439.759,116.354z M458.628,42.267c-0.582,5.286-1.783,12.771-4.25,21.068h-50.597
	v15.877h44.542c-12.293,25.745-33.419,39.802-62.993,41.894V42.267H458.628z M63.68,79.212h44.538V63.335H57.622
	c-2.45-8.258-3.653-15.763-4.239-21.068h73.287v78.839C97.106,119.014,75.982,104.964,63.68,79.212z M63.68,237.549h44.538v-15.877
	H57.622c-2.45-8.258-3.653-15.763-4.239-21.068h73.287v78.839C97.106,277.351,75.982,263.301,63.68,237.549z M63.68,401.164h44.538
	v-15.877H57.622c-2.45-8.258-3.653-15.763-4.239-21.068h73.287v78.84C97.106,440.967,75.982,426.916,63.68,401.164z
	 M369.453,493.506c0,1.418-1.198,2.618-2.618,2.618H145.164c-1.418,0-2.618-1.199-2.618-2.618V18.494
	c0-1.418,1.198-2.618,2.618-2.618h221.672c1.418,0,2.618,1.199,2.618,2.618v475.012H369.453z M458.628,364.218
	c-0.582,5.286-1.783,12.771-4.25,21.068h-50.597v15.877h44.542c-12.293,25.746-33.419,39.803-62.993,41.895v-78.84H458.628z
	 M458.628,200.603c-0.582,5.286-1.783,12.771-4.25,21.068h-50.597v15.877h44.542c-12.293,25.745-33.419,39.802-62.993,41.894
	v-78.839H458.628z"/>
<rect x="335.168" y="31.668" width="21.112" height="15.877"/>
<rect x="155.719" y="464.457" width="21.112" height="15.877"/>
<rect x="155.719" y="168.896" width="21.112" height="15.877"/>
<rect x="335.168" y="327.229" width="21.112" height="15.877"/>
<g>
</g>
<g>
</g>
<g>
</g>
<g>
</g>
<g>
</g>
<g>
</g>
<g>
</g>
<g>
</g>
<g>
</g>
<g>
</g>
<g>
</g>
<g>
</g>
<g>
</g>
<g>
</g>
<g>
</g>
</svg>
