<?xml version="1.0" encoding="iso-8859-1"?>
<!-- Generator: Adobe Illustrator 19.1.0, SVG Export Plug-In . SVG Version: 6.00 Build 0)  -->
<svg version="1.1" id="Capa_1" xmlns="http://www.w3.org/2000/svg" xmlns:xlink="http://www.w3.org/1999/xlink" x="0px" y="0px"
	 viewBox="0 0 477.98 477.98" style="enable-background:new 0 0 477.98 477.98;" xml:space="preserve">
<g>
	<g id="XMLID_6_">
		<g>
			<path style="fill:#4785DD;" d="M402.591,450.79l5.69,11.94h-109.96l5.69-11.94c1.75-3.68,5.52-6.06,9.6-6.06h79.38
				C397.071,444.73,400.841,447.11,402.591,450.79z"/>
			<rect x="65.321" y="402.95" style="fill:#4785DD;" width="11.77" height="34.5"/>
			<path style="fill:#E55A42;" d="M204.091,354.33c21.72,0,39.4,17.68,39.4,39.4s-17.68,39.39-39.4,39.39s-39.4-17.67-39.4-39.39
				S182.371,354.33,204.091,354.33z"/>
			<path style="fill:#E55A42;" d="M243.091,262.06v57.31c-11.66-6.15-24.93-9.64-39-9.64c-46.32,0-84,37.68-84,84
				c0,28.56,14.33,53.81,36.17,69h-44.84c-10.66,0-19.33-8.67-19.33-19.33v-83.23c0-62,50.44-112.44,112.44-112.44h24.23
				C236.661,247.73,243.091,254.16,243.091,262.06z"/>
			<path d="M426.931,467c1.11,2.33,0.94,5.06-0.43,7.23c-1.37,2.18-3.77,3.5-6.34,3.5h-133.71c-2.58,0-4.97-1.32-6.35-3.5
				c-1.37-2.17-1.53-4.9-0.43-7.23l10.8-22.66c4.23-8.88,13.31-14.61,23.14-14.61h16.69V97.63c0-28.33-23.05-51.38-51.39-51.38
				c-28.33,0-51.39,23.05-51.39,51.38v135.1h1.24c16.17,0,29.33,13.16,29.33,29.33v67.39c18.33,15.42,30,38.51,30,64.28
				c0,46.32-37.68,84-84,84h-92.67c-15.8,0-29.13-10.73-33.11-25.28h-20.49c-4.15,0-7.5-3.36-7.5-7.5v-49.5c0-4.14,3.35-7.5,7.5-7.5
				h19.27v-27.78c0-62.42,45.11-114.5,104.43-125.36V97.63c0-53.69,43.69-97.38,97.39-97.38s97.39,43.69,97.39,97.38v332.1h16.69
				c9.83,0,18.92,5.73,23.14,14.61L426.931,467z M408.281,462.73l-5.69-11.94c-1.75-3.68-5.52-6.06-9.6-6.06h-79.38
				c-4.08,0-7.85,2.38-9.6,6.06l-5.69,11.94H408.281z M361.301,429.73V120.75h-16v308.98H361.301z M361.301,105.75v-8.12
				c0-42.89-32.96-78.22-74.89-82.02v16.08c33.09,3.74,58.89,31.88,58.89,65.94v8.12H361.301z M271.411,31.69V15.61
				c-41.92,3.8-74.89,39.13-74.89,82.02v135.36c2.65-0.17,5.32-0.26,8.01-0.26h7.99V97.63
				C212.521,63.57,238.331,35.43,271.411,31.69z M273.091,393.73c0-38.05-30.95-69-69-69s-69,30.95-69,69s30.95,69,69,69
				S273.091,431.78,273.091,393.73z M243.091,319.37v-57.31c0-7.9-6.43-14.33-14.33-14.33h-24.23c-62,0-112.44,50.44-112.44,112.44
				v83.23c0,10.66,8.67,19.33,19.33,19.33h44.84c-21.84-15.19-36.17-40.44-36.17-69c0-46.32,37.68-84,84-84
				C218.161,309.73,231.431,313.22,243.091,319.37z M77.091,437.45v-34.5h-11.77v34.5H77.091z"/>
			<path d="M204.091,339.33c29.99,0,54.4,24.4,54.4,54.4c0,29.99-24.41,54.39-54.4,54.39c-30,0-54.4-24.4-54.4-54.39
				C149.691,363.73,174.091,339.33,204.091,339.33z M243.491,393.73c0-21.72-17.68-39.4-39.4-39.4s-39.4,17.68-39.4,39.4
				s17.68,39.39,39.4,39.39S243.491,415.45,243.491,393.73z"/>
		</g>
		<g>
		</g>
	</g>
</g>
<g>
</g>
<g>
</g>
<g>
</g>
<g>
</g>
<g>
</g>
<g>
</g>
<g>
</g>
<g>
</g>
<g>
</g>
<g>
</g>
<g>
</g>
<g>
</g>
<g>
</g>
<g>
</g>
<g>
</g>
</svg>
