<?xml version="1.0" encoding="iso-8859-1"?>
<!-- Generator: Adobe Illustrator 19.0.0, SVG Export Plug-In . SVG Version: 6.00 Build 0)  -->
<svg version="1.1" id="Capa_1" xmlns="http://www.w3.org/2000/svg" xmlns:xlink="http://www.w3.org/1999/xlink" x="0px" y="0px"
	 viewBox="0 0 512 512" style="enable-background:new 0 0 512 512;" xml:space="preserve">
<path style="fill:#FFCFAB;" d="M176.602,122.634c5.977-2.961,12.705-4.634,19.826-4.634c8.82,0,17.036,2.563,23.966,6.969
	c20.621-7.781,35.293-27.69,35.293-51.035c0-30.121-24.418-54.539-54.539-54.539s-54.539,24.418-54.539,54.539
	C146.609,95.223,158.814,113.65,176.602,122.634z"/>
<path style="opacity:0.1;enable-background:new    ;" d="M176.602,122.634c5.95-2.948,12.646-4.617,19.733-4.631
	c-13.584-9.919-22.413-25.96-22.413-44.068c0-25.405,17.371-46.753,40.883-52.814c-4.364-1.125-8.94-1.725-13.656-1.725
	c-30.121,0-54.539,24.418-54.539,54.539C146.609,95.223,158.814,113.65,176.602,122.634z"/>
<path style="fill:#E23C38;" d="M254.551,62.572V49.354c0-23.116-18.739-41.854-41.854-41.854h-24.232
	c-23.115,0-41.855,18.739-41.855,41.854v13.218H254.551z"/>
<g style="opacity:0.1;">
	<path d="M214.275,7.54c-0.524-0.019-1.049-0.04-1.579-0.04h-24.232c-23.115,0-41.855,18.739-41.855,41.854v13.218H174V49.354
		C174,26.769,191.894,8.372,214.275,7.54z"/>
</g>
<path style="fill:#34A1D7;" d="M291.163,369.753c-1.695-10.933-8.342-24.031-16.161-31.85l-39.121-39.121h-35.556v28.719
	l42.49,42.49c1.178,1.279,3.11,5.09,3.435,6.724L262.948,484.5c0.834-1.607,2.496-2.724,4.423-2.724h41.147L291.163,369.753z"/>
<path style="opacity:0.1;enable-background:new    ;" d="M268.14,376.714c-0.324-1.634-2.257-5.444-3.434-6.724l-64.38-64.378
	v21.889l42.49,42.489c1.178,1.279,3.11,5.09,3.435,6.724l16.698,107.785c0.834-1.607,2.496-2.724,4.423-2.724h17.045L268.14,376.714
	z"/>
<path style="fill:#08375E;" d="M326,499.5c0,2.75-2.25,5-5,5h-53.629c-2.75,0-5-2.25-5-5v-12.725c0-2.75,2.25-5,5-5H321
	c2.75,0,5,2.25,5,5V499.5z"/>
<path style="fill:#34A1D7;" d="M154.877,298.782v43.834c-0.072,1.737-1.4,5.797-2.326,7.184L77.667,452.14l0.082,0.06
	c1.664-1.101,3.902-1.153,5.63,0.057l33.404,23.391l72.444-99.008c6.533-8.927,11.097-22.889,11.097-33.952v-43.905h-45.448V298.782
	z"/>
<path style="opacity:0.1;enable-background:new    ;" d="M176.551,298.782h-21.674v43.834c-0.072,1.737-1.4,5.797-2.326,7.184
	L77.667,452.14l0.082,0.06c1.664-1.101,3.902-1.153,5.63,0.057l33.404,23.391l2.728-3.728l-20.169-14.758l74.883-102.34
	c0.927-1.387,2.254-5.447,2.326-7.184L176.551,298.782z"/>
<path style="fill:#08375E;" d="M121.24,500.404c-1.578,2.252-4.711,2.805-6.964,1.228l-43.931-30.76
	c-2.253-1.577-2.805-4.711-1.228-6.963l7.298-10.424c1.578-2.253,4.711-2.805,6.964-1.228l43.93,30.761
	c2.253,1.577,2.806,4.711,1.227,6.963L121.24,500.404z"/>
<path style="fill:#CB7C52;" d="M151.699,162.73c0-5.677,1.068-11.101,2.997-16.097c-2.339-3.226-6.126-5.341-10.393-5.341h-37.248
	c-7.066,0-12.845,5.78-12.845,12.844v62.249c1.218-0.386,2.512-0.597,3.854-0.597h16.697c7.064,0,12.845,5.78,12.845,12.845v47.524
	c0,4.196-2.049,7.928-5.186,10.275h21.883c2.75,0,5.3-0.884,7.396-2.371L151.699,162.73L151.699,162.73z"/>
<g style="opacity:0.1;">
	<path d="M98.064,215.787h16.697c2.68,0,5.174,0.835,7.238,2.254v-63.906c0-7.064,5.779-12.844,12.845-12.844h-27.789
		c-7.066,0-12.845,5.78-12.845,12.844v62.249C95.429,215.998,96.723,215.787,98.064,215.787z"/>
</g>
<path style="fill:#EF5A50;" d="M241.159,298.782V162.73c0-24.703-20.024-44.73-44.73-44.73c-24.702,0-44.729,20.026-44.729,44.73
	v136.053L241.159,298.782L241.159,298.782z"/>
<g style="opacity:0.1;">
	<path d="M207.35,119.349c-3.496-0.877-7.152-1.349-10.921-1.349c-24.702,0-44.729,20.026-44.729,44.73v136.053h21.841V162.73
		C173.54,141.794,187.926,124.223,207.35,119.349z"/>
</g>
<path style="fill:#AB5436;" d="M222.693,210.985l-2.441-2.441C209.05,216.991,195.113,222,180,222
	c-10.116,0-19.701-2.255-28.301-6.27v27c8.6,4.014,18.185,6.27,28.301,6.27c22.74,0,42.816-11.342,54.925-28.667
	C230.281,217.546,226.092,214.384,222.693,210.985z"/>
<path style="fill:#E23C38;" d="M337.574,201.255c0-1.266,0.492-2.413,1.274-3.296h-65.311c-7.906,0-21.151-5.486-26.741-11.077
	l-26.701-26.701c-6.655-6.655-17.447-6.656-24.104,0.001c-6.656,6.656-6.656,17.447,0,24.104l26.701,26.7
	c12.006,12.007,33.863,21.061,50.845,21.061h64.036v-30.792H337.574z"/>
<path style="opacity:0.1;enable-background:new    ;" d="M337.574,216h-58.291c-16.981,0-38.839-9.054-50.845-21.061l-26.701-26.7
	c-2.547-2.547-4.11-5.7-4.709-8.994c-0.353,0.3-0.703,0.604-1.036,0.937c-6.656,6.656-6.656,17.447,0,24.104l26.701,26.7
	c12.006,12.007,33.863,21.061,50.845,21.061h64.036L337.574,216L337.574,216z"/>
<g>
	<path style="fill:#CB7C52;" d="M364.389,196.255c0.602,0,1.171,0.124,1.706,0.321v-11.67c0-6.264-5.077-11.342-11.341-11.342
		s-11.342,5.078-11.342,11.342v11.349H364.389z"/>
	<path style="fill:#CB7C52;" d="M364.389,240h-20.977v253.158c0,6.264,5.078,11.342,11.342,11.342s11.341-5.078,11.341-11.342
		v-253.48C365.56,239.876,364.99,240,364.389,240z"/>
</g>
<path style="fill:#FFCFAB;" d="M369.389,235c0,2.75-2.25,5-5,5h-21.815c-2.75,0-5-2.25-5-5v-33.745c0-2.75,2.25-5,5-5h21.815
	c2.75,0,5,2.25,5,5V235z"/>
<path style="fill:#FFBB4A;" d="M127.606,276.156c0,7.064-5.78,12.844-12.845,12.844H98.064C91,289,85.22,283.22,85.22,276.156
	v-47.524c0-7.064,5.78-12.845,12.845-12.845h16.697c7.064,0,12.845,5.78,12.845,12.845L127.606,276.156L127.606,276.156z"/>
<g style="opacity:0.1;">
	<path d="M101.613,276.156v-47.524c0-7.064,5.78-12.845,12.845-12.845H98.064c-7.064,0-12.845,5.78-12.845,12.845v47.524
		C85.22,283.22,91,289,98.064,289h16.394C107.394,289,101.613,283.22,101.613,276.156z"/>
</g>
<path d="M482.109,497H373.198c0.259-1.241,0.396-2.525,0.396-3.842V409c0-4.142-3.357-7.5-7.5-7.5s-7.5,3.358-7.5,7.5v84.158
	c0,2.118-1.723,3.842-3.841,3.842s-3.842-1.724-3.842-3.842V247.5h7.683V378c0,4.142,3.357,7.5,7.5,7.5s7.5-3.358,7.5-7.5V243.426
	c2.038-2.225,3.294-5.178,3.294-8.426v-33.745c0-3.248-1.256-6.201-3.294-8.426v-7.923c0-10.389-8.452-18.842-18.841-18.842
	c-10.39,0-18.842,8.453-18.842,18.842v5.553h-62.374c-5.869,0-17.289-4.73-21.437-8.88l-3.441-3.441V162.73
	c0-14.055-5.591-26.822-14.653-36.22c17.508-10.978,29.182-30.431,29.182-52.575c0-1.298-0.048-2.584-0.127-3.862H300
	c4.143,0,7.5-3.358,7.5-7.5s-3.357-7.5-7.5-7.5h-37.949v-5.718C262.051,22.14,239.91,0,212.696,0h-24.232
	c-27.215,0-49.355,22.14-49.355,49.354c0,0,0,24.101,0,24.58c0,19.79,9.318,37.439,23.795,48.805
	c-3.805,3.196-7.16,6.909-9.929,11.051h-45.92c-11.218,0-20.345,9.126-20.345,20.344v1.245H65.113c-4.143,0-7.5,3.358-7.5,7.5
	s3.357,7.5,7.5,7.5h21.598v11.132h-7.963c-4.143,0-7.5,3.358-7.5,7.5s3.357,7.5,7.5,7.5h7.963v15.246
	c-5.42,3.659-8.991,9.856-8.991,16.874v47.524c0,11.218,9.127,20.344,20.345,20.344h16.697c3.581,0,6.944-0.938,9.87-2.569h19.567
	v4.851c0,2.531,1.257,4.765,3.178,6.123v10.967H126.47c-4.143,0-7.5,3.358-7.5,7.5s3.357,7.5,7.5,7.5h20.907v9.997h-12.953
	c-4.143,0-7.5,3.358-7.5,7.5s3.357,7.5,7.5,7.5h4.394l-66.92,91.457c-0.593,0.564-1.147,1.174-1.625,1.857l-7.298,10.424
	c-1.912,2.73-2.646,6.047-2.065,9.338c0.58,3.292,2.404,6.159,5.135,8.07L94.585,497H29.891c-4.143,0-7.5,3.358-7.5,7.5
	s3.357,7.5,7.5,7.5h452.219c4.143,0,7.5-3.358,7.5-7.5S486.252,497,482.109,497z M120.106,276.156c0,2.947-2.397,5.344-5.345,5.344
	H98.064c-2.947,0-5.345-2.397-5.345-5.344v-47.524c0-2.947,2.397-5.345,5.345-5.345h16.697c2.947,0,5.345,2.398,5.345,5.345V276.156
	z M144.199,162.73v116.202h-9.305c0.125-0.91,0.212-1.832,0.212-2.775v-47.524c0-11.218-9.127-20.345-20.345-20.345H101.71v-11.775
	h5.443c4.143,0,7.5-3.358,7.5-7.5s-3.357-7.5-7.5-7.5h-5.443V170.38h5.443c4.143,0,7.5-3.358,7.5-7.5s-3.357-7.5-7.5-7.5h-5.443
	v-1.245c0-2.947,2.397-5.344,5.345-5.344h37.248c0.603,0,1.171,0.122,1.712,0.307C144.838,153.446,144.199,158.014,144.199,162.73z
	 M350.911,184.906c0-2.118,1.724-3.842,3.842-3.842s3.841,1.724,3.841,3.842v3.849h-7.683V184.906z M345.074,203.755h16.815V232.5
	h-16.815V203.755z M273.538,205.46h56.536v19.087h-56.536c-14.96,0-34.964-8.286-45.542-18.864l-26.7-26.7
	c-1.803-1.803-2.796-4.199-2.796-6.749s0.993-4.946,2.796-6.749c1.802-1.803,4.199-2.796,6.748-2.796
	c2.55,0,4.946,0.993,6.748,2.795l26.701,26.7C248.439,199.132,263.713,205.46,273.538,205.46z M154.109,49.354
	c0-18.943,15.412-34.354,34.355-34.354h24.232c18.943,0,34.354,15.412,34.354,34.354v5.718h-92.941L154.109,49.354L154.109,49.354z
	 M154.109,73.935c0-1.302,0.073-2.587,0.179-3.862h93.721c0.105,1.275,0.179,2.56,0.179,3.862c0,18.886-11.196,35.192-27.293,42.668
	c-7.304-3.889-15.63-6.103-24.466-6.103c-6.874,0-13.436,1.341-19.452,3.765C163.289,106.032,154.109,91.038,154.109,73.935z
	 M159.199,162.73c0-20.528,16.701-37.23,37.229-37.23c20.529,0,37.23,16.701,37.23,37.23v0.409l-8.26-8.26
	c-4.636-4.636-10.799-7.189-17.355-7.189s-12.72,2.553-17.355,7.189c-4.636,4.636-7.189,10.799-7.189,17.355
	s2.553,12.719,7.189,17.355l17.651,17.651c-8.562,4.661-18.272,7.26-28.341,7.26c-7.186,0-14.158-1.286-20.801-3.778V162.73H159.199
	z M159.199,226.552c6.719,1.959,13.68,2.948,20.801,2.948c14.151,0,27.736-4.097,39.354-11.348c1.456,1.328,3.007,2.615,4.642,3.855
	C212.895,234.196,197.005,241.5,180,241.5c-7.184,0-14.16-1.259-20.801-3.747V226.552z M159.199,253.518
	c6.721,1.964,13.677,2.982,20.801,2.982c20.572,0,39.844-8.53,53.659-22.868V248c0,4.142,3.357,7.5,7.5,7.5s7.5-3.358,7.5-7.5
	v-13.023c8.381,2.901,17.017,4.569,24.879,4.569h57.404c0.979,2.495,2.733,4.596,4.97,6.012v247.6c0,1.316,0.138,2.601,0.396,3.842
	H333.5v-10.225c0-6.893-5.607-12.5-12.5-12.5h-6.054l-16.372-105.671c-1.946-12.555-9.288-27.023-18.268-36.004l-31.902-31.902
	c0.161-0.612,0.256-1.253,0.256-1.916V279c0-4.142-3.357-7.5-7.5-7.5s-7.5,3.358-7.5,7.5v12.282h-74.46L159.199,253.518
	L159.199,253.518z M268.954,474.275l-15.293-98.71c-0.016-0.104-0.034-0.208-0.055-0.311c-0.6-3.024-3.163-8.051-5.273-10.343
	c-0.069-0.076-0.142-0.151-0.214-0.224l-40.294-40.293v-18.112h24.948l36.925,36.924c6.692,6.692,12.603,18.34,14.054,27.695
	l16.015,103.374L268.954,474.275L268.954,474.275z M81.126,459.835l39.834,27.893l-4.43,6.328l-39.835-27.892L81.126,459.835z
	 M136.746,484.944c-0.58-3.292-2.404-6.159-5.135-8.07l-4.253-2.978l20.83-28.467c2.446-3.343,1.719-8.036-1.624-10.481
	c-3.342-2.446-8.036-1.72-10.482,1.624l-21.015,28.719L90.12,447.822l67.283-91.953h12.242c4.143,0,7.5-3.358,7.5-7.5
	s-3.357-7.5-7.5-7.5h-7.27v-9.997h8.406c4.143,0,7.5-3.358,7.5-7.5s-3.357-7.5-7.5-7.5h-8.406v-9.59h30.448v36.405
	c0,9.467-4.058,21.882-9.649,29.523l-29.531,40.36c-2.446,3.343-1.719,8.036,1.624,10.481c3.342,2.446,8.036,1.719,10.481-1.624
	l29.531-40.36c6.954-9.503,11.785-23.444,12.456-35.548l29.522,29.522c0.479,0.675,1.36,2.399,1.638,3.2l16.35,105.542
	c-0.237,0.961-0.377,1.96-0.377,2.992V497H132.779l1.9-2.715C136.593,491.554,137.326,488.237,136.746,484.944z M269.871,497v-7.725
	H318.5V497H269.871z"/>
<g>
</g>
<g>
</g>
<g>
</g>
<g>
</g>
<g>
</g>
<g>
</g>
<g>
</g>
<g>
</g>
<g>
</g>
<g>
</g>
<g>
</g>
<g>
</g>
<g>
</g>
<g>
</g>
<g>
</g>
</svg>
