<?xml version="1.0" encoding="iso-8859-1"?>
<!-- Generator: Adobe Illustrator 19.0.0, SVG Export Plug-In . SVG Version: 6.00 Build 0)  -->
<svg version="1.1" id="Capa_1" xmlns="http://www.w3.org/2000/svg" xmlns:xlink="http://www.w3.org/1999/xlink" x="0px" y="0px"
	 viewBox="0 0 512 512" style="enable-background:new 0 0 512 512;" xml:space="preserve">
<g>
	<g>
		<g>
			<path d="M486.4,85.333H25.6c-14.138,0-25.6,11.462-25.6,25.6v290.133c0,14.138,11.461,25.6,25.6,25.6h460.8
				c14.138,0,25.6-11.462,25.6-25.6V110.933C512,96.795,500.539,85.333,486.4,85.333z M494.933,401.067
				c0,4.713-3.82,8.533-8.533,8.533H264.533V136.533c0-4.713-3.82-8.533-8.533-8.533s-8.533,3.82-8.533,8.533V409.6H25.6
				c-4.713,0-8.533-3.821-8.533-8.533V110.933c0-4.713,3.82-8.533,8.533-8.533h460.8c4.713,0,8.533,3.82,8.533,8.533V401.067z"/>
			<path d="M128,264.533h17.067c23.552-0.028,42.638-19.114,42.667-42.667v-34.133c-0.028-23.552-19.114-42.638-42.667-42.667H128
				c-23.552,0.028-42.638,19.114-42.667,42.667v34.133C85.362,245.419,104.448,264.505,128,264.533z M102.4,187.733
				c0-14.138,11.461-25.6,25.6-25.6h17.067c14.138,0,25.6,11.461,25.6,25.6v34.133c0,14.139-11.462,25.6-25.6,25.6H128
				c-14.138,0-25.6-11.461-25.6-25.6V187.733z"/>
			<path d="M172.672,281.6h-72.277c-22.994,0.591-41.177,19.671-40.661,42.667v42.667c0,4.713,3.82,8.533,8.533,8.533
				s8.533-3.82,8.533-8.533v-42.667c-0.515-13.57,10.027-25.009,23.595-25.6h72.277c13.567,0.591,24.11,12.029,23.595,25.6V358.4
				h-31.625c-4.713,0-8.533,3.82-8.533,8.533s3.82,8.533,8.533,8.533H204.8c4.713,0,8.533-3.82,8.533-8.533v-42.667
				C213.849,301.271,195.666,282.191,172.672,281.6z"/>
			<path d="M452.267,153.6h-153.6c-4.713,0-8.533,3.82-8.533,8.533c0,4.713,3.82,8.533,8.533,8.533h153.6
				c4.713,0,8.533-3.82,8.533-8.533C460.8,157.42,456.979,153.6,452.267,153.6z"/>
			<path d="M452.267,204.8h-153.6c-4.713,0-8.533,3.82-8.533,8.533s3.82,8.533,8.533,8.533h153.6c4.713,0,8.533-3.82,8.533-8.533
				S456.979,204.8,452.267,204.8z"/>
			<path d="M452.267,256h-153.6c-4.713,0-8.533,3.82-8.533,8.533s3.82,8.533,8.533,8.533h153.6c4.713,0,8.533-3.82,8.533-8.533
				S456.979,256,452.267,256z"/>
			<path d="M452.267,307.2h-76.8c-4.713,0-8.533,3.82-8.533,8.533s3.82,8.533,8.533,8.533h76.8c4.713,0,8.533-3.82,8.533-8.533
				S456.979,307.2,452.267,307.2z"/>
		</g>
	</g>
</g>
<g>
</g>
<g>
</g>
<g>
</g>
<g>
</g>
<g>
</g>
<g>
</g>
<g>
</g>
<g>
</g>
<g>
</g>
<g>
</g>
<g>
</g>
<g>
</g>
<g>
</g>
<g>
</g>
<g>
</g>
</svg>
